<?xml version="1.0" encoding="utf-8"?>
<!-- Generator: Adobe Illustrator 16.0.3, SVG Export Plug-In . SVG Version: 6.00 Build 0)  -->
<!DOCTYPE svg PUBLIC "-//W3C//DTD SVG 1.1//EN" "http://www.w3.org/Graphics/SVG/1.1/DTD/svg11.dtd">
<svg version="1.1" xmlns="http://www.w3.org/2000/svg" xmlns:xlink="http://www.w3.org/1999/xlink" x="0px" y="0px" width="128px"
	 height="128px" viewBox="0 0 128 128" enable-background="new 0 0 128 128" xml:space="preserve">
<g id="Ebene_4" display="none">
	<linearGradient id="SVGID_1_" gradientUnits="userSpaceOnUse" x1="64.0005" y1="119" x2="64.0005" y2="9.0005">
		<stop  offset="0.3" style="stop-color:#426080"/>
		<stop  offset="1" style="stop-color:#819CBD"/>
	</linearGradient>
	<path display="inline" fill="url(#SVGID_1_)" d="M119,104c0,8.284-6.716,15-15,15H24c-8.284,0-15-6.716-15-15V24
		c0-8.284,6.716-15,15-15h80c8.284,0,15,6.716,15,15V104z"/>
	<g display="inline">
		<path fill="#FFFFFF" d="M40,26.809c7.481-2.382,14.851-3.515,22.336-3.515C79.455,23.294,90,29.755,90,43.248
			c0,7.144-3.515,12.472-12.129,20.634c-7.711,7.373-8.28,10.43-8.28,14.514v1.133H54.74v-1.133c0-7.82,1.473-11.793,8.162-18.82
			c5.557-5.783,8.503-9.524,8.503-13.945c0-6.579-5.218-8.846-13.039-8.846c-5.442,0-11.563,1.361-17.234,4.081L40,26.809z"/>
		<g>
			<path fill="#FFFFFF" d="M71.166,100.311c0,1.234-0.409,2.279-1.23,3.114c-0.831,0.855-1.845,1.284-3.043,1.284h-9.631
				c-1.201,0-2.218-0.44-3.044-1.31c-0.823-0.871-1.235-1.896-1.235-3.089v-9.406c0-1.236,0.412-2.278,1.235-3.116
				c0.826-0.852,1.843-1.27,3.044-1.27h9.631c1.198,0,2.212,0.418,3.043,1.27c0.821,0.838,1.23,1.88,1.23,3.116V100.311z"/>
		</g>
	</g>
</g>
<g id="Ebene_2">
	<g>
		<linearGradient id="SVGID_2_" gradientUnits="userSpaceOnUse" x1="64.0005" y1="119" x2="64.0005" y2="9.0005">
			<stop  offset="0.3" style="stop-color:#426080"/>
			<stop  offset="1" style="stop-color:#819CBD"/>
		</linearGradient>
		<path fill="url(#SVGID_2_)" d="M104,9H24C15.716,9,9,15.716,9,24v80c0,8.284,6.716,15,15,15h80c8.284,0,15-6.716,15-15V24
			C119,15.716,112.284,9,104,9z"/>
	</g>
	<g>
		<path fill="#FFFFFF" d="M76,102.889c0,1.578-0.549,2.911-1.636,3.977c-1.089,1.091-2.429,1.635-4.011,1.635H57.647
			c-1.582,0-2.925-0.562-4.012-1.665c-1.088-1.112-1.635-2.422-1.635-3.946V62.102c0-1.578,0.547-2.9,1.635-3.98
			c1.087-1.088,2.43-1.622,4.012-1.622h12.706c1.582,0,2.922,0.534,4.011,1.622c1.087,1.08,1.636,2.402,1.636,3.98V102.889z"/>
		<path fill="#FFFFFF" d="M76,39.422c0,1.631-0.549,3.008-1.636,4.109c-1.089,1.127-2.429,1.689-4.011,1.689H57.647
			c-1.582,0-2.925-0.58-4.012-1.721C52.547,42.35,52,40.999,52,39.422V27.007c0-1.63,0.547-2.996,1.635-4.112
			c1.087-1.124,2.43-1.675,4.012-1.675h12.706c1.582,0,2.922,0.552,4.011,1.675C75.451,24.011,76,25.377,76,27.007V39.422z"/>
	</g>
</g>
</svg>
