<?xml version="1.0" encoding="utf-8"?>
<!-- Generator: Adobe Illustrator 16.0.3, SVG Export Plug-In . SVG Version: 6.00 Build 0)  -->
<!DOCTYPE svg PUBLIC "-//W3C//DTD SVG 1.1//EN" "http://www.w3.org/Graphics/SVG/1.1/DTD/svg11.dtd">
<svg version="1.1" xmlns="http://www.w3.org/2000/svg" xmlns:xlink="http://www.w3.org/1999/xlink" x="0px" y="0px" width="128px"
	 height="128px" viewBox="0 0 128 128" enable-background="new 0 0 128 128" xml:space="preserve">
<g id="Ebene_4" display="none">
	<g display="inline">
		<path fill="#404547" d="M83.771,68.232c-1.478-0.417-2.861-0.809-4.216-1.49c-1.795-0.906-7.521-5.125-6.706-6.005
			c4.153-4.499,5.755-5.678,7.833-10.778l0.654-1.614l1.461-0.762c1.223-0.636,2.853-3.06,3.729-7.052
			c0.503-2.279,0.608-4.581,0.286-6.314c-0.236-1.239-0.613-1.896-0.895-2.093l-1.703-1.214l-0.264-2.211
			C82.632,17.027,75.951,9,64.033,9c-11.927,0-18.605,8.023-19.94,19.687l-0.257,2.226l-1.728,1.211
			c-0.277,0.196-0.659,0.847-0.892,2.092c-0.32,1.736-0.219,4.038,0.285,6.317c0.888,4,2.512,6.423,3.733,7.053l1.477,0.759
			l0.663,1.623c2.073,5.1,3.845,6.45,7.825,10.766c1.067,1.157-4.901,5.096-6.701,6.007c-1.369,0.687-2.756,1.076-4.219,1.491
			c-4.07,1.139-8.684,2.439-14.287,10.972c-4.208,6.423-6.143,28.463-6.384,39.796h60.947h19.834
			c-0.122-8.007-1.5-32.427-6.339-39.796C92.463,70.674,87.848,69.372,83.771,68.232z"/>
	</g>
	<g display="inline">
		
			<linearGradient id="SVGID_1_" gradientUnits="userSpaceOnUse" x1="131.377" y1="4.5537" x2="131.377" y2="-87.7832" gradientTransform="matrix(0.7071 -0.7071 0.7071 0.7071 0.5283 205.333)">
			<stop  offset="0.3" style="stop-color:#426080"/>
			<stop  offset="1" style="stop-color:#819CBD"/>
		</linearGradient>
		<path fill="url(#SVGID_1_)" d="M99.004,57.448L73.451,83.009l25.555,25.561c0.666,0.666,0.996,1.455,0.994,2.365
			c0,0.912-0.328,1.699-0.994,2.36l-4.728,4.729c-0.661,0.66-1.456,0.991-2.38,0.977c-0.924-0.012-1.703-0.336-2.34-0.977L64,92.457
			l-25.555,25.566c-0.663,0.66-1.458,0.99-2.379,0.977c-0.923-0.012-1.706-0.336-2.346-0.977l-4.723-4.729
			c-0.664-0.662-0.997-1.449-0.997-2.36c0-0.91,0.334-1.699,0.997-2.365l25.555-25.561L28.998,57.448
			C28.334,56.784,28,55.996,28,55.084c0-0.91,0.334-1.698,0.997-2.363l4.724-4.719C34.384,47.334,35.171,47,36.083,47
			s1.7,0.334,2.364,1.002L64,73.552l25.558-25.549C90.221,47.334,91.008,47,91.918,47c0.91,0.001,1.699,0.334,2.36,1.002
			l4.726,4.719c0.641,0.641,0.965,1.424,0.977,2.347C99.994,55.989,99.672,56.784,99.004,57.448z"/>
	</g>
</g>
<g id="Ebene_5" display="none">
	<g display="inline">
		<g>
			<linearGradient id="SVGID_2_" gradientUnits="userSpaceOnUse" x1="90.6016" y1="128" x2="90.6016" y2="52.96">
				<stop  offset="0" style="stop-color:#C9070A"/>
				<stop  offset="1" style="stop-color:#DF6A6C"/>
			</linearGradient>
			<path fill="url(#SVGID_2_)" d="M104.62,90.954l21.928,21.998c0.968,0.961,1.452,2.106,1.452,3.434
				c0,1.325-0.484,2.447-1.452,3.363l-6.8,6.805c-0.914,0.965-2.053,1.446-3.405,1.446c-1.345,0-2.482-0.481-3.4-1.446
				l-21.992-21.92l-21.999,21.92c-0.918,0.965-2.052,1.446-3.402,1.446c-1.349,0-2.481-0.481-3.4-1.446l-6.803-6.805
				c-0.964-0.916-1.444-2.038-1.444-3.363c0-1.327,0.48-2.473,1.444-3.434l21.93-21.998L54.646,68.012
				c-0.964-0.967-1.444-2.111-1.444-3.439c0-1.323,0.48-2.47,1.444-3.437l6.803-6.803c0.919-0.915,2.051-1.374,3.4-1.374
				c1.351,0,2.484,0.459,3.402,1.374L90.95,77.351l21.992-22.002c0.918-0.915,2.056-1.374,3.4-1.374
				c1.353,0,2.491,0.459,3.405,1.374l6.8,6.803c0.968,0.967,1.452,2.113,1.452,3.437c0,1.327-0.484,2.472-1.452,3.438L104.62,90.954
				z"/>
		</g>
	</g>
</g>
<g id="Ebene_4_Kopie" display="none">
	<g display="inline">
		
			<linearGradient id="SVGID_3_" gradientUnits="userSpaceOnUse" x1="144.8057" y1="16.5127" x2="144.8057" y2="-126.6108" gradientTransform="matrix(-0.7071 -0.7071 0.7071 -0.7071 205.3184 127.4785)">
			<stop  offset="0.3" style="stop-color:#426080"/>
			<stop  offset="1" style="stop-color:#819CBD"/>
		</linearGradient>
		<path fill="url(#SVGID_3_)" d="M22.69,10.313l41.309,41.302l41.314-41.305c0.867-0.867,1.897-1.303,3.097-1.301
			c1.197,0.005,2.225,0.428,3.093,1.301l6.203,6.203c0.861,0.861,1.292,1.908,1.277,3.116c0,1.214-0.436,2.234-1.278,3.072
			L76.385,64.01l41.32,41.298c0.86,0.873,1.304,1.903,1.278,3.126c-0.012,1.202-0.438,2.232-1.278,3.073l-6.203,6.196
			c-0.868,0.871-1.896,1.299-3.093,1.305c-1.198,0-2.229-0.441-3.097-1.305L63.999,76.396l-41.31,41.309
			c-0.871,0.87-1.905,1.3-3.106,1.306c-1.189,0.001-2.224-0.44-3.089-1.304l-6.188-6.197c-0.881-0.871-1.321-1.91-1.321-3.101
			c0.005-1.196,0.44-2.22,1.32-3.1l41.294-41.3L10.307,22.703c-0.881-0.87-1.315-1.896-1.321-3.097
			c0.001-1.189,0.44-2.225,1.321-3.092l6.188-6.2c0.836-0.837,1.87-1.266,3.073-1.283C20.779,9.022,21.819,9.439,22.69,10.313z"/>
	</g>
	<g display="inline">
		<linearGradient id="SVGID_4_" gradientUnits="userSpaceOnUse" x1="64.0005" y1="98.5781" x2="64.0005" y2="29.4224">
			<stop  offset="0.3" style="stop-color:#426080"/>
			<stop  offset="1" style="stop-color:#819CBD"/>
		</linearGradient>
		<path fill="url(#SVGID_4_)" d="M64.012,98.578c-12.699,0-20.38-2.949-23.484-9.015c-2.456-4.8-1.028-9.733,0.406-12.782
			c-3.542-6.573-11.104-23.261-4.3-35.445c4.414-7.906,13.623-11.914,27.37-11.914c13.746,0,22.953,4.008,27.365,11.913
			c6.8,12.182-0.765,28.867-4.311,35.443c1.439,3.051,2.876,7.986,0.423,12.789C84.384,95.63,76.707,98.578,64.012,98.578z"/>
		<g>
			<path d="M64.004,34.422c43.416,0,17.303,42.345,17.303,42.345s12.164,16.812-17.294,16.812S46.683,76.767,46.683,76.767
				S20.588,34.422,64.004,34.422 M64.004,24.422c-15.694,0-26.372,4.871-31.735,14.476c-7.284,13.044-0.959,29.753,3.166,38.107
				c-1.554,4.494-1.902,9.861,0.643,14.836c6.005,11.737,22.511,11.737,27.935,11.737c5.423,0,21.927,0,27.922-11.738
				c2.542-4.977,2.188-10.346,0.626-14.842c4.129-8.357,10.453-25.061,3.175-38.101C90.374,29.292,79.697,24.422,64.004,24.422
				L64.004,24.422z"/>
		</g>
	</g>
	<g display="inline">
		<path fill="#404547" d="M-63.622,102.198l-25.553,25.561l25.555,25.561c0.666,0.666,0.996,1.455,0.994,2.365
			c0,0.912-0.328,1.699-0.994,2.36l-4.728,4.729c-0.661,0.66-1.456,0.991-2.38,0.977c-0.924-0.012-1.703-0.336-2.34-0.977
			l-25.558-25.566l-25.555,25.566c-0.663,0.66-1.458,0.99-2.379,0.977c-0.923-0.012-1.706-0.336-2.346-0.977l-4.723-4.729
			c-0.664-0.662-0.997-1.449-0.997-2.36c0-0.91,0.334-1.699,0.997-2.365l25.555-25.561l-25.554-25.561
			c-0.664-0.664-0.998-1.452-0.998-2.364c0-0.91,0.334-1.698,0.997-2.363l4.724-4.719c0.663-0.668,1.451-1.002,2.362-1.002
			s1.7,0.334,2.364,1.002l25.554,25.55l25.558-25.55c0.662-0.668,1.449-1.002,2.359-1.002c0.91,0.001,1.699,0.334,2.36,1.002
			l4.726,4.719c0.641,0.642,0.965,1.424,0.977,2.348C-62.631,100.739-62.954,101.534-63.622,102.198z"/>
	</g>
</g>
<g id="Ebene_4_Kopie_Kopie">
	<linearGradient id="SVGID_5_" gradientUnits="userSpaceOnUse" x1="64.0005" y1="120" x2="64.0005" y2="8.0005">
		<stop  offset="0.3" style="stop-color:#426080"/>
		<stop  offset="1" style="stop-color:#819CBD"/>
	</linearGradient>
	<path fill="url(#SVGID_5_)" d="M117.72,55.88c-1.455-1.473-3.302-2.229-5.472-2.229H74.349V15.752c0-2.15-0.747-4.002-2.22-5.504
		C70.615,8.753,68.758,8,66.597,8h-5.184c-2.167,0-4.028,0.753-5.531,2.237c-1.484,1.513-2.231,3.365-2.231,5.515v37.899H15.768
		c-2.092,0-3.93,0.75-5.461,2.23C8.775,57.366,8,59.225,8,61.407v5.183c0,2.213,0.768,4.074,2.284,5.53
		c1.448,1.471,3.3,2.226,5.484,2.226h37.884v37.887c0,2.076,0.743,3.911,2.208,5.455c1.542,1.541,3.403,2.313,5.553,2.313h5.184
		c2.146,0,4.004-0.763,5.522-2.266c1.482-1.509,2.229-3.357,2.229-5.502V74.346h37.899c2.172,0,4.019-0.755,5.489-2.243
		c1.496-1.44,2.263-3.301,2.263-5.513v-5.183C120,59.197,119.233,57.338,117.72,55.88z"/>
</g>
</svg>
