<svg id="Layer_1" data-name="Layer 1" xmlns="http://www.w3.org/2000/svg" xmlns:xlink="http://www.w3.org/1999/xlink" viewBox="0 0 512 512"><defs><linearGradient id="linear-gradient" x1="256" y1="8.95" x2="256" y2="502.68" gradientUnits="userSpaceOnUse"><stop offset="0" stop-color="#728dae"/><stop offset="1" stop-color="#426080"/></linearGradient></defs><title>1</title><path d="M383.38,399.64c0,4.27-2.35,3.52-4.78,3.52-32.18,0-64.36.08-96.53-.09-4.73,0-6.56,1.17-6.25,6.19.25,4,.4,8,1,12,.94,6.73,3.26,12.1,9.32,16.66,18.89,14.2,19,38,.47,52.68-17.22,13.69-36.94,16.4-57.71,10.33-8.82-2.58-17.18-6.48-23.78-13.65-14-15.19-13.14-35.41,2.78-48.52,5.64-4.65,11.89-8.76,14.22-16,1.76-5.47,2.87-11.19,1.85-17.1-.57-3.39-3-2.45-5-2.45-28.16,0-56.31-.14-84.47.08-4.53,0-5.78-1.06-5.74-5.69.23-30.67.2-61.34.07-92a9.12,9.12,0,0,1,3.87-8c13.95-10.91,35.17-7.55,45.06,7.28,7.26,10.9,17.25,17.63,30.45,15.6,15.79-2.43,26.2-12.66,32.16-27.25a68.11,68.11,0,0,0,4.76-33.75c-2-11.69-6.07-22.5-14.06-31.55-11.93-13.49-31.39-15.77-45.09-6.44-4.38,3-7.53,7.56-10.3,12.15a8.82,8.82,0,0,1-5.37,4.09c-9.81,3-19.76,4.56-29.5.51-7.58-3.16-12.32-6.46-12.14-17.15.56-31.82.38-63.65.1-95.48-.05-5.33,1.58-6.18,6.41-6.14,28.81.22,57.63,0,86.44.23,4.42,0,6.78-1.6,8.55-5.24,5.31-11,4.16-22.1,1.17-33.32-.58-2.21-2.76-2.8-4.36-3.91-8.34-5.78-15.25-12.72-17.5-23-2.77-12.71,2-23,11.11-31.59,20.55-19.36,60.07-19.43,80.88-.3,17.84,16.41,15.9,39.4-4.55,53.8a30.58,30.58,0,0,0-9.18,39.15c1.73,3.17,3.8,4.41,7.51,4.39,27.8-.16,55.62,0,83.42-.14,3.2,0,4.71.39,4.7,4.22-.11,44.56,0,89.12,0,133.68a19.07,19.07,0,0,1-.2,2C383.15,306.14,383.16,352.9,383.38,399.64Z" style="fill:url(#linear-gradient)"/><rect x="511.56" width="0.44" height="0.44" style="fill:none"/><rect width="0.44" height="0.44" style="fill:none"/><rect y="511.56" width="0.44" height="0.44" style="fill:none"/><rect x="511.56" y="511.56" width="0.44" height="0.44" style="fill:none"/></svg>