<svg xmlns="http://www.w3.org/2000/svg" xmlns:xlink="http://www.w3.org/1999/xlink" viewBox="0 0 496.65 496"><defs><linearGradient id="linear-gradient" x1="248.32" y1="-15.71" x2="248.32" y2="505.27" gradientUnits="userSpaceOnUse"><stop offset="0" stop-color="#728dae"/><stop offset="1" stop-color="#426080"/></linearGradient></defs><title>Asset 1</title><g id="Layer_2" data-name="Layer 2"><g id="Layer_1-2" data-name="Layer 1"><path d="M494.08,213.68a231.83,231.83,0,0,0-16.32-60c-14-34-34.44-63.69-61.87-88.19-61.61-55-133.66-75.87-214.62-60.63C127.79,18.67,71.71,59.37,33.65,123.79,6.53,169.69-4,219.6,1.36,272.76c.2,1.68.42,3.36.61,5,4.5,39.09,16.91,75.49,39.6,107.67C99.31,467.41,178.54,505,278.33,494.2c73-7.88,130.74-44.14,173.3-104.08A260,260,0,0,0,477,344.44c10.09-22.83,14.92-47.06,18.08-71.69C497.89,253,496.5,233.3,494.08,213.68Zm-113.65,59c-3.19,3.76-7.26,5-12.16,5-28.29-.1-56.57,0-84.86-.14-4.44,0-6,.86-5.93,5.72.23,28.11.09,56.23.06,84.34,0,10.8-3.85,14.59-14.76,14.6-10.16,0-20.32,0-30.48,0-9.1,0-13.33-4.27-13.35-13.44-.05-28.62-.14-57.24,0-85.87,0-4.17-1-5.37-5.28-5.34-28.45.2-56.91,0-85.35.22-5.15.05-9.05-1.32-12.3-5.09a25.46,25.46,0,0,1-1.71-9.91c.1-10.51.19-21-.05-31.51-.16-7,3.41-12.3,11.91-12.25,9.15.06,18.3,0,27.45,0,19.65,0,39.31-.16,59,.11,4.91.07,6.59-.87,6.53-6.28-.34-27.95-.19-55.9-.19-83.86a29.87,29.87,0,0,1,.24-5.05c1-6.23,3.11-8.92,9.37-9.3a283.61,283.61,0,0,1,38.56.05c7.15.54,10.44,5.29,10.44,13.06,0,28.3.09,56.59-.15,84.88-.05,4.9.85,6.59,6.26,6.53,27.95-.32,55.91-.15,83.86-.14,10.72,0,14.62,4,14.62,14.77,0,9.49-.07,19,0,28.47A31.92,31.92,0,0,1,380.43,272.67Z" style="fill:url(#linear-gradient)"/></g></g></svg>