<?xml version="1.0" encoding="utf-8"?>
<!-- Generator: Adobe Illustrator 16.0.3, SVG Export Plug-In . SVG Version: 6.00 Build 0)  -->
<!DOCTYPE svg PUBLIC "-//W3C//DTD SVG 1.1//EN" "http://www.w3.org/Graphics/SVG/1.1/DTD/svg11.dtd">
<svg version="1.1" xmlns="http://www.w3.org/2000/svg" xmlns:xlink="http://www.w3.org/1999/xlink" x="0px" y="0px" width="128px"
	 height="128px" viewBox="0 0 128 128" enable-background="new 0 0 128 128" xml:space="preserve">
<g id="Ebene_5">
</g>
<g id="Ebene_4" display="none">
	<g display="inline">
		<path fill="#404547" d="M117.065,40.363l-66.493,66.388c-1.288,1.289-3.188,1.896-5.693,1.826
			c-2.291-0.067-4.046-0.682-5.264-1.826L10.932,78.067C9.644,76.779,9,75.205,9,73.343c0-1.861,0.644-3.438,1.932-4.728l9.563-9.56
			c1.288-1.286,2.863-1.933,4.727-1.933c1.861,0,3.437,0.646,4.727,1.933l15.147,15.148l52.959-52.853
			c1.288-1.29,2.863-1.933,4.724-1.933c1.861,0,3.438,0.644,4.729,1.933l9.559,9.453c1.288,1.362,1.935,2.956,1.935,4.781
			C119,37.412,118.354,39.003,117.065,40.363z"/>
	</g>
</g>
<g id="Ebene_4_Kopie">
	<g>
		<path fill="#404547" d="M20.316,64.33c1.35-1.348,2.948-2.038,4.797-2.003c1.827-0.012,3.414,0.659,4.756,2.001l15.393,15.395
			l52.865-52.865c1.342-1.343,2.93-2.006,4.756-2.021c1.861,0.01,3.459,0.662,4.805,2.009l3.664,3.667
			c1.354,1.35,2.002,2.956,2,4.828c-0.049,1.857-0.709,3.445-2.004,4.738c0,0-59.37,59.372-60.272,60.274s-2.817,2.812-5.812,2.812
			s-4.972-1.973-5.808-2.809S16.65,77.547,16.65,77.547c-1.342-1.34-2.011-2.932-2.001-4.756c-0.034-1.85,0.653-3.445,2.003-4.795
			L20.316,64.33z"/>
	</g>
</g>
</svg>
