<?xml version="1.0" encoding="utf-8"?>
<!-- Generator: Adobe Illustrator 16.0.3, SVG Export Plug-In . SVG Version: 6.00 Build 0)  -->
<!DOCTYPE svg PUBLIC "-//W3C//DTD SVG 1.1//EN" "http://www.w3.org/Graphics/SVG/1.1/DTD/svg11.dtd">
<svg version="1.1" xmlns="http://www.w3.org/2000/svg" xmlns:xlink="http://www.w3.org/1999/xlink" x="0px" y="0px" width="128px"
	 height="128px" viewBox="0 0 128 128" enable-background="new 0 0 128 128" xml:space="preserve">
<g id="Ebene_2">
</g>
<g id="Ebene_1" display="none">
	<path display="inline" fill="#00325A" d="M92.679,87.327c-7.366-10.271-12.264-8.001-16.785-10.088
		c-4.522-2.087-3.479-9.045-3.479-9.045L64,66.9l-8.414,1.294c0,0,1.043,6.958-3.479,9.045s-9.419-0.184-16.786,10.088
		c-5.739,8.002-4.174,31.657-4.174,31.657h27.699h10.308h27.699C96.854,118.984,98.418,95.329,92.679,87.327z"/>
	<path display="inline" fill="#00325A" d="M64,75.122c-22.125,0-33.547-52.514,0-52.514C97.547,22.608,86.125,75.122,64,75.122z"/>
	<path display="inline" fill="#00325A" d="M52.502,49.407c1.09,4.508-3.872,9.576-5.982,10.087c-2.111,0.51-4.707-2.73-5.797-7.238
		c-1.09-4.507-0.262-8.576,1.849-9.086C44.682,42.658,51.412,44.899,52.502,49.407z"/>
	<path display="inline" fill="#00325A" d="M75.479,49.407c-1.09,4.508,3.871,9.576,5.982,10.087c2.111,0.51,4.707-2.73,5.797-7.238
		c1.09-4.507,0.262-8.576-1.85-9.086C83.3,42.658,76.569,44.899,75.479,49.407z"/>
	<path display="inline" fill="#00325A" d="M223.679,89.327c-7.366-10.271-13.264-9.001-17.785-11.088
		c-2.108-0.974-3-4.004-3.359-5.896c4.097-2.794,7.432-7.449,9.633-12.821c1.954-0.247,5.354-15.843,3.242-16.354
		c-0.109-0.026-0.239-0.041-0.372-0.053C214.43,32.16,205.291,22.608,194,22.608s-20.43,9.551-21.037,20.505
		c-0.141,0.012-0.275,0.028-0.391,0.056c-2.111,0.51,1.303,16.125,3.262,16.355c2.201,5.373,5.535,10.027,9.632,12.82
		c-0.358,1.893-1.25,4.923-3.358,5.896c-4.521,2.087-10.42,0.816-17.786,11.088c-5.739,8.002-6.175,30.657-6.175,30.657h71.707
		C229.854,119.984,229.418,97.329,223.679,89.327z"/>
	<g display="inline">
		<path fill="#00325A" d="M194.001,22.606c-19.357-1.105-24.721,13.453-23.131,23.04c1.535,9.259,2.372,18.077-1.027,20.854
			c2.94,1.36,5.03-0.705,6.514-1.619c-0.487,5.913-7.833,8.132-7.833,8.132c3.67,3.332,15.468,2.379,17.829-1.508
			C188.714,67.617,194.001,22.606,194.001,22.606z"/>
		<path fill="#00325A" d="M194.046,22.606c19.357-1.105,24.721,13.453,23.131,23.04c-1.535,9.259-2.372,18.077,1.027,20.854
			c-2.94,1.36-5.03-0.705-6.514-1.619c0.487,5.913,7.833,8.132,7.833,8.132c-3.67,3.332-15.468,2.379-17.829-1.508
			C199.333,67.617,194.046,22.606,194.046,22.606z"/>
	</g>
	<g display="inline">
		<path fill="#9BA096" d="M252.393,75.464c3.485,3.055,13.354,3.584,16.631,0.549c0,0-7.203-2.219-7.68-8.132
			c1.453,0.914,3.504,2.979,6.387,1.619c-3.333-2.777-2.513-11.595-1.008-20.854c1.559-9.587-3.699-24.145-22.677-23.04
			c0,0,0,0.003,0.004,0.004c-0.019,0-0.033-0.002-0.049-0.002v-0.001c-18.978-1.105-24.235,13.453-22.677,23.04
			c1.505,9.259,2.325,18.077-1.005,20.854c2.877,1.36,4.928-0.705,6.384-1.619c-0.479,5.913-7.68,8.132-7.68,8.132
			c3.26,3.02,13.042,2.511,16.575-0.501C237.535,73.314,249.756,72.992,252.393,75.464z"/>
		<path fill="#9BA096" d="M271.425,91.327c-4.226-10.086-11.844-8.419-14.786-9.088s-3.945-7.829-4.323-9.728
			c0,0-5.485-8.329-8.403-9.445v-0.037c-0.013,0.004-0.026,0.014-0.039,0.019c-0.013-0.004-0.026-0.014-0.039-0.019v0.037
			c-2.918,1.117-8.403,9.445-8.403,9.445c-0.378,1.898-1.381,9.059-4.323,9.728s-10.561-0.998-14.786,9.088
			c-3.848,9.184-4.175,28.657-4.175,28.657h31.688h0.078H275.6C275.6,119.984,275.272,100.511,271.425,91.327z"/>
	</g>
	<path display="inline" fill="#9BA096" d="M-20.085,90.063c-4.709-11.239-13.198-9.381-16.478-10.127
		c-2.138-0.487-3.353-4.041-4.06-7.048c4.347,2.946,14.401,3.314,17.862,0.108c0,0-8.027-4.746-8.559-11.337
		c1.62,1.02,3.905,3.32,7.118,1.806c-3.715-3.096-3.938-10.648-2.261-20.967c1.736-10.684-2.985-26.908-24.135-25.675
		c0,0,0,0.003,0.004,0.004c-0.02,0-0.037-0.003-0.054-0.003v-0.001c-21.148-1.232-25.872,14.991-24.134,25.675
		c1.678,10.319,1.454,17.871-2.257,20.967c3.207,1.515,5.492-0.786,7.114-1.806c-0.534,6.591-8.559,11.337-8.559,11.337
		c3.362,3.114,12.936,2.855,17.467,0.141c-0.714,2.95-1.922,6.326-4,6.799c-3.279,0.746-11.769-1.112-16.479,10.127
		C-85.781,100.299-86.146,122-86.146,122h35.313h0.086h35.314C-15.432,122-15.796,100.299-20.085,90.063z"/>
</g>
<g id="Ebene_1_Kopie">
</g>
<g id="Ebene_4" display="none">
	<linearGradient id="SVGID_1_" gradientUnits="userSpaceOnUse" x1="64.0005" y1="111.4629" x2="64.0005" y2="17.1178">
		<stop  offset="0.3" style="stop-color:#426080"/>
		<stop  offset="1" style="stop-color:#819CBD"/>
	</linearGradient>
	<path display="inline" fill="url(#SVGID_1_)" d="M110.406,30.914H64.859v-6.016c0-4.746-3.847-8.594-8.594-8.594H17.594
		C12.848,16.305,9,20.152,9,24.898v14.609v5.156v0.859v42.969v14.609c0,4.746,3.848,8.594,8.594,8.594h92.813
		c4.747,0,8.594-3.848,8.594-8.594V45.523v-0.859v-5.156C119,34.762,115.153,30.914,110.406,30.914z"/>
	<g display="inline">
		<path fill="#FFFFFF" d="M39.099,92.103L22.18,75.07c-0.479-0.478-0.718-1.058-0.718-1.737s0.239-1.246,0.718-1.699l3.398-3.475
			c0.478-0.478,1.051-0.718,1.719-0.718c0.667,0,1.24,0.24,1.718,0.718l6.949,6.987V56.603c0-0.654,0.232-1.221,0.699-1.699
			c0.465-0.478,1.039-0.718,1.718-0.718h4.796c0.68,0,1.252,0.24,1.718,0.718c0.465,0.479,0.699,1.045,0.699,1.699v18.581
			l6.986-7.024c0.478-0.478,1.051-0.718,1.718-0.718s1.24,0.24,1.719,0.718l3.398,3.475c0.478,0.453,0.718,1.02,0.718,1.699
			s-0.24,1.26-0.718,1.737L42.497,92.103c-0.453,0.479-1.02,0.718-1.699,0.718S39.552,92.581,39.099,92.103z"/>
		<path fill="#FFFFFF" d="M88.904,54.904l16.918,17.07c0.479,0.479,0.719,1.052,0.719,1.719s-0.24,1.24-0.719,1.718l-3.398,3.437
			c-0.479,0.479-1.051,0.718-1.719,0.718c-0.666,0-1.24-0.239-1.717-0.718l-6.949-6.986v18.543c0,0.68-0.234,1.253-0.699,1.719
			c-0.467,0.466-1.039,0.698-1.719,0.698h-4.795c-0.68,0-1.254-0.232-1.719-0.698c-0.467-0.466-0.699-1.039-0.699-1.719V71.822
			l-6.986,7.024c-0.479,0.479-1.051,0.718-1.719,0.718s-1.24-0.239-1.719-0.718l-3.398-3.437c-0.479-0.478-0.717-1.051-0.717-1.718
			s0.238-1.24,0.717-1.719l16.92-17.07c0.453-0.478,1.02-0.718,1.699-0.718S88.451,54.426,88.904,54.904z"/>
	</g>
</g>
<g id="Ebene_4_Kopie">
	<linearGradient id="SVGID_2_" gradientUnits="userSpaceOnUse" x1="43.9604" y1="111.4629" x2="43.9604" y2="17.1178">
		<stop  offset="0.3" style="stop-color:#426080"/>
		<stop  offset="1" style="stop-color:#819CBD"/>
	</linearGradient>
	<path fill="url(#SVGID_2_)" d="M78.92,30.914H64.859v-6.016c0-4.746-3.847-8.594-8.594-8.594H17.594
		C12.848,16.305,9,20.152,9,24.898v14.609v5.156v0.859v42.969v14.609c0,4.746,3.848,8.594,8.594,8.594H78.92V30.914z"/>
	<path fill="#404547" d="M110.406,30.914H88.922v80.781V119l7.391-7.305l7.65-7.561l7.565,7.479L119,119v-15.898V45.523v-0.859
		v-5.156C119,34.762,115.153,30.914,110.406,30.914z"/>
	<g>
		<g>
			<path fill="#FFFFFF" d="M63.688,77.193H49.626v14.061c0,0.787-0.275,1.461-0.814,2s-1.207,0.813-1.997,0.813H41.19
				c-0.791,0-1.461-0.285-2.001-0.833c-0.54-0.551-0.815-1.212-0.815-1.979V77.193H24.314c-0.791,0-1.462-0.287-2.001-0.838
				c-0.539-0.549-0.813-1.207-0.813-1.975v-5.624c0-0.791,0.274-1.46,0.813-2.002c0.539-0.536,1.21-0.814,2.001-0.814h14.061v-14.06
				c0-0.791,0.275-1.462,0.815-2.001c0.54-0.538,1.21-0.813,2.001-0.813h5.624c0.79,0,1.458,0.274,1.997,0.813
				c0.539,0.539,0.814,1.21,0.814,2.001v14.06h14.062c0.787,0,1.461,0.278,2,0.814c0.539,0.542,0.813,1.211,0.813,2.002v5.624
				c0,0.768-0.273,1.426-0.813,1.975C65.148,76.906,64.475,77.193,63.688,77.193z"/>
		</g>
	</g>
</g>
</svg>
