<?xml version="1.0" encoding="utf-8"?>
<!-- Generator: Adobe Illustrator 16.0.3, SVG Export Plug-In . SVG Version: 6.00 Build 0)  -->
<!DOCTYPE svg PUBLIC "-//W3C//DTD SVG 1.1//EN" "http://www.w3.org/Graphics/SVG/1.1/DTD/svg11.dtd">
<svg version="1.1" xmlns="http://www.w3.org/2000/svg" xmlns:xlink="http://www.w3.org/1999/xlink" x="0px" y="0px" width="128px"
	 height="128px" viewBox="0 0 128 128" enable-background="new 0 0 128 128" xml:space="preserve">
<g id="Ebene_2">
</g>
<g id="Ebene_1">
	<g>
		<path fill="#404547" d="M64,19c24.813,0,45,20.194,45,45.016c0,24.821-20.187,45.016-45,45.016c-24.813,0-45-20.194-45-45.016
			C19,39.194,39.187,19,64,19 M64,9C33.624,9,9,33.631,9,64.016c0,30.385,24.624,55.016,55,55.016s55-24.631,55-55.016
			C119,33.631,94.376,9,64,9L64,9z"/>
	</g>
	<line fill="none" stroke="#404547" stroke-width="10" stroke-miterlimit="10" x1="101.488" y1="26.512" x2="26.488" y2="101.512"/>
</g>
</svg>
