<?xml version="1.0" encoding="utf-8"?>
<!-- Generator: Adobe Illustrator 16.0.3, SVG Export Plug-In . SVG Version: 6.00 Build 0)  -->
<!DOCTYPE svg PUBLIC "-//W3C//DTD SVG 1.1//EN" "http://www.w3.org/Graphics/SVG/1.1/DTD/svg11.dtd">
<svg version="1.1" id="Ebene_1" xmlns="http://www.w3.org/2000/svg" xmlns:xlink="http://www.w3.org/1999/xlink" x="0px" y="0px"
	 width="128px" height="128px" viewBox="0 0 128 128" enable-background="new 0 0 128 128" xml:space="preserve">
<g id="Ebene_4" display="none">
	<g display="inline">
		
			<linearGradient id="SVGID_1_" gradientUnits="userSpaceOnUse" x1="235.2939" y1="-53.6714" x2="235.2939" y2="5.5548" gradientTransform="matrix(1 0 0 -1 -123.2598 39.6348)">
			<stop  offset="0.3" style="stop-color:#426080"/>
			<stop  offset="1" style="stop-color:#819CBD"/>
		</linearGradient>
		<path fill="url(#SVGID_1_)" d="M122.355,93.512c-1.19,0.204-2.569,0.313-4.142,0.313c-3.048,0-5.81-0.486-8.288-1.458
			c-2.477-0.974-4.596-2.345-6.354-4.126c-1.766-1.787-3.122-3.947-4.074-6.494c-0.953-2.545-1.432-5.391-1.432-8.539
			c0-3.254,0.527-6.178,1.57-8.774c1.053-2.596,2.479-4.802,4.289-6.609c1.811-1.811,3.917-3.189,6.322-4.133
			c2.406-0.945,4.964-1.416,7.675-1.416c1.526,0,2.897,0.079,4.108,0.236c1.216,0.158,2.396,0.447,3.533,0.865l-0.709,8.026
			c-0.861-0.418-1.74-0.732-2.642-0.946c-0.907-0.209-1.955-0.314-3.146-0.314c-1.812,0-3.394,0.345-4.748,1.025
			c-1.361,0.681-2.504,1.602-3.432,2.754c-0.928,1.155-1.629,2.504-2.105,4.056c-0.477,1.545-0.717,3.209-0.717,4.992
			c0,1.838,0.218,3.531,0.643,5.078c0.432,1.547,1.105,2.896,2.038,4.049c0.929,1.157,2.093,2.047,3.501,2.682
			c1.402,0.625,3.08,0.939,5.036,0.939c1.094,0,2.141-0.105,3.14-0.314c1.003-0.211,2.021-0.574,3.074-1.1L126,92.568
			C124.764,92.979,123.55,93.297,122.355,93.512z"/>
		
			<linearGradient id="SVGID_2_" gradientUnits="userSpaceOnUse" x1="198.5996" y1="-53.6724" x2="198.5996" y2="5.5554" gradientTransform="matrix(1 0 0 -1 -123.2598 39.6348)">
			<stop  offset="0.3" style="stop-color:#426080"/>
			<stop  offset="1" style="stop-color:#819CBD"/>
		</linearGradient>
		<path fill="url(#SVGID_2_)" d="M92.913,81.35c-0.74,2.651-1.802,4.92-3.183,6.803c-1.383,1.894-3.056,3.373-5.033,4.449
			c-1.977,1.082-4.199,1.616-6.68,1.616c-2.81,0-5.213-0.655-7.211-1.969c-2.002-1.313-3.621-3.147-4.861-5.507h-0.143
			c0,1.148-0.023,2.334-0.07,3.535c-0.049,1.211-0.118,2.205-0.211,2.998H56.66c0.144-1.676,0.239-3.588,0.287-5.709
			c0.047-2.125,0.071-4.264,0.071-6.412V33.782h9.432v13.966c0,1.994-0.019,3.978-0.041,5.964c-0.021,1.991-0.079,3.741-0.177,5.26
			h0.146c1.374-2.338,3.105-4.119,5.178-5.338c2.07-1.221,4.465-1.829,7.178-1.829c2.332,0,4.453,0.508,6.354,1.533
			c1.903,1.02,3.509,2.464,4.823,4.325c1.309,1.863,2.318,4.07,3.031,6.614c0.719,2.545,1.074,5.336,1.074,8.375
			C94.018,75.803,93.65,78.7,92.913,81.35z M75.665,59.905c-1.386,0-2.634,0.332-3.751,0.993c-1.123,0.658-2.087,1.581-2.896,2.771
			c-0.809,1.187-1.429,2.573-1.859,4.157c-0.428,1.582-0.639,3.322-0.639,5.224c0,1.897,0.211,3.64,0.639,5.228
			c0.432,1.578,1.04,2.951,1.82,4.115c0.789,1.16,1.74,2.066,2.858,2.729c1.117,0.659,2.37,0.991,3.751,0.991
			c2.764,0,4.909-1.231,6.428-3.684c1.525-2.453,2.287-5.605,2.287-9.462c0-3.905-0.725-7.059-2.178-9.459
			C80.674,61.109,78.521,59.905,75.665,59.905z"/>
		
			<linearGradient id="SVGID_3_" gradientUnits="userSpaceOnUse" x1="150.6523" y1="-53.6401" x2="150.6523" y2="5.5888" gradientTransform="matrix(1 0 0 -1 -123.2598 39.6348)">
			<stop  offset="0.3" style="stop-color:#426080"/>
			<stop  offset="1" style="stop-color:#819CBD"/>
		</linearGradient>
		<path fill="url(#SVGID_3_)" d="M41.857,93.275l-4.358-12.674H16.714l-4.357,12.674H2l19.571-54.931h11.358l19.856,54.931H41.857z
			 M29.714,56.483c-0.333-1.128-0.654-2.281-0.963-3.462c-0.31-1.179-0.607-2.294-0.894-3.343c-0.287-1.049-0.5-1.942-0.643-2.677
			h-0.143c-0.19,0.735-0.428,1.628-0.715,2.677c-0.284,1.049-0.607,2.164-0.964,3.343c-0.357,1.181-0.703,2.334-1.035,3.462
			c-0.334,1.132-0.643,2.114-0.928,2.953l-4.146,12.826h15.503l-4.145-12.826C30.356,58.597,30.046,57.615,29.714,56.483z"/>
	</g>
</g>
<g id="Ebene_2">
</g>
<g id="Ebene_1_1_">
	<g>
		<path fill="#404547" d="M95.65,12.505H32.347C19.454,12.505,9,22.959,9,35.853v30.299C9,79.048,19.454,89.5,32.347,89.5h34.54
			c2.033,5.361,4.117,16.285-6.903,25.995C80.129,111.754,89.59,95.983,92.686,89.5h2.967C108.545,89.5,119,79.05,119,66.151V35.853
			C119,22.959,108.545,12.505,95.65,12.505z"/>
	</g>
	<path fill="#FFFFFF" d="M78.24,78.579l-4.289-12.688H53.485l-4.288,12.688H39l19.266-55h11.184l19.551,55H78.24z M66.289,41.739
		c-0.332-1.128-0.646-2.287-0.951-3.47c-0.307-1.18-0.602-2.297-0.877-3.347c-0.285-1.052-0.492-1.942-0.638-2.68h-0.138
		c-0.187,0.737-0.422,1.627-0.698,2.68c-0.286,1.05-0.6,2.167-0.954,3.347c-0.354,1.184-0.689,2.342-1.022,3.47
		c-0.325,1.131-0.63,2.115-0.915,2.949l-4.073,12.854h15.255l-4.072-12.854C66.92,43.854,66.615,42.87,66.289,41.739z"/>
</g>
</svg>
