<?xml version="1.0" encoding="utf-8"?>
<!-- Generator: Adobe Illustrator 16.0.3, SVG Export Plug-In . SVG Version: 6.00 Build 0)  -->
<!DOCTYPE svg PUBLIC "-//W3C//DTD SVG 1.1//EN" "http://www.w3.org/Graphics/SVG/1.1/DTD/svg11.dtd">
<svg version="1.1" id="Ebene_4" xmlns="http://www.w3.org/2000/svg" xmlns:xlink="http://www.w3.org/1999/xlink" x="0px" y="0px"
	 width="128px" height="128px" viewBox="0 0 128 128" enable-background="new 0 0 128 128" xml:space="preserve">
<g>
	<path fill="#404547" d="M58.592,56.983h-36.23C14.983,56.983,9,62.966,9,70.345v17.341c0,7.383,5.983,13.363,13.361,13.363h19.768
		c1.164,3.068,2.357,9.321-3.95,14.877c11.528-2.141,16.944-11.165,18.716-14.877h1.697c7.38,0,13.363-5.98,13.363-13.363V70.345
		C71.955,62.966,65.972,56.983,58.592,56.983z"/>
</g>
<linearGradient id="SVGID_1_" gradientUnits="userSpaceOnUse" x1="75.3564" y1="98.1768" x2="75.3564" y2="18.4343">
	<stop  offset="0.3" style="stop-color:#426080"/>
	<stop  offset="1" style="stop-color:#B3C4D7"/>
</linearGradient>
<path fill="url(#SVGID_1_)" d="M100.473,18.011H50.239c-10.231,0-18.526,8.295-18.526,18.526V48.39h26.879
	c12.107,0,21.957,9.85,21.957,21.955v17.341c0,3.802-0.988,7.37-2.695,10.491c12.123-4.471,18.12-14.577,20.266-19.068h2.354
	c10.23,0,18.527-8.293,18.527-18.527V36.538C119,26.306,110.703,18.011,100.473,18.011z"/>
<path fill="#FFFFFF" d="M40.436,70.24c0.699,0,1.396,0.35,2.095,1.049l14.008,14.203c0.458,0.459,0.688,1.016,0.688,1.67
	s-0.229,1.211-0.688,1.67L54.87,90.5c-0.458,0.459-1.015,0.688-1.669,0.688c-0.654,0-1.211-0.229-1.669-0.688L40.468,79.438
	L29.405,90.5c-0.458,0.459-1.015,0.688-1.669,0.688c-0.655,0-1.211-0.229-1.669-0.688l-1.669-1.668
	c-0.458-0.459-0.688-1.016-0.688-1.67s0.229-1.211,0.688-1.67l13.943-14.203C39.04,70.59,39.737,70.24,40.436,70.24z"/>
</svg>
