<?xml version="1.0" encoding="utf-8"?>
<!-- Generator: Adobe Illustrator 16.0.3, SVG Export Plug-In . SVG Version: 6.00 Build 0)  -->
<!DOCTYPE svg PUBLIC "-//W3C//DTD SVG 1.1//EN" "http://www.w3.org/Graphics/SVG/1.1/DTD/svg11.dtd" [
	<!ENTITY ns_flows "http://ns.adobe.com/Flows/1.0/">
	<!ENTITY ns_extend "http://ns.adobe.com/Extensibility/1.0/">
	<!ENTITY ns_ai "http://ns.adobe.com/AdobeIllustrator/10.0/">
	<!ENTITY ns_graphs "http://ns.adobe.com/Graphs/1.0/">
	<!ENTITY ns_vars "http://ns.adobe.com/Variables/1.0/">
	<!ENTITY ns_imrep "http://ns.adobe.com/ImageReplacement/1.0/">
	<!ENTITY ns_sfw "http://ns.adobe.com/SaveForWeb/1.0/">
	<!ENTITY ns_custom "http://ns.adobe.com/GenericCustomNamespace/1.0/">
	<!ENTITY ns_adobe_xpath "http://ns.adobe.com/XPath/1.0/">
]>
<svg version="1.1"
	 xmlns:x="&ns_extend;" xmlns:i="&ns_ai;" xmlns:graph="&ns_graphs;" i:viewOrigin="0 0" i:rulerOrigin="0 128" i:pageBounds="0 0 128 -128"
	 xmlns="http://www.w3.org/2000/svg" xmlns:xlink="http://www.w3.org/1999/xlink" xmlns:a="http://ns.adobe.com/AdobeSVGViewerExtensions/3.0/"
	 x="0px" y="0px" width="128px" height="128px" viewBox="0 0 128 128" enable-background="new 0 0 128 128" xml:space="preserve">
<metadata>
	<variableSets  xmlns="&ns_vars;">
		<variableSet  varSetName="binding1" locked="none">
			<variables></variables>
			<v:sampleDataSets  xmlns:v="&ns_vars;" xmlns="&ns_custom;"></v:sampleDataSets>
		</variableSet>
	</variableSets>
</metadata>
<g id="Ebene_4" i:layer="yes" i:dimmedPercent="50" i:rgbTrio="#4F004F00FFFF">
	<g i:knockout="Off">
		<path i:knockout="Off" fill="#333333" d="M100.715,9h-49.56c-9.834,0-17.827,7.775-18.235,17.507h45.931
			c15.507,0,28.119,12.611,28.119,28.114v13.535C113.982,65.598,119,58.888,119,50.994V27.28C119,17.187,110.811,9,100.715,9z"/>
	</g>
	<linearGradient id="SVGID_1_" gradientUnits="userSpaceOnUse" x1="53.3403" y1="119" x2="53.3403" y2="35.9712">
		<stop  offset="0.3" style="stop-color:#426080"/>
		<stop  offset="1" style="stop-color:#B3C4D7"/>
		<a:midPointStop  offset="0.3" style="stop-color:#426080"/>
		<a:midPointStop  offset="0.5" style="stop-color:#426080"/>
		<a:midPointStop  offset="1" style="stop-color:#B3C4D7"/>
	</linearGradient>
	<path i:knockout="Off" fill="url(#SVGID_1_)" d="M78.852,35.971H27.819C17.425,35.971,9,44.4,9,54.794v24.419
		c0,10.401,8.425,18.829,18.819,18.829h27.845c1.64,4.319,3.328,13.121-5.56,20.957c16.241-3.017,23.873-15.722,26.367-20.957h2.381
		c10.396,0,18.829-8.428,18.829-18.829V54.794C97.681,44.4,89.248,35.971,78.852,35.971z"/>
</g>
</svg>
