<?xml version="1.0" encoding="utf-8"?>
<!-- Generator: Adobe Illustrator 16.0.3, SVG Export Plug-In . SVG Version: 6.00 Build 0)  -->
<!DOCTYPE svg PUBLIC "-//W3C//DTD SVG 1.1//EN" "http://www.w3.org/Graphics/SVG/1.1/DTD/svg11.dtd">
<svg version="1.1" id="Ebene_4" xmlns="http://www.w3.org/2000/svg" xmlns:xlink="http://www.w3.org/1999/xlink" x="0px" y="0px"
	 width="128px" height="128px" viewBox="0 0 128 128" enable-background="new 0 0 128 128" xml:space="preserve">
<g>
	<linearGradient id="SVGID_1_" gradientUnits="userSpaceOnUse" x1="64.0005" y1="116.416" x2="64.0005" y2="13.6246">
		<stop  offset="0.3" style="stop-color:#426080"/>
		<stop  offset="1" style="stop-color:#819CBD"/>
	</linearGradient>
	<path fill="url(#SVGID_1_)" d="M95.651,13.426H32.347C19.454,13.426,9,23.88,9,36.774v30.299C9,79.97,19.454,90.421,32.347,90.421
		h34.539c2.035,5.361,4.119,16.285-6.902,25.995c20.145-3.741,29.606-19.512,32.702-25.995h2.966
		C108.545,90.421,119,79.97,119,67.073V36.774C119,23.88,108.545,13.426,95.651,13.426z"/>
</g>
<g>
	<g>
		<path fill="#FFFFFF" d="M88.438,57.789H70.982v17.456c0,0.982-0.337,1.81-1.01,2.481c-0.674,0.674-1.5,1.01-2.481,1.01h-6.982
			c-0.982,0-1.81-0.345-2.482-1.036c-0.673-0.69-1.009-1.509-1.009-2.455V57.789H39.562c-0.982,0-1.81-0.345-2.482-1.036
			c-0.673-0.69-1.009-1.509-1.009-2.455v-6.982c0-0.982,0.336-1.809,1.009-2.482c0.673-0.673,1.5-1.009,2.482-1.009h17.456V26.368
			c0-0.982,0.336-1.809,1.009-2.482c0.673-0.673,1.5-1.009,2.482-1.009h6.982c0.981,0,1.808,0.336,2.481,1.009
			c0.673,0.673,1.01,1.5,1.01,2.482v17.456h17.456c0.981,0,1.808,0.336,2.481,1.009c0.673,0.673,1.01,1.5,1.01,2.482v6.982
			c0,0.946-0.337,1.765-1.01,2.455C90.246,57.444,89.42,57.789,88.438,57.789z"/>
	</g>
</g>
</svg>
