<?xml version="1.0" encoding="UTF-8" standalone="no"?>
<!DOCTYPE svg PUBLIC "-//W3C//DTD SVG 1.1//EN" "http://www.w3.org/Graphics/SVG/1.1/DTD/svg11.dtd">
<svg width="100%" height="100%" viewBox="0 0 128 128" version="1.1" xmlns="http://www.w3.org/2000/svg" xmlns:xlink="http://www.w3.org/1999/xlink" xml:space="preserve" xmlns:serif="http://www.serif.com/" style="fill-rule:evenodd;clip-rule:evenodd;stroke-linejoin:round;stroke-miterlimit:2;">
    <g>
        <path d="M104,9L24,9C15.716,9 9,15.716 9,24L9,104C9,112.284 15.716,119 24,119L104,119C112.284,119 119,112.284 119,104L119,24C119,15.716 112.284,9 104,9Z" style="fill:url(#_Linear1);fill-rule:nonzero;"/>
    </g>
    <g>
        <path d="M104,63.996C104,80.057 86.098,93.095 64,93.095C41.903,93.095 24,80.057 24,63.996C24,47.927 41.903,34.911 64,34.911C86.098,34.911 104,47.927 104,63.996ZM44.142,77.346C48.428,83.758 55.719,87.982 64,87.982C72.267,87.982 79.554,83.767 83.845,77.363C78.525,80.771 71.604,82.833 64.044,82.833C56.429,82.833 49.478,80.764 44.142,77.346Z" style="fill:white;fill-rule:nonzero;"/>
    </g>
    <defs>
        <linearGradient id="_Linear1" x1="0" y1="0" x2="1" y2="0" gradientUnits="userSpaceOnUse" gradientTransform="matrix(6.73553e-15,-109.999,109.999,6.73553e-15,64.0005,119)"><stop offset="0" style="stop-color:rgb(66,96,128);stop-opacity:1"/><stop offset="0.3" style="stop-color:rgb(66,96,128);stop-opacity:1"/><stop offset="1" style="stop-color:rgb(129,156,189);stop-opacity:1"/></linearGradient>
    </defs>
</svg>
