<?xml version="1.0" encoding="utf-8"?>
<!-- Generator: Adobe Illustrator 16.0.3, SVG Export Plug-In . SVG Version: 6.00 Build 0)  -->
<!DOCTYPE svg PUBLIC "-//W3C//DTD SVG 1.1//EN" "http://www.w3.org/Graphics/SVG/1.1/DTD/svg11.dtd">
<svg version="1.1" xmlns="http://www.w3.org/2000/svg" xmlns:xlink="http://www.w3.org/1999/xlink" x="0px" y="0px" width="128px"
	 height="128px" viewBox="0 0 128 128" enable-background="new 0 0 128 128" xml:space="preserve">
<g id="Ebene_5" display="none">
	<g display="inline">
		<path fill="#404547" d="M82.457,64.014l29.59,29.715c1.305,1.309,1.953,2.854,1.953,4.649c0,1.786-0.648,3.307-1.953,4.54
			l-9.18,9.189c-1.234,1.308-2.771,1.955-4.59,1.955c-1.82,0-3.357-0.647-4.59-1.955L64,82.486l-29.688,29.621
			c-1.239,1.308-2.767,1.955-4.59,1.955c-1.825,0-3.353-0.647-4.59-1.955l-9.18-9.189c-1.302-1.233-1.953-2.754-1.953-4.54
			c0-1.796,0.651-3.341,1.953-4.649l29.59-29.715l-29.59-29.617C14.651,33.091,14,31.545,14,29.753c0-1.794,0.651-3.34,1.953-4.644
			l9.18-9.189c1.237-1.239,2.765-1.857,4.59-1.857c1.823,0,3.351,0.619,4.59,1.857L64,45.635L93.688,15.92
			c1.232-1.239,2.77-1.857,4.59-1.857c1.818,0,3.355,0.619,4.59,1.857l9.18,9.189c1.305,1.303,1.953,2.849,1.953,4.644
			c0,1.792-0.648,3.338-1.953,4.644L82.457,64.014z"/>
	</g>
</g>
<g id="Ebene_4">
	<g>
		<path fill="#404547" d="M106.871,24.987c1.418,1.416,2.145,3.099,2.11,5.045c0.011,1.923-0.696,3.595-2.108,5.006l-28.959,28.96
			l28.949,28.953c1.412,1.411,2.111,3.084,2.127,4.996c-0.009,1.969-0.697,3.647-2.115,5.065l-3.859,3.86
			c-1.42,1.421-3.112,2.104-5.084,2.104c-1.954-0.053-3.625-0.75-4.988-2.109L63.998,77.914l-28.941,28.952
			c-1.416,1.413-3.099,2.132-5.02,2.118c-1.948,0.035-3.631-0.69-5.051-2.108l-3.855-3.86c-1.423-1.421-2.121-3.135-2.09-5.069
			c0.034-1.966,0.716-3.619,2.098-4.995L50.084,64L21.13,35.041c-1.418-1.414-2.122-3.091-2.14-5.015
			c0.012-1.957,0.721-3.623,2.144-5.041l3.862-3.86c1.415-1.422,3.077-2.128,5.034-2.14c1.924,0.023,3.601,0.726,5.015,2.14
			L64,50.082l28.958-28.957c1.411-1.411,3.086-2.117,5.008-2.107c1.946-0.039,3.625,0.686,5.046,2.109L106.871,24.987z"/>
	</g>
</g>
</svg>
