<?xml version="1.0" encoding="utf-8"?>
<!-- Generator: Adobe Illustrator 16.0.3, SVG Export Plug-In . SVG Version: 6.00 Build 0)  -->
<!DOCTYPE svg PUBLIC "-//W3C//DTD SVG 1.1//EN" "http://www.w3.org/Graphics/SVG/1.1/DTD/svg11.dtd">
<svg version="1.1" xmlns="http://www.w3.org/2000/svg" xmlns:xlink="http://www.w3.org/1999/xlink" x="0px" y="0px" width="128px"
	 height="128px" viewBox="0 0 128 128" enable-background="new 0 0 128 128" xml:space="preserve">
<g id="Ebene_2" display="none">
	<linearGradient id="SVGID_1_" gradientUnits="userSpaceOnUse" x1="57.2378" y1="122" x2="57.2378" y2="5.9922">
		<stop  offset="0.2" style="stop-color:#426080"/>
		<stop  offset="1" style="stop-color:#819CBD"/>
	</linearGradient>
	<path display="inline" fill="url(#SVGID_1_)" d="M93.475,15.992c2.762,0,5,2.239,5,5V107c0,2.762-2.238,5-5,5H21
		c-2.762,0-5-2.238-5-5V20.992c0-2.761,2.238-5,5-5H93.475 M93.475,5.992H21c-8.271,0-15,6.729-15,15V107c0,8.271,6.729,15,15,15
		h72.475c8.271,0,15-6.729,15-15V20.992C108.475,12.721,101.746,5.992,93.475,5.992L93.475,5.992z"/>
	<g display="inline">
		<linearGradient id="SVGID_2_" gradientUnits="userSpaceOnUse" x1="57.2466" y1="121.7676" x2="57.2466" y2="6.2306">
			<stop  offset="0.2" style="stop-color:#426080"/>
			<stop  offset="1" style="stop-color:#819CBD"/>
		</linearGradient>
		<path fill="url(#SVGID_2_)" d="M86.331,41.5h-58.17c-2.761,0-5-2.239-5-5s2.239-5,5-5h58.17c2.762,0,5,2.239,5,5
			S89.093,41.5,86.331,41.5z"/>
	</g>
	<linearGradient id="SVGID_3_" gradientUnits="userSpaceOnUse" x1="41.5532" y1="121.7676" x2="41.5532" y2="6.2302">
		<stop  offset="0.2" style="stop-color:#426080"/>
		<stop  offset="1" style="stop-color:#819CBD"/>
	</linearGradient>
	<path display="inline" fill="url(#SVGID_3_)" d="M59.945,59H28.161c-2.761,0-5,2.239-5,5c0,2.762,2.239,5,5,5h24.124
		C54.335,65.293,56.926,61.927,59.945,59z"/>
	<linearGradient id="SVGID_4_" gradientUnits="userSpaceOnUse" x1="35.374" y1="121.7676" x2="35.374" y2="6.2306">
		<stop  offset="0.2" style="stop-color:#426080"/>
		<stop  offset="1" style="stop-color:#819CBD"/>
	</linearGradient>
	<path display="inline" fill="url(#SVGID_4_)" d="M47.118,86.5H28.161c-2.761,0-5,2.238-5,5s2.239,5,5,5h19.426
		C47.208,94.221,47,91.884,47,89.498C47,88.489,47.048,87.491,47.118,86.5z"/>
	<g display="inline">
		<g>
			<g>
				<g>
					<g>
						<path fill="#404547" d="M98.527,110.548c-0.706,0-1.412-0.273-1.944-0.817c-1.052-1.074-1.033-2.797,0.04-3.849
							c2.454-2.402,4.374-5.242,5.706-8.44c1.352-3.229,2.036-6.667,2.036-10.222c0-3.561-0.684-6.998-2.032-10.217
							c-1.333-3.206-3.253-6.049-5.71-8.455c-1.074-1.052-1.092-2.775-0.04-3.849c1.052-1.074,2.774-1.091,3.849-0.04
							c2.982,2.92,5.312,6.369,6.924,10.247c1.627,3.883,2.452,8.027,2.452,12.313c0,4.28-0.827,8.426-2.456,12.319
							c-1.613,3.871-3.941,7.315-6.92,10.232C99.902,110.289,99.214,110.548,98.527,110.548z"/>
					</g>
				</g>
				<g>
					<g>
						<path fill="#404547" d="M107.153,119.16c-0.701,0-1.403-0.27-1.936-0.81c-1.057-1.068-1.046-2.792,0.023-3.848
							c3.557-3.515,6.36-7.665,8.332-12.337c1.98-4.679,2.984-9.706,2.984-14.946c0-5.247-1.004-10.275-2.982-14.948
							c-1.979-4.684-4.782-8.861-8.336-12.418c-1.063-1.063-1.062-2.786,0.002-3.848c1.063-1.063,2.786-1.062,3.849,0.001
							c4.052,4.056,7.247,8.815,9.499,14.146C120.853,75.497,122,81.24,122,87.22c0,5.973-1.148,11.715-3.413,17.066
							c-2.25,5.33-5.454,10.07-9.521,14.088C108.536,118.898,107.845,119.16,107.153,119.16z"/>
					</g>
				</g>
			</g>
			<polygon fill="#404547" points="89.336,52.333 71.479,71.119 71.479,103.202 89.338,122 			"/>
		</g>
		<g>
			<path fill="#404547" d="M57.695,71.119c-1.511,0-2.78,0.534-3.811,1.593c-1.037,1.06-1.552,2.317-1.552,3.771V97.84
				c0,1.448,0.515,2.712,1.552,3.764c1.03,1.065,2.299,1.599,3.811,1.599h8.34V71.119H57.695z"/>
		</g>
	</g>
	<g display="inline">
		<g>
			<path fill="#404547" d="M106.317,50.956c-1.456,0-2.819,0.573-3.839,1.613c-1.004,1.026-1.55,2.382-1.535,3.818
				c0.015,1.436,0.588,2.78,1.614,3.784c2.704,2.647,4.821,5.784,6.292,9.323c1.485,3.544,2.24,7.34,2.24,11.276
				c0,3.93-0.757,7.729-2.25,11.294c-1.466,3.521-3.581,6.648-6.285,9.295c-2.115,2.072-2.15,5.481-0.077,7.599
				c1.019,1.042,2.383,1.615,3.841,1.615c1.414,0,2.751-0.545,3.763-1.535c3.735-3.658,6.655-7.977,8.68-12.833
				c2.043-4.884,3.079-10.076,3.079-15.435c0-5.369-1.033-10.556-3.07-15.417c-2.023-4.871-4.946-9.196-8.69-12.863
				C109.068,51.5,107.732,50.956,106.317,50.956z"/>
			<polygon fill="#404547" points="95.423,39.414 74.254,61.684 74.254,99.716 95.425,122 			"/>
		</g>
		<g>
			<path fill="#404547" d="M57.915,61.684c-1.792,0-3.295,0.633-4.517,1.888c-1.229,1.256-1.839,2.748-1.839,4.47v25.317
				c0,1.717,0.61,3.215,1.839,4.462c1.222,1.263,2.725,1.895,4.517,1.895h9.886V61.684H57.915z"/>
		</g>
	</g>
</g>
<g id="Ebene_1">
	<g>
		<path fill="#404547" d="M121.113,113.938L86.952,54.791c-0.92-1.589-2.622-2.576-4.462-2.576c-1.839,0-3.541,0.987-4.461,2.576
			l-34.34,59.474c-0.919,1.603-0.919,3.563,0,5.151c0.919,1.606,2.623,2.584,4.461,2.584h68.679c0.007-0.001,0.014-0.001,0.019,0
			c2.846,0,5.151-2.306,5.151-5.151C122,115.774,121.666,114.775,121.113,113.938z"/>
	</g>
	<g>
		<linearGradient id="SVGID_5_" gradientUnits="userSpaceOnUse" x1="57.2378" y1="122" x2="57.2378" y2="5.9922">
			<stop  offset="0.2" style="stop-color:#426080"/>
			<stop  offset="1" style="stop-color:#819CBD"/>
		</linearGradient>
		<path fill="url(#SVGID_5_)" d="M33.801,112H21c-2.762,0-5-2.238-5-5V20.992c0-2.761,2.238-5,5-5h72.475c2.762,0,5,2.239,5,5
			c0,0,0,19.105,0,33.755l10,17.313V20.992c0-8.271-6.729-15-15-15H21c-8.271,0-15,6.729-15,15V107c0,8.271,6.729,15,15,15h12.914
			C32.754,118.785,32.71,115.252,33.801,112z"/>
		<linearGradient id="SVGID_6_" gradientUnits="userSpaceOnUse" x1="55.7319" y1="121.7676" x2="55.7319" y2="6.2306">
			<stop  offset="0.2" style="stop-color:#426080"/>
			<stop  offset="1" style="stop-color:#819CBD"/>
		</linearGradient>
		<path fill="url(#SVGID_6_)" d="M86.894,32.998c-0.907-0.923-2.166-1.498-3.563-1.498h-0.029h-50.65h-4.49c-2.761,0-5,2.239-5,5
			c0,1.357,0.545,2.585,1.424,3.486l-0.016,0.016c0.907,0.923,2.166,1.498,3.563,1.498h0.029h50.65h4.49c2.761,0,5-2.239,5-5
			c0-1.357-0.546-2.585-1.424-3.486L86.894,32.998z"/>
		<linearGradient id="SVGID_7_" gradientUnits="userSpaceOnUse" x1="43.6064" y1="121.7676" x2="43.6064" y2="6.2302">
			<stop  offset="0.2" style="stop-color:#426080"/>
			<stop  offset="1" style="stop-color:#819CBD"/>
		</linearGradient>
		<path fill="url(#SVGID_7_)" d="M23.161,64c0,2.762,2.239,5,5,5h30.117l5.774-10H28.161C25.4,59,23.161,61.239,23.161,64z"/>
		<linearGradient id="SVGID_8_" gradientUnits="userSpaceOnUse" x1="35.6675" y1="121.7676" x2="35.6675" y2="6.2306">
			<stop  offset="0.2" style="stop-color:#426080"/>
			<stop  offset="1" style="stop-color:#819CBD"/>
		</linearGradient>
		<path fill="url(#SVGID_8_)" d="M23.161,91.5c0,2.762,2.239,5,5,5h14.238l5.774-10H28.161C25.4,86.5,23.161,88.738,23.161,91.5z"/>
	</g>
	<g>
		<g>
			<path fill="#FFFFFF" d="M76.452,72.953c0-0.802,0.276-1.479,0.824-2.021c0.549-0.554,1.225-0.83,2.021-0.83h6.403
				c0.798,0,1.475,0.285,2.022,0.846c0.549,0.565,0.824,1.229,0.824,2.005v20.72c0,0.802-0.275,1.474-0.824,2.021
				c-0.548,0.553-1.225,0.824-2.022,0.824h-6.403c-0.797,0-1.473-0.271-2.021-0.824c-0.548-0.548-0.824-1.22-0.824-2.021V72.953z"/>
		</g>
		<g>
			<path fill="#FFFFFF" d="M76.452,104.952c0-0.802,0.276-1.479,0.824-2.021c0.549-0.554,1.225-0.83,2.021-0.83h6.403
				c0.798,0,1.475,0.285,2.022,0.847c0.549,0.564,0.824,1.229,0.824,2.004v6.104c0,0.802-0.275,1.473-0.824,2.021
				c-0.548,0.553-1.225,0.824-2.022,0.824h-6.403c-0.797,0-1.473-0.271-2.021-0.824c-0.548-0.549-0.824-1.22-0.824-2.021V104.952z"
				/>
		</g>
	</g>
</g>
</svg>
