<svg id="Layer_1" data-name="Layer 1" xmlns="http://www.w3.org/2000/svg" xmlns:xlink="http://www.w3.org/1999/xlink" viewBox="0 0 512 512"><defs><linearGradient id="linear-gradient" x1="256" y1="0.73" x2="256" y2="511.48" gradientUnits="userSpaceOnUse"><stop offset="0" stop-color="#728dae"/><stop offset="1" stop-color="#426080"/></linearGradient></defs><title>1</title><path d="M238.07,342.59c0-5.84,3.05-9.93,4.55-14.51,1.84-5.63,4.47-11,6.85-16.46,1-2.26.24-3.71-1.72-4.86-4-2.33-6.18-6.34-8.93-9.77a5.09,5.09,0,0,1,.25-6.41c4.13-4.89,9.2-7.8,15.92-7a63.65,63.65,0,0,0,7.46.18c6.1,0,9.64,3.88,12.78,8.34,1.21,1.72.13,3.18-.86,4.53-2.18,2.95-4.26,6.08-7.29,8.17-3.65,2.52-3.67,5.35-2.09,9.05,3.34,7.79,6.3,15.74,9.64,23.53,1.49,3.47,1.15,6.24-1.28,9.17a88.28,88.28,0,0,1-13.29,12.78c-2.13,1.69-3.93,1.89-6.21.12a118.48,118.48,0,0,1-14.15-13.2C238.43,344.84,238,343.55,238.07,342.59Z" style="fill:#fefefe"/><path d="M503.84,417.12c.09-55.45-.05-110.9-.1-166.35.06-1.92.2-3.82.2-5.73q0-88.42-.07-176.83C503.85,33.84,478,8,443.64,8Q333.53,8,223.38,8,144.66,8,65.91,8c-31.43.06-58,26.77-58,58.07q0,83.71-.07,167.42c0,1.91.14,3.83.21,5.73C8,309,7.61,378.76,8.11,448.51c.2,29.91,27.21,55.39,57.38,55.42q190.41.16,380.82,0c27.66,0,52.27-21.4,56.64-48.69C505,442.58,503.81,429.83,503.84,417.12ZM255.21,442a41.34,41.34,0,1,1,41.42-41.7A41.37,41.37,0,0,1,255.21,442Zm47.58-322.4c-1.55,18-3.22,36-5.16,53.93-2.2,20.22-3.56,40.51-6,60.7-.64,5.43-1.95,11-1.09,16.58-1.42,14.71-3.26,29.4-4.19,44.15-1.25,19.82-13.78,34.39-34.75,33.06-9.3-.59-19.9-8.17-24-17.1-5-10.8-3.66-22.34-5.08-33.54-1.46-11.75-2.21-23.6-3.34-35.39a5,5,0,0,0-.87-1.73c0-15.83-2.15-31.47-3.89-47.17-1.08-9.49-1.82-19.13-2.28-28.73-.57-11.47-2-22.89-2.87-34.34-.93-11.77-1.68-23.38,4-34.59C220,82.19,230.22,74,244.5,71c23.14-4.82,47,7.58,55.7,27.63C303.21,105.52,303.4,112.48,302.79,119.55Z" style="fill:url(#linear-gradient)"/><rect width="0.44" height="0.44" style="fill:none"/><rect y="511.56" width="0.44" height="0.44" style="fill:none"/><rect x="511.56" y="511.56" width="0.44" height="0.44" style="fill:none"/><rect x="511.56" width="0.44" height="0.44" style="fill:none"/></svg>