<?xml version="1.0" encoding="utf-8"?>
<!-- Generator: Adobe Illustrator 16.0.3, SVG Export Plug-In . SVG Version: 6.00 Build 0)  -->
<!DOCTYPE svg PUBLIC "-//W3C//DTD SVG 1.1//EN" "http://www.w3.org/Graphics/SVG/1.1/DTD/svg11.dtd">
<svg version="1.1" id="Ebene_5" xmlns="http://www.w3.org/2000/svg" xmlns:xlink="http://www.w3.org/1999/xlink" x="0px" y="0px"
	 width="128px" height="128px" viewBox="0 0 128 128" enable-background="new 0 0 128 128" xml:space="preserve">
<path fill="#404547" d="M29.627,118.817c0.029-1.369,0.793-33.646,7.792-44.33c6.809-10.368,13.196-12.864,19.126-14.523
	l0.046-0.013c0.316-0.089,0.614-0.174,0.892-0.255c-1.031-1.462-2.007-3.151-2.965-5.323c-4.243-3.041-6.066-8.687-6.798-11.984
	c-0.753-3.404-0.875-6.861-0.341-9.753c0.49-2.617,1.479-4.723,2.964-6.297c0.4-2.73,1.049-5.278,1.917-7.634
	c-2.891-1.149-6.377-1.721-10.548-1.461v0.003c-0.015,0-0.028-0.002-0.044-0.002v0C23.115,16.086,17.974,31.3,19.499,41.318
	c1.47,9.675,2.272,18.89-0.986,21.792c2.818,1.421,4.82-0.738,6.244-1.692c-0.467,6.178-7.508,8.499-7.508,8.499
	c3.187,3.152,12.75,2.622,16.206-0.523c-0.362,1.983-1.222,4.994-3.185,5.984c-4.334,2.18-8.292,0.003-15.35,10.737
	C9.419,94.476,9,119,9,119h20.624L29.627,118.817z"/>
<g>
	<linearGradient id="SVGID_1_" gradientUnits="userSpaceOnUse" x1="78.6094" y1="119" x2="78.6094" y2="4.4553">
		<stop  offset="0.3" style="stop-color:#426080"/>
		<stop  offset="1" style="stop-color:#819CBD"/>
	</linearGradient>
	<path fill="url(#SVGID_1_)" d="M98.38,68.232c-1.478-0.417-2.861-0.809-4.216-1.49c-1.795-0.906-7.521-5.125-6.706-6.005
		c4.153-4.499,5.755-5.678,7.833-10.778l0.654-1.614l1.461-0.762c1.223-0.636,2.853-3.06,3.729-7.052
		c0.503-2.279,0.608-4.581,0.286-6.314c-0.236-1.239-0.613-1.896-0.895-2.093l-1.703-1.214l-0.264-2.211
		C97.241,17.027,90.561,9,78.643,9c-11.927,0-18.605,8.023-19.94,19.687l-0.257,2.226l-1.728,1.211
		c-0.277,0.196-0.659,0.847-0.892,2.092c-0.32,1.736-0.219,4.038,0.285,6.317c0.888,4,2.512,6.423,3.733,7.053l1.477,0.759
		l0.663,1.623c2.073,5.1,3.845,6.45,7.825,10.766c1.067,1.157-4.901,5.096-6.701,6.007c-1.369,0.687-2.756,1.076-4.219,1.491
		c-4.07,1.139-8.684,2.439-14.287,10.972c-4.208,6.423-6.143,28.463-6.384,39.796h60.947H119c-0.122-8.007-1.5-32.427-6.339-39.796
		C107.072,70.674,102.457,69.372,98.38,68.232z"/>
</g>
</svg>
