<?xml version="1.0" encoding="iso-8859-1"?>
<!-- Generator: Adobe Illustrator 15.0.0, SVG Export Plug-In . SVG Version: 6.00 Build 0)  -->
<!DOCTYPE svg PUBLIC "-//W3C//DTD SVG 1.1//EN" "http://www.w3.org/Graphics/SVG/1.1/DTD/svg11.dtd">
<svg version="1.1" id="Ebene_2" xmlns="http://www.w3.org/2000/svg" xmlns:xlink="http://www.w3.org/1999/xlink" x="0px" y="0px"
	 width="128px" height="128px" viewBox="0 0 128 128" enable-background="new 0 0 128 128" xml:space="preserve">
<g>
	
		<linearGradient id="SVGID_1_" gradientUnits="userSpaceOnUse" x1="65.9902" y1="13.6504" x2="65.9902" y2="101.797" gradientTransform="matrix(1 0 0 -1 -20.9902 131.4004)">
		<stop  offset="0.3" style="stop-color:#426080"/>
		<stop  offset="1" style="stop-color:#819CBD"/>
	</linearGradient>
	<path fill="url(#SVGID_1_)" d="M66.602,39.28c2.646,0,4.801,2.154,4.801,4.801v59.521c0,2.646-2.155,4.801-4.801,4.801H23.399
		c-2.646,0-4.799-2.155-4.799-4.801V44.081c0-2.647,2.154-4.801,4.799-4.801H66.602 M66.602,29.68H23.399
		C15.448,29.68,9,36.127,9,44.081v59.521C9,111.555,15.448,118,23.399,118H66.6c7.955,0,14.4-6.445,14.4-14.398V44.081
		C81,36.127,74.555,29.68,66.602,29.68L66.602,29.68z"/>
</g>
<g>
	<g>
		<path fill="#404547" d="M64.965,74.221c0,11.043-8.955,20.002-20,20.002s-20-8.959-20-20.002c0-11.038,8.955-20,20-20
			S64.965,63.183,64.965,74.221z"/>
	</g>
	<g>
		<path fill="#FFFFFF" d="M39.18,57.2C39.179,57.198,39.094,57.022,39.18,57.2L39.18,57.2z"/>
		<path fill="#FFFFFF" d="M44.193,55.946c0.033-0.228,0.417-0.28-0.294-0.28C43.786,56.087,44.08,55.776,44.193,55.946
			L44.193,55.946z"/>
		<path fill="#FFFFFF" d="M42.526,79.012c0.142-0.489,0.374-0.526,0.789-0.24c-0.059-0.608-1.483-0.347-1.891-1.211
			c-0.029-1.729-0.354-1.204-1.711-1.545c0.256-0.361,0.58-1.208,0.637-1.605c0.186-1.306-1.653,0.865-1.35,0.765
			c-1.829,0.604-2.563-2.252-1.662-3.338c0.46-0.556,1.05-0.307,1.544-0.509c0.091-0.036,0.497,0.193,0.759,0.178
			c-0.165,0.01,0.326-0.444,0.65-0.467c1.382-0.096,1.305,1.154,2.14,1.963c0.57-1.099-0.668-1.96,0.585-2.981
			c0.763-0.622,1.269-0.752,0.688-1.688c0.221,0.072,0.133-0.02,0.41,0.147c0.265-0.763,0.753-1.287,1.563-1.273
			c-0.299-0.887,1.199-1.608,1.972-1.354c-0.268,0.319-0.775-0.108-0.699,0.514c0.575-0.143,1.489-0.392,1.674-1.1
			c-0.598,0.706-1.806-0.12-1.418-0.422c0.447-0.347-0.215-0.438-0.494-0.359c-0.533,0.148-0.972,0.593-1.383,0.947
			c0.106-0.234,0.298-0.387,0.468-0.57c-0.113-0.026-0.227-0.054-0.34-0.08c0.553,0,1.434-0.566,2.069-0.704
			c0.485,0.347,1.334-0.367,1.888-0.585c0.085,0.298-0.15,0.534-0.342,0.745c-0.556,0.666,0.852,0.634,1.343,0.83
			c0.575-0.634-0.387-1.037-0.874-1.143c0.205-0.771-0.375-1.422-1.328-0.976c0.159-0.069,0.526-0.375,0.756-0.49
			c-1.229-0.079-2.081-1.749-2.824-2.569c0.081-0.04,0.206,0.105,0.286,0.102c-0.14-0.13-0.419-0.497-0.638-0.684
			c0.247,0.208,0.635,0.297,0.915,0.465c-0.024-0.571-0.27-0.826-0.843-1.21c0.054-0.065,0.115-0.124,0.182-0.176
			c0.211,0.253,0.584,0.372,0.812,0.547c0.724-0.742-0.283-0.93-1.013-1.196c-0.051-0.312,0.057-0.067,0.207-0.239
			c-0.256-0.353-1.478-1.26-2.211-0.863c-0.003-0.137,0.016-0.346,0.039-0.489c-0.527-0.018-0.683,0.412-0.722,0.717
			c0.11-0.307,0.1-0.401,0.309-0.725c-0.517,0-0.736,0.246-0.979,0.686c-0.038-0.125,0.343,0.22,0.28,0.162
			c-0.098-0.04-0.196-0.036-0.293,0.011c0.144,0.03,0.425,0.199,0.637,0.292c-0.102,0.236-0.389,0.589-0.688,0.865
			c-0.019-0.548-0.197-0.336-0.345-0.483c0.026-1.465-0.624-0.625-0.893,0.001c0.153-0.018,0.237-0.038,0.371-0.117
			c-0.073,0.151-0.44,0.495-0.567,0.596c-0.042-0.049-0.083-0.097-0.125-0.146c0.588-0.828-0.154-0.307-0.071-0.295
			c-0.544-0.076-1.638-0.06-1.978,0.57c-0.016-0.547-0.128-0.423-0.745-0.488c0.1-0.088,0.199-0.082,0.3-0.156
			c-0.375-0.368-0.42-0.5-0.957-0.397c0.059-0.077,0.117-0.153,0.176-0.23c0.037,0.013-0.392,0.168-0.364,0.156
			c0.074-0.088,0.149-0.176,0.223-0.264c-0.299,0.108-0.81,0.235-1.187,0.384c0.284-0.107,0.559-0.235,0.84-0.341
			c-0.383,0.116-0.88,0.155-1.255,0.235c0.015-0.205-0.041-0.435-0.132-0.431c-1.228-0.092-3.226,1.74-4.212,2.686
			c-0.007,0.184,0.054,0.219-0.448,0.658c0.268-0.19,0.728-0.328,0.95-0.465c0.146,0.483,0.699,1.606,0.38,2.094
			c-0.737,1.125,0.549,1.836,0.031,2.95c-0.054-0.598-0.066-1.059-0.558-1.239c0.826,1.899-1.341,3.689-0.437,5.823
			c0.556,0.083,1.272,2.145,1.024,2.353c-0.11,0.093,0.905,1.719,1.049,1.969c0.395-0.777-0.934-2.232-0.929-3.23
			c0.593,0.209,1.154,1.87,1.562,2.52c0.774,1.233,0.492,1.633,1.687,2.493c1.193,0.86,2.281,0.626,3.396,1.342
			C40.318,77.414,40.897,78.44,42.526,79.012L42.526,79.012z"/>
		<path fill="#FFFFFF" d="M56.163,82.602c-0.456,0-0.754-0.633-1.145-0.5c-0.274,0.011-1.135-0.136-1.043-0.166
			c-0.847-0.593-1.588-2.34-3.457-2.455c-0.794,0.039-1.422-0.996-2.089-1.125c-0.101-0.189-0.055-0.298,0.138-0.324
			c-0.169-0.245-1.29,0.004-1.519-0.039c-1.262,0-1.15-0.797-1.699,0.551c-0.457-0.258-0.096-1.028,0.074-1.214
			c-1.041,0.562-2.413,0.861-2.04,2.315c0.206,0.804-1.919,2.214-0.829,2.373c0.019,0.367-0.769,0.388-0.391,0.869
			c0.017,0.531,1.451,2.187,1.778,2.643c0.573,0.798,2.007,0.854,1.51,2.115c-0.15,0.231-0.469,1.979-0.462,2.028
			c0.169,0.913-0.708,1.932-0.483,2.677c0.059,0.042,0.124,0.055,0.196,0.037c0.158-0.16-0.165-0.287,0.176-0.287
			c0,0.177-0.129,0.46-0.162,0.674c-0.172-0.052-0.05-0.168-0.185-0.168c0.056,0.1,0.1,0.203,0.132,0.313
			c-0.518-0.342,0.001,0.271,0.019,0.332c-0.632,0.063,0.476,1.401,0.997,0.893c-0.71-0.193-0.021-0.841,0.32-1.01
			c0.012-0.035-0.613-0.354-0.104-0.408c0.103,0,0.683-0.549,0.661-0.586c-0.058-0.019-0.198,0.039-0.21,0.039
			c0-0.091,0-0.183,0-0.273c0.757,0,2.056-0.589,1.78-1.383c0.757-0.021,1.824-0.57,1.884-0.696
			c1.104-0.084,0.839-1.868,2.096-1.868c0.832-0.135,1.453-0.554,1.929-1.311C54.385,86.089,56.768,82.897,56.163,82.602
			C56.065,82.602,56.251,82.645,56.163,82.602z"/>
	</g>
</g>
<g>
	<path fill="none" d="M104.602,9H61.399c-6.663,0-12.254,4.533-13.896,10.68h19.099c10.166,0,18.896,6.252,22.558,15.112
		c8.632,2.218,15.021,10.032,15.021,19.348c0,8.645-5.496,15.989-13.179,18.782V97.32h13.601c7.955,0,14.399-6.446,14.399-14.399
		v-59.52C119,15.448,112.555,9,104.602,9z"/>
	<g>
		<path fill="#404547" d="M104.602,9H61.399c-6.663,0-12.254,4.533-13.896,10.68h19.099c10.166,0,18.896,6.252,22.558,15.112
			c8.632,2.218,15.021,10.032,15.021,19.348c0,8.645-5.496,15.989-13.179,18.782V97.32h13.601c7.955,0,14.399-6.446,14.399-14.399
			v-59.52C119,15.448,112.555,9,104.602,9z"/>
	</g>
</g>
<g>
	<path fill="#404547" d="M95.377,62.521c-0.1,0-0.208,0-0.343,0c-0.316-0.09-0.36-0.651-0.804-0.501
		c-0.104,0.004-0.237,0.013-0.399,0.015c-0.251-0.142-0.815-0.073-0.642-0.181c-0.446-0.312-0.446-0.312-0.678-0.333
		c-0.025,0-0.043,0.002-0.141-0.033c-0.141-0.072-0.434-0.101-0.406-0.123c-0.01-0.021-0.023-0.057-0.025-0.091
		c0,0-0.149-0.041-0.364-0.118c-0.021,0.003-0.043,0.003-0.078,0.003c-0.006,0.001-0.026,0.001-0.063,0.004
		c-0.021,0.02,0.114-0.362,0-0.596c-0.059,0-0.119,0.009-0.184,0c0.012-0.113,0.012-0.23,0.029-0.352
		c-0.139-0.37-0.139-0.37-0.158-0.394c0,0-0.049-0.024-0.122-0.06v8.157c0.021-0.014,0.037-0.021,0.06-0.035
		c0.1-0.009,0.178-0.009,0.26-0.009c0.035-0.006,0.035-0.006,0.309-0.194c0.219,0,0.417-0.013,0.65-0.076
		c0.027-0.041,0.074-0.099,0.115-0.119c0.094-0.039,0.094-0.039,0.797-0.854c0.025-0.006,0.025-0.006,0.313-0.498
		c0-0.017,0-0.038,0.042-0.099c0.127-0.176,0.192-0.264,0.22-0.387c0.014-0.039,0.022-0.064,0.051-0.147c0-0.013,0-0.047,0-0.086
		c0.016-0.039,0.026-0.078,0.043-0.171c0.035-0.113,0.063-0.23,0.191-0.369c0,0,0.588-0.479,0.745-0.632l0.531-0.625
		c0.151-0.195,0.151-0.195,0.182-0.329C95.561,62.63,95.466,62.563,95.377,62.521z"/>
</g>
</svg>
