<?xml version="1.0" encoding="iso-8859-1"?>
<!-- Generator: Adobe Illustrator 15.0.0, SVG Export Plug-In . SVG Version: 6.00 Build 0)  -->
<!DOCTYPE svg PUBLIC "-//W3C//DTD SVG 1.1//EN" "http://www.w3.org/Graphics/SVG/1.1/DTD/svg11.dtd">
<svg version="1.1" id="Ebene_1" xmlns="http://www.w3.org/2000/svg" xmlns:xlink="http://www.w3.org/1999/xlink" x="0px" y="0px"
	 width="128px" height="128px" viewBox="0 0 128 128" enable-background="new 0 0 128 128" xml:space="preserve">
<g>
	<linearGradient id="SVGID_1_" gradientUnits="userSpaceOnUse" x1="24.0391" y1="119" x2="24.0391" y2="9.0005">
		<stop  offset="0.3" style="stop-color:#426080"/>
		<stop  offset="1" style="stop-color:#819CBD"/>
	</linearGradient>
	<path fill="url(#SVGID_1_)" d="M32.23,94.407c0-3.925,1.517-7.605,4.277-10.37l2.571-2.57V9H9v110l15.041-14.865L39.078,119
		v-11.653l-2.569-2.569C33.75,102.02,32.23,98.337,32.23,94.407z"/>
	<linearGradient id="SVGID_2_" gradientUnits="userSpaceOnUse" x1="103.9609" y1="119.0527" x2="103.9609" y2="9.0154">
		<stop  offset="0.3" style="stop-color:#426080"/>
		<stop  offset="1" style="stop-color:#819CBD"/>
	</linearGradient>
	<path fill="url(#SVGID_2_)" d="M107.672,46.776c3.918,0,7.592,1.511,10.348,4.255L119,52V9H88.922v50.419l8.38-8.363
		C100.061,48.296,103.743,46.776,107.672,46.776z"/>
	<linearGradient id="SVGID_3_" gradientUnits="userSpaceOnUse" x1="64.0005" y1="119.0527" x2="64.0005" y2="9.0152">
		<stop  offset="0.3" style="stop-color:#426080"/>
		<stop  offset="1" style="stop-color:#819CBD"/>
	</linearGradient>
	<path fill="url(#SVGID_3_)" d="M63.919,77.366l3.507,3.506l11.613-11.59V9H48.961v64.824c1.461-0.477,3.003-0.736,4.588-0.736
		C57.47,73.088,61.149,74.604,63.919,77.366z"/>
</g>
<g>
	<path fill="#404547" d="M117.643,71.393l-46.401,46.328c-0.899,0.899-2.226,1.323-3.974,1.274
		c-1.599-0.047-2.823-0.476-3.673-1.274L43.578,97.704c-0.899-0.898-1.348-1.997-1.348-3.297c0-1.299,0.449-2.398,1.348-3.299
		l6.673-6.672c0.899-0.897,1.998-1.349,3.298-1.349c1.299,0,2.398,0.451,3.298,1.349l10.57,10.571l36.957-36.883
		c0.899-0.9,1.998-1.349,3.297-1.349s2.399,0.449,3.3,1.349l6.671,6.596c0.898,0.951,1.35,2.063,1.35,3.336
		C118.992,69.333,118.541,70.443,117.643,71.393z"/>
</g>
</svg>
