<?xml version="1.0" encoding="utf-8"?>
<!-- Generator: Adobe Illustrator 16.0.3, SVG Export Plug-In . SVG Version: 6.00 Build 0)  -->
<!DOCTYPE svg PUBLIC "-//W3C//DTD SVG 1.1//EN" "http://www.w3.org/Graphics/SVG/1.1/DTD/svg11.dtd">
<svg version="1.1" xmlns="http://www.w3.org/2000/svg" xmlns:xlink="http://www.w3.org/1999/xlink" x="0px" y="0px" width="128px"
	 height="128px" viewBox="0 0 128 128" enable-background="new 0 0 128 128" xml:space="preserve">
<g id="Ebene_2">
</g>
<g id="Ebene_1" display="none">
	<path display="inline" fill="#00325A" d="M92.679,87.327c-7.366-10.271-12.264-8.001-16.785-10.088
		c-4.522-2.087-3.479-9.045-3.479-9.045L64,66.9l-8.414,1.294c0,0,1.043,6.958-3.479,9.045s-9.419-0.184-16.786,10.088
		c-5.739,8.002-4.174,31.657-4.174,31.657h27.699h10.308h27.699C96.854,118.984,98.418,95.329,92.679,87.327z"/>
	<path display="inline" fill="#00325A" d="M64,75.122c-22.125,0-33.547-52.514,0-52.514C97.547,22.608,86.125,75.122,64,75.122z"/>
	<path display="inline" fill="#00325A" d="M52.502,49.407c1.09,4.508-3.872,9.576-5.982,10.087c-2.111,0.51-4.707-2.73-5.797-7.238
		c-1.09-4.507-0.262-8.576,1.849-9.086C44.682,42.658,51.412,44.899,52.502,49.407z"/>
	<path display="inline" fill="#00325A" d="M75.479,49.407c-1.09,4.508,3.871,9.576,5.982,10.087c2.111,0.51,4.707-2.73,5.797-7.238
		c1.09-4.507,0.262-8.576-1.85-9.086C83.3,42.658,76.569,44.899,75.479,49.407z"/>
	<path display="inline" fill="#00325A" d="M223.679,89.327c-7.366-10.271-13.264-9.001-17.785-11.088
		c-2.108-0.974-3-4.004-3.359-5.896c4.097-2.794,7.432-7.449,9.633-12.821c1.954-0.247,5.354-15.843,3.242-16.354
		c-0.109-0.026-0.239-0.041-0.372-0.053C214.43,32.16,205.291,22.608,194,22.608s-20.43,9.551-21.037,20.505
		c-0.141,0.012-0.275,0.028-0.391,0.056c-2.111,0.51,1.303,16.125,3.262,16.355c2.201,5.373,5.535,10.027,9.632,12.82
		c-0.358,1.893-1.25,4.923-3.358,5.896c-4.521,2.087-10.42,0.816-17.786,11.088c-5.739,8.002-6.175,30.657-6.175,30.657h71.707
		C229.854,119.984,229.418,97.329,223.679,89.327z"/>
	<g display="inline">
		<path fill="#00325A" d="M194.001,22.606c-19.357-1.105-24.721,13.453-23.131,23.04c1.535,9.259,2.372,18.077-1.027,20.854
			c2.94,1.36,5.03-0.705,6.514-1.619c-0.487,5.913-7.833,8.132-7.833,8.132c3.67,3.332,15.468,2.379,17.829-1.508
			C188.714,67.617,194.001,22.606,194.001,22.606z"/>
		<path fill="#00325A" d="M194.046,22.606c19.357-1.105,24.721,13.453,23.131,23.04c-1.535,9.259-2.372,18.077,1.027,20.854
			c-2.94,1.36-5.03-0.705-6.514-1.619c0.487,5.913,7.833,8.132,7.833,8.132c-3.67,3.332-15.468,2.379-17.829-1.508
			C199.333,67.617,194.046,22.606,194.046,22.606z"/>
	</g>
	<g display="inline">
		<path fill="#9BA096" d="M252.393,75.464c3.485,3.055,13.354,3.584,16.631,0.549c0,0-7.203-2.219-7.68-8.132
			c1.453,0.914,3.504,2.979,6.387,1.619c-3.333-2.777-2.513-11.595-1.008-20.854c1.559-9.587-3.699-24.145-22.677-23.04
			c0,0,0,0.003,0.004,0.004c-0.019,0-0.033-0.002-0.049-0.002v-0.001c-18.978-1.105-24.235,13.453-22.677,23.04
			c1.505,9.259,2.325,18.077-1.005,20.854c2.877,1.36,4.928-0.705,6.384-1.619c-0.479,5.913-7.68,8.132-7.68,8.132
			c3.26,3.02,13.042,2.511,16.575-0.501C237.535,73.314,249.756,72.992,252.393,75.464z"/>
		<path fill="#9BA096" d="M271.425,91.327c-4.226-10.086-11.844-8.419-14.786-9.088s-3.945-7.829-4.323-9.728
			c0,0-5.485-8.329-8.403-9.445v-0.037c-0.013,0.004-0.026,0.014-0.039,0.019c-0.013-0.004-0.026-0.014-0.039-0.019v0.037
			c-2.918,1.117-8.403,9.445-8.403,9.445c-0.378,1.898-1.381,9.059-4.323,9.728s-10.561-0.998-14.786,9.088
			c-3.848,9.184-4.175,28.657-4.175,28.657h31.688h0.078H275.6C275.6,119.984,275.272,100.511,271.425,91.327z"/>
	</g>
	<path display="inline" fill="#9BA096" d="M-20.085,90.063c-4.709-11.239-13.198-9.381-16.478-10.127
		c-2.138-0.487-3.353-4.041-4.06-7.048c4.347,2.946,14.401,3.314,17.862,0.108c0,0-8.027-4.746-8.559-11.337
		c1.62,1.02,3.905,3.32,7.118,1.806c-3.715-3.096-3.938-10.648-2.261-20.967c1.736-10.684-2.985-26.908-24.135-25.675
		c0,0,0,0.003,0.004,0.004c-0.02,0-0.037-0.003-0.054-0.003v-0.001c-21.148-1.232-25.872,14.991-24.134,25.675
		c1.678,10.319,1.454,17.871-2.257,20.967c3.207,1.515,5.492-0.786,7.114-1.806c-0.534,6.591-8.559,11.337-8.559,11.337
		c3.362,3.114,12.936,2.855,17.467,0.141c-0.714,2.95-1.922,6.326-4,6.799c-3.279,0.746-11.769-1.112-16.479,10.127
		C-85.781,100.299-86.146,122-86.146,122h35.313h0.086h35.314C-15.432,122-15.796,100.299-20.085,90.063z"/>
	<linearGradient id="SVGID_1_" gradientUnits="userSpaceOnUse" x1="80.5078" y1="128" x2="80.5078" y2="-5.2885">
		<stop  offset="0" style="stop-color:#1A466A"/>
		<stop  offset="1" style="stop-color:#66849C"/>
	</linearGradient>
	<path display="inline" fill="url(#SVGID_1_)" d="M102.081,72.747c-1.85-0.452-3.591-0.874-5.296-1.618
		c-2.26-0.987-5.086-5.576-4.063-6.535c5.22-4.896,8.327-9.25,10.939-14.803l0.821-1.758l1.837-0.829
		c1.536-0.69,3.579-3.331,4.688-7.675c0.631-2.479,0.762-4.984,0.357-6.87c-0.291-1.351-0.772-2.065-1.118-2.278l-2.15-1.322
		l-0.322-2.404C106.109,13.951,98.623,0,80.541,0C62.46,0,54.98,13.946,53.303,26.641l-0.32,2.422l-2.172,1.318
		c-0.352,0.212-0.831,0.924-1.121,2.277c-0.405,1.889-0.276,4.396,0.355,6.873c1.114,4.354,3.157,6.993,4.694,7.676l1.856,0.826
		l0.832,1.77c2.604,5.547,5.922,10.091,10.929,14.788c1.341,1.258-1.79,5.544-4.06,6.537c-1.716,0.749-3.461,1.17-5.301,1.619
		C53.881,73.99,48.08,75.405,41.041,84.69c-5.291,6.988-7.727,30.98-8.025,43.31h70.056H128c-0.154-8.716-1.886-35.286-7.964-43.31
		C113.004,75.407,107.201,73.991,102.081,72.747z"/>
</g>
<g id="Ebene_1_Kopie" display="none">
	<linearGradient id="SVGID_2_" gradientUnits="userSpaceOnUse" x1="39.0005" y1="128" x2="39.0005" y2="9.52">
		<stop  offset="0" style="stop-color:#00325A"/>
		<stop  offset="1" style="stop-color:#335B7B"/>
	</linearGradient>
	<path display="inline" fill="url(#SVGID_2_)" d="M71.11,90.722C62.893,78.23,56.32,79.776,51.277,77.239
		c-2.307-1.16-3.302-4.72-3.716-7.024c3.963,3.714,15.188,4.361,18.919,0.671c0,0-8.195-2.701-8.737-9.89
		c1.652,1.111,3.984,3.623,7.264,1.969c-3.79-3.377-2.854-14.101-1.146-25.358c1.771-11.657-4.204-29.36-25.795-28.015v0.003
		c-0.017,0-0.033-0.002-0.052-0.002V9.592c-21.588-1.346-27.57,16.357-25.796,28.015c1.71,11.258,2.644,21.981-1.147,25.358
		c3.28,1.653,5.609-0.858,7.266-1.969c-0.543,7.189-8.736,9.89-8.736,9.89c3.708,3.668,14.837,3.051,18.857-0.609
		c-0.421,2.308-1.422,5.812-3.706,6.963c-5.043,2.537-9.648,0.004-17.862,12.495C0.488,99.463,0,128,0,128h78
		C78,128,77.513,100.45,71.11,90.722z"/>
	<g display="inline">
		<linearGradient id="SVGID_3_" gradientUnits="userSpaceOnUse" x1="81" y1="128" x2="81" y2="-5.2885">
			<stop  offset="0" style="stop-color:#1A466A"/>
			<stop  offset="1" style="stop-color:#66849C"/>
		</linearGradient>
		<path fill="url(#SVGID_3_)" d="M104.006,68.925c-1.72-0.485-3.33-0.94-4.906-1.734c-2.088-1.054-8.752-5.964-7.803-6.988
			c4.833-5.235,6.696-6.607,9.114-12.542l0.762-1.877l1.7-0.887c1.423-0.74,3.319-3.561,4.34-8.206
			c0.585-2.652,0.708-5.331,0.332-7.348c-0.274-1.441-0.713-2.206-1.04-2.436l-1.982-1.413l-0.307-2.573
			C102.681,9.341,94.907,0,81.038,0C67.16,0,59.389,9.336,57.835,22.908l-0.299,2.59l-2.01,1.409
			c-0.323,0.229-0.767,0.986-1.038,2.435c-0.373,2.02-0.255,4.699,0.332,7.351c1.033,4.655,2.923,7.474,4.345,8.207l1.718,0.884
			l0.771,1.889c2.412,5.935,4.473,7.505,9.105,12.528c1.242,1.346-5.703,5.93-7.797,6.99c-1.593,0.799-3.208,1.253-4.909,1.735
			c-4.736,1.325-10.105,2.839-16.625,12.768C36.532,89.166,34.28,114.813,34,128h70.92H128c-0.143-9.317-1.745-37.733-7.376-46.308
			C114.12,71.766,108.75,70.251,104.006,68.925z"/>
	</g>
</g>
<g id="Ebene_4">
	<g>
		<path fill="#404547" d="M73.413,63.975l15.091,15.14c0.672,0.697,0.996,1.47,0.996,2.391c0,0.896-0.324,1.693-0.996,2.3
			l-4.682,4.696c-0.623,0.674-1.42,0.998-2.341,0.998s-1.718-0.324-2.341-0.998L64,73.389L48.859,88.502
			c-0.635,0.674-1.407,0.998-2.341,0.998s-1.706-0.324-2.341-0.998l-4.682-4.696c-0.66-0.606-0.996-1.403-0.996-2.3
			c0-0.921,0.336-1.693,0.996-2.391l15.091-15.14L39.496,48.872c-0.66-0.673-0.996-1.454-0.996-2.366
			c0-0.921,0.336-1.71,0.996-2.365l4.682-4.691c0.635-0.638,1.407-0.949,2.341-0.949s1.706,0.312,2.341,0.949L64,54.6l15.141-15.15
			c0.623-0.638,1.42-0.949,2.341-0.949s1.718,0.312,2.341,0.949l4.682,4.691c0.672,0.655,0.996,1.444,0.996,2.365
			c0,0.912-0.324,1.693-0.996,2.366L73.413,63.975z"/>
	</g>
	<linearGradient id="SVGID_4_" gradientUnits="userSpaceOnUse" x1="64.0005" y1="119" x2="64.0005" y2="9.0005">
		<stop  offset="0.3" style="stop-color:#426080"/>
		<stop  offset="1" style="stop-color:#819CBD"/>
	</linearGradient>
	<path fill="url(#SVGID_4_)" d="M104,19c2.757,0,5,2.243,5,5v80c0,2.757-2.243,5-5,5H24c-2.757,0-5-2.243-5-5V24
		c0-2.757,2.243-5,5-5H104 M104,9H24C15.716,9,9,15.716,9,24v80c0,8.284,6.716,15,15,15h80c8.284,0,15-6.716,15-15V24
		C119,15.716,112.284,9,104,9L104,9z"/>
</g>
</svg>
