<?xml version="1.0" encoding="utf-8"?>
<!-- Generator: Adobe Illustrator 16.0.3, SVG Export Plug-In . SVG Version: 6.00 Build 0)  -->
<!DOCTYPE svg PUBLIC "-//W3C//DTD SVG 1.1//EN" "http://www.w3.org/Graphics/SVG/1.1/DTD/svg11.dtd">
<svg version="1.1" xmlns="http://www.w3.org/2000/svg" xmlns:xlink="http://www.w3.org/1999/xlink" x="0px" y="0px" width="128px"
	 height="128px" viewBox="0 0 128 128" enable-background="new 0 0 128 128" xml:space="preserve">
<g id="Ebene_5" display="none">
	<g display="inline">
		<path fill="#404547" d="M82.457,64.014l29.59,29.715c1.305,1.309,1.953,2.854,1.953,4.649c0,1.786-0.648,3.307-1.953,4.54
			l-9.18,9.189c-1.234,1.308-2.771,1.955-4.59,1.955c-1.82,0-3.357-0.647-4.59-1.955L64,82.486l-29.688,29.621
			c-1.239,1.308-2.767,1.955-4.59,1.955c-1.825,0-3.353-0.647-4.59-1.955l-9.18-9.189c-1.302-1.233-1.953-2.754-1.953-4.54
			c0-1.796,0.651-3.341,1.953-4.649l29.59-29.715l-29.59-29.617C14.651,33.091,14,31.545,14,29.753c0-1.794,0.651-3.34,1.953-4.644
			l9.18-9.189c1.237-1.239,2.765-1.857,4.59-1.857c1.823,0,3.351,0.619,4.59,1.857L64,45.635L93.688,15.92
			c1.232-1.239,2.77-1.857,4.59-1.857c1.818,0,3.355,0.619,4.59,1.857l9.18,9.189c1.305,1.303,1.953,2.849,1.953,4.644
			c0,1.792-0.648,3.338-1.953,4.644L82.457,64.014z"/>
	</g>
</g>
<g id="Ebene_4">
	<g>
		<path fill="#404547" d="M109.254,22.823c1.496,1.497,2.262,3.272,2.228,5.326c0.011,2.03-0.735,3.795-2.226,5.284l-30.57,30.565
			l30.561,30.561c1.49,1.489,2.229,3.255,2.244,5.275c-0.009,2.075-0.736,3.847-2.232,5.343l-4.074,4.074
			c-1.498,1.499-3.283,2.222-5.367,2.222c-2.062-0.058-3.825-0.793-5.267-2.227L63.998,78.686l-30.55,30.559
			c-1.494,1.491-3.27,2.249-5.298,2.235c-2.055,0.036-3.831-0.729-5.332-2.226l-4.069-4.074c-1.503-1.499-2.239-3.305-2.207-5.352
			c0.036-2.073,0.755-3.819,2.215-5.27L49.312,64L18.747,33.435c-1.497-1.492-2.239-3.262-2.257-5.293
			c0.012-2.065,0.76-3.823,2.263-5.321l4.074-4.074c1.496-1.5,3.25-2.245,5.314-2.256c2.031,0.022,3.801,0.765,5.293,2.257
			L64,49.312l30.569-30.565c1.489-1.489,3.257-2.234,5.286-2.223c2.054-0.04,3.825,0.723,5.324,2.226L109.254,22.823z"/>
	</g>
</g>
</svg>
