<?xml version="1.0" encoding="utf-8"?>
<!-- Generator: Adobe Illustrator 16.0.3, SVG Export Plug-In . SVG Version: 6.00 Build 0)  -->
<!DOCTYPE svg PUBLIC "-//W3C//DTD SVG 1.1//EN" "http://www.w3.org/Graphics/SVG/1.1/DTD/svg11.dtd">
<svg version="1.1" xmlns="http://www.w3.org/2000/svg" xmlns:xlink="http://www.w3.org/1999/xlink" x="0px" y="0px" width="128px"
	 height="128px" viewBox="0 0 128 128" enable-background="new 0 0 128 128" xml:space="preserve">
<g id="Ebene_2">
</g>
<g id="Ebene_1">
	<g>
		<rect x="59.703" y="93.545" fill="#404547" width="8.594" height="27.736"/>
	</g>
	<g>
		<rect x="5.986" y="113.393" fill="#404547" width="116.014" height="8.549"/>
	</g>
	<g>
		<linearGradient id="SVGID_1_" gradientUnits="userSpaceOnUse" x1="22.5449" y1="97.5566" x2="22.5449" y2="59.8724">
			<stop  offset="0.3" style="stop-color:#426080"/>
			<stop  offset="1" style="stop-color:#819CBD"/>
		</linearGradient>
		<path fill="url(#SVGID_1_)" d="M6.467,66.12C6.168,67.026,6,67.992,6,68.999V88.43c0,5.041,4.058,9.127,9.062,9.127H39.09
			l-6.075-5.854L6.467,66.12z"/>
		<linearGradient id="SVGID_2_" gradientUnits="userSpaceOnUse" x1="85.9766" y1="97.5566" x2="85.9766" y2="59.8726">
			<stop  offset="0.3" style="stop-color:#426080"/>
			<stop  offset="1" style="stop-color:#819CBD"/>
		</linearGradient>
		<path fill="url(#SVGID_2_)" d="M88,67.999h20.962c1.199,0,2.163,0.971,2.163,2.178v17.074c0,1.209-0.964,2.179-2.163,2.179H82.849
			c-1.199,0-2.161-0.97-2.161-2.179V76.186H78H49.954v8.316v13.055h62.982c5.005,0,9.063-4.086,9.063-9.127V68.999
			c0-5.041-4.059-9.127-9.063-9.127H88v6.313V67.999z"/>
		<linearGradient id="SVGID_3_" gradientUnits="userSpaceOnUse" x1="85.9766" y1="43.6855" x2="85.9766" y2="6">
			<stop  offset="0.3" style="stop-color:#426080"/>
			<stop  offset="1" style="stop-color:#819CBD"/>
		</linearGradient>
		<path fill="url(#SVGID_3_)" d="M49.954,27.379H78h2.688V16.306c0-1.202,0.966-2.178,2.161-2.178h26.113
			c1.197,0,2.163,0.976,2.163,2.178v17.075c0,1.202-0.966,2.177-2.163,2.177H88v1.821v6.307h24.937c5.005,0,9.063-4.087,9.063-9.128
			v-19.43C122,10.086,117.941,6,112.937,6H49.954v13.055V27.379z"/>
		<linearGradient id="SVGID_4_" gradientUnits="userSpaceOnUse" x1="22.5444" y1="43.6855" x2="22.5444" y2="5.9999">
			<stop  offset="0.3" style="stop-color:#426080"/>
			<stop  offset="1" style="stop-color:#819CBD"/>
		</linearGradient>
		<path fill="url(#SVGID_4_)" d="M39.088,6H15.062C10.058,6,6,10.086,6,15.128v19.43c0,1.009,0.169,1.977,0.469,2.884l26.545-25.586
			L39.088,6z"/>
		<g>
			<path fill="#FFFFFF" d="M108.962,14.128H82.849c-1.195,0-2.161,0.976-2.161,2.178v11.077H88v8.175h20.962
				c1.197,0,2.163-0.975,2.163-2.177V16.306C111.125,15.104,110.159,14.128,108.962,14.128z"/>
		</g>
	</g>
	<g>
		<polygon fill="#404547" points="6,51.782 39.954,19.055 39.954,37.379 78,37.379 78,66.186 39.954,66.186 39.954,84.502 		"/>
	</g>
	<g>
		<path fill="#FFFFFF" d="M108.962,67.999H88v8.188h-7.313v11.063c0,1.209,0.962,2.179,2.161,2.179h26.113
			c1.199,0,2.163-0.97,2.163-2.179V70.177C111.125,68.97,110.161,67.999,108.962,67.999z"/>
	</g>
</g>
</svg>
