<svg id="Layer_1" data-name="Layer 1" xmlns="http://www.w3.org/2000/svg" viewBox="0 0 111.84 111.84"><title>teamspeak_vectors</title><path d="M111.06,53.74C110.19,24.74,85.53.61,55.66.83,25.67.35-.49,26.23.8,58.25,2,87.1,26.74,112,57.91,111,87,110,112,85.07,111.06,53.74Zm-55.25,47A45.06,45.06,0,0,1,11,55.9C11.06,31.3,31.3,11,55.75,11a44.84,44.84,0,1,1,.06,89.68Z" style="fill:#454b4c"/><path d="M75.76,67.35c-13.29,11.93-27.72,12-41,.09C32,65,29.24,63.82,26.49,66.81S25.37,72.63,27.88,75c7.68,7.3,16.75,11.25,27.45,11.21A39.27,39.27,0,0,0,82.66,74.8c2.56-2.61,3.7-5.39.92-8.24S78.29,65.08,75.76,67.35Z" style="fill:#454b4c"/><path d="M38.4,50a7.31,7.31,0,0,0,7.35-7.62,7.59,7.59,0,1,0-15.16.5C30.82,47.34,33.89,50.14,38.4,50Z" style="fill:#454b4c"/><path d="M73.77,50a7.22,7.22,0,0,0,7.51-7.46,7.73,7.73,0,0,0-7.47-7.68,7.61,7.61,0,0,0-7.74,7.88A7.29,7.29,0,0,0,73.77,50Z" style="fill:#454b4c"/></svg>