<?xml version="1.0" encoding="iso-8859-1"?>
<!-- Generator: Adobe Illustrator 15.0.0, SVG Export Plug-In . SVG Version: 6.00 Build 0)  -->
<!DOCTYPE svg PUBLIC "-//W3C//DTD SVG 1.1//EN" "http://www.w3.org/Graphics/SVG/1.1/DTD/svg11.dtd">
<svg version="1.1" id="Ebene_1" xmlns="http://www.w3.org/2000/svg" xmlns:xlink="http://www.w3.org/1999/xlink" x="0px" y="0px"
	 width="128px" height="128px" viewBox="0 0 128 128" enable-background="new 0 0 128 128" xml:space="preserve">
<path fill="#002F5D" d="M117.766,101.358L70.199,19.002c-1.281-2.212-3.651-3.586-6.212-3.586s-4.931,1.374-6.211,3.586
	L9.959,101.813c-1.28,2.231-1.28,4.961,0,7.173c1.281,2.239,3.652,3.598,6.213,3.598h95.629c0.009-0.001,0.019-0.001,0.025,0
	c3.962,0,7.173-3.21,7.173-7.17C119,103.918,118.535,102.526,117.766,101.358"/>
<path fill="#FFFFFF" d="M56.5,47.33c0-0.988,0.343-1.822,1.022-2.49c0.68-0.684,1.519-1.024,2.507-1.024h7.941
	c0.987,0,1.829,0.352,2.509,1.043c0.681,0.697,1.021,1.517,1.021,2.471v25.546c0,0.989-0.341,1.817-1.021,2.49
	c-0.68,0.683-1.521,1.019-2.509,1.019h-7.941c-0.988,0-1.827-0.336-2.507-1.019c-0.679-0.673-1.022-1.501-1.022-2.49V47.33z"/>
<path fill="#FFFFFF" d="M56.5,86.782c0-0.988,0.343-1.823,1.022-2.493c0.68-0.681,1.519-1.022,2.507-1.022h7.941
	c0.987,0,1.829,0.353,2.509,1.043c0.681,0.698,1.021,1.518,1.021,2.473v7.523c0,0.989-0.341,1.818-1.021,2.497
	c-0.68,0.68-1.521,1.014-2.509,1.014h-7.941c-0.988,0-1.827-0.334-2.507-1.014c-0.679-0.679-1.022-1.508-1.022-2.497V86.782z"/>
</svg>
