<?xml version="1.0" encoding="utf-8"?>
<!-- Generator: Adobe Illustrator 16.0.3, SVG Export Plug-In . SVG Version: 6.00 Build 0)  -->
<!DOCTYPE svg PUBLIC "-//W3C//DTD SVG 1.1//EN" "http://www.w3.org/Graphics/SVG/1.1/DTD/svg11.dtd">
<svg version="1.1" xmlns="http://www.w3.org/2000/svg" xmlns:xlink="http://www.w3.org/1999/xlink" x="0px" y="0px" width="128px"
	 height="128px" viewBox="0 0 128 128" enable-background="new 0 0 128 128" xml:space="preserve">
<g id="Ebene_1_Kopie_Kopie_Kopie_Kopie_Kopie" display="none">
	<linearGradient id="SVGID_1_" gradientUnits="userSpaceOnUse" x1="53.8389" y1="118.6846" x2="53.8389" y2="9.1671">
		<stop  offset="0.3" style="stop-color:#426080"/>
		<stop  offset="1" style="stop-color:#819CBD"/>
	</linearGradient>
	<path display="inline" fill="url(#SVGID_1_)" d="M98.678,104c0,8.284-6.716,15-15,15H24c-8.284,0-15-6.716-15-15V24
		c0-8.284,6.716-15,15-15h59.678c8.284,0,15,6.716,15,15V104z"/>
	<g display="inline">
		<path fill="#404547" d="M64.002,41.5C76.407,41.5,86.5,51.593,86.5,63.998C86.5,76.405,76.407,86.5,64.002,86.5
			C51.594,86.5,41.5,76.405,41.5,63.998C41.5,51.593,51.594,41.5,64.002,41.5 M64.002,31.5C46.055,31.5,31.5,46.055,31.5,63.998
			C31.5,81.94,46.055,96.5,64.002,96.5S96.5,81.94,96.5,63.998C96.5,46.055,81.949,31.5,64.002,31.5L64.002,31.5z"/>
		<path fill="#FFFFFF" d="M64.002,31.5C81.949,31.5,96.5,46.055,96.5,63.998C96.5,81.94,81.949,96.5,64.002,96.5
			S31.5,81.94,31.5,63.998C31.5,46.055,46.055,31.5,64.002,31.5 M64.002,21.5C40.566,21.5,21.5,40.564,21.5,63.998
			c0,23.436,19.066,42.502,42.502,42.502c23.434,0,42.498-19.066,42.498-42.502C106.5,40.564,87.436,21.5,64.002,21.5L64.002,21.5z"
			/>
	</g>
	
		<line display="inline" fill="none" stroke="#404547" stroke-width="10" stroke-miterlimit="10" x1="91.758" y1="91.758" x2="119" y2="119"/>
	<linearGradient id="SVGID_2_" gradientUnits="userSpaceOnUse" x1="64.0005" y1="118.6846" x2="64.0005" y2="9.1669">
		<stop  offset="0.3" style="stop-color:#426080"/>
		<stop  offset="1" style="stop-color:#819CBD"/>
	</linearGradient>
	<path display="inline" fill="url(#SVGID_2_)" d="M64.002,31.5C46.055,31.5,31.5,46.055,31.5,63.998
		C31.5,81.94,46.055,96.5,64.002,96.5c3.741,0,7.331-0.641,10.676-1.805l6.474-6.474l7.07-7.07l6.473-6.473
		c1.165-3.347,1.806-6.938,1.806-10.681C96.5,46.055,81.949,31.5,64.002,31.5z"/>
</g>
<g id="Ebene_1_Kopie_Kopie_Kopie_Kopie_Kopie_Kopie" display="none">
	<g display="inline">
		<path fill="none" d="M81.151,88.222l-6.474,6.474c9.354-3.255,16.761-10.663,20.017-20.017l-6.473,6.473L81.151,88.222z"/>
		<linearGradient id="SVGID_3_" gradientUnits="userSpaceOnUse" x1="53.8389" y1="118.6846" x2="53.8389" y2="9.1671">
			<stop  offset="0.3" style="stop-color:#426080"/>
			<stop  offset="1" style="stop-color:#819CBD"/>
		</linearGradient>
		<path fill="url(#SVGID_3_)" d="M21.5,63.998C21.5,40.564,40.566,21.5,64.002,21.5c14.304,0,26.97,7.11,34.676,17.975V24
			c0-8.284-6.716-15-15-15H24C15.715,9,9,15.716,9,24v80c0,8.284,6.716,15,15,15h59.678c3.915,0,7.469-1.513,10.14-3.97
			l-12.316-12.316c-5.341,2.425-11.262,3.786-17.499,3.786C40.566,106.5,21.5,87.434,21.5,63.998z"/>
		<path fill="#404547" d="M90.287,97.357l25.178,25.178l7.07-7.07L97.357,90.287C95.285,92.912,92.912,95.285,90.287,97.357z"/>
	</g>
	<path display="inline" fill="#404547" d="M64.002,41.5C76.407,41.5,86.5,51.593,86.5,63.998C86.5,76.405,76.407,86.5,64.002,86.5
		C51.594,86.5,41.5,76.405,41.5,63.998C41.5,51.593,51.594,41.5,64.002,41.5 M64.002,31.5C46.055,31.5,31.5,46.055,31.5,63.998
		C31.5,81.94,46.055,96.5,64.002,96.5S96.5,81.94,96.5,63.998C96.5,46.055,81.949,31.5,64.002,31.5L64.002,31.5z"/>
	
		<line display="inline" fill="none" stroke="#404547" stroke-width="10" stroke-linecap="round" stroke-miterlimit="10" x1="99.119" y1="99.119" x2="119" y2="119"/>
</g>
<g id="Ebene_1_Kopie_Kopie_Kopie_Kopie_Kopie_Kopie_Kopie" display="none">
	<g display="inline">
		<path fill="none" d="M81.151,88.222l-6.474,6.474c9.354-3.255,16.761-10.663,20.017-20.017l-6.473,6.473L81.151,88.222z"/>
	</g>
	<path display="inline" fill="#404547" d="M64.002,41.5C76.407,41.5,86.5,51.593,86.5,63.998C86.5,76.405,76.407,86.5,64.002,86.5
		C51.594,86.5,41.5,76.405,41.5,63.998C41.5,51.593,51.594,41.5,64.002,41.5 M64.002,31.5C46.055,31.5,31.5,46.055,31.5,63.998
		C31.5,81.94,46.055,96.5,64.002,96.5S96.5,81.94,96.5,63.998C96.5,46.055,81.949,31.5,64.002,31.5L64.002,31.5z"/>
	<path display="inline" fill="#404547" d="M90.287,97.357l25.178,25.178l7.07-7.07L97.357,90.287
		C95.285,92.912,92.912,95.285,90.287,97.357z"/>
	
		<line display="inline" fill="none" stroke="#404547" stroke-width="10" stroke-linecap="round" stroke-miterlimit="10" x1="99.119" y1="99.119" x2="119" y2="119"/>
	<path display="inline" fill="#404547" d="M90.287,97.357l25.178,25.178l7.07-7.07L97.357,90.287
		C95.285,92.912,92.912,95.285,90.287,97.357z"/>
	
		<line display="inline" fill="none" stroke="#404547" stroke-width="10" stroke-linecap="round" stroke-miterlimit="10" x1="99.119" y1="99.119" x2="119" y2="119"/>
</g>
<g id="Ebene_1_Kopie_Kopie_Kopie_Kopie_Kopie_Kopie_Kopie_Kopie">
	<g>
		<path fill="#404547" d="M80.346,20.889c14.758,0,26.766,12.006,26.766,26.762c0,14.749-12.008,26.757-26.766,26.757
			c-14.747,0-26.753-12.008-26.753-26.757C53.593,32.895,65.599,20.889,80.346,20.889 M80.346,9c-21.331,0-38.65,17.306-38.65,38.65
			c0,21.326,17.319,38.654,38.65,38.654C101.693,86.305,119,68.977,119,47.65C119,26.306,101.693,9,80.346,9L80.346,9z"/>
	</g>
	<g>
		<g>
			<path fill="#404547" d="M39.405,73.889l-28.189,28.189c-1.459,1.45-2.179,3.196-2.215,5.27c-0.033,2.047,0.704,3.853,2.207,5.352
				l4.069,4.074c1.501,1.496,3.277,2.262,5.332,2.226c2.028,0.014,3.804-0.744,5.298-2.235L54.088,88.58
				C48.205,84.792,43.19,79.774,39.405,73.889z"/>
		</g>
	</g>
</g>
</svg>
