<?xml version="1.0" encoding="iso-8859-1"?>
<!-- Generator: Adobe Illustrator 15.0.0, SVG Export Plug-In . SVG Version: 6.00 Build 0)  -->
<!DOCTYPE svg PUBLIC "-//W3C//DTD SVG 1.1//EN" "http://www.w3.org/Graphics/SVG/1.1/DTD/svg11.dtd">
<svg version="1.1" id="Ebene_4" xmlns="http://www.w3.org/2000/svg" xmlns:xlink="http://www.w3.org/1999/xlink" x="0px" y="0px"
	 width="128px" height="128px" viewBox="0 0 128 128" enable-background="new 0 0 128 128" xml:space="preserve">
<linearGradient id="SVGID_1_" gradientUnits="userSpaceOnUse" x1="64.0005" y1="111.4629" x2="64.0005" y2="17.1178">
	<stop  offset="0.3" style="stop-color:#426080"/>
	<stop  offset="1" style="stop-color:#819CBD"/>
</linearGradient>
<path fill="url(#SVGID_1_)" d="M110.406,30.914H64.859v-6.016c0-4.746-3.847-8.594-8.594-8.594H17.594
	C12.848,16.305,9,20.152,9,24.898v14.609v5.156v0.859v42.969v14.609c0,4.746,3.848,8.594,8.594,8.594h92.813
	c4.747,0,8.594-3.848,8.594-8.594V45.523v-0.859v-5.156C119,34.762,115.153,30.914,110.406,30.914z"/>
<path fill="#FFFFFF" d="M63.952,54.374c1.049,0,2.088,0.519,3.127,1.562L87.98,77.133c0.681,0.681,1.02,1.51,1.02,2.486
	c0,0.976-0.339,1.804-1.02,2.493l-2.495,2.484c-0.679,0.69-1.517,1.029-2.493,1.029s-1.804-0.339-2.485-1.029L64,68.095
	L47.492,84.597c-0.68,0.69-1.513,1.029-2.488,1.029c-0.977,0-1.806-0.339-2.491-1.029l-2.488-2.484
	C39.34,81.423,39,80.595,39,79.619c0-0.977,0.34-1.806,1.024-2.486l20.802-21.197C61.867,54.893,62.905,54.374,63.952,54.374z"/>
</svg>
