<svg id="Layer_1" data-name="Layer 1" xmlns="http://www.w3.org/2000/svg" xmlns:xlink="http://www.w3.org/1999/xlink" viewBox="0 0 512 512"><defs><linearGradient id="linear-gradient" x1="318.92" y1="-2.03" x2="318.92" y2="98.14" gradientUnits="userSpaceOnUse"><stop offset="0" stop-color="#728dae"/><stop offset="1" stop-color="#426080"/></linearGradient><linearGradient id="linear-gradient-2" x1="404.95" y1="68.76" x2="404.95" y2="139.43" xlink:href="#linear-gradient"/><linearGradient id="linear-gradient-3" x1="255.84" y1="121.09" x2="255.84" y2="505.25" xlink:href="#linear-gradient"/><linearGradient id="linear-gradient-4" x1="85.28" y1="242.81" x2="85.28" y2="314.05" gradientTransform="translate(-94.88 -54.15) rotate(-27.81)" xlink:href="#linear-gradient"/><linearGradient id="linear-gradient-5" x1="213.67" y1="-43.03" x2="213.67" y2="65.42" gradientTransform="matrix(0.94, 0.34, -0.34, 0.94, 47.2, 35.25)" xlink:href="#linear-gradient"/><linearGradient id="linear-gradient-6" x1="213.67" y1="-42.94" x2="213.67" y2="65.51" gradientTransform="matrix(0.94, 0.34, -0.34, 0.94, 47.2, 35.25)" xlink:href="#linear-gradient"/></defs><title>1</title><path d="M392.76,97.81V98c0-.06,0-.13,0-.2S392.76,97.8,392.76,97.81Z" style="fill:#446181"/><path d="M393,98.94a1.68,1.68,0,0,1-.08-.2l0,.06A.58.58,0,0,0,393,98.94Z" style="fill:#446181"/><path d="M393.84,93.12h0Z" style="fill:#446181"/><path d="M394.48,93.29a.23.23,0,0,0-.12-.06h.06A.13.13,0,0,1,394.48,93.29Z" style="fill:#446181"/><path d="M394.83,93.61h0Z" style="fill:#446181"/><path d="M395.19,94.76a3.91,3.91,0,0,0-.13-.62,2.19,2.19,0,0,1,.08.3C395.16,94.55,395.18,94.66,395.19,94.76Z" style="fill:#446181"/><path d="M395.33,95.65c0-.18-.06-.38-.09-.58s0-.2,0-.3c0,.1,0,.2.05.31S395.3,95.47,395.33,95.65Z" style="fill:#446181"/><path d="M395.46,96.09l0-.06a.05.05,0,0,0,0,0,0,0,0,0,0,0,0h0a.09.09,0,0,0,0-.05A1.47,1.47,0,0,0,395.46,96.09Z" style="fill:#446181"/><path d="M399.14,88.71a4.58,4.58,0,0,0-1.07-.05,1.23,1.23,0,0,0-.27,0l0,0A4.62,4.62,0,0,1,399.14,88.71Z" style="fill:#446181"/><path d="M399.36,88.76h0l-.19-.05Z" style="fill:#446181"/><path d="M399.51,88.82l-.13-.05.14.05Z" style="fill:#446181"/><path d="M399.59,88.84h-.07Z" style="fill:#446181"/><path d="M399.85,89l0,0,.05,0Z" style="fill:#446181"/><path d="M406.95,93.64h0Z" style="fill:#446181"/><path d="M407.09,89.78a.3.3,0,0,0,0,.09,0,0,0,0,0,0,0Z" style="fill:#446181"/><path d="M407.43,93.58a.4.4,0,0,1-.15,0l-.2,0,.22,0Z" style="fill:#446181"/><path d="M407.38,89.23h0a.78.78,0,0,1,.09-.13A.85.85,0,0,0,407.38,89.23Z" style="fill:#446181"/><path d="M407.7,88.84l-.06.07,0,0A1,1,0,0,1,407.7,88.84Z" style="fill:#446181"/><path d="M407.77,93.48h0Z" style="fill:#446181"/><path d="M407.95,105.45c0,.13-.07.25-.1.37a.15.15,0,0,1,0-.07Z" style="fill:#446181"/><path d="M408,93.38h0s0,0-.06,0l0,0s0,0,0,0Z" style="fill:#446181"/><path d="M408,93.35l0,0h0Z" style="fill:#446181"/><path d="M407.86,92.27c-.05-.09-.11-.18-.17-.27l0,.05A1.81,1.81,0,0,1,407.86,92.27Z" style="fill:#446181"/><path d="M408,92.53c0-.09-.09-.17-.14-.26a1.75,1.75,0,0,1,.11.18s0,0,0,0S408,92.52,408,92.53Z" style="fill:#446181"/><path d="M407.69,107c0,.05,0,.09,0,.13a.28.28,0,0,1,0-.09v0Z" style="fill:#446181"/><path d="M407.73,107.54a.08.08,0,0,0,0-.05.76.76,0,0,0,0-.15.81.81,0,0,1,0-.16s0,.05,0,.07A2.66,2.66,0,0,0,407.73,107.54Z" style="fill:#446181"/><path d="M408,108.86h0c0-.05,0-.08,0-.12l0-.08a5.58,5.58,0,0,1-.14-.55l0-.16a.68.68,0,0,1,0-.15s0,.06,0,.09A5.36,5.36,0,0,0,408,108.86Z" style="fill:#446181"/><path d="M408.07,92.69c0-.05-.05-.1-.07-.16l.06.11A.44.44,0,0,0,408.07,92.69Z" style="fill:#446181"/><path d="M408.1,93.18a.74.74,0,0,0,0-.48A.63.63,0,0,1,408.1,93.18Z" style="fill:#446181"/><path d="M408.1,105.05a3.17,3.17,0,0,0-.15.39,2.81,2.81,0,0,1,.12-.34Z" style="fill:#446181"/><path d="M408.19,109.3l-.06-.14c0-.09-.07-.19-.1-.28C408.08,109,408.13,109.16,408.19,109.3Z" style="fill:#446181"/><path d="M408.37,88.16l.17-.16-.34.32Z" style="fill:#446181"/><path d="M408.89,87.66l-.17.17h0c.05-.05.11-.1.16-.16Z" style="fill:#446181"/><path d="M408.51,104.25a4.56,4.56,0,0,1,.26-.4c0-.37-.07-.74-.1-1.11,0,.37.07.75.11,1.12Z" style="fill:#446181"/><path d="M409.48,133.27l.18,0h0Z" style="fill:#446181"/><path d="M414.42,132.62l-.16.07-.11,0,.11-.05Z" style="fill:#446181"/><path d="M415,132.38l-.23.11-.13.06-.13.05h0l.28-.12Z" style="fill:#446181"/><path d="M415.72,132l-.07,0-.23.11-.23.1.46-.22Z" style="fill:#446181"/><path d="M416.58,131.56c-.15.09-.3.18-.46.26l-.39.2.39-.21Z" style="fill:#446181"/><path d="M417,131.28a0,0,0,0,1,0,0l-.45.26.45-.27Z" style="fill:#446181"/><path d="M418.14,130.57l-.53.36-.12.08-.44.27.44-.28Z" style="fill:#446181"/><path d="M418.88,130l-.1.08c-.18.14-.38.28-.57.41l.57-.42Z" style="fill:#446181"/><path d="M419.62,129.43s0,0-.05.05l-.34.28-.05,0-.2.15.2-.16.39-.32A.1.1,0,0,0,419.62,129.43Z" style="fill:#446181"/><path d="M419.71,112.57s0,0,0,0h0Z" style="fill:#446181"/><path d="M420,129.1l-.06.06-.16.13.16-.14Z" style="fill:#446181"/><path d="M420.67,114a1,1,0,0,0-.07-.15.36.36,0,0,0-.06-.14A1.53,1.53,0,0,1,420.67,114Z" style="fill:#446181"/><path d="M420.79,114.27l0-.07s0,0,0,0,0,0,0,0A.65.65,0,0,1,420.79,114.27Z" style="fill:#446181"/><path d="M421.4,116.9a.36.36,0,0,0,0-.11c0-.14-.05-.28-.07-.42,0,.14.05.28.08.42A.41.41,0,0,1,421.4,116.9Z" style="fill:#446181"/><path d="M421.91,126.89c-.06.1-.12.21-.19.31h0Z" style="fill:#446181"/><path d="M397.77,88.67l-.19,0h0a.21.21,0,0,1,0,.06h.1l.08-.05.09,0Z" style="fill:#6480a0"/><path d="M98.28,152.12a5.75,5.75,0,0,1-.38-2.2A6.16,6.16,0,0,0,98.28,152.12Z" style="fill:#fefefe"/><path d="M98.68,154.07a2.09,2.09,0,0,1-.1.67.38.38,0,0,0,0,.12.42.42,0,0,1,0-.12A2.09,2.09,0,0,0,98.68,154.07Z" style="fill:#fefefe"/><path d="M96.23,167.12c-.08-.26-.15-.51-.22-.78s0-.76.06-1.14c0,.38,0,.77-.05,1.15Z" style="fill:#fefefe"/><path d="M118.41,181.4a15.73,15.73,0,0,1-1.82.32C117.2,181.64,117.81,181.54,118.41,181.4Z" style="fill:#fefefe"/><path d="M120.2,180.91c.73-.24,1.45-.52,2.18-.84A22,22,0,0,1,120.2,180.91Z" style="fill:#fefefe"/><path d="M385.7,114.11q-.06.38-.09.76l.06-.56Z" style="fill:#fefefe"/><path d="M385.81,113.36l-.06.42s0,0,0,.07,0,.16,0,.25A6,6,0,0,1,385.81,113.36Z" style="fill:#fefefe"/><path d="M386.44,110.75c-.09.26-.17.53-.25.8l.18-.6A1.07,1.07,0,0,1,386.44,110.75Z" style="fill:#fefefe"/><path d="M387,109.19c-.11.25-.22.51-.32.77a1.48,1.48,0,0,1,.07-.19C386.88,109.57,387,109.38,387,109.19Z" style="fill:#fefefe"/><path d="M392.77,98.13a.2.2,0,0,1,0-.08s0,0,0,.05Z" style="fill:#fefefe"/><path d="M392.76,97.81V98c0-.06,0-.13,0-.2S392.76,97.8,392.76,97.81Z" style="fill:#fefefe"/><path d="M392.77,97.25c0,.06,0,.12,0,.18v-.08S392.77,97.28,392.77,97.25Z" style="fill:#fefefe"/><path d="M392.77,97.25a.17.17,0,0,1,0-.07v0S392.77,97.24,392.77,97.25Z" style="fill:#fefefe"/><path d="M392.89,96.43a2.54,2.54,0,0,0,0,.27s0,0,0,0A1.06,1.06,0,0,1,392.89,96.43Z" style="fill:#fefefe"/><path d="M393.65,93.11h0Z" style="fill:#fefefe"/><path d="M393.84,93.12h0Z" style="fill:#fefefe"/><path d="M394.06,93.13h0Z" style="fill:#fefefe"/><path d="M394.1,93.14h0Z" style="fill:#fefefe"/><path d="M394.12,93.14h0Z" style="fill:#fefefe"/><path d="M394.48,93.29a.23.23,0,0,0-.12-.06l0,0a.32.32,0,0,1,.09,0A.13.13,0,0,1,394.48,93.29Z" style="fill:#fefefe"/><path d="M394.79,93.56a0,0,0,0,0,0,0h0S394.79,93.57,394.79,93.56Z" style="fill:#fefefe"/><path d="M394.83,93.61h0Z" style="fill:#fefefe"/><path d="M397.57,88.69h0l.23,0h0l-.06,0-.08,0Z" style="fill:#fefefe"/><path d="M399,94.5s0,0-.05.05l-.13.1-.06.05a1.54,1.54,0,0,1-.22.16l-.15.11c-.45.33-.92.62-1.33.88l-.29.19a3,3,0,0,1-.51.28,4.21,4.21,0,0,0,.51-.29c.18-.13.38-.25.59-.38s.21-.14.32-.21l.33-.22.68-.47Z" style="fill:#fefefe"/><path d="M399.66,93.91a4.23,4.23,0,0,1-.3.3h0Z" style="fill:#fefefe"/><path d="M398.88,88.11a4.62,4.62,0,0,0-.55.26l.23-.11Z" style="fill:#fefefe"/><path d="M400.21,93.28a0,0,0,0,0,0,0h0Z" style="fill:#fefefe"/><path d="M400.38,93s0,0,0,.05a0,0,0,0,0,0,0Z" style="fill:#fefefe"/><path d="M400.87,87.4l.76-.17a13.9,13.9,0,0,0-1.51.39Z" style="fill:#fefefe"/><path d="M405.71,87.08l-.36,0,.23,0h.13Z" style="fill:#fefefe"/><path d="M405.73,87.08l.74.09-.59-.07Z" style="fill:#fefefe"/><path d="M407.46,87.34l-1-.17.59.09Z" style="fill:#fefefe"/><path d="M407.95,93.38h0S407.95,93.39,407.95,93.38Z" style="fill:#fefefe"/><path d="M407.86,92.27c-.05-.09-.11-.18-.17-.27l0,.05A1.81,1.81,0,0,1,407.86,92.27Z" style="fill:#fefefe"/><path d="M408.07,92.69c0-.05-.05-.1-.07-.16s-.09-.17-.14-.26a1.75,1.75,0,0,1,.11.18s0,0,0,0,.05.1.07.15A.44.44,0,0,0,408.07,92.69Z" style="fill:#fefefe"/><path d="M408.1,93.18a.74.74,0,0,0,0-.48A.63.63,0,0,1,408.1,93.18Z" style="fill:#fefefe"/><path d="M408.89,87.65h0l-.73-.17-.34-.08C408.16,87.47,408.52,87.56,408.89,87.65Z" style="fill:#fefefe"/><path d="M410.73,112.62l.36.19h0C411,112.74,410.84,112.69,410.73,112.62Z" style="fill:#fefefe"/><path d="M411.35,112.93l-.2-.08-.05,0,.05,0Z" style="fill:#fefefe"/><path d="M411.67,113l-.1,0-.05,0h.05Z" style="fill:#fefefe"/><path d="M412.05,113.12h0Z" style="fill:#fefefe"/><path d="M413.14,113.2H413l-.49,0c-.14,0-.27,0-.39-.06h0A4.77,4.77,0,0,0,413.14,113.2Z" style="fill:#fefefe"/><path d="M413.21,113.19h0Z" style="fill:#fefefe"/><path d="M414.09,113.1a3.84,3.84,0,0,1-.47.07h-.28l.37,0Z" style="fill:#fefefe"/><path d="M419.71,112.57s0,0,0,0h0Z" style="fill:#fefefe"/><path d="M384,122.92h0s0,.06,0,.09A.25.25,0,0,1,384,122.92Z" style="fill:#fefefe"/><path d="M384,122.91a.74.74,0,0,1,0-.09v.08Z" style="fill:#fefefe"/><path d="M384.07,122.32a1.23,1.23,0,0,0-.07.5.28.28,0,0,1,0-.09,1.64,1.64,0,0,1,0-.22.06.06,0,0,0,0,0A.44.44,0,0,1,384.07,122.32Z" style="fill:#fefefe"/><path d="M384.08,123.21A.84.84,0,0,1,384,123a20451924894.49,20451924894.49,0,0,1,0,.06,0,0,0,0,0,0,0A.27.27,0,0,0,384.08,123.21Z" style="fill:#fefefe"/><path d="M384.1,122.24a0,0,0,0,0,0,0l0,.05s0,0,0-.05Z" style="fill:#fefefe"/><path d="M389.59,125.26l-.12-.12,0,0Z" style="fill:#fefefe"/><path d="M390.84,126.43l-.38-.32-.07-.07.07.06Z" style="fill:#fefefe"/><path d="M391.52,127h0l-.11-.09Z" style="fill:#fefefe"/><path d="M391.69,127.08l.28.2h0Z" style="fill:#fefefe"/><path d="M392.28,127.49l-.2-.13-.11-.08.11.07Z" style="fill:#fefefe"/><path d="M393.19,128.07l-.54-.33a3.82,3.82,0,0,1-.36-.24l.36.23Z" style="fill:#fefefe"/><path d="M393.82,128.43l-.59-.33,0,0,0,0C393.42,128.21,393.62,128.32,393.82,128.43Z" style="fill:#fefefe"/><path d="M398.42,130.63l-.19-.08-.65-.28-.26-.12.26.11.65.28Z" style="fill:#fefefe"/><path d="M397.56,88.68A2.24,2.24,0,0,1,395.19,90c-.08,0-.22-.32-.17-.42.55-1.23,1.66-.78,2.61-.83Z" style="fill:#fefefe"/><path d="M391.54,91.75,392,91c.55.85-.14.64-.56.65Z" style="fill:#fefefe"/><path d="M391.46,91.66l-.27.78-.47-.39.83-.3Z" style="fill:#fefefe"/><path d="M230,238.15l.23.08a.61.61,0,0,0-.19-.06l-.2-.05Z" style="fill:#6480a0"/><path d="M239.2,249.43a.89.89,0,0,1,0,.16,2,2,0,0,0-.06-.35A1.3,1.3,0,0,1,239.2,249.43Z" style="fill:#6480a0"/><path d="M239.24,249.68a2.82,2.82,0,0,1,0,.41,4.13,4.13,0,0,0,0-.5S239.23,249.65,239.24,249.68Z" style="fill:#6480a0"/><path d="M268.05,194.19a0,0,0,0,0,0,0s0,0,0,0Z" style="fill:#6480a0"/><path d="M268.27,199.42l-.06,0a0,0,0,0,1,0,0h0Z" style="fill:#6480a0"/><path d="M270.83,201.31c-.68-.54-1.4-1.08-2.17-1.6-.14-.1-.27-.19-.39-.29.12.09.25.19.39.28C269.43,200.22,270.15,200.76,270.83,201.31Z" style="fill:#6480a0"/><path d="M272.41,202.7c.05.05.1.11.15.15-.16-.16-.32-.31-.49-.46l.06.05Z" style="fill:#6480a0"/><path d="M274.32,204.76h0l-.2-.24C274.17,204.59,274.24,204.68,274.32,204.76Z" style="fill:#6480a0"/><path d="M274.32,204.77a4.29,4.29,0,0,1,.27.36,1.15,1.15,0,0,0-.1-.13Z" style="fill:#6480a0"/><path d="M276.31,229.86l0,0-.2-.18-.63-.55-.16-.15-.15-.14-.15-.15.15.14.15.14.16.15.63.55.2.18S276.3,229.84,276.31,229.86Z" style="fill:#6480a0"/><path d="M276.64,230.1h0l-.15-.1-.09-.07a.24.24,0,0,0,.09.06Z" style="fill:#6480a0"/><path d="M277,230.29l-.17-.07a0,0,0,0,0,0,0h0Z" style="fill:#6480a0"/><path d="M277.51,199.24c-.06-.07-.13-.13-.2-.2a.85.85,0,0,1,.14.13Z" style="fill:#6480a0"/><path d="M282,206.52c-.1-.24-.19-.49-.29-.74a2.94,2.94,0,0,1,.14.31A4.32,4.32,0,0,1,282,206.52Z" style="fill:#6480a0"/><path d="M282.44,207.7a5.53,5.53,0,0,0-.18-.53c.05.12.09.23.13.35A1.22,1.22,0,0,1,282.44,207.7Z" style="fill:#6480a0"/><path d="M283.36,211.71c0-.3-.09-.58-.15-.88-.09-.44-.16-.88-.26-1.31q.21.88.36,1.78C283.33,211.44,283.35,211.58,283.36,211.71Z" style="fill:#6480a0"/><path d="M283.42,212.09c0,.13,0,.25,0,.38,0-.19,0-.38-.07-.57Z" style="fill:#6480a0"/><path d="M263.72,208.81l-.17-.12-.28-.22.28.21A1.1,1.1,0,0,1,263.72,208.81Z" style="fill:#6480a0"/><path d="M263.88,208.93a2.87,2.87,0,0,1,.34.27s0,0,0,0Z" style="fill:#6480a0"/><path d="M264.94,203.27l-.12,0,.05,0Z" style="fill:#6480a0"/><path d="M266,220a.61.61,0,0,0-.06.19s0,0,0,.06,0,0,0-.06S265.95,220,266,220Z" style="fill:#6480a0"/><path d="M270.36,207.11h0a0,0,0,0,1,0,0,13.3,13.3,0,0,0-1.07-1.21l.38.39c.1.1.19.21.29.32l.21.26A2.15,2.15,0,0,1,270.36,207.11Z" style="fill:#6480a0"/><path d="M270.78,207.66a.08.08,0,0,0,0,0l-.2-.27Z" style="fill:#6480a0"/><path d="M271.24,208.41c-.14-.22-.27-.44-.42-.67a.08.08,0,0,0,0,0l0,0,.28.44A2.51,2.51,0,0,1,271.24,208.41Z" style="fill:#6480a0"/><path d="M271.54,209h0a.08.08,0,0,1,0,0Z" style="fill:#6480a0"/><path d="M271.75,209.39c-.05-.09-.09-.19-.14-.28s-.05-.09-.07-.14a1,1,0,0,1,.08.14C271.66,209.2,271.71,209.29,271.75,209.39Z" style="fill:#6480a0"/><path d="M272.11,210.21a3.48,3.48,0,0,0-.14-.34,0,0,0,0,1,0,0,1,1,0,0,0-.07-.15s0,0,0-.05a1.64,1.64,0,0,1,.14.3C272,210,272.08,210.13,272.11,210.21Z" style="fill:#6480a0"/><path d="M271.75,221.22a2.91,2.91,0,0,0,.18-.4l-.1.24c0,.06-.05.11-.07.16l-.06.11A.54.54,0,0,0,271.75,221.22Z" style="fill:#6480a0"/><path d="M272.15,220.29c0,.05,0,.09,0,.13a.78.78,0,0,1-.07.16l.06-.16A.51.51,0,0,0,272.15,220.29Z" style="fill:#6480a0"/><path d="M272.23,210.51a1.78,1.78,0,0,1,.1.3l-.09-.25a3.41,3.41,0,0,0-.13-.34,2.44,2.44,0,0,1,.1.24A.08.08,0,0,0,272.23,210.51Z" style="fill:#6480a0"/><path d="M272.45,211.15a.24.24,0,0,0,0,.08c0-.07-.05-.14-.07-.21l0,.08S272.44,211.13,272.45,211.15Z" style="fill:#6480a0"/><path d="M272.56,211.51v0a2.18,2.18,0,0,0-.07-.24.24.24,0,0,1,0-.08.32.32,0,0,1,0,.09.26.26,0,0,1,0,.07S272.55,211.47,272.56,211.51Z" style="fill:#6480a0"/><path d="M272.7,212c0-.14-.07-.27-.12-.4a.19.19,0,0,0,0-.07A3.67,3.67,0,0,1,272.7,212Z" style="fill:#6480a0"/><path d="M272.79,212.49a0,0,0,0,0,0,0l-.09-.42c.06.21.1.42.14.65C272.82,212.62,272.81,212.55,272.79,212.49Z" style="fill:#6480a0"/><path d="M272.91,213c0,.08,0,.15,0,.23,0-.12,0-.24-.07-.36s0-.13,0-.2C272.87,212.81,272.89,212.92,272.91,213Z" style="fill:#6480a0"/><path d="M273.16,214.75c0-.23-.05-.46-.08-.7,0,.17.05.35.07.53A.81.81,0,0,1,273.16,214.75Z" style="fill:#6480a0"/><path d="M273.17,214.94a.49.49,0,0,0,0-.12v-.07A.6.6,0,0,1,273.17,214.94Z" style="fill:#6480a0"/><path d="M273.19,215.61l-.09.66a1.71,1.71,0,0,0,0,.22C273.11,216.19,273.15,215.9,273.19,215.61Z" style="fill:#6480a0"/><path d="M213.9,238.37l-1,.07-.92,0h-.55c.39,0,.79,0,1.19,0s.87,0,1.3-.08A0,0,0,0,1,213.9,238.37Z" style="fill:#6480a0"/><path d="M218,237.74c-.66.15-1.32.28-2,.38l-1,.14-1,.11h0c.69-.06,1.38-.15,2.08-.25S217.3,237.88,218,237.74Z" style="fill:#6480a0"/><path d="M219.64,213.14l-.05,0h.05Z" style="fill:#6480a0"/><path d="M220.67,237l-1.23.35-.2.05c-.42.11-.86.22-1.28.31C218.87,237.53,219.77,237.28,220.67,237Z" style="fill:#6480a0"/><path d="M223.38,212l-.05,0h.05Z" style="fill:#6480a0"/><path d="M227.95,209.81s0,0,0,0h0Z" style="fill:#6480a0"/><path d="M230.16,208.46l-.12.08h0Z" style="fill:#6480a0"/><path d="M233.08,206.31l0,0h0Z" style="fill:#6480a0"/><path d="M237.47,234.84h0Z" style="fill:#6480a0"/><path d="M234.29,234.91a11.74,11.74,0,0,1,1.19-.06l-1.18.07-.69-.11C233.84,234.83,234.06,234.87,234.29,234.91Z" style="fill:#6480a0"/><path d="M236.65,234.83h0Z" style="fill:#6480a0"/><path d="M239,234.92l-.52,0h-.06Z" style="fill:#6480a0"/><path d="M243.53,235.62h-.07Z" style="fill:#6480a0"/><path d="M255.67,240.41l.25.16-.41-.26Z" style="fill:#6480a0"/><path d="M260,240.87l-.08.06-.08,0Z" style="fill:#6480a0"/><path d="M260.41,240.5a2.55,2.55,0,0,1-.29.26l-.15.11.15-.12A3.73,3.73,0,0,0,260.41,240.5Z" style="fill:#6480a0"/><path d="M261.21,239.09a3.09,3.09,0,0,0,0-.81A2.7,2.7,0,0,1,261.21,239.09Z" style="fill:#6480a0"/><path d="M343,55.85a71.67,71.67,0,0,0-8,4.24c-1,.6-2.94.65-2.56,2.45a3.58,3.58,0,0,0,2.53,2.88c4.15,1.06,6.2,3.34,4.39,7.67-1.73,4.15-7.5,6.6-11.34,5-3.3-1.39-3.88-3.93-2.77-7,.61-1.69,1-3.47-.48-4.62s-2.73.49-4,1.12c-9.13,4.64-9.17,4.69-14-4.6-1-1.92-3.42-3.84-1.4-6.31s4.36-1.57,6.92-.9c4.25,1.13,6.27-1.25,6.61-7.39-1.12-2-1.84-4.34-3.83-5.83-3.52-2.64-7.53-1.88-8.93,2.17-.9,2.61-2.4,4.1-4.86,4.39-2.87.32-3.39-2.4-4.28-4.24-1.74-3.6-5.77-7.16-4.87-10.66.84-3.29,6.22-3.9,9.46-5.93,1.25-.79,3-1.3,2.56-3.25s-1-3.59-3.24-4c-2.79-.53-4.71-2.09-4.59-5.08.15-3.84,2.67-6,6-7.29,2.83-1,5.66-1,7.91,1.39,1.57,1.68,1.38,3.58.59,5.64s-.8,4,1.12,5.48c1.76,1.35,3.17-.18,4.57-.87,9.29-4.55,9.35-4.61,14.12,4.54,2.48,4.74,5.58,9.17,7.31,14.29,2.18,3.87,4.18,7.85,6.59,11.56C346.51,53.42,345.79,54.67,343,55.85Z" style="fill:url(#linear-gradient)"/><path d="M428.67,97.8c-1.2-2.39-2.27-3.15-3.56-4.61a27.09,27.09,0,0,0-32.92-6.5c-11.44,5.89-17.3,19.39-13.57,31.28,3.1,11.41,10.93,17.91,22.19,19.74,10.78,1.75,19.93-2.14,26.28-11.11S434.16,107.73,428.67,97.8Zm-37.26-6h0l0-.13h.14L392,91l.12.21a.82.82,0,0,1,.06.16s0,0,0,.05v0a.43.43,0,0,1,0,.05.08.08,0,0,1,0,.08.1.1,0,0,1-.06.05l-.09,0h-.44l-.05.07-.13.05c-.07.22-.15.43-.22.65h0l-.23-.19-.23-.19Zm-6.56,32.6-.2-.24a.18.18,0,0,1-.05-.07l-.11-.14-.09-.14s0,0,0,0a.21.21,0,0,1,0-.06,2,2,0,0,1-.11-.2h0a2.64,2.64,0,0,1-.11-.24.09.09,0,0,1,0-.05.27.27,0,0,1,0-.12,0,0,0,0,1,0,0,32247.46,32247.46,0,0,0,0-.06.25.25,0,0,1,0-.08h0v-.08a.28.28,0,0,1,0-.09,1.64,1.64,0,0,1,0-.22.06.06,0,0,0,0,0,.44.44,0,0,1,.05-.15s0,0,0-.05h0a0,0,0,0,1,0,0h0a1.6,1.6,0,0,1,.1-.18,2.41,2.41,0,0,1,.21-.26,1.42,1.42,0,0,1,.22-.2l.11-.09.07-.05.28-.19.33-.19a1.67,1.67,0,0,0,1.95,1.09h0c.12.23.25.45.37.67s.25.42.39.63a12.6,12.6,0,0,0,.75,1l.11.13a2.9,2.9,0,0,0,.23.26,2.86,2.86,0,0,0,.23.26h0l0,0,.08.09.36.36.43.41.07.06h0l.38.32.14.11.33.26.1.08.11.08h0l.14.1.26.19h0l.11.07h0l.2.13.36.23h0l.54.33,0,0h0l.59.33.61.33.19.1.42.22.33.16.93.43.63.29.2.09.11.05.07,0,.26.11h0l.65.27h0l.19.08.26.11c1.15.5,2.3,1,3.43,1.57l.21.11.41.21.48.26.69.38.69.41.38.24h0c.27.17.53.35.8.54C396.73,134.76,390.29,130.55,384.84,124.4Zm2.94-3.6a.47.47,0,0,1,.07-.1h0l.05,0,.13-.15h0l-.14.15Zm34.59,4.79a.13.13,0,0,1,0,.06s0,0,0,0v0a2.23,2.23,0,0,1-.05.22.09.09,0,0,1,0,.05h0a1,1,0,0,1-.08.24s0,0,0,0h0a.89.89,0,0,1-.09.2.35.35,0,0,1,0,.09.29.29,0,0,1,0,.08c0,.05-.05.09-.07.14l-.05.08h0c-.06.1-.12.21-.19.31h0a6.54,6.54,0,0,1-.48.62h0a8.65,8.65,0,0,1-.59.65h0c-.15.15-.31.31-.48.46l-.1.09,0,0-.06.05h0l-.16.13-.16.14a.1.1,0,0,1-.05,0h0l-.34.28-.05,0h0l-.2.15-.1.08-.1.07h0c-.18.14-.38.28-.57.41l-.06,0-.53.36-.12.07h0l-.44.27h0l-.45.26-.46.25h0l-.39.2-.07,0h0l-.23.11-.23.1-.23.11-.23.1h0l-.13.06-.13.05h0l-.16.06h0l-.11,0-.17.06-.63.21-.28.08-.27.07a5.1,5.1,0,0,1-.53.12l-.43.07a5.6,5.6,0,0,1-.57.05h-.37l-.57,0h-.14l-.44-.05h-.08l-.16,0h0l-.15,0-.14,0-.12,0-.07,0-.08,0a.13.13,0,0,1-.08,0h0l-.08,0a3.35,3.35,0,0,1-2.1-2.61,9.25,9.25,0,0,1-.15-1,15.29,15.29,0,0,1,0-2.16c.2-3.74-.14-7.24-5.79-6.57-3.83.45-6.91-3.82-11.15-2.71-.89-1.54-2.58-.88-3.83-1.42a.76.76,0,0,0-.12-.69c0-.3,0-.6.07-.91,0,0,0-.08,0-.12l.06-.56,0-.19c0-.09,0-.17,0-.25s0-.05,0-.07l.06-.42c0-.14,0-.27.07-.41s.07-.37.11-.55.13-.56.2-.85l.18-.6a1.07,1.07,0,0,1,.07-.19c0-.14.09-.27.13-.4l.15-.39a1.48,1.48,0,0,1,.07-.19c.08-.19.16-.38.25-.57a13.1,13.1,0,0,1,4.43-5.28c1.7-1.21,2.65-2.42,1.51-5h0a.58.58,0,0,1-.05-.14l0-.06a.26.26,0,0,1,0-.08h0c0-.12-.06-.23-.08-.35a1,1,0,0,1,0-.17v0a.07.07,0,0,1,0-.05v-.23s0,0,0,0v-.22a.49.49,0,0,1,0-.12v-.11s0-.07,0-.1,0,0,0,0v0a.45.45,0,0,1,0-.11,1.5,1.5,0,0,1,0-.21.2.2,0,0,0,0-.08s0,0,0,0,0,0,0,0a2.53,2.53,0,0,1,0-.27.25.25,0,0,1,0-.08c0-.11.05-.23.07-.35s.09-.38.13-.58c0-.05,0-.1,0-.15.17-.73.36-1.47.45-2.15h.55a.77.77,0,0,1,.18.06l0,0a.23.23,0,0,1,.12.06h0l.09.06s0,0,0,0,0,0,.05.05l0,0,.07.08h0a0,0,0,0,0,0,0h0a0,0,0,0,1,0,0h0a1.38,1.38,0,0,1,.13.24l0,.05a1.57,1.57,0,0,1,.08.23,2.2,2.2,0,0,1,.08.3c0,.1,0,.21.05.31s0,.2,0,.3h0c0,.2.05.4.08.57s0,.13,0,.19,0,0,0,.06a.09.09,0,0,1,0,.05h0a0,0,0,0,1,0,0,.05.05,0,0,1,0,0l0,.06s0,0,0,0,0,0,0,0l.08.12c.14.16.36.2.7.05a3,3,0,0,0,.51-.28l.29-.19.3-.2c.11-.06.21-.14.32-.21l.33-.22a3.9,3.9,0,0,0,.37-.24l.15-.11.15-.12.07,0,.06-.05.13-.1s0,0,.05-.05a2.37,2.37,0,0,0,.3-.25l0,0h0l.3-.29a4.17,4.17,0,0,0,.28-.31,2.42,2.42,0,0,0,.21-.26l0,0a0,0,0,0,1,0,0h0a1.65,1.65,0,0,0,.14-.22,0,0,0,0,0,0,0l0,0,.05-.07h0a.3.3,0,0,0,0-.08,2.62,2.62,0,0,0,.14-.29h0a3.45,3.45,0,0,0,.13-.34l0-.09c0-.12.05-.23.07-.35a.43.43,0,0,0,0-.11c0-.13,0-.26,0-.39V91c0-.1,0-.19,0-.28s0,0,0-.06v0h0a0,0,0,0,1,0,0,1,1,0,0,0,0-.17,1.31,1.31,0,0,0-.06-.27,2.26,2.26,0,0,0-.08-.24,1.47,1.47,0,0,0-.1-.22.35.35,0,0,0-.05-.08.71.71,0,0,0-.12-.18,1.33,1.33,0,0,0-.26-.27l-.11-.09a1.4,1.4,0,0,0-.2-.13h0a1.16,1.16,0,0,0-.25-.12l-.07,0h0a.62.62,0,0,0-.18-.06l-.19-.05a4.58,4.58,0,0,0-1.07-.05,1.22,1.22,0,0,0-.27,0l-.09,0-.08.05h-.1c-.05.07-.09.14-.14.2a1.58,1.58,0,0,1-.2.25.94.94,0,0,1-.21.23,1.08,1.08,0,0,1-.23.2,1.34,1.34,0,0,1-.25.16.32.32,0,0,1-.13.06l-.08,0-.08,0h0l-.05,0-.18,0a1.28,1.28,0,0,1-.28,0h-.14a.44.44,0,0,1-.16,0h-.14a.13.13,0,0,1-.06-.05.44.44,0,0,1,0-.07.2.2,0,0,1,0-.08.28.28,0,0,1,0-.21c.53-1.2,1.57-.82,2.49-.84h0a.21.21,0,0,0,0-.06h0l.19,0h0l0,0,.43-.23.07,0a4.64,4.64,0,0,1,.55-.26l.32-.14.22-.1.69-.25.76-.22.76-.17h.07c.27-.05.53-.09.81-.12l.82-.08a17,17,0,0,1,2,0l.23,0h.15l.14,0,.59.07.59.09.4.08.34.07.34.08.73.17c-.05.06-.11.11-.16.16h0l-.17.16-.17.16-.17.16-.16.16-.16.16-.18.2-.06.07s0,0,0,0l-.1.12,0,0a.85.85,0,0,0-.08.12h0l0,0h0l0,.06a1.14,1.14,0,0,0-.12.21l0,.06s0,0,0,0,0,0,0,0a.64.64,0,0,0-.06.18,0,0,0,0,0,0,0s0,0,0,0h0s0,0,0,0h0c0,.05,0,.09,0,.14s0,.07,0,.1a.41.41,0,0,0,0,.11h0a2.26,2.26,0,0,0,.33,1.11l.12.2c.05.07.1.14.14.21a1.21,1.21,0,0,0,.09.15c.06.09.12.18.17.27s.1.17.14.26.05.11.07.16a.74.74,0,0,1,0,.48v0s0,0,0,.05a0,0,0,0,1,0,0l0,0,0,0h0l0,0h0s0,0,0,0l0,0-.05,0,0,0h-.05l-.17.06-.14,0-.13,0h0l-.2,0h-.8l-.1,0h-.06s0,0,0,0a.41.41,0,0,0-.16.08.53.53,0,0,0-.11.1,1.23,1.23,0,0,0,.26,1.6,7.24,7.24,0,0,1,2.16,3.92c.08.35.14.72.19,1.09,0,.18.05.37.07.55l.06.54c0,.2,0,.4.05.6,0,0,0,.09,0,.13a.22.22,0,0,0,0,.08l0,.3c0,.37.07.75.11,1.12l-.27.39h0l-.17.29-.15.3s0,.07-.05.1a1,1,0,0,1,0,.1l0,.05a2.82,2.82,0,0,0-.12.34l-.09.3a.15.15,0,0,0,0,.07s0,0,0,0a6.94,6.94,0,0,0-.13.78h0c0,.11,0,.22,0,.32v.13a.28.28,0,0,0,0,.09s0,.05,0,.07v.09a.76.76,0,0,1,0,.15.08.08,0,0,1,0,.05v.05a.09.09,0,0,0,0,.05c0,.05,0,.1,0,.15s0,.06,0,.09v.06l0,.16a5.58,5.58,0,0,0,.14.55l0,.08s0,.07,0,.12h0c0,.09.06.19.1.28l.06.14.06.15a0,0,0,0,1,0,0,4.14,4.14,0,0,0,.21.42h0s0,0,0,0l.06.11.12.21.21.35c.07.12.15.23.22.34l.06.09c.06.08.12.17.19.25a.45.45,0,0,0,.08.11c.07.09.13.18.2.26a4.18,4.18,0,0,0,.34.38,3.52,3.52,0,0,0,.76.59c.11.07.22.12.33.18h0l.05,0h0l.2.08h0l.16.06h.05l.1,0,.33.08h.07c.12,0,.25,0,.39.06l.49,0h.23a0,0,0,0,0,0,0h.41l.09,0,.38-.05q.39-.08.79-.18a12.11,12.11,0,0,0,1.2-.41,5.58,5.58,0,0,1,2.07-.47,2.35,2.35,0,0,1,.38,0l.22,0,.19.05.15.05a2.16,2.16,0,0,1,.27.12.05.05,0,0,0,0,0l.24.17,0,0s0,0,0,0h0l0,0,.07.06.13.13.06.06a2.13,2.13,0,0,1,.19.23,2.17,2.17,0,0,1,.16.25l.1.18c0,.05.05.09.07.14a.36.36,0,0,1,.06.14,1,1,0,0,1,.07.15l0,.08a.62.62,0,0,0,.05.12s0,0,0,0h0a.65.65,0,0,1,0,.07,2.28,2.28,0,0,1,.08.24,2.6,2.6,0,0,1,.08.26,2.67,2.67,0,0,0,.07.27c0,.11.05.22.08.32s.05.22.07.33.09.44.13.67.05.28.07.42h0a.41.41,0,0,1,0,.11.36.36,0,0,1,0,.1,1.57,1.57,0,0,0,0,.21c.47,2.56.21,5.23.89,7.86a0,0,0,0,0,0,0,.68.68,0,0,1,0,.14v.09a0,0,0,0,1,0,0A.56.56,0,0,1,422.37,125.59Z" style="fill:url(#linear-gradient-2)"/><path d="M126.34,421.68q0-27.37-.1-54.75Q126.34,394.3,126.34,421.68Z" style="fill:#fefefe"/><path d="M131.15,307.33c2.66.72,5.32,1.41,8,2.12l-8-2.11a15.56,15.56,0,0,0-1.55-.35A15.29,15.29,0,0,1,131.15,307.33Z" style="fill:#fefefe"/><path d="M203.75,321.58l5.85-6.81-5.84,6.81q-.32.36-.64.67A7.94,7.94,0,0,0,203.75,321.58Z" style="fill:#fefefe"/><path d="M227.19,294.39c.46-.43.93-.88,1.38-1.33-.44.45-.91.9-1.38,1.34Z" style="fill:#fefefe"/><path d="M241.6,484.52c-2.22-.8-4.4-1.59-6.56-2.39Z" style="fill:#fefefe"/><path d="M263,285.32c.05,1.51.13,3,.16,4.53C263.11,288.34,263,286.83,263,285.32Z" style="fill:#fefefe"/><path d="M263.65,275.9c-.1,1.38-.19,2.64-.27,3.84.08-1.2.17-2.47.26-3.85Z" style="fill:#fefefe"/><path d="M359.7,311.73c-15.85,4-31.7,8.07-47.5,12.21a8.24,8.24,0,0,1-5.07,0,8.32,8.32,0,0,0,5.07,0C328,319.78,343.85,315.75,359.7,311.73Z" style="fill:#fefefe"/><path d="M272.91,176.57q4.51-4.67,9-9.36C278.9,170.35,275.93,173.46,272.91,176.57Z" style="fill:#fefefe"/><path d="M80.75,275.18c.76-.86,1.5-1.7,2.26-2.54l-2.25,2.54Z" style="fill:#fefefe"/><path d="M103.91,248.79c.61-.75,1.24-1.47,1.89-2.18-.64.72-1.26,1.45-1.88,2.19-.92,1.11-1.83,2.21-2.77,3.3C102.08,251,103,249.9,103.91,248.79Z" style="fill:#fefefe"/><path d="M120.69,230.78a7.2,7.2,0,0,0-.77.72A5.63,5.63,0,0,1,120.69,230.78Z" style="fill:#fefefe"/><path d="M276.56,267.83l-1.93-2.09h0Z" style="fill:#fefefe"/><path d="M304.69,256l-11.28,3.39c-1.56.47-3.15.9-4.74,1.31,1.59-.42,3.18-.85,4.73-1.32Z" style="fill:#fefefe"/><path d="M385.82,232.24a9.14,9.14,0,0,0-1.27.25A7.87,7.87,0,0,1,385.82,232.24Z" style="fill:#fefefe"/><path d="M387.23,232.29a4.69,4.69,0,0,0-1.41-.05A4.12,4.12,0,0,1,387.23,232.29Z" style="fill:#fefefe"/><path d="M388,232.56a4.08,4.08,0,0,0-.8-.26A3.35,3.35,0,0,1,388,232.56Z" style="fill:#fefefe"/><path d="M117.81,208.56l.34.41-.35-.41-.38-.45Z" style="fill:#fefefe"/><path d="M193,136.73a1.72,1.72,0,0,1,.35.21,2.94,2.94,0,0,0-.35-.2l-23.76,7Z" style="fill:#fefefe"/><path d="M239,177.6a12.76,12.76,0,0,1,1.13,1.29A15.69,15.69,0,0,0,239,177.6Z" style="fill:#fefefe"/><path d="M207.51,216.06l-.09,0-.29.14-.37.21.6-.31.55-.26Zm.82-.34-.33.13c.19-.08.39-.15.6-.22A2.16,2.16,0,0,0,208.33,215.72Zm1.8-.45-.37.07.37-.06c.29,0,.57-.09.86-.15Zm9.46-2.12c-.86.21-1.74.39-2.65.54-.57.09-1.14.22-1.7.36.56-.13,1.13-.26,1.7-.35l.68-.12.67-.13c.36-.07.73-.15,1.08-.24l.23-.05.05,0Zm1.56-.42-.26.08a2,2,0,0,1,.23-.06l.15-.05Zm4-1.49a3.29,3.29,0,0,0,.33-.14l.07,0,.11-.06Zm-1.81.75-1.21.43h0l.25-.09.1,0,.86-.31.05,0Zm4.58-2.15-.06,0,.06,0s0,0,0,0Zm1-.56.11-.06.84-.53Zm1.16-.74h0l.12-.08.44-.3Zm.78-.52.26-.17.5-.37C231.33,207.65,231.07,207.83,230.81,208Zm2.25-1.68-.16.13a.61.61,0,0,0,.16-.12l0,0Z" style="fill:#fefefe"/><path d="M266.93,196.59a.11.11,0,0,1,0-.05v0A0,0,0,0,0,266.93,196.59Z" style="fill:#fefefe"/><path d="M266.94,196.51l.05-.17a1.8,1.8,0,0,0-.05.19Z" style="fill:#fefefe"/><path d="M268.05,194.19a0,0,0,0,0,0,0s0,0,0,0Z" style="fill:#fefefe"/><path d="M268.5,193.75l0,0-.09.07h0A.19.19,0,0,1,268.5,193.75Z" style="fill:#fefefe"/><path d="M268.66,193.66l-.1.06.07-.05Z" style="fill:#fefefe"/><path d="M269.08,193.52l-.08,0-.09,0A.33.33,0,0,1,269.08,193.52Z" style="fill:#fefefe"/><path d="M269.69,193.55a1.28,1.28,0,0,1,.26.07,1.69,1.69,0,0,0-.48-.11h.07A.4.4,0,0,1,269.69,193.55Z" style="fill:#fefefe"/><path d="M277.51,199.24c-.06-.07-.13-.13-.2-.2a.85.85,0,0,1,.14.13Z" style="fill:#fefefe"/><path d="M282,206.52c-.1-.24-.19-.49-.29-.74a2.94,2.94,0,0,1,.14.31A4.32,4.32,0,0,1,282,206.52Z" style="fill:#fefefe"/><path d="M282.44,207.7a5.53,5.53,0,0,0-.18-.53c.05.12.09.23.13.35A1.22,1.22,0,0,1,282.44,207.7Z" style="fill:#fefefe"/><path d="M283.31,211.3c0,.2.06.39.08.59l0-.19c0-.3-.09-.58-.15-.88-.09-.44-.16-.88-.26-1.31Q283.16,210.4,283.31,211.3Z" style="fill:#fefefe"/><path d="M283.42,212.09c0,.13,0,.25,0,.38,0-.19,0-.38-.07-.57Z" style="fill:#fefefe"/><path d="M283.68,215.26h0v-.14A.76.76,0,0,0,283.68,215.26Z" style="fill:#fefefe"/><path d="M220.28,240.16l.94-.22-1.88.45-1.95.47a0,0,0,0,1,0,0C218.37,240.6,219.34,240.38,220.28,240.16Z" style="fill:#fefefe"/><path d="M224.83,238.95l.56-.17-.55.18c-.59.19-1.19.35-1.79.51C223.64,239.31,224.24,239.14,224.83,238.95Z" style="fill:#fefefe"/><path d="M230,238.15l0,0-.2-.05Z" style="fill:#fefefe"/><path d="M233.57,244.38l.05,0,0,0Z" style="fill:#fefefe"/><path d="M233.72,244.49l0,0-.09-.07h0Z" style="fill:#fefefe"/><path d="M233.74,244.51l.15.11-.05,0Z" style="fill:#fefefe"/><path d="M233.95,244.66l.37.24-.38-.24Z" style="fill:#fefefe"/><path d="M238.43,247.83a.84.84,0,0,1,.12.16s0,0,0,0Z" style="fill:#fefefe"/><path d="M239.24,249.68a2.82,2.82,0,0,1,0,.41,4.13,4.13,0,0,0,0-.5,2,2,0,0,0-.06-.35,1.3,1.3,0,0,1,0,.19A2.2,2.2,0,0,1,239.24,249.68Z" style="fill:#fefefe"/><path d="M262.44,207.13s0-.05,0-.08,0,0,0,0v-.12s0,0,0,0v.05A1.63,1.63,0,0,0,262.44,207.13Z" style="fill:#fefefe"/><path d="M262.45,206.64a.2.2,0,0,0,0,.07s0,0,0,0v0Z" style="fill:#fefefe"/><path d="M262.5,207.4a.32.32,0,0,1,0-.09s0,0,0-.05a.44.44,0,0,0,0-.05.25.25,0,0,1,0-.08,1.42,1.42,0,0,0,.05.22A.09.09,0,0,0,262.5,207.4Z" style="fill:#fefefe"/><path d="M262.45,206.62a.47.47,0,0,1,0-.19.45.45,0,0,0,0,.16A0,0,0,0,0,262.45,206.62Z" style="fill:#fefefe"/><path d="M262.65,205.94a3,3,0,0,0-.11.32,1,1,0,0,0-.05.16.73.73,0,0,1,.07-.24Z" style="fill:#fefefe"/><path d="M262.57,207.57a.14.14,0,0,0,0,.06.09.09,0,0,1,0-.06.22.22,0,0,1,0-.1A.3.3,0,0,0,262.57,207.57Z" style="fill:#fefefe"/><path d="M262.72,207.87l-.05-.07s0,0,0,0a.11.11,0,0,1,0-.07.3.3,0,0,0,.06.11A.25.25,0,0,0,262.72,207.87Z" style="fill:#fefefe"/><path d="M263,205.29l.19-.31-.36.63A3.12,3.12,0,0,1,263,205.29Z" style="fill:#fefefe"/><path d="M263.9,203.85a3.06,3.06,0,0,0-.36.51l-.28.46.27-.46A2.43,2.43,0,0,1,263.9,203.85Z" style="fill:#fefefe"/><path d="M264.94,203.27l-.12,0,.05,0Z" style="fill:#fefefe"/><path d="M265.67,210.6a.53.53,0,0,0-.1-.11,3.82,3.82,0,0,0-.33-.37c.12.12.23.24.34.37Z" style="fill:#fefefe"/><path d="M265.92,220.15s0,0,0,.06,0,0,0-.06Z" style="fill:#fefefe"/><path d="M266.5,211.78a2.7,2.7,0,0,1,.18.33l0,0C266.61,212,266.56,211.88,266.5,211.78Z" style="fill:#fefefe"/><path d="M266.74,212.24l-.06-.13,0,.07A.14.14,0,0,1,266.74,212.24Z" style="fill:#fefefe"/><path d="M267.21,216.65c0-.21.09-.43.12-.64,0,.16-.05.32-.08.48S267.22,216.6,267.21,216.65Z" style="fill:#fefefe"/><path d="M267.14,217a3.08,3.08,0,0,0,.08-.34c0,.22-.1.44-.16.66C267.09,217.2,267.11,217.1,267.14,217Z" style="fill:#fefefe"/><path d="M266.82,218c.09-.24.16-.48.23-.71v0c0,.11-.06.22-.1.34Z" style="fill:#fefefe"/><path d="M267,213a.75.75,0,0,1,0,.14c0-.06,0-.11-.05-.16S267,212.95,267,213Z" style="fill:#fefefe"/><path d="M267.22,213.57a2,2,0,0,0-.07-.26c0,.05,0,.11.05.16S267.21,213.54,267.22,213.57Z" style="fill:#fefefe"/><path d="M267.32,214.21c0,.07,0,.13,0,.2a.36.36,0,0,0,0-.1S267.33,214.24,267.32,214.21Z" style="fill:#fefefe"/><path d="M267.39,214.87V215c0-.16,0-.32,0-.48C267.38,214.66,267.39,214.76,267.39,214.87Z" style="fill:#fefefe"/><path d="M267.33,216c0-.16,0-.32,0-.49h0c0,.09,0,.18,0,.28A1.24,1.24,0,0,0,267.33,216Z" style="fill:#fefefe"/><path d="M267.37,215.53c0-.17,0-.32,0-.49C267.39,215.2,267.38,215.36,267.37,215.53Z" style="fill:#fefefe"/><path d="M273.19,215.61l-.09.66a1.71,1.71,0,0,0,0,.22C273.11,216.19,273.15,215.9,273.19,215.61Z" style="fill:#fefefe"/><path d="M218.83,120.05q-.62,0-1.21.09l-.93.1A20,20,0,0,1,218.83,120.05Z" style="fill:#fefefe"/><path d="M221.42,120h-.91c-.58,0-1.15,0-1.68,0,.54,0,1.1,0,1.68,0Z" style="fill:#fefefe"/><path d="M231.25,123.09a4.13,4.13,0,0,0-.17-.87A3.67,3.67,0,0,1,231.25,123.09Z" style="fill:#fefefe"/><path d="M235.75,132.91c-.09.1-.19.19-.28.28h0Z" style="fill:#fefefe"/><path d="M238.05,130.29a3.94,3.94,0,0,1-.42.61C237.78,130.7,237.92,130.5,238.05,130.29Z" style="fill:#fefefe"/><path d="M238.1,125.92a1,1,0,0,1-.11-.47A1.2,1.2,0,0,0,238.1,125.92Z" style="fill:#fefefe"/><path d="M238.66,128.14v.14a2,2,0,0,1,0,.25C238.65,128.4,238.66,128.27,238.66,128.14Z" style="fill:#fefefe"/><path d="M238.81,124.27a2.08,2.08,0,0,1,.61-.25A3,3,0,0,0,238.81,124.27Z" style="fill:#fefefe"/><path d="M240.18,123.89l-.4.05-.35.07a2,2,0,0,1,.35-.08A2.73,2.73,0,0,1,240.18,123.89Z" style="fill:#fefefe"/><path d="M243.94,138.79c-.43.23-.88.45-1.33.66h0Z" style="fill:#fefefe"/><path d="M250.37,133.21a9.27,9.27,0,0,1-.81,1.17A12.57,12.57,0,0,0,250.37,133.21Z" style="fill:#fefefe"/><path d="M253,129.24a2,2,0,0,0-.48.28A1.59,1.59,0,0,1,253,129.24Z" style="fill:#fefefe"/><path d="M263.88,136.78l-.63-.57c-.56-.5-1.14-1-1.73-1.44.59.45,1.17.93,1.73,1.43C263.47,136.39,263.68,136.58,263.88,136.78Z" style="fill:#fefefe"/><path d="M264.24,85.7c-5.62-5.2-13.58-6.52-20-3.2,6.36-3.32,14.34-2,20,3.21.19.17.37.34.54.52C264.62,86,264.44,85.88,264.24,85.7Zm-.76,22.59a3.07,3.07,0,0,1-.07,1.57A2.87,2.87,0,0,0,263.49,108.29Zm0-4.9a1.5,1.5,0,0,1,0,.42A1,1,0,0,0,263.5,103.39Zm-1,8a3.51,3.51,0,0,0,.44-.54A5.26,5.26,0,0,1,262.46,111.41Zm-.87.8a6.7,6.7,0,0,0,.87-.8A8.52,8.52,0,0,1,261.59,112.21Zm-.34.26a45.33,45.33,0,0,0-3.62,3.08c1.18-1.07,2.35-2.14,3.62-3.07.12-.09.23-.17.34-.27ZM240.72,85.05A164.73,164.73,0,0,1,233,100.84l.12.59c0-.2-.07-.39-.11-.59a167,167,0,0,0,7.76-15.78,3.69,3.69,0,0,1,1.45-1.44A3.51,3.51,0,0,0,240.72,85.05Z" style="fill:#fefefe"/><path d="M234.87,140.57c-.8.4-.73-1.29-1.24-2h0l1-.86h0C235.5,138.65,235.72,140.14,234.87,140.57Z" style="fill:#446181"/><path d="M242.6,139.43c-.89,1-2.49,1.07-2.85.35-.44-.9,1.27-.79,1.85-1.37l.51.51.16.17Z" style="fill:#446181"/><path d="M263.42,109.86a.52.52,0,0,1-.06.16,1.88,1.88,0,0,1-.12.3,2.3,2.3,0,0,1-.17.3l-.16.24a3.51,3.51,0,0,1-.44.54,6.7,6.7,0,0,1-.87.8c-.11.1-.22.18-.34.27-1.27.94-2.44,2-3.62,3.07a40,40,0,0,1-3.64,3,11.75,11.75,0,0,1-6.87,2.33q-.35,0-.7,0h-.05s0,0,0,0,0,0,0,0,0,0,0,0h-.08l-.54-.07a.32.32,0,0,1-.14,0l-.2,0h0l-.6-.13a8.19,8.19,0,0,1-1-.31c-.23-.09-.46-.18-.69-.29a6.59,6.59,0,0,1-.59-.3,2,2,0,0,1-.25-.14q-.26-.15-.51-.33a.38.38,0,0,1-.13-.09c-.18-.13-.36-.26-.53-.41l-.17-.14-.51-.47-.06-.06c-.19-.2-.38-.4-.56-.62s-.36-.46-.53-.71-.33-.5-.48-.77-.3-.54-.43-.83-.23-.51-.33-.79a1.07,1.07,0,0,1-.07-.19c-.08-.21-.15-.42-.22-.66,0-.08-.05-.17-.08-.26-.08-.3-.15-.62-.22-.93,0-.07,0-.15-.05-.22-.25-1.2-.56-2.4-.86-3.61-.05-.19-.1-.39-.14-.59s-.05-.2-.07-.3-.07-.29-.1-.43a1.14,1.14,0,0,1,0-.18c-.06-.27-.12-.54-.17-.83l-.06-.35c-.09-.54-.16-1.1-.21-1.65,0-.15,0-.3,0-.45q0-.45,0-.91a12.31,12.31,0,0,1,.07-1.36c0-.14,0-.27.05-.41s.06-.39.1-.59.08-.42.14-.64.09-.33.14-.5.1-.33.16-.5l1.78.14.16.15c.58.64.87.53,1,0a2.45,2.45,0,0,0,0-.3v-.08l0,0v0a8,8,0,0,1-.09-1.19c0-.19,0-.37,0-.55s0-.07,0-.1a4.56,4.56,0,0,1,.06-.53c0-.2.06-.39.1-.59a10.74,10.74,0,0,1,.32-1.15l.21-.56c.15-.37.32-.74.5-1.1a1.19,1.19,0,0,0,.08-.16c.13-.24.26-.46.4-.68s.17-.25.26-.37a3.3,3.3,0,0,1,.28-.35,5.73,5.73,0,0,1,.74-.75,2.44,2.44,0,0,1,.26-.21c.12-.09.24-.18.37-.26a2,2,0,0,1,.37-.22l.19-.1a3.25,3.25,0,0,1,.58-.24l.39-.11a.4.4,0,0,1,.15,0l.39-.07h0a4.06,4.06,0,0,1,.49,0l.49,0,.28,0a4,4,0,0,1,.65.16,3.73,3.73,0,0,1,.46.18,3.61,3.61,0,0,1,.48.24c.13.07.25.15.37.23a7,7,0,0,1,.55.43,2.24,2.24,0,0,1,.27.26l.27.27c.12.14.25.29.37.45s.24.32.36.5c.29.44.59.88.92,1.29.15.21.31.41.48.62s.32.39.49.58.45.51.7.76.46.48.72.72.51.48.79.72.38.33.58.48A21.25,21.25,0,0,0,256.92,99c.22.15.44.28.68.41s.45.27.69.39.73.39,1.1.57c.54.27,1.1.52,1.66.77l.29.13.52.26a5,5,0,0,1,.67.41,3.26,3.26,0,0,1,.34.29l.15.15a1,1,0,0,1,.13.16,1.15,1.15,0,0,1,.15.23.34.34,0,0,1,.06.12.31.31,0,0,1,.05.12,2,2,0,0,1,.07.26.32.32,0,0,1,0,.14,1,1,0,0,1,0,.42,1.38,1.38,0,0,1-.1.37c0,.05-.05.11-.07.17a.77.77,0,0,1-.09.18,1.61,1.61,0,0,1-.1.18,2.67,2.67,0,0,1-.29.42l-.19.24-.21.24-.24.25a8,8,0,0,1,.66.9l.15.25a4,4,0,0,1,.21.41c.06.13.11.26.16.4a2.78,2.78,0,0,1,.08.27.86.86,0,0,1,0,.17A2.87,2.87,0,0,1,263.42,109.86Z" style="fill:#6480a0"/><path d="M239.19,98.66v0h0Z" style="fill:#446181"/><path d="M239.19,98.66v0h0Z" style="fill:#6480a0"/><path d="M238,98.91l-1.78-.15C237,97.34,237.53,97.67,238,98.91Z" style="fill:#6480a0"/><path d="M239.19,98.66v.08a2.45,2.45,0,0,1,0,.3c-.1.55-.38.66-1,0l1-.39Z" style="fill:#6480a0"/><path d="M451,276.18c-15.3-15.49-29.65-31.94-45.79-46.6-5-4.58-5.44-7.72-.68-12.25,3.26-3.07,6-6.56,9.09-9.81,11.45-12.18,22.45-24.77,33.54-37.28,4.46-5,3.25-9.33-3.25-11.22q-65.83-19.22-131.67-38.39c-3.55-1-6.06-.23-8.61,2.22-2,1.9-10.08,11-12.75,13.93-3.47,16.11-5.13,20.43-19.9,28.44-8.54,4.64-17.64,7.51-27.54,7.14-3-.11-6,0-9.06-.06a6.3,6.3,0,0,0,.33.64,5,5,0,0,0,.3.49c.09.14.19.27.28.4a18.32,18.32,0,0,0,2,2.16c.38.36.79.74,1.18,1.14.16.15.32.31.47.47a15.69,15.69,0,0,1,1.13,1.29c.16.2.31.41.46.64l.08.12c.07.1.13.2.19.3s.18.29.26.44a0,0,0,0,1,0,0l-7.2,2-14.26,3.91-7.09,1.94c-3.56,1-7.12,1.93-10.68,2.87l-21.35,5.75-10.67,2.87-21.34,5.79q-10.66,2.92-21.31,5.87c-.31.08-.62.16-.91.22s-.58.12-.87.16a5.68,5.68,0,0,1-.81.1,6.61,6.61,0,0,1-.77,0h0q-.3,0-.6,0l-.25,0-.37-.05-.13,0a4.78,4.78,0,0,1-.66-.16,5.22,5.22,0,0,1-.63-.23,5.78,5.78,0,0,1-.56-.27l-.12-.07a5.56,5.56,0,0,1-.51-.33,3.06,3.06,0,0,1-.29-.21l-.29-.23a7.1,7.1,0,0,1-.58-.52l-.71-.74a0,0,0,0,0,0,0l-.34-.41-.39-.45c-.9-1.07-1.8-2.13-2.73-3.16-1.07-1.19-2.17-2.36-3.27-3.52s-2.21-2.31-3.31-3.46-2.21-2.31-3.3-3.48c1.63-2.07,4.16-2.71,6.34-3.85q5.78-3,11.56-6,17.36-9,34.72-18c10.34-5.4,13.42-11.48,11.75-22.87l-1-1.74,1,1.74,23.76-7h0q-1.15-7.06-2.28-14.11c-1.3.32-2.61.6-3.9,1-8.39,2.36-16.8,4.63-25.13,7.14-4.06,1.22-8.06.28-12-.18-2.62-.31-2.58-4-3.79-6-3.23-5.64-8.17-9.26-13.9-11.62-17.37-7.17-36.44,5.05-37.72,24.08-.18,2.73-.23,3.86-3.77,3.73-6.95-.27-13.34,2.51-16.1,9.1-2.23,5.31-5.49,7.52-10.76,8.73s-6.28,6-2.83,10.11a41.38,41.38,0,0,0,4.85,5.09c2,1.66,2.17,3.56,1.53,5.79-1.8,14.06,6.73,23.06,20.93,22.07,1.3-.09,2.61.07,3.92.11,4,5.86,9.31,10.55,14.1,15.68,2.44,2.61,2.66,4.56.1,7.24-4.88,5.09-9.48,10.45-14.19,15.7C81.83,251.64,71.54,263,61.36,274.35c-3.84,4.29-3.37,9,1.4,10.64,12,4.11,24.17,7.75,36.26,11.58a55.62,55.62,0,0,0,6.5,2.12c4.41.89,5.88,3,5.87,7.83-.11,46,.19,92.06.18,138.09,0,5.36,1.94,8.17,7,10,42.64,15.7,85.25,31.42,127.68,47.64,6.34,2.42,11.39,2.22,17.55-.09,41.76-15.63,83.66-30.88,125.52-46.25,8.87-3.27,8.83-3.37,8.69-12.62q-1.1-68.52-2.19-137.05c-.05-3.24.95-4.57,4.1-5.47l47.42-14.6C452.43,284.37,454.82,280,451,276.18ZM89.41,160.6a24.85,24.85,0,1,1,24.85,24.85A24.85,24.85,0,0,1,89.41,160.6Zm183.5,16h0c3-3.12,6-6.22,9-9.36s6-6.26,8.92-9.4L308.64,139h0l.23-.25c.16-.16.31-.33.46-.49l.23-.24.23-.24.47-.44.3-.25.19-.13.06,0h0l.3-.19h0l.26-.13.23-.09.23-.07.26-.07.26,0a4.87,4.87,0,0,1,2.11.21q13.91,4.11,27.84,8.19L363.9,151l.55.16L398.07,161l27.87,8.13a17.8,17.8,0,0,1,1.73.8l-12.48,14q-6.2,7-12.39,13.86-1.63,1.83-3.3,3.64h0c-2.2,2.42-4.41,4.83-6.58,7.27q-1.63,1.83-3.25,3.69c-.15.17-.29.33-.43.47a6.48,6.48,0,0,1-.85.77,2.9,2.9,0,0,1-.43.28,2.07,2.07,0,0,1-.44.23,2.56,2.56,0,0,1-.46.17,5.33,5.33,0,0,1-2.94-.19q-27.46-8.12-55-16.18t-55-16C269.62,180.59,270.19,179.4,272.91,176.58Zm-6.06,20.55a1.66,1.66,0,0,1,0-.23.15.15,0,0,1,0-.07.43.43,0,0,1,0-.11s0-.07,0-.1a0,0,0,0,1,0,0,0,0,0,0,1,0,0v-.05l.05-.17c0-.12.08-.25.13-.37a1.46,1.46,0,0,1,.07-.19,1.24,1.24,0,0,1,.07-.17l.06-.13c.09-.2.2-.41.31-.62a1.64,1.64,0,0,1,.1-.18.88.88,0,0,1,.1-.16h0a.21.21,0,0,1,0-.06.47.47,0,0,1,.09-.12.36.36,0,0,1,.07-.1,0,0,0,0,1,0,0,0,0,0,0,1,0,0v0h0l.06-.07s0,0,0,0l.07-.07.13-.12,0,0,0,0h0s0,0,.05-.05l0,0h0l.07-.05h0l.11-.05h.05a.32.32,0,0,1,.09,0l.09,0,.08,0h.17a.17.17,0,0,1,.1,0h.11a1.69,1.69,0,0,1,.48.11l.4.18.22.12.08.05.09.05.14.09.12.08.48.31.29.18c.42.25.85.51,1.25.79s.73.49,1.08.76l.17.13c.35.25.7.52,1,.81l.45.38.58.52.28.27a3.47,3.47,0,0,1,.27.27l.4.41c.07.07.14.13.2.2l.19.21.38.43.36.43c.24.29.47.58.7.89s.44.62.65.93.4.63.59.95.37.65.54,1,.34.67.49,1,.21.47.31.73.19.49.29.74l0,.07s0,0,0,0l.06.16h0l.12.36a5.55,5.55,0,0,1,.18.53c.06.18.11.36.17.54h0c.06.19.11.39.17.59a.84.84,0,0,0,0,.15c0,.1.05.2.07.3s0,0,0,0a.24.24,0,0,0,0,.08s0,0,0,0,0,0,0,.06c.1.43.17.87.26,1.31.06.29.11.57.15.88l0,.19c0,.19.05.38.07.57l.09.83c0,.14,0,.28,0,.42l0,.41,0,.41c0,.13,0,.26,0,.4h0v.27h0v.12a22.1,22.1,0,0,1-3.79,12.79c-.7,1.07-1.43,2.35-2.55,2.19l-.13,0-.18-.05-.17-.07h0a.71.71,0,0,1-.17-.09h0a.66.66,0,0,1-.15-.1h0l-.09-.06-.08-.06,0,0h0l-.2-.17-.63-.55h0l-.16-.14h0l-.15-.13h0l-.15-.14-.14-.16a1,1,0,0,1-.13-.16l-.12-.17,0-.05a.55.55,0,0,1-.07-.13,1.09,1.09,0,0,1-.08-.15,1.8,1.8,0,0,1-.17-.61,2.31,2.31,0,0,1,0-.26,3.78,3.78,0,0,1,.58-1.82c.09-.15.17-.3.25-.45a.91.91,0,0,0,.09-.17l.09-.17c.23-.41.44-.84.64-1.25.11-.23.21-.45.3-.68s.12-.27.18-.41a.14.14,0,0,0,0-.06c.13-.29.24-.57.34-.87s.16-.44.23-.67l.21-.66c.06-.22.13-.44.18-.66s.11-.43.16-.65.05-.21.07-.31.07-.34.1-.51.05-.31.07-.46.07-.42.09-.64.05-.42.06-.63a4.06,4.06,0,0,0,0-.49c0-.16,0-.32,0-.47v-.3q0-.45,0-.91a.22.22,0,0,1,0-.08v-.08c0-.34-.06-.69-.11-1s-.09-.62-.16-.94a13,13,0,0,0-.32-1.27c-.07-.23-.14-.46-.23-.7s-.16-.44-.25-.66-.13-.31-.19-.46-.23-.48-.35-.72-.14-.28-.22-.41,0,0,0-.05l0-.07a4.89,4.89,0,0,0-.29-.49l-.09-.14a1.1,1.1,0,0,0-.09-.14l-.08-.13s0,0,0,0c-.13-.22-.28-.44-.44-.67l-.33-.44-.07-.09h0a1.14,1.14,0,0,0-.1-.13l-.17-.23s0,0,0,0l-.2-.24-.05-.06c-.08-.09-.15-.18-.23-.26s-.28-.32-.43-.48-.43-.46-.67-.7l-.15-.15c-.05,0-.1-.1-.15-.15l-.28-.26-.06-.05-.26-.24-.13-.12-.14-.12-.07-.06c-.2-.18-.41-.35-.64-.53-.68-.54-1.4-1.08-2.17-1.6-.14-.1-.27-.19-.39-.29l-.06,0h0l-.19-.16a1.48,1.48,0,0,1-.18-.16,2.31,2.31,0,0,1-.22-.22l-.1-.11-.12-.14-.07-.09-.05-.07a3.13,3.13,0,0,1-.18-.31,2,2,0,0,1-.12-.31,1.36,1.36,0,0,1-.07-.27,1.11,1.11,0,0,1,0-.18.38.38,0,0,1,0-.11ZM87.38,277.37l-6.62-2.19L83,272.64q1.12-1.27,2.24-2.51l4.44-5,2.92-3.28c1.94-2.18,3.85-4.35,5.74-6.52q1.42-1.63,2.81-3.28c.94-1.09,1.86-2.19,2.77-3.3.61-.74,1.24-1.47,1.88-2.19l1-1.07c.66-.71,1.31-1.4,2-2.09,2-2.11,4.1-4.15,6.13-6.27l.88-.94c.47-.5.94-1,1.4-1.52l.13-.15c.3-.32.58-.66.87-1,.47-.53.94-1.09,1.39-1.64.13-.15.25-.3.38-.44s.25-.26.38-.38l.19-.17.19-.16h0l.3-.21.3-.17.15-.08.16-.06a2.18,2.18,0,0,1,.33-.12s0,0,0,0a3.75,3.75,0,0,1,1.55-.08,5,5,0,0,1,.61.11h0l.58.16q53.16,17,106.36,33.73l.22.07.23.08.47.19.27.11,1,.39-8.16,9.66-5.36,6.35-8,9.46-3.44,3.84c-1.14,1.28-2.29,2.55-3.44,3.83l-1.7,1.93c-1.14,1.28-2.28,2.58-3.4,3.87l-1.67,2a6.54,6.54,0,0,1-2.54,2,3.33,3.33,0,0,1-.61.19,2.79,2.79,0,0,1-.5.1s0,0,0,0a4.11,4.11,0,0,1-.61,0l-.51,0a7.85,7.85,0,0,1-1-.15l-.57-.13Zm151.36-29.12a0,0,0,0,1,0,0,1.18,1.18,0,0,1,.11.19l.08.16a.26.26,0,0,1,0,.07.61.61,0,0,0,.05.12l.06.17s0,0,0,.06a.09.09,0,0,1,0,.05l0,.08s0,0,0,.06a2,2,0,0,1,.06.35,4.14,4.14,0,0,1,0,.5v0a2.47,2.47,0,0,1,0,.27c0,.09,0,.19-.06.29a.22.22,0,0,1,0,.08,2.06,2.06,0,0,1-.49,1,2.13,2.13,0,0,1-.36.31,2.68,2.68,0,0,1-.44.23,3.13,3.13,0,0,1-.39.15c-.5.15-1,.23-1.52.33-10.05,2.13-7.22,4.18-13.6-4.87l-1.16-1.64c-.31-.43-.63-.89-.94-1.34l-.25-.35-.42-.59c-.06-.1-.13-.19-.19-.28l-.19-.27-.83-1.18-.1-.14-.86-1.22,1.95-.47.94-.23.94-.22c.63-.14,1.23-.3,1.83-.46s1.2-.32,1.79-.51l.55-.18c.39-.12.79-.24,1.17-.34l.46-.12.29-.07h.13l.24,0a5.47,5.47,0,0,1,.68-.1l.17,0,.46,0h.42a1.86,1.86,0,0,1,.41.07l.2.05a.61.61,0,0,1,.19.06,1.42,1.42,0,0,1,.28.12s.05,0,.08,0a0,0,0,0,0,0,0,2.69,2.69,0,0,1,.53.37,2.37,2.37,0,0,1,.3.33,2,2,0,0,1,.23.33,1.7,1.7,0,0,1,.17.29s0,0,0,0a3.8,3.8,0,0,1,.16.35,1.89,1.89,0,0,1,.1.25c0,.09.06.17.09.27s.13.48.19.76c0,0,0,.08,0,.11.07.37.13.79.17,1.24,0,.1,0,.2.05.3s0,0,0,.05,0,0,0,.06a2.42,2.42,0,0,0,.73,1.1l.16.14,0,0,0,0,0,0h0l.05,0,0,0,.1.08.05,0,.05,0h0l.37.24a23.41,23.41,0,0,1,2.75,1.6l.42.35.2.18a1.71,1.71,0,0,1,.19.19,1.16,1.16,0,0,1,.19.19l.24.27a.7.7,0,0,1,.11.13l.11.15s0,0,0,0a0,0,0,0,1,0,0s0,0,0,0h0A1.7,1.7,0,0,1,238.74,248.25Zm9.82,37.08L248.36,487l-6.76-2.46L235,482.13l-2.16-.8-2.16-.79-21.47-8-3.38-1.26-18.63-6.95q-8.74-3.27-17.48-6.5l-4.52-1.68-1.12-.41q-10.19-3.78-20.39-7.54l-12.44-4.58-.51-.2c-.17-.06-.33-.13-.48-.2-.31-.14-.6-.28-.88-.43a6.67,6.67,0,0,1-1-.64,4.58,4.58,0,0,1-.4-.35,4.91,4.91,0,0,1-.67-.79,2.76,2.76,0,0,1-.26-.43.09.09,0,0,1,0-.05,3.09,3.09,0,0,1-.19-.41,1.62,1.62,0,0,1-.12-.33,1.43,1.43,0,0,1-.09-.27c0-.12-.07-.25-.1-.38a3.84,3.84,0,0,1-.08-.39,2.22,2.22,0,0,1-.06-.37q-.06-.44-.09-.94c0-.15,0-.31,0-.48s0-.33,0-.5q0-7.38,0-14.75,0-27.37-.1-54.75-.09-27.72-.29-55.43c0-.36,0-.7,0-1s0-.5,0-.74,0-.3.05-.44,0-.21,0-.3l.06-.29.06-.26c0-.08.05-.16.08-.24a3.17,3.17,0,0,1,.19-.41,1.44,1.44,0,0,1,.25-.34l.19-.18a1.5,1.5,0,0,1,.37-.21l.21-.08.08,0a.85.85,0,0,1,.23,0,.65.65,0,0,1,.2,0,5.93,5.93,0,0,1,1.57.1,15.5,15.5,0,0,1,1.55.35l4,1c1.33.36,2.66.71,4,1.06l8,2.08,8,2.06,8,2c10.69,2.72,21.37,5.42,32,8.22a12.05,12.05,0,0,0,3,.44,6.1,6.1,0,0,0,.61,0,4.22,4.22,0,0,0,.72-.09,4.17,4.17,0,0,0,.64-.15,6.23,6.23,0,0,0,.61-.21h0a5.49,5.49,0,0,0,.55-.26l.13-.07a5,5,0,0,0,.49-.3c.16-.11.33-.23.49-.36s.42-.36.64-.56.42-.42.64-.67l5.84-6.81h0l11.72-13.58,5.87-6.78c.47-.44.94-.89,1.38-1.34q1.36-1.35,2.66-2.75c2.61-2.82,5.09-5.83,7.66-8.92,1.28-1.55,2.58-3.13,3.93-4.72,1.8-2.13,3.69-4.26,5.73-6.42Zm12.65-46.24-.06.24a2.47,2.47,0,0,1-.2.48l-.14.23a4,4,0,0,1-.39.45,2.55,2.55,0,0,1-.29.26l-.15.11-.08.06-.08,0-.07,0s0,0,0,0l0,0a1.36,1.36,0,0,1-.24.12l-.22.09a2,2,0,0,1-.44.12,1.27,1.27,0,0,1-.19,0h-.36l-.21,0-.22,0-.24-.05-.22-.07-.07,0-.26-.1-.27-.14a4.82,4.82,0,0,1-.5-.26h0l-.25-.15-.25-.16-.16-.1-.33-.21a11.36,11.36,0,0,0-1-.56l-2.08-1a0,0,0,0,1,0,0c-.7-.3-1.39-.6-2.1-.89-1.41-.56-2.83-1.07-4.28-1.49l-1.09-.29q-.36-.11-.73-.18h-.06l-.21-.05-.17,0-.09,0h-.05l-.1,0-.09,0H243l-.44-.09-.34-.06h-.05a.91.91,0,0,0-.16,0l-.59-.1-1.11-.16-.27,0-.15,0-.34,0-.34,0-.72-.05h-.22a4.93,4.93,0,0,0-.54,0h-1.08l-1.14,0h0l-1.18.07-.69-.11-.68-.08h0q-.67-.06-1.33-.06a27.79,27.79,0,0,0-7.8,1.42l-2.68.81-.44.12-1.23.35-.2.05c-.42.11-.86.22-1.28.31-.66.15-1.32.28-2,.38l-1,.14-1,.11-.67,0h-.12l-.24,0-.92,0h-.55a3.06,3.06,0,0,1-.43,0,3.72,3.72,0,0,1-.47,0h-.28l-.42-.05-.2,0-.19,0h-.29l-.23,0-.34-.07-.15,0-.1,0-.44-.11-.19-.06-.19-.06-.19-.06a8.48,8.48,0,0,1-1.09-.43,11.8,11.8,0,0,1-1.06-.55,0,0,0,0,0,0,0c-.34-.21-.69-.44-1-.7a11.24,11.24,0,0,1-1-.86c-3.67-3.5-4.7-9.34-1.56-13.46.4-.53.82-1.08,1.24-1.61l.44-.52.31-.36c.2-.22.39-.44.59-.66l.48-.47a5.32,5.32,0,0,1,.43-.39.35.35,0,0,1,.11-.1,4.63,4.63,0,0,1,.42-.35l.15-.12c.15-.11.3-.23.46-.33s.38-.26.58-.38l.37-.21.23-.1.06,0,.09,0,.4-.18h0l.07,0,.33-.13a2.17,2.17,0,0,1,.27-.09l.16-.05.11,0a2.54,2.54,0,0,1,.39-.1.52.52,0,0,1,.12,0l.37-.08.37-.06c.29,0,.57-.09.86-.15.57-.11,1.14-.25,1.7-.39l1.68-.45.86-.22c.56-.13,1.13-.26,1.7-.35l.68-.12.67-.13c.36-.07.73-.15,1.08-.24l.23-.05.05,0h0l.07,0h.08l.38-.1.49-.13.11,0,.09,0a2,2,0,0,1,.23-.06l0,0,.12,0,.11,0h0l.71-.23h0l.25-.08.1,0,.86-.31.05,0h0l.19-.07,1-.4h0l.52-.23a3.29,3.29,0,0,0,.33-.14l.07,0,.11-.06h0c.37-.17.74-.35,1.1-.54l.09-.05c.17-.09.34-.17.51-.27l.33-.18.05,0,.06,0,.06,0s0,0,0,0h0l.05,0,0,0a0,0,0,0,1,0,0q.41-.23.82-.48l.11-.06.84-.53.1-.06h0l0,0,0,0h0l.12-.08.44-.3.21-.15.26-.17.5-.37.49-.36.58-.45.12-.1.12-.09a.62.62,0,0,0,.16-.12l0,0,0,0h0l0,0,0,0c.19-.15.38-.3.56-.46l.06-.05c.39-.32.79-.67,1.17-1s.75-.68,1.11-1l.83-.8q.3-.29.6-.6l.59-.61c.06-.06.12-.13.19-.19l1-1.06q.7-.76,1.36-1.54c.45-.52.9-1,1.34-1.58s.88-1.07,1.31-1.61a6.22,6.22,0,0,0,.4-.56l.19-.3c.07-.1.13-.21.19-.31s.13-.21.19-.31l.39-.6.21-.28a4.58,4.58,0,0,1,.45-.52,2.94,2.94,0,0,1,.27-.24l.24-.17a.89.89,0,0,1,.21-.12l.15-.07.16-.06.16-.05.25-.05a2.24,2.24,0,0,1,.37,0,3.77,3.77,0,0,1,.46,0c2.77.41,2.52,3.19,3.11,5.19q.27.94.51,1.91c.12.5.24,1,.37,1.51L252,202c.17.61.34,1.24.54,1.84.09.31.2.61.31.92h0l.36.9.06.13c0,.1.09.2.14.3a3.46,3.46,0,0,0,.21.43c0,.09.09.19.14.28.18.34.37.67.58,1,.09.13.18.27.28.4l.21.29.25.32a3.33,3.33,0,0,0,.3.35,7.38,7.38,0,0,0,.54.58c.17.18.36.35.56.53l.66.53.46.33a4.73,4.73,0,0,1,.44.34,1.07,1.07,0,0,1,.16.14,3.26,3.26,0,0,1,.37.37,1.55,1.55,0,0,1,.17.19,2.36,2.36,0,0,1,.24.31,1.77,1.77,0,0,1,.16.22,3.9,3.9,0,0,1,.27.43s0,0,0,0,.12.22.18.33a5.83,5.83,0,0,1,.31.73,2.86,2.86,0,0,1,.09.27,2.78,2.78,0,0,1,.08.27,6,6,0,0,1,.15.69c0,.16.05.32.07.48V216a3.74,3.74,0,0,1,0,.47v.1a6.4,6.4,0,0,1-.09,1.08h0a5.71,5.71,0,0,1-.15.7,6.36,6.36,0,0,1-.39,1c-2.6,5.35-.94,10.21.38,15.37a13.93,13.93,0,0,0,.59,1.6c.07.16.13.32.19.48s.12.33.17.5.06.21.08.31.05.21.07.31,0,.21,0,.31A3.09,3.09,0,0,1,261.21,239.09Zm1.51-31.22a.25.25,0,0,1,0-.07h0s0,0,0,0a.11.11,0,0,1,0-.07s0,0,0-.05a.14.14,0,0,1,0-.06h0a.22.22,0,0,1,0-.1s0,0,0-.05,0,0,0,0a.09.09,0,0,1,0-.05s0,0,0,0a.07.07,0,0,0,0-.05.44.44,0,0,0,0-.05.25.25,0,0,1,0-.08s0-.05,0-.08,0,0,0,0v-.06h0a0,0,0,0,1,0,0,0,0,0,0,0,0,0s0,0,0,0a.41.41,0,0,1,0-.11,0,0,0,0,1,0,0v0s0,0,0,0v0h0s0,0,0,0h0a0,0,0,0,1,0,0,.46.46,0,0,1,0-.16,1,1,0,0,1,.05-.16.19.19,0,0,1,0-.08l.09-.24.15-.33a3.13,3.13,0,0,1,.17-.31l.19-.31.09-.15.28-.46a3.07,3.07,0,0,1,.36-.51.67.67,0,0,1,.12-.12.48.48,0,0,1,.1-.1h0l.05,0h0l.08-.06,0,0,0,0,.07,0,.05,0,.05,0,.05,0,.09,0,.13,0h0l.12,0a1.5,1.5,0,0,1,.42,0l.22.06.07,0,.21.08.17.07.18.09.05,0a11.9,11.9,0,0,1,1.07.68l.13.09.56.4.07.05a11.82,11.82,0,0,1,1.18,1l.38.39c.1.1.19.21.29.32l.21.26a1.32,1.32,0,0,1,.18.23h0l.23.31.18.23a.08.08,0,0,0,0,0,.08.08,0,0,1,0,0h0l.28.44a2.52,2.52,0,0,1,.13.22l0,0c.09.16.18.32.26.48l0,0h0c0,.05.05.09.07.14h0c0,.09.09.18.13.28a1,1,0,0,1,.07.15s0,0,0,.05,0,0,0,.05h0s0,0,0,.05a1,1,0,0,1,.07.15,0,0,0,0,0,0,0,.6.6,0,0,1,0,.08c0,.09.07.18.1.26a2.43,2.43,0,0,1,.1.24.08.08,0,0,0,0,.05s0,0,0,.05l.09.25a.5.5,0,0,1,0,.13.08.08,0,0,1,0,.05s0,0,0,0l0,.08s0,0,0,.05a.24.24,0,0,0,0,.08.24.24,0,0,0,0,.08h0a.26.26,0,0,1,0,.07s0,.08,0,.12v.06a.19.19,0,0,1,0,.07,2.67,2.67,0,0,1,.12.4l.09.42a0,0,0,0,1,0,0c0,.06,0,.13.05.2s0,.14,0,.2l0,.13c0,.08,0,.15,0,.23s0,.06,0,.09a1.87,1.87,0,0,1,0,.23,2.17,2.17,0,0,1,0,.25.79.79,0,0,1,0,.22c0,.17.05.35.07.53a.81.81,0,0,1,0,.16v.07a.49.49,0,0,1,0,.12.2.2,0,0,1,0,.08.38.38,0,0,1,0,.11,1.65,1.65,0,0,1,0,.23.22.22,0,0,1,0,.08.06.06,0,0,1,0,0s0,.08,0,.12c0,.29-.08.58-.13.88s-.06.41-.1.61-.07.4-.11.6,0,.15,0,.23h0a.53.53,0,0,0,0,.12c0,.12-.06.24-.08.36s0,.12,0,.17q-.12.5-.27,1c-.07.23-.15.46-.23.69,0,.05,0,.09,0,.13h0l-.06.16a2.45,2.45,0,0,1-.1.24l-.1.24c0,.06-.05.11-.07.16h0a.55.55,0,0,1-.05.11l0,.05a.92.92,0,0,1-.07.14l-.12.24c0,.08-.08.16-.13.24-.59,1-1.47,1.95-2.44,1.77a.67.67,0,0,1-.19-.05l-.05,0a1.58,1.58,0,0,1-.47-.26l-.34-.25-.05,0-.14-.1h0l-.36-.25a1.87,1.87,0,0,1-.22-.17l-.18-.14-.05,0,0,0a3.43,3.43,0,0,1-.28-.26,2.7,2.7,0,0,1-.31-.36,2.32,2.32,0,0,1-.23-.4,1.61,1.61,0,0,1-.11-.39,1.25,1.25,0,0,1,0-.27v0a.28.28,0,0,1,0-.09.92.92,0,0,1,0-.16s0-.06,0-.1a.51.51,0,0,1,0-.12s0,0,0-.06A.61.61,0,0,1,266,220a.41.41,0,0,1,0-.1,2.48,2.48,0,0,1,.13-.3,10.25,10.25,0,0,0,.54-1.18c.05-.12.09-.24.13-.35l.12-.35c0-.12.07-.23.1-.34v0a1.43,1.43,0,0,0,.05-.16c0-.06,0-.11,0-.16s.08-.33.11-.49.05-.32.08-.48a1.23,1.23,0,0,1,0-.19c0-.1,0-.19,0-.28s0-.33,0-.5v-.16c0-.11,0-.21,0-.32a.62.62,0,0,1,0-.14.36.36,0,0,0,0-.1c0-.12,0-.23-.05-.35a1.82,1.82,0,0,0-.06-.32h0s0,0,0-.05,0-.07,0-.1,0-.11-.05-.16l-.06-.21a.75.75,0,0,0,0-.14s0,0,0,0,0,0,0,0h0c-.05-.14-.11-.28-.17-.42a2.12,2.12,0,0,0-.1-.22.14.14,0,0,0,0-.06l0-.07,0,0c-.05-.1-.1-.2-.16-.3l-.17-.28L266,211l-.12-.16a.1.1,0,0,0,0-.05,1.53,1.53,0,0,0-.1-.13l-.08-.09-.09-.11h0a3.81,3.81,0,0,0-.33-.37l-.38-.37-.05,0c-.18-.17-.37-.33-.57-.49,0,0,0,0,0,0l-.32-.26-.16-.12-.17-.12-.28-.22a2.66,2.66,0,0,1-.44-.45A.66.66,0,0,1,262.72,207.87Zm119.16,234.6a6,6,0,0,1-1.6,1.08c-.33.16-.71.31-1.11.46q-55.54,20.17-110.93,40.78c-.32.12-.64.23-.92.31a5.13,5.13,0,0,1-2.72.34,2.07,2.07,0,0,1-.47-.22l-.21-.18a1.92,1.92,0,0,1-.29-.43l-.12-.28c0-.09-.06-.2-.09-.31a6.82,6.82,0,0,1-.17-1.24c0-.26,0-.53,0-.83s0-.69,0-1.06V291.36c0-.5,0-1,0-1.51,0-1.51-.11-3-.16-4.53.12-1.79.25-3.59.38-5.59,0-.6.08-1.21.13-1.86s.09-1.29.14-2c.86.89,1.66,1.74,2.45,2.58l3.41,3.6,3.27,3.45q15.47,17.92,31,35.85a8.27,8.27,0,0,0,3.4,2.53c.19.07.37.13.56.18a6.65,6.65,0,0,0,1.19.2,9.59,9.59,0,0,0,3.32-.35l5.66-1.47,9-2.35c3-.78,6-1.56,9-2.33l23.77-6.06,15.84-4c3.34-.86,4.74-1.21,5.33-.16a5.23,5.23,0,0,1,.42,2.23c0,.71.05,1.56.06,2.59q.89,62.74,1.89,125.49C383.28,440,383,441.41,381.88,442.47Zm20.72-157.2q-8,2.3-16.08,4.45l-5.37,1.43q-5.38,1.42-10.77,2.81l-10.77,2.76L338,302.18q-10.77,2.74-21.53,5.56l-.66.15a7.86,7.86,0,0,1-1.2.18,6,6,0,0,1-1,0h0a2.65,2.65,0,0,1-.42-.06,2.75,2.75,0,0,1-.41-.09l-.08,0-.06,0h0l-.31-.11-.38-.16-.37-.19-.11-.07c-.11-.07-.23-.14-.35-.23l-.39-.29c-.28-.23-.55-.49-.84-.78l-.56-.64h0c-1.23-1.43-2.44-2.84-3.67-4.25l-1.5-1.72c-.79-.91-1.58-1.81-2.38-2.71l-2.53-2.87-2.56-2.88-2.55-2.86L289,282.34c-1.06-1.45-2.16-2.86-3.3-4.25-.57-.7-1.15-1.38-1.73-2.07s-1.19-1.37-1.79-2-1.21-1.36-1.82-2l-1.87-2-1.9-2.06-1.92-2.09.76-.41L276,265q.71-.35,1.42-.67l1-.41.78-.31.88-.33L281,263c.58-.2,1.17-.4,1.76-.58.39-.13.8-.25,1.19-.36.8-.24,1.58-.46,2.38-.69l2.38-.65c1.59-.41,3.18-.84,4.74-1.31L304.69,256,316,252.63l17-5,17-5,11.31-3.32L372.55,236l11.3-3.34.7-.19a9.13,9.13,0,0,1,1.27-.25,4.7,4.7,0,0,1,1.41.05h0a4.08,4.08,0,0,1,.8.26,4.65,4.65,0,0,1,.43.24,2.64,2.64,0,0,1,.36.25c.13.1.27.21.4.33l.4.39c13.16,13.88,26.41,27.68,39.62,41.53.18.19.17.58.32,1.13Z" style="fill:url(#linear-gradient-3)"/><path d="M165.25,135.28a17.76,17.76,0,0,0-6.42-3.74,16.62,16.62,0,0,0-9-.8c-.22-.15-.48-.26-.52-.57-.44-3.28-2.43-5.84-4.12-8.49a25.17,25.17,0,0,0-7.57-7.13c-9.48-6.29-23.28-5.85-32.34,1.14a28.2,28.2,0,0,0-11.56,24.64c0,.93-.12,1.16-1.09,1a18.43,18.43,0,0,0-15.67,4.4,19,19,0,0,0-5.52,20.36c.47,1.4,1.38,2.56,1.78,4a18.65,18.65,0,0,0-3.82,27,18.91,18.91,0,0,0,23.87,4.86q33.89-18,67.85-35.81a21,21,0,0,0,2.45-1.52A18.9,18.9,0,0,0,165.25,135.28ZM132.07,168c.5,2.33,1,4.66,1.49,7,.28,1.35-.2,1.85-1.43,1.35a1.93,1.93,0,0,0-2.51.7,19.66,19.66,0,0,1-28,1.12,19.45,19.45,0,0,1-6.23-15.94c.08-1.52.56-1.83,2-1.39,2.46.76,2.46.76,2.52,3.38A15.21,15.21,0,0,0,119,178.59a11.55,11.55,0,0,0,3-1.22,14.53,14.53,0,0,0,3.23-2.16c.46-.41.61-.59-.11-.9-1.37-.6-1.44-1.15-.36-2.13q2.65-2.4,5.31-4.78C131.17,166.4,131.76,166.59,132.07,168Zm3.69-5.08c-.09.72-.54,1-1.24.79l-.22-.07c-2.81-.76-2.81-.76-3-4.27a14,14,0,0,0-4.31-9.52,14.27,14.27,0,0,0-8.46-4.25h0c-4.4-1.05-11.13,1.41-13.64,5,.64.48,1.6.38,2.1,1.11a1.56,1.56,0,0,1-.72,1.35c-1.73,1.56-3.46,3.12-5.22,4.65-.41.35-.77,1-1.41.77a1.77,1.77,0,0,1-.87-1.62c-.44-2.24-.9-4.48-1.33-6.72-.26-1.32.23-1.8,1.48-1.32.95.36,1.42.06,2.05-.65,5.22-5.84,11.67-8.2,19.45-6.78a24.46,24.46,0,0,1,6.2,2.35,20.86,20.86,0,0,1,6.6,6.76A19.33,19.33,0,0,1,135.76,163Z" style="fill:url(#linear-gradient-4)"/><path d="M233.6,136.09c.44-1.2,1.38-1.81,2-2.64.81-1,1.75-1.93,2.66-2.87a.75.75,0,0,0,0-1.13,7.86,7.86,0,0,1-1.1-2.69,1.12,1.12,0,0,1,.54-1.3,3.81,3.81,0,0,1,3.81-.24,14,14,0,0,0,1.52.6,3.39,3.39,0,0,1,2,2.68c.12.45-.21.67-.52.87a7.35,7.35,0,0,1-2.12,1.13c-.94.24-1.16.82-1.11,1.71.1,1.86.11,3.72.2,5.57a1.75,1.75,0,0,1-1,1.79,19.36,19.36,0,0,1-3.7,1.63,1,1,0,0,1-1.29-.44,26,26,0,0,1-1.91-3.79A1.07,1.07,0,0,1,233.6,136.09Z" style="fill:#fefefe"/><path d="M233.26,106.89a34.78,34.78,0,0,0,2.21,9.45c2.94,6.78,9.84,9.43,16.54,6.32a22.61,22.61,0,0,0,5.42-3.55c1.23-1.08,2.47-2.14,3.71-3.21.45-.33.89-.67,1.35-1a7.79,7.79,0,0,0,3.41-5.19,1.89,1.89,0,0,0-.52-2c-.61-.49-.5-.9-.19-1.53a36.08,36.08,0,0,0,2.65-6.28A12.6,12.6,0,0,0,265,87.28a18.83,18.83,0,0,0-8.18-5.2,16.74,16.74,0,0,0-11.78.1,11.65,11.65,0,0,0-6.49,6.19,39.2,39.2,0,0,0-2.41,7.33c-.15.62-.39,1-1.12,1a1.82,1.82,0,0,0-1.6,1.08,7.32,7.32,0,0,0-.79,6.35A6.57,6.57,0,0,1,233.26,106.89ZM235,99.41c.26-.65.66-1.23,1.46-1.16s.82.75,1,1.34c.06.23,0,.53.35.75a24,24,0,0,0,.88-4.21A7.74,7.74,0,0,1,246,89.39a2.15,2.15,0,0,1,2.41,1.37c2.25,4.73,6,7.92,10.58,10.28,1.26.65,2.54,1.28,3.85,1.83.81.34.88.79.5,1.48a47.82,47.82,0,0,1-2.59,4.49c.65.19.83-.35,1.17-.55s.8-.63,1.32-.32a1.29,1.29,0,0,1,.55,1.48,5.13,5.13,0,0,1-2.19,3.41,30.73,30.73,0,0,0-4.57,3.76,30.42,30.42,0,0,1-4.76,3.83,10.58,10.58,0,0,1-15.44-5.86,22.19,22.19,0,0,1-1.08-5.56,36.56,36.56,0,0,0-1.1-6.44A4.91,4.91,0,0,1,235,99.41Z" style="fill:none"/><path d="M242.26,130.5a7.53,7.53,0,0,0,2.17-1.16c.32-.21.66-.43.53-.89a3.47,3.47,0,0,0-2-2.75,14.35,14.35,0,0,1-1.56-.62,3.9,3.9,0,0,0-3.9.25,1.14,1.14,0,0,0-.55,1.33,8.05,8.05,0,0,0,1.13,2.75.76.76,0,0,1,0,1.16c-.92,1-1.89,1.89-2.72,2.94-.67.85-1.63,1.47-2.08,2.71a1.09,1.09,0,0,0,.07.89,26.61,26.61,0,0,0,2,3.88,1,1,0,0,0,1.32.46,19.93,19.93,0,0,0,3.79-1.66,1.79,1.79,0,0,0,1-1.83c-.1-1.9-.11-3.81-.21-5.71C241.07,131.34,241.29,130.75,242.26,130.5Z" style="fill:none"/><path d="M264.44,139c-3.57-3.52-7.8-6.19-11.68-9.32-.46-.37-.83-.38-1,.33a12.05,12.05,0,0,1-1.42,3.53c-3.53,5.13-8.54,8.13-14.38,9.91-.78.24-1.26-.16-1.67-.78a25,25,0,0,1-3-6.12c-1.5-4.7-2.58-9.42-.16-14.17.35-.68,0-.86-.59-.89-4.94-.3-9.88-.82-14.85-.46a10.89,10.89,0,0,0-8.3,4.67,25.5,25.5,0,0,0-3.12,6.8c-1,2.75-.31,4.32,2.36,5.48.27.12.56.21.84.31l25.92,9.52,26.45,9.72a4.37,4.37,0,0,0,5.68-2.19,22.9,22.9,0,0,0,1.84-5.29C268.29,145.87,267.62,142.15,264.44,139Z" style="fill:none"/><path d="M297.3,129a41.09,41.09,0,0,0,.85-10.49,53.9,53.9,0,0,0-7.94-27.16,48.07,48.07,0,0,0-5-6.93c-8.66-10-19.52-16.43-32.61-18.35-20.54-3-37.64,3.63-51.1,19.47a35,35,0,0,0-5.26,8,48.47,48.47,0,0,0-4.62,11,54.34,54.34,0,0,0,103.17,34A66.09,66.09,0,0,0,297.3,129Zm-63.85-31.3a1.82,1.82,0,0,1,1.6-1.08c.73,0,1-.33,1.12-1a39.2,39.2,0,0,1,2.41-7.33,11.65,11.65,0,0,1,6.49-6.19,16.74,16.74,0,0,1,11.78-.1,18.83,18.83,0,0,1,8.18,5.2A12.6,12.6,0,0,1,267.84,100a36.08,36.08,0,0,1-2.65,6.28c-.31.62-.42,1,.19,1.53a1.89,1.89,0,0,1,.52,2,7.79,7.79,0,0,1-3.41,5.19c-.46.32-.9.66-1.35,1-1.24,1.07-2.48,2.13-3.71,3.21a22.61,22.61,0,0,1-5.42,3.55c-6.7,3.11-13.6.47-16.54-6.32a34.78,34.78,0,0,1-2.21-9.45,6.57,6.57,0,0,0-.6-2.82A7.32,7.32,0,0,1,233.45,97.72Zm7.66,34.53c.1,1.9.11,3.8.21,5.71a1.79,1.79,0,0,1-1,1.83,19.93,19.93,0,0,1-3.79,1.66,1,1,0,0,1-1.32-.46,26.61,26.61,0,0,1-2-3.88,1.09,1.09,0,0,1-.07-.89c.45-1.23,1.41-1.86,2.08-2.71.82-1,1.79-2,2.72-2.94a.76.76,0,0,0,0-1.16,8.05,8.05,0,0,1-1.13-2.75,1.14,1.14,0,0,1,.55-1.33,3.9,3.9,0,0,1,3.9-.25,14.35,14.35,0,0,0,1.56.62,3.47,3.47,0,0,1,2,2.75c.12.46-.22.68-.53.89a7.53,7.53,0,0,1-2.17,1.16C241.29,130.75,241.07,131.34,241.12,132.25Zm24.37,23.09a4.37,4.37,0,0,1-5.68,2.19l-26.45-9.72-25.92-9.52c-.28-.1-.57-.19-.84-.31-2.67-1.16-3.37-2.73-2.36-5.48a25.5,25.5,0,0,1,3.12-6.8,10.89,10.89,0,0,1,8.3-4.67c5-.36,9.9.17,14.85.46.59,0,.94.21.59.89-2.43,4.75-1.35,9.46.16,14.17a25,25,0,0,0,3,6.12c.41.62.89,1,1.67.78,5.84-1.78,10.85-4.78,14.38-9.91a12.05,12.05,0,0,0,1.42-3.53c.21-.71.58-.7,1-.33,3.87,3.13,8.11,5.8,11.68,9.32,3.18,3.14,3.85,6.87,2.89,11A22.9,22.9,0,0,1,265.48,155.33Z" style="fill:url(#linear-gradient-5)"/><path d="M235.72,109a22.19,22.19,0,0,0,1.08,5.56,10.58,10.58,0,0,0,15.44,5.86,30.42,30.42,0,0,0,4.76-3.83,30.73,30.73,0,0,1,4.57-3.76,5.13,5.13,0,0,0,2.19-3.41,1.29,1.29,0,0,0-.55-1.48c-.52-.32-.9.06-1.32.32s-.52.75-1.17.55a47.82,47.82,0,0,0,2.59-4.49c.37-.69.31-1.14-.5-1.48-1.31-.55-2.59-1.18-3.85-1.83-4.56-2.36-8.33-5.55-10.58-10.28A2.15,2.15,0,0,0,246,89.39a7.74,7.74,0,0,0-7.31,6.72,24,24,0,0,1-.88,4.21c-.39-.22-.29-.52-.35-.75-.14-.58-.2-1.27-1-1.34s-1.2.51-1.46,1.16a4.91,4.91,0,0,0-.39,3.18A36.56,36.56,0,0,1,235.72,109Z" style="fill:url(#linear-gradient-6)"/><rect y="431.66" width="0.44" height="0.44" style="fill:none"/><rect x="511.56" y="431.66" width="0.44" height="0.44" style="fill:none"/><rect x="511.56" width="0.44" height="0.44" style="fill:none"/></svg>