<?xml version="1.0" encoding="iso-8859-1"?>
<!-- Generator: Adobe Illustrator 15.0.0, SVG Export Plug-In . SVG Version: 6.00 Build 0)  -->
<!DOCTYPE svg PUBLIC "-//W3C//DTD SVG 1.1//EN" "http://www.w3.org/Graphics/SVG/1.1/DTD/svg11.dtd">
<svg version="1.1" id="Ebene_1_Kopie_Kopie_Kopie_Kopie_Kopie_Kopie"
	 xmlns="http://www.w3.org/2000/svg" xmlns:xlink="http://www.w3.org/1999/xlink" x="0px" y="0px" width="128px" height="128px"
	 viewBox="0 0 128 128" enable-background="new 0 0 128 128" xml:space="preserve">
<g>
	<g>
		<polygon fill="#FFFFFF" points="113.56,74.244 107.505,68.191 76.988,70.986 72.988,108.765 110.764,104.762 		"/>
	</g>
</g>
<g>
	<g>
		<linearGradient id="SVGID_1_" gradientUnits="userSpaceOnUse" x1="44.2925" y1="118.708" x2="44.2925" y2="9.1903">
			<stop  offset="0.3" style="stop-color:#426080"/>
			<stop  offset="1" style="stop-color:#819CBD"/>
		</linearGradient>
		<path fill="url(#SVGID_1_)" d="M51.172,90.874c0-10.999,4.688-20.918,12.163-27.883c-0.935-0.846-1.607-1.616-1.596-2.05
			c0.019-0.075,0.045-0.147,0.101-0.208c3.98-4.316,5.752-5.666,7.824-10.766l0.662-1.623l1.479-0.759
			c1.221-0.63,2.846-3.052,3.732-7.053c0.504-2.279,0.605-4.581,0.285-6.317c-0.232-1.245-0.613-1.896-0.891-2.092l-1.729-1.211
			l-0.256-2.226C71.611,17.023,64.933,9,53.007,9c-0.001,0-0.002,0-0.003,0c0,0-0.001,0-0.002,0
			c-11.926,0-18.604,8.023-19.94,19.687l-0.257,2.226l-1.728,1.211c-0.277,0.196-0.659,0.847-0.892,2.092
			c-0.32,1.736-0.219,4.038,0.285,6.317c0.888,4,2.512,6.423,3.733,7.053l1.477,0.759l0.663,1.623
			c2.073,5.1,3.844,6.45,7.825,10.766c0.056,0.061,0.082,0.133,0.101,0.208c0.028,1.072-4.099,4.202-6.161,5.447
			c-0.243,0.141-0.465,0.264-0.64,0.353c-1.369,0.687-2.756,1.076-4.219,1.491c-4.07,1.139-8.684,2.439-14.287,10.972
			c-4.208,6.423-6.143,28.463-6.384,39.796h15.377h4.527h31.106C55.964,112.024,51.172,101.999,51.172,90.874z"/>
	</g>
</g>
<g>
	<g>
		<path fill="#404547" d="M113.56,74.244L96.65,91.154l8.286,8.287l-27.478,4.848l4.851-27.476l8.287,8.286l16.908-16.908
			c-11.005-8.09-26.563-7.158-36.517,2.795c-10.985,10.985-10.983,28.794,0,39.778c10.983,10.981,28.791,10.981,39.775-0.003
			C120.717,100.81,121.649,85.249,113.56,74.244z"/>
	</g>
</g>
</svg>
