<svg id="Layer_1" data-name="Layer 1" xmlns="http://www.w3.org/2000/svg" xmlns:xlink="http://www.w3.org/1999/xlink" viewBox="0 0 111.84 111.84"><defs><linearGradient id="linear-gradient" x1="34.62" y1="-1.11" x2="34.62" y2="114.39" gradientUnits="userSpaceOnUse"><stop offset="0" stop-color="#8099ba"/><stop offset="1" stop-color="#425e7f"/></linearGradient></defs><title>teamspeak_vectors</title><path d="M53.69,110.68c-16.61,0-32.24,0-47.86,0-2.36,0-3.34-.67-3.15-3.11.78-10.12,1.24-20.3,3.83-30.15,2.36-9,7.84-15.25,17.13-17.74a21.43,21.43,0,0,0,5.05-2.07c6.09-3.49,6.18-4.17,1.65-9.55-3-3.53-5.05-7.68-7.7-11.43-2.85-4-4.28-9.41.13-14.23.95-1,.67-3.17,1-4.78C26.23,6.76,32.91,1,43.08.95,53.44.91,60,6.45,62.65,17.3c.67,2.7,1.15,5.28,2.76,8,2.37,4,1,9.49-2.45,12.94A44.11,44.11,0,0,0,53.8,51.51c-2.32,5.62-6.61,9.62-8.83,15.1C38.4,82.88,41.5,97.12,53.69,110.68Z" style="fill:url(#linear-gradient)"/><path d="M89.51,95.49l4.61-25.88L68.69,74c-.6,1.11,0,1.55.42,2,6.08,6.54,6.08,6.54-.12,12.74-2.82,2.83-5.75,5.56-8.44,8.5-2,2.17-3,1.65-4.34-.67-6-10.33-4.19-24.73,4.46-33.73s23.1-11,34-4.85a28.23,28.23,0,0,1,13.56,32A27.87,27.87,0,0,1,82.1,110.88a29.61,29.61,0,0,1-14.9-3.31c-2.43-1.28-3.22-2.32-.78-4.58,4.28-3.94,8.41-8.07,12.36-12.35,2-2.21,3.43-2,5,.19,1.37,1.87,2.77,3.72,4.15,5.58Z" style="fill:#43484a"/></svg>