<?xml version="1.0" encoding="iso-8859-1"?>
<!-- Generator: Adobe Illustrator 15.0.0, SVG Export Plug-In . SVG Version: 6.00 Build 0)  -->
<!DOCTYPE svg PUBLIC "-//W3C//DTD SVG 1.1//EN" "http://www.w3.org/Graphics/SVG/1.1/DTD/svg11.dtd">
<svg version="1.1" id="Ebene_2" xmlns="http://www.w3.org/2000/svg" xmlns:xlink="http://www.w3.org/1999/xlink" x="0px" y="0px"
	 width="128px" height="128px" viewBox="0 0 128 128" enable-background="new 0 0 128 128" xml:space="preserve">
<linearGradient id="SVGID_1_" gradientUnits="userSpaceOnUse" x1="64.0005" y1="52.2432" x2="64.0005" y2="19.7578">
	<stop  offset="0.3" style="stop-color:#426080"/>
	<stop  offset="1" style="stop-color:#819CBD"/>
</linearGradient>
<path fill="url(#SVGID_1_)" d="M119,43.694c0,4.721-3.848,8.549-8.594,8.549H17.594C12.848,52.243,9,48.416,9,43.694V28.307
	c0-4.722,3.848-8.549,8.594-8.549h92.813c4.746,0,8.594,3.827,8.594,8.549V43.694z"/>
<path fill="#FFFFFF" d="M108.688,41.655c0,1.126-0.916,2.039-2.05,2.039H78.081c-1.134,0-2.05-0.913-2.05-2.039v-11.31
	c0-1.125,0.916-2.039,2.05-2.039h28.557c1.134,0,2.05,0.914,2.05,2.039V41.655z"/>
<g>
	<linearGradient id="SVGID_2_" gradientUnits="userSpaceOnUse" x1="35.5864" y1="96.5566" x2="35.5864" y2="64.0728">
		<stop  offset="0.3" style="stop-color:#426080"/>
		<stop  offset="1" style="stop-color:#819CBD"/>
	</linearGradient>
	<path fill="url(#SVGID_2_)" d="M62.173,64.072H17.594C12.848,64.072,9,67.899,9,72.62v15.389c0,4.722,3.848,8.548,8.594,8.548
		h33.974c-0.279-1.858-0.427-3.76-0.427-5.694C51.141,80.429,55.358,70.963,62.173,64.072z"/>
	<path fill="#404547" d="M63.467,118.902c-1.626-1.498-3.12-3.137-4.467-4.894c-1.034-1.349-1.977-2.77-2.826-4.251H9v10h55.437
		C64.11,119.477,63.784,119.194,63.467,118.902z"/>
</g>
<g>
	<circle fill="#404547" cx="90.875" cy="90.862" r="28.125"/>
</g>
<g>
	<g>
		<path fill="#FFFFFF" d="M96.923,109.913c0,0.802-0.276,1.479-0.824,2.021c-0.549,0.554-1.225,0.83-2.021,0.83h-6.403
			c-0.798,0-1.475-0.285-2.022-0.846c-0.549-0.565-0.824-1.229-0.824-2.005v-20.72c0-0.802,0.275-1.474,0.824-2.021
			c0.548-0.553,1.225-0.824,2.022-0.824h6.403c0.797,0,1.473,0.271,2.021,0.824c0.548,0.548,0.824,1.22,0.824,2.021V109.913z"/>
	</g>
	<g>
		<path fill="#FFFFFF" d="M96.923,77.914c0,0.802-0.276,1.479-0.824,2.021c-0.549,0.554-1.225,0.83-2.021,0.83h-6.403
			c-0.798,0-1.475-0.285-2.022-0.847c-0.549-0.564-0.824-1.229-0.824-2.004V71.81c0-0.802,0.275-1.473,0.824-2.021
			c0.548-0.553,1.225-0.824,2.022-0.824h6.403c0.797,0,1.473,0.271,2.021,0.824c0.548,0.549,0.824,1.22,0.824,2.021V77.914z"/>
	</g>
</g>
</svg>
