<?xml version="1.0" encoding="iso-8859-1"?>
<!-- Generator: Adobe Illustrator 15.0.0, SVG Export Plug-In . SVG Version: 6.00 Build 0)  -->
<!DOCTYPE svg PUBLIC "-//W3C//DTD SVG 1.1//EN" "http://www.w3.org/Graphics/SVG/1.1/DTD/svg11.dtd">
<svg version="1.1" id="Ebene_5" xmlns="http://www.w3.org/2000/svg" xmlns:xlink="http://www.w3.org/1999/xlink" x="0px" y="0px"
	 width="128px" height="128px" viewBox="0 0 128 128" enable-background="new 0 0 128 128" xml:space="preserve">
<linearGradient id="SVGID_1_" gradientUnits="userSpaceOnUse" x1="33.2417" y1="119" x2="33.2417" y2="17.1812">
	<stop  offset="0.3" style="stop-color:#426080"/>
	<stop  offset="1" style="stop-color:#819CBD"/>
</linearGradient>
<path fill="url(#SVGID_1_)" d="M29.627,118.817c0.029-1.369,0.793-33.646,7.792-44.33c6.809-10.368,13.196-12.864,19.126-14.523
	l0.046-0.013c0.316-0.089,0.614-0.174,0.892-0.255c-1.031-1.462-2.007-3.151-2.965-5.323c-4.243-3.041-6.066-8.687-6.798-11.984
	c-0.753-3.404-0.875-6.861-0.341-9.753c0.49-2.617,1.479-4.723,2.964-6.297c0.4-2.73,1.049-5.278,1.917-7.634
	c-2.891-1.149-6.377-1.721-10.548-1.461v0.003c-0.015,0-0.028-0.002-0.044-0.002v0C23.115,16.086,17.974,31.3,19.499,41.318
	c1.47,9.675,2.272,18.89-0.986,21.792c2.818,1.421,4.82-0.738,6.244-1.692c-0.467,6.178-7.508,8.499-7.508,8.499
	c3.187,3.152,12.75,2.622,16.206-0.523c-0.362,1.983-1.222,4.994-3.185,5.984c-4.334,2.18-8.292,0.003-15.35,10.737
	C9.419,94.476,9,119,9,119h20.624L29.627,118.817z"/>
<g>
	<g>
		<linearGradient id="SVGID_2_" gradientUnits="userSpaceOnUse" x1="69.9121" y1="119" x2="69.9121" y2="4.4553">
			<stop  offset="0.3" style="stop-color:#426080"/>
			<stop  offset="1" style="stop-color:#819CBD"/>
		</linearGradient>
		<path fill="url(#SVGID_2_)" d="M77.75,110.25h-5.625c-3.576,0-6.912-1.406-9.358-3.925c-2.429-2.476-3.767-5.743-3.767-9.2v-6.25
			c0-3.528,1.363-6.828,3.84-9.296c2.468-2.47,5.764-3.829,9.285-3.829h5.625v-5.625c0-3.52,1.357-6.813,3.824-9.281
			c2.01-2.017,4.575-3.281,7.361-3.688c3.093-3.284,4.544-4.751,6.355-9.197l0.654-1.614l1.461-0.762
			c1.223-0.636,2.853-3.06,3.729-7.052c0.503-2.279,0.608-4.581,0.286-6.314c-0.236-1.239-0.613-1.896-0.895-2.093l-1.703-1.214
			l-0.264-2.211C97.241,17.027,90.561,9,78.643,9c-11.927,0-18.605,8.023-19.94,19.687l-0.257,2.226l-1.728,1.211
			c-0.277,0.196-0.659,0.847-0.892,2.092c-0.32,1.736-0.219,4.038,0.285,6.317c0.888,4,2.512,6.423,3.733,7.053l1.477,0.759
			l0.663,1.623c2.073,5.1,3.845,6.45,7.825,10.766c1.067,1.157-4.901,5.096-6.701,6.007c-1.369,0.687-2.756,1.076-4.219,1.491
			c-4.07,1.139-8.684,2.439-14.287,10.972c-4.208,6.423-6.143,28.463-6.384,39.796H78.14c-0.247-1.014-0.39-2.058-0.39-3.125V110.25
			z"/>
	</g>
</g>
<g>
	<g>
		<path fill="#404547" d="M115.875,100.25H100.25v15.625c0,0.879-0.303,1.621-0.905,2.22c-0.601,0.603-1.341,0.905-2.22,0.905h-6.25
			c-0.879,0-1.621-0.313-2.22-0.928c-0.604-0.615-0.905-1.347-0.905-2.197V100.25H72.125c-0.879,0-1.621-0.312-2.22-0.928
			C69.302,98.707,69,97.976,69,97.125v-6.25c0-0.879,0.302-1.621,0.905-2.22c0.599-0.603,1.341-0.905,2.22-0.905H87.75V72.125
			c0-0.879,0.302-1.62,0.905-2.22C89.254,69.303,89.996,69,90.875,69h6.25c0.879,0,1.619,0.303,2.22,0.905
			c0.603,0.6,0.905,1.341,0.905,2.22V87.75h15.625c0.879,0,1.619,0.303,2.22,0.905c0.602,0.599,0.905,1.341,0.905,2.22v6.25
			c0,0.851-0.304,1.582-0.905,2.197C117.494,99.938,116.754,100.25,115.875,100.25z"/>
	</g>
</g>
</svg>
