<svg id="Layer_1" data-name="Layer 1" xmlns="http://www.w3.org/2000/svg" xmlns:xlink="http://www.w3.org/1999/xlink" viewBox="0 0 111.84 111.84"><defs><linearGradient id="linear-gradient" x1="55.92" y1="32.34" x2="55.92" y2="111.8" gradientUnits="userSpaceOnUse"><stop offset="0" stop-color="#8099ba"/><stop offset="1" stop-color="#425e7f"/></linearGradient></defs><title>teamspeak_vectors</title><path d="M108,62.28c-1-.92-1.06-2-1.38-3-2.28-7.13-6.48-10-14-8.75-4.83.78-9.57,2.13-14.33,3.31-6.05,1.51-12.08,3-18.37,1.44C49.31,52.2,41,46.94,38.61,34.94c-1-4.81-3.71-5.24-7.52-2.2a20.39,20.39,0,0,0-2.87,2.66C22.55,42.07,15.29,46.22,7.11,49,.65,51.27-.56,53.69,2,60.17A100.51,100.51,0,0,1,8,79.75C8.32,90.86,14.58,99.66,19.43,109c1.11,2.15,2.63,2.36,4.89,1.46,7.9-3.14,15.87-6.09,23.85-9,1.48-.55,2.82-1.16,2.86-2.92.18-7.1,5.25-7.75,10.28-7.09,12.86,1.67,23.62-3.68,34.37-9.35,4.79-2.53,9.47-5.27,13-9.49C112.07,68.54,111.91,65.83,108,62.28Z" style="fill:url(#linear-gradient)"/><path d="M81.85,45.33c-17.6,0-28.07-12.32-24-28.16C60.14,8.37,68,2,77.94,1A56.36,56.36,0,0,1,85.78,1c5.71.26,6,.87,5.35,6.41-.35,2.88-1.33,3.12-4,2.68C78.92,8.72,73,11.6,70.87,17.64,69,22.73,69.31,27.72,72.82,32c3.91,4.77,9.32,4.77,14.87,4,1.27-.17,3.67-2.18,3.6.77-.07,2.58,3.24,6.23-1.64,7.89C87.09,45.56,84.46,45.25,81.85,45.33Z" style="fill:#44494b"/></svg>