<?xml version="1.0" encoding="iso-8859-1"?>
<!-- Generator: Adobe Illustrator 15.0.0, SVG Export Plug-In . SVG Version: 6.00 Build 0)  -->
<!DOCTYPE svg PUBLIC "-//W3C//DTD SVG 1.1//EN" "http://www.w3.org/Graphics/SVG/1.1/DTD/svg11.dtd">
<svg version="1.1" id="Ebene_1" xmlns="http://www.w3.org/2000/svg" xmlns:xlink="http://www.w3.org/1999/xlink" x="0px" y="0px"
	 width="128px" height="128px" viewBox="0 0 128 128" enable-background="new 0 0 128 128" xml:space="preserve">
<g>
	<linearGradient id="SVGID_1_" gradientUnits="userSpaceOnUse" x1="51.6675" y1="121.9395" x2="51.6675" y2="6.0845">
		<stop  offset="0.3" style="stop-color:#426080"/>
		<stop  offset="1" style="stop-color:#819CBD"/>
	</linearGradient>
	<path fill="url(#SVGID_1_)" d="M80.177,31.5H28.158c-2.762,0-5,2.239-5,5s2.238,5,5,5h41.77
		C72.336,37.06,75.852,33.644,80.177,31.5z"/>
	<linearGradient id="SVGID_2_" gradientUnits="userSpaceOnUse" x1="40.2969" y1="121.9395" x2="40.2969" y2="6.0845">
		<stop  offset="0.3" style="stop-color:#426080"/>
		<stop  offset="1" style="stop-color:#819CBD"/>
	</linearGradient>
	<path fill="url(#SVGID_2_)" d="M28.158,86.5c-2.762,0-5,2.238-5,5s2.238,5,5,5h25.574c0.904-3.959,2.105-7.537,3.703-10H28.158z"/>
	<linearGradient id="SVGID_3_" gradientUnits="userSpaceOnUse" x1="44.5933" y1="121.9395" x2="44.5933" y2="6.0841">
		<stop  offset="0.3" style="stop-color:#426080"/>
		<stop  offset="1" style="stop-color:#819CBD"/>
	</linearGradient>
	<path fill="url(#SVGID_3_)" d="M64.742,64.894l-0.006-0.028c-0.329-1.516-0.63-3.596-0.561-5.865H28.158c-2.762,0-5,2.239-5,5
		c0,2.762,2.238,5,5,5h37.87c-0.519-1.258-0.954-2.614-1.281-4.078L64.742,64.894z"/>
	<linearGradient id="SVGID_4_" gradientUnits="userSpaceOnUse" x1="57.2427" y1="122" x2="57.2427" y2="6.145">
		<stop  offset="0.3" style="stop-color:#426080"/>
		<stop  offset="1" style="stop-color:#819CBD"/>
	</linearGradient>
	<path fill="url(#SVGID_4_)" d="M51.518,112H20.999c-1.582,0-2.975-0.748-3.891-1.894c-0.684-0.855-1.109-1.925-1.109-3.105V20.999
		c0-2.762,2.238-5,5-5h72.487c2.416,0,4.432,1.713,4.898,3.992c0.066,0.326,0.102,0.663,0.102,1.008v8.834
		c3.85,1.034,7.222,2.957,9.998,5.602V20.999c0-0.675-0.061-1.335-0.146-1.987c-0.844-6.334-5.641-11.437-11.832-12.707
		c-0.225-0.046-0.455-0.068-0.682-0.104C95.061,6.081,94.283,6,93.486,6H52.333H20.999C12.728,6,6,12.728,6,20.999v86.002
		c0,0.517,0.026,1.027,0.077,1.531C6.847,116.086,13.245,122,20.999,122h29.999l0.004-0.214
		C51.035,120.256,51.148,116.546,51.518,112z"/>
</g>
<g>
	<path fill="#404547" d="M106.423,83.666c-1.111-0.313-2.148-0.608-3.174-1.131c-1.354-0.68-5.686-3.873-5.064-4.527
		c3.13-3.396,4.345-4.289,5.915-8.146l0.487-1.216l1.112-0.574c0.914-0.48,2.152-2.313,2.809-5.33
		c0.381-1.719,0.467-3.456,0.222-4.766c-0.179-0.933-0.46-1.43-0.682-1.578l-1.278-0.921l-0.205-1.67
		c-0.992-8.812-6.039-14.869-15.035-14.869c-9.006,0-14.059,6.053-15.066,14.867l-0.184,1.676l-1.311,0.917
		c-0.209,0.148-0.495,0.638-0.67,1.578c-0.243,1.311-0.164,3.049,0.209,4.768c0.675,3.024,1.896,4.853,2.824,5.329l1.111,0.573
		l0.507,1.225c1.56,3.848,2.899,4.868,5.907,8.137c0.804,0.869-3.698,3.843-5.063,4.527c-1.03,0.525-2.086,0.819-3.186,1.131
		c-3.07,0.856-6.559,1.847-10.79,8.281C62.645,96.799,61.183,113.448,61,122h46.018H122c-0.09-6.047-1.133-24.487-4.793-30.053
		C112.989,85.514,109.514,84.523,106.423,83.666z"/>
</g>
</svg>
