<?xml version="1.0" encoding="iso-8859-1"?>
<!-- Generator: Adobe Illustrator 15.0.0, SVG Export Plug-In . SVG Version: 6.00 Build 0)  -->
<!DOCTYPE svg PUBLIC "-//W3C//DTD SVG 1.1//EN" "http://www.w3.org/Graphics/SVG/1.1/DTD/svg11.dtd">
<svg version="1.1" id="Ebene_1_Kopie" xmlns="http://www.w3.org/2000/svg" xmlns:xlink="http://www.w3.org/1999/xlink" x="0px"
	 y="0px" width="128px" height="128px" viewBox="0 0 128 128" enable-background="new 0 0 128 128" xml:space="preserve">
<g>
	<path fill="#404547" d="M9.041,88.646c0-3.866,3.134-7,7-7h96c3.866,0,7,3.134,7,7v9c0,3.866-3.134,7-7,7h-96c-3.866,0-7-3.134-7-7
		V88.646z"/>
	
		<linearGradient id="SVGID_1_" gradientUnits="userSpaceOnUse" x1="81.1396" y1="104.9365" x2="81.1396" y2="127.9365" gradientTransform="matrix(-1 0 0 -1 128.1797 209.582)">
		<stop  offset="0.3" style="stop-color:#426080"/>
		<stop  offset="0.9831" style="stop-color:#819CBD"/>
	</linearGradient>
	<path fill="url(#SVGID_1_)" d="M9.041,88.646c0-3.866,3.134-7,7-7h62c3.866,0,7,3.134,7,7v9c0,3.866-3.134,7-7,7h-62
		c-3.866,0-7-3.134-7-7V88.646z"/>
	<g>
		<path fill="#404547" d="M8.95,25.658h3.566v14.616h6.853v3.034H8.95V25.658z"/>
		<path fill="#404547" d="M29.13,25.354c1.299,0,2.47,0.211,3.515,0.632c1.045,0.422,1.934,1.025,2.668,1.809
			c0.733,0.783,1.298,1.732,1.695,2.844c0.395,1.113,0.594,2.37,0.594,3.768c0,1.417-0.207,2.689-0.62,3.818
			c-0.414,1.13-0.995,2.095-1.745,2.896c-0.75,0.802-1.661,1.416-2.731,1.846c-1.07,0.43-2.263,0.645-3.578,0.645
			c-1.298,0-2.479-0.211-3.541-0.632c-1.062-0.422-1.964-1.029-2.706-1.821c-0.742-0.792-1.315-1.749-1.719-2.87
			c-0.405-1.122-0.607-2.381-0.607-3.78c0-2.934,0.768-5.193,2.302-6.778C24.19,26.147,26.349,25.354,29.13,25.354z M28.915,28.111
			c-0.71,0-1.356,0.151-1.939,0.455c-0.583,0.304-1.086,0.733-1.509,1.29c-0.423,0.556-0.748,1.231-0.977,2.023
			c-0.228,0.792-0.341,1.669-0.341,2.63c0,0.96,0.113,1.833,0.341,2.616c0.229,0.784,0.559,1.45,0.989,1.999
			c0.431,0.547,0.942,0.973,1.534,1.277c0.591,0.304,1.259,0.455,2.003,0.455c0.709,0,1.356-0.155,1.94-0.468
			c0.582-0.312,1.085-0.746,1.508-1.302c0.422-0.557,0.752-1.227,0.989-2.011s0.355-1.647,0.355-2.592
			c0-0.978-0.114-1.862-0.343-2.656c-0.228-0.792-0.558-1.462-0.989-2.01c-0.431-0.548-0.946-0.969-1.546-1.264
			C30.331,28.258,29.659,28.111,28.915,28.111z"/>
		<path fill="#404547" d="M56.77,43.309h-3.869l-1.542-4.071H44l-1.542,4.071H38.79l6.929-17.65h4.021L56.77,43.309z M48.93,32.435
			c-0.101-0.27-0.211-0.585-0.328-0.948c-0.119-0.362-0.232-0.733-0.342-1.113c-0.11-0.378-0.215-0.736-0.316-1.074
			c-0.101-0.337-0.177-0.624-0.228-0.86h-0.05c-0.068,0.236-0.152,0.522-0.253,0.86c-0.101,0.338-0.215,0.696-0.342,1.074
			c-0.126,0.38-0.249,0.751-0.366,1.113c-0.118,0.362-0.228,0.678-0.329,0.948l-1.466,4.122h5.487L48.93,32.435z"/>
		<path fill="#404547" d="M63.976,25.658c1.483,0,2.861,0.156,4.135,0.468c1.272,0.312,2.377,0.821,3.313,1.529
			c0.936,0.709,1.665,1.628,2.188,2.756c0.522,1.13,0.784,2.513,0.784,4.148c0,1.551-0.271,2.879-0.81,3.982
			c-0.539,1.105-1.277,2.011-2.213,2.719c-0.935,0.708-2.035,1.226-3.3,1.556c-1.265,0.328-2.63,0.493-4.097,0.493h-4.83v-17.65
			H63.976z M62.712,40.603h0.935c0.978,0,1.897-0.105,2.756-0.316s1.605-0.551,2.238-1.024c0.632-0.472,1.133-1.096,1.505-1.872
			c0.37-0.775,0.557-1.728,0.557-2.857c0-1.179-0.187-2.162-0.557-2.946c-0.372-0.784-0.873-1.412-1.505-1.884
			c-0.633-0.472-1.379-0.801-2.238-0.986c-0.859-0.186-1.779-0.279-2.756-0.279h-0.935V40.603z"/>
		<path fill="#404547" d="M77.731,25.658h3.566v17.65h-3.566V25.658z"/>
		<path fill="#404547" d="M97.051,25.658h3.213v17.65h-4.502l-4.526-8.648c-0.236-0.438-0.477-0.915-0.721-1.429
			c-0.244-0.513-0.485-1.02-0.721-1.517s-0.451-0.965-0.646-1.403c-0.193-0.438-0.35-0.801-0.467-1.088h-0.051
			c0.017,0.27,0.033,0.654,0.051,1.15c0.017,0.498,0.028,1.033,0.038,1.606c0.008,0.573,0.017,1.138,0.024,1.695
			c0.009,0.555,0.014,1.02,0.014,1.39v8.244h-3.213v-17.65H90.3l4.45,8.724c0.169,0.32,0.362,0.708,0.582,1.163
			c0.219,0.456,0.442,0.927,0.671,1.416c0.227,0.49,0.442,0.966,0.644,1.429c0.203,0.464,0.37,0.847,0.507,1.15h0.05
			c-0.018-0.32-0.034-0.754-0.05-1.301c-0.018-0.549-0.034-1.134-0.051-1.759c-0.018-0.623-0.03-1.239-0.038-1.846
			c-0.01-0.606-0.014-1.129-0.014-1.567V25.658z"/>
		<path fill="#404547" d="M118.242,29.324c-0.541-0.286-1.229-0.521-2.066-0.708c-0.836-0.185-1.711-0.278-2.622-0.278
			c-0.947,0-1.8,0.143-2.561,0.429c-0.76,0.286-1.406,0.689-1.938,1.211c-0.533,0.522-0.946,1.161-1.243,1.918
			c-0.295,0.757-0.443,1.598-0.443,2.524c0,0.909,0.136,1.741,0.406,2.499c0.27,0.756,0.664,1.4,1.18,1.93s1.154,0.942,1.915,1.237
			s1.632,0.441,2.613,0.441c0.371,0,0.739-0.021,1.103-0.063c0.363-0.042,0.689-0.105,0.977-0.189v-4.376h-3.768v-2.832h7.156v9.483
			c-0.961,0.337-1.938,0.577-2.934,0.72c-0.994,0.143-1.997,0.215-3.009,0.215c-1.349,0-2.601-0.206-3.756-0.62
			c-1.154-0.413-2.153-1.011-2.996-1.795s-1.5-1.736-1.973-2.857c-0.472-1.121-0.708-2.389-0.708-3.806
			c0-1.365,0.236-2.6,0.708-3.704c0.473-1.104,1.143-2.044,2.011-2.819c0.868-0.776,1.918-1.37,3.148-1.783
			c1.229-0.413,2.613-0.62,4.146-0.62c0.877,0,1.733,0.05,2.567,0.151c0.835,0.102,1.613,0.279,2.339,0.531L118.242,29.324z"/>
		<g>
			<path fill="#404547" d="M9.05,50.073h4.968v24.584H9.05V50.073z"/>
			<path fill="#404547" d="M31.734,61.802c0.33,1.033,0.688,2.218,1.075,3.557c0.387,1.339,0.723,2.582,1.003,3.733h0.07
				c0.33-1.151,0.694-2.395,1.092-3.733c0.4-1.339,0.764-2.524,1.092-3.557l3.946-11.729h7.713v24.584H42.97v-12.01
				c0-0.587,0-1.257,0-2.008s0.006-1.532,0.018-2.344c0.011-0.809,0.024-1.613,0.035-2.412c0.012-0.798,0.029-1.549,0.053-2.254
				h-0.07c-0.189,0.587-0.388,1.232-0.599,1.938c-0.212,0.704-0.429,1.409-0.652,2.112c-0.223,0.706-0.434,1.375-0.633,2.009
				c-0.201,0.634-0.37,1.175-0.511,1.621l-4.754,13.348h-4.439l-4.579-13.208c-0.093-0.282-0.247-0.751-0.457-1.409
				c-0.212-0.658-0.44-1.386-0.687-2.185c-0.246-0.798-0.481-1.578-0.705-2.342c-0.223-0.762-0.405-1.392-0.546-1.884h-0.07
				c0.023,0.705,0.04,1.456,0.053,2.254c0.012,0.798,0.023,1.603,0.035,2.412c0.012,0.812,0.019,1.593,0.019,2.344s0,1.42,0,2.008
				v12.01h-4.544V50.073h7.961L31.734,61.802z"/>
			<path fill="#404547" d="M75.939,74.657h-5.39l-2.147-5.67H58.151l-2.148,5.67h-5.108l9.651-24.584h5.601L75.939,74.657z
				 M65.02,59.511c-0.141-0.375-0.294-0.815-0.457-1.319c-0.166-0.504-0.322-1.022-0.476-1.551c-0.153-0.528-0.299-1.026-0.44-1.497
				c-0.14-0.47-0.247-0.869-0.317-1.198h-0.07c-0.095,0.329-0.212,0.728-0.352,1.198c-0.141,0.47-0.3,0.969-0.477,1.497
				c-0.176,0.529-0.347,1.046-0.51,1.551c-0.165,0.504-0.317,0.944-0.458,1.319l-2.042,5.742h7.643L65.02,59.511z"/>
			<path fill="#404547" d="M98.023,55.179c-0.754-0.399-1.713-0.727-2.877-0.986c-1.166-0.258-2.385-0.387-3.653-0.387
				c-1.318,0-2.507,0.199-3.567,0.598c-1.058,0.398-1.958,0.96-2.699,1.687c-0.742,0.727-1.318,1.617-1.73,2.671
				c-0.412,1.055-0.619,2.226-0.619,3.516c0,1.266,0.189,2.425,0.567,3.48c0.375,1.054,0.924,1.95,1.642,2.688
				c0.719,0.738,1.607,1.313,2.668,1.723c1.061,0.41,2.272,0.615,3.64,0.615c0.519,0,1.031-0.03,1.537-0.088
				c0.506-0.059,0.96-0.146,1.36-0.264v-6.095h-5.249v-3.944h9.968v13.208c-1.339,0.47-2.7,0.804-4.086,1.003
				c-1.385,0.199-2.782,0.301-4.191,0.301c-1.879,0-3.622-0.287-5.23-0.863c-1.609-0.575-3-1.408-4.175-2.501
				c-1.174-1.093-2.089-2.418-2.746-3.98c-0.658-1.561-0.986-3.328-0.986-5.301c0-1.902,0.328-3.622,0.986-5.16
				c0.657-1.538,1.591-2.848,2.8-3.927c1.21-1.081,2.671-1.908,4.387-2.483c1.713-0.575,3.639-0.863,5.775-0.863
				c1.221,0,2.413,0.071,3.576,0.211c1.162,0.142,2.247,0.388,3.258,0.739L98.023,55.179z"/>
			<path fill="#404547" d="M104.397,50.073h14.547v4.12h-9.651v5.884h8.877v3.98h-8.877v6.481h9.757v4.119h-14.652V50.073z"/>
		</g>
	</g>
</g>
</svg>
