<?xml version="1.0" encoding="iso-8859-1"?>
<!-- Generator: Adobe Illustrator 15.0.0, SVG Export Plug-In . SVG Version: 6.00 Build 0)  -->
<!DOCTYPE svg PUBLIC "-//W3C//DTD SVG 1.1//EN" "http://www.w3.org/Graphics/SVG/1.1/DTD/svg11.dtd">
<svg version="1.1" id="Ebene_1_Kopie_Kopie" xmlns="http://www.w3.org/2000/svg" xmlns:xlink="http://www.w3.org/1999/xlink"
	 x="0px" y="0px" width="128px" height="128px" viewBox="0 0 128 128" enable-background="new 0 0 128 128" xml:space="preserve">
<g>
	<g>
		<linearGradient id="SVGID_1_" gradientUnits="userSpaceOnUse" x1="42.5239" y1="119" x2="42.5239" y2="4.4553">
			<stop  offset="0.3" style="stop-color:#426080"/>
			<stop  offset="1" style="stop-color:#819CBD"/>
		</linearGradient>
		<path fill="url(#SVGID_1_)" d="M54.19,110.518c-3.87,0-7.476-1.52-10.142-4.267C41.438,103.57,40,100.047,40,96.328v-8.385
			c0-3.813,1.471-7.383,4.145-10.058c2.67-2.667,6.238-4.136,10.045-4.136h21.857v-2.586c-2.482-1.688-4.759-2.337-6.887-2.932
			c-1.478-0.417-2.861-0.809-4.216-1.49c-1.795-0.906-7.521-5.125-6.706-6.005c4.153-4.499,5.755-5.678,7.833-10.778l0.654-1.614
			l1.461-0.762c1.223-0.636,2.853-3.06,3.729-7.052c0.503-2.279,0.608-4.581,0.286-6.314c-0.236-1.239-0.613-1.896-0.895-2.093
			l-1.703-1.214l-0.264-2.211C68.022,17.027,61.342,9,49.424,9c-11.927,0-18.605,8.023-19.94,19.687l-0.257,2.226l-1.728,1.211
			c-0.277,0.196-0.659,0.847-0.892,2.092c-0.32,1.736-0.219,4.038,0.285,6.317c0.888,4,2.512,6.423,3.733,7.053l1.477,0.759
			l0.663,1.623c2.073,5.1,3.845,6.45,7.825,10.766c1.067,1.157-4.901,5.096-6.701,6.007c-1.369,0.687-2.756,1.076-4.219,1.491
			c-4.07,1.139-8.684,2.439-14.287,10.972C11.176,85.627,9.241,107.667,9,119h60.947h6.101v-8.482H54.19z"/>
	</g>
</g>
<g>
	<path fill="#404547" d="M119,92.133L86.048,65.257V83.75H54.19c-1.18,0-2.171,0.404-2.979,1.211C50.403,85.77,50,86.764,50,87.943
		v8.385c0,1.133,0.403,2.115,1.212,2.945c0.808,0.832,1.799,1.244,2.979,1.244h31.857V119L119,92.133z"/>
</g>
</svg>
