<?xml version="1.0" encoding="iso-8859-1"?>
<!-- Generator: Adobe Illustrator 15.0.0, SVG Export Plug-In . SVG Version: 6.00 Build 0)  -->
<!DOCTYPE svg PUBLIC "-//W3C//DTD SVG 1.1//EN" "http://www.w3.org/Graphics/SVG/1.1/DTD/svg11.dtd">
<svg version="1.1" id="Ebene_4_Kopie_Kopie" xmlns="http://www.w3.org/2000/svg" xmlns:xlink="http://www.w3.org/1999/xlink"
	 x="0px" y="0px" width="128px" height="128px" viewBox="0 0 128 128" enable-background="new 0 0 128 128" xml:space="preserve">
<g>
	<linearGradient id="SVGID_1_" gradientUnits="userSpaceOnUse" x1="65" y1="123.5" x2="65" y2="4.5005">
		<stop  offset="0.3" style="stop-color:#426080"/>
		<stop  offset="1" style="stop-color:#819CBD"/>
	</linearGradient>
	<polygon fill="url(#SVGID_1_)" points="27.746,63.988 8.422,27.223 49.374,34.24 78.352,4.5 84.332,45.612 121.578,63.988 
		84.332,82.368 78.352,123.5 49.374,93.739 8.422,100.743 	"/>
</g>
<path fill="#FFFFFF" d="M63.466,84.997l-0.176-9.753l-14.388-4.652l-5.849,7.798l-7.166-2.314l25.838-33.637l7.857,2.54l1.445,42.46
	L63.466,84.997z M63.304,56.814c0.016-0.854,0.052-1.731,0.104-2.614c0.051-0.887,0.094-1.727,0.134-2.516
	c0.034-0.792,0.088-1.455,0.149-1.996l-0.093-0.033c-0.3,0.467-0.662,1.032-1.095,1.692c-0.434,0.662-0.905,1.362-1.416,2.1
	c-0.516,0.734-1.007,1.459-1.494,2.163c-0.482,0.708-0.918,1.319-1.305,1.832L52.552,65.4l10.723,3.471l0.015-9.811
	C63.271,58.421,63.279,57.669,63.304,56.814z"/>
</svg>
