<?xml version="1.0" encoding="iso-8859-1"?>
<!-- Generator: Adobe Illustrator 15.0.0, SVG Export Plug-In . SVG Version: 6.00 Build 0)  -->
<!DOCTYPE svg PUBLIC "-//W3C//DTD SVG 1.1//EN" "http://www.w3.org/Graphics/SVG/1.1/DTD/svg11.dtd">
<svg version="1.1" id="Ebene_4" xmlns="http://www.w3.org/2000/svg" xmlns:xlink="http://www.w3.org/1999/xlink" x="0px" y="0px"
	 width="128px" height="128px" viewBox="0 0 128 128" enable-background="new 0 0 128 128" xml:space="preserve">
<g>
	<linearGradient id="SVGID_1_" gradientUnits="userSpaceOnUse" x1="64.0005" y1="116.416" x2="64.0005" y2="13.6246">
		<stop  offset="0.3" style="stop-color:#426080"/>
		<stop  offset="1" style="stop-color:#819CBD"/>
	</linearGradient>
	<path fill="url(#SVGID_1_)" d="M95.651,13.426H32.347C19.454,13.426,9,23.88,9,36.774v30.299C9,79.97,19.454,90.421,32.347,90.421
		h34.539c2.035,5.361,4.119,16.285-6.902,25.995c20.145-3.741,29.606-19.512,32.702-25.995h2.966
		C108.545,90.421,119,79.97,119,67.073V36.774C119,23.88,108.545,13.426,95.651,13.426z"/>
</g>
<g>
	<g>
		<path fill="#FFFFFF" d="M71.5,74.79c0,0.971-0.343,1.788-1.022,2.443c-0.681,0.672-1.518,1.005-2.507,1.005H60.03
			c-0.99,0-1.829-0.344-2.51-1.023c-0.679-0.686-1.02-1.487-1.02-2.425V49.717c0-0.968,0.341-1.782,1.02-2.445
			c0.681-0.669,1.52-0.998,2.51-0.998h7.941c0.989,0,1.826,0.329,2.507,0.998c0.68,0.663,1.022,1.477,1.022,2.445V74.79z"/>
	</g>
	<g>
		<path fill="#FFFFFF" d="M71.5,36.069c0,0.969-0.343,1.788-1.022,2.445c-0.681,0.668-1.518,1.003-2.507,1.003H60.03
			c-0.99,0-1.829-0.344-2.51-1.024c-0.679-0.684-1.02-1.489-1.02-2.425v-7.388c0-0.97,0.341-1.781,1.02-2.446
			c0.681-0.669,1.52-0.998,2.51-0.998h7.941c0.989,0,1.826,0.329,2.507,0.998c0.68,0.665,1.022,1.476,1.022,2.446V36.069z"/>
	</g>
</g>
</svg>
