<?xml version="1.0" encoding="UTF-8" standalone="no"?>
<svg
   xmlns:dc="http://purl.org/dc/elements/1.1/"
   xmlns:cc="http://creativecommons.org/ns#"
   xmlns:rdf="http://www.w3.org/1999/02/22-rdf-syntax-ns#"
   xmlns:svg="http://www.w3.org/2000/svg"
   xmlns="http://www.w3.org/2000/svg"
   height="220"
   width="220"
   version="1.1"
   viewBox="0 0 220.00001 220.00001"
   data-name="Layer 1"
   id="Layer_1">
  <metadata
     id="metadata45">
    <rdf:RDF>
      <cc:Work
         rdf:about="">
        <dc:format>image/svg+xml</dc:format>
        <dc:type
           rdf:resource="http://purl.org/dc/dcmitype/StillImage" />
        <dc:title>on_whisperlist</dc:title>
      </cc:Work>
    </rdf:RDF>
  </metadata>
  <defs
     id="defs32">
    <linearGradient
       gradientTransform="translate(54,54.160004)"
       gradientUnits="userSpaceOnUse"
       y2="52.82"
       x2="55.919998"
       y1="6.9299998"
       x1="55.919998"
       id="linear-gradient">
      <stop
         id="stop10"
         stop-color="#fff"
         offset="0" />
      <stop
         id="stop12"
         stop-color="#c90b0e"
         offset="1" />
    </linearGradient>
    <linearGradient
       gradientUnits="userSpaceOnUse"
       gradientTransform="rotate(180,82.92,63.335002)"
       y2="3.3299999"
       x2="55.919998"
       y1="-32.900002"
       x1="55.919998"
       id="linear-gradient-2">
      <stop
         id="stop15"
         stop-color="#fff"
         offset="0" />
      <stop
         id="stop17"
         stop-color="#fffefe"
         offset="0" />
      <stop
         id="stop19"
         stop-color="#efb5b6"
         offset="0.22" />
      <stop
         id="stop21"
         stop-color="#e1797a"
         offset="0.43" />
      <stop
         id="stop23"
         stop-color="#d7494c"
         offset="0.61" />
      <stop
         id="stop25"
         stop-color="#cf272a"
         offset="0.78" />
      <stop
         id="stop27"
         stop-color="#cb1315"
         offset="0.91" />
      <stop
         id="stop29"
         stop-color="#c90b0e"
         offset="1" />
    </linearGradient>
  </defs>
  <title
     id="title34">on_whisperlist</title>
  <circle
     id="circle36"
     style="fill:#c90b0e"
     r="55"
     cy="110.08"
     cx="109.92" />
  <path
     id="path38"
     style="opacity:0.8;fill:url(#linear-gradient)"
     d="m 157,100.39 a 32.51,32.51 0 0 1 -3.67,14.93 c -8,-11.89 -23.49,-20 -41.27,-20 -19.52,0 -36.26,9.7 -43.41,23.54 a 32.94,32.94 0 0 1 -5.81,-18.47 c 0,-21.23 21.07,-38.469996 47.08,-38.469996 26.01,0 47.08,17.239996 47.08,38.469996 z" />
  <path
     id="path40"
     style="opacity:0.3;fill:url(#linear-gradient-2)"
     d="M 69.84,128.54 A 24.18,24.18 0 0 1 73,116.75 c 6.79,9.41 20,15.75 35.1,15.75 16.62,0 30.87,-7.66 37,-18.59 a 24.72,24.72 0 0 1 4.9,14.63 c 0,16.77 -17.94,30.38 -40.08,30.38 -22.14,0 -40.08,-13.61 -40.08,-30.38 z" />
</svg>
