<?xml version="1.0" encoding="iso-8859-1"?>
<!-- Generator: Adobe Illustrator 15.0.0, SVG Export Plug-In . SVG Version: 6.00 Build 0)  -->
<!DOCTYPE svg PUBLIC "-//W3C//DTD SVG 1.1//EN" "http://www.w3.org/Graphics/SVG/1.1/DTD/svg11.dtd">
<svg version="1.1" id="Ebene_4" xmlns="http://www.w3.org/2000/svg" xmlns:xlink="http://www.w3.org/1999/xlink" x="0px" y="0px"
	 width="128px" height="128px" viewBox="0 0 128 128" style="enable-background:new 0 0 128 128;" xml:space="preserve">
<linearGradient id="SVGID_1_" gradientUnits="userSpaceOnUse" x1="64.0005" y1="119" x2="64.0005" y2="9.0005">
	<stop  offset="0.3" style="stop-color:#426080"/>
	<stop  offset="1" style="stop-color:#819CBD"/>
</linearGradient>
<path style="fill:url(#SVGID_1_);" d="M119,104c0,8.284-6.716,15-15,15H24c-8.284,0-15-6.716-15-15V24c0-8.284,6.716-15,15-15h80
	c8.284,0,15,6.716,15,15V104z"/>
<g>
	<path style="fill:#FFFFFF;" d="M80.538,36.938c-3.801-1.658-9.269-2.833-14.34-2.833c-4.099,0-8.782,1.856-8.782,5.752
		c0,4.193,4.586,5.848,13.464,9.064C82.291,53.013,86,57.598,86,65.291c0,5.169-2.73,9.943-7.119,12.572
		c4.001,2.823,5.757,6.818,5.757,11.203c0,11.313-9.758,17.934-22.635,17.934c-6.345,0-13.171-1.162-18.833-3.013
		c0.297-4.197,0.589-8.285,0.979-12.384c4.488,2.046,11.611,3.707,16.387,3.707c5.37,0,9.666-1.357,9.666-5.563
		c0-4.183-4.788-5.546-13.758-9.061C45.903,76.694,42,72.114,42,64.516c0-4.973,2.439-9.55,7.222-12.576
		c-4.098-3.018-6.052-6.721-6.052-11.496C43.17,29.143,53.515,23,65.705,23c5.469,0,11.424,0.875,16.294,2.049L80.538,36.938z
		 M57.32,56.526c-1.949,1.557-3.026,3.894-3.026,5.942c0,5.359,7.514,7.5,16.295,10.815c1.938-1.356,3.019-3.413,3.019-5.646
		c0-3.708-1.854-5.459-10.046-8.68C61.516,58.181,59.369,57.401,57.32,56.526z"/>
</g>
</svg>
