<?xml version="1.0" encoding="iso-8859-1"?>
<!-- Generator: Adobe Illustrator 15.0.0, SVG Export Plug-In . SVG Version: 6.00 Build 0)  -->
<!DOCTYPE svg PUBLIC "-//W3C//DTD SVG 1.1//EN" "http://www.w3.org/Graphics/SVG/1.1/DTD/svg11.dtd">
<svg version="1.1" id="Ebene_1_Kopie" xmlns="http://www.w3.org/2000/svg" xmlns:xlink="http://www.w3.org/1999/xlink" x="0px"
	 y="0px" width="128px" height="128px" viewBox="0 0 128 128" style="enable-background:new 0 0 128 128;" xml:space="preserve">
<path style="fill:#FFFFFF;" d="M102.5,9H71.845l-0.48,3.906l-0.825,6.717l-1.897,15.439l-0.825,6.715L67.66,43
	c5.364,4.826,9.024,11.532,9.024,21.385c0,6.165-1.985,12.108-5.486,17.003c2.302,3.943,3.556,8.465,3.679,13.34
	c0.007,0.262,0.024,0.521,0.024,0.784c0,0.62-0.017,1.234-0.049,1.842H102.5c4.694,0,8.5-3.806,8.5-8.5V17.5
	C111,12.806,107.194,9,102.5,9z"/>
<path style="fill:#404547;" d="M91.22,110.406V96.354h-8.594v14.053c0,0-9.739,0-11.314,0c-1.707,3.225-3.986,6.111-6.758,8.594H119
	v-8.594H91.22z"/>
<linearGradient id="SVGID_1_" gradientUnits="userSpaceOnUse" x1="89.3301" y1="97.3535" x2="89.3301" y2="9.1503">
	<stop  offset="0.3" style="stop-color:#426080"/>
	<stop  offset="1" style="stop-color:#819CBD"/>
</linearGradient>
<path style="fill:url(#SVGID_1_);" d="M102.5,9H71.845l-0.48,3.906l-0.825,6.717h28.148c1.104,0,2,0.896,2,2v11.439
	c0,1.104-0.896,2-2,2H68.642l-0.825,6.715L67.66,43c5.364,4.826,9.024,11.532,9.024,21.385c0,6.165-1.985,12.108-5.486,17.003
	c2.302,3.943,3.556,8.465,3.679,13.34c0.007,0.262,0.024,0.521,0.024,0.784c0,0.62-0.017,1.234-0.049,1.842H102.5
	c4.694,0,8.5-3.806,8.5-8.5V17.5C111,12.806,107.194,9,102.5,9z"/>
<g>
	<g>
		<path style="fill:#404547;" d="M59.526,27.253c-4.984-2.173-12.157-3.707-18.802-3.707c-5.37,0-11.513,2.428-11.513,7.529
			c0,5.491,6.011,7.661,17.649,11.869c14.958,5.362,19.824,11.366,19.824,21.44c0,6.771-3.581,13.021-9.333,16.463
			c5.246,3.697,7.549,8.933,7.549,14.664c0,14.815-12.796,23.488-29.679,23.488c-8.317,0-17.265-1.521-24.688-3.947
			c0.389-5.491,0.773-10.845,1.281-16.218c5.886,2.682,15.223,4.866,21.485,4.866c7.043,0,12.672-1.784,12.672-7.291
			c0-5.478-6.275-7.267-18.037-11.865C14.117,79.32,9,73.317,9,63.365c0-6.51,3.202-12.506,9.466-16.463
			c-5.373-3.957-7.932-8.804-7.932-15.06C10.534,17.047,24.096,9,40.078,9c7.169,0,14.975,1.146,21.361,2.687L59.526,27.253z
			 M29.084,52.903c-2.559,2.038-3.969,5.1-3.969,7.781c0,7.025,9.85,9.823,21.367,14.169c2.539-1.785,3.952-4.479,3.952-7.402
			c0-4.853-2.428-7.146-13.167-11.361C34.583,55.073,31.769,54.053,29.084,52.903z"/>
	</g>
</g>
</svg>
