<?xml version="1.0" encoding="iso-8859-1"?>
<!-- Generator: Adobe Illustrator 15.0.0, SVG Export Plug-In . SVG Version: 6.00 Build 0)  -->
<!DOCTYPE svg PUBLIC "-//W3C//DTD SVG 1.1//EN" "http://www.w3.org/Graphics/SVG/1.1/DTD/svg11.dtd">
<svg version="1.1" id="Ebene_1" xmlns="http://www.w3.org/2000/svg" xmlns:xlink="http://www.w3.org/1999/xlink" x="0px" y="0px"
	 width="128px" height="128px" viewBox="0 0 128 128" style="enable-background:new 0 0 128 128;" xml:space="preserve">
<g>
	<g>
		<linearGradient id="SVGID_1_" gradientUnits="userSpaceOnUse" x1="44.2925" y1="119" x2="44.2925" y2="9.0005">
			<stop  offset="0.3" style="stop-color:#426080"/>
			<stop  offset="1" style="stop-color:#819CBD"/>
		</linearGradient>
		<path style="fill:url(#SVGID_1_);" d="M70.37,104.388l1.074-11.331c-1.857-3.124-3.022-6.976-3.022-11.763
			c0-4.213,1.115-8.187,3.194-11.655c-0.314-0.65-0.59-1.318-0.836-1.998c-0.758-0.248-1.502-0.529-2.239-0.899
			c-0.176-0.089-0.401-0.214-0.646-0.355c-2.064-1.247-6.183-4.373-6.155-5.444c0.019-0.075,0.045-0.147,0.101-0.208
			c3.98-4.316,5.752-5.666,7.824-10.766l0.662-1.623l1.479-0.759c1.221-0.63,2.846-3.052,3.732-7.053
			c0.504-2.279,0.605-4.581,0.285-6.317c-0.232-1.245-0.613-1.896-0.891-2.092l-1.729-1.211l-0.256-2.226
			C71.611,17.023,64.933,9,53.007,9c-0.001,0-0.002,0-0.003,0c0,0-0.001,0-0.002,0c-11.926,0-18.604,8.023-19.94,19.687
			l-0.257,2.226l-1.728,1.211c-0.277,0.196-0.659,0.847-0.892,2.092c-0.32,1.736-0.219,4.038,0.285,6.317
			c0.888,4,2.512,6.423,3.733,7.053l1.477,0.759l0.663,1.623c2.073,5.1,3.844,6.45,7.825,10.766
			c0.056,0.061,0.082,0.133,0.101,0.208c0.028,1.072-4.099,4.202-6.161,5.447c-0.243,0.141-0.465,0.264-0.64,0.353
			c-1.369,0.687-2.756,1.076-4.219,1.491c-4.07,1.139-8.684,2.439-14.287,10.972c-4.208,6.423-6.143,28.463-6.384,39.796h15.377
			h4.527h36.765l0.236-3.378C69.749,111.834,70.016,108.125,70.37,104.388z"/>
	</g>
</g>
<g>
	<g>
		<path style="fill:#404547;" d="M112.579,56.823c-3.374-1.469-8.214-2.51-12.712-2.51c-3.629,0-7.779,1.647-7.779,5.106
			c0,3.717,4.067,5.188,11.931,8.041c10.121,3.631,13.403,7.697,13.403,14.527c0,4.587-2.423,8.821-6.314,11.154
			c3.545,2.508,5.102,6.053,5.102,9.941c0,10.035-8.647,15.914-20.054,15.914c-5.627,0-11.678-1.035-16.695-2.679
			c0.26-3.72,0.521-7.351,0.865-10.987c3.976,1.818,10.29,3.284,14.524,3.284c4.756,0,8.562-1.204,8.562-4.924
			c0-3.713-4.235-4.927-12.19-8.042c-9.339-3.543-12.799-7.61-12.799-14.355c0-4.412,2.165-8.469,6.399-11.154
			c-3.63-2.68-5.361-5.962-5.361-10.202c0-10.031,9.166-15.479,19.978-15.479c4.84,0,10.113,0.779,14.439,1.815L112.579,56.823z
			 M92.005,74.206c-1.735,1.381-2.687,3.458-2.687,5.27c0,4.757,6.658,6.662,14.438,9.6c1.735-1.207,2.687-3.024,2.687-5.012
			c0-3.29-1.65-4.839-8.906-7.696C95.717,75.678,93.815,74.979,92.005,74.206z"/>
	</g>
</g>
</svg>
