<?xml version="1.0" encoding="iso-8859-1"?>
<!-- Generator: Adobe Illustrator 15.0.0, SVG Export Plug-In . SVG Version: 6.00 Build 0)  -->
<!DOCTYPE svg PUBLIC "-//W3C//DTD SVG 1.1//EN" "http://www.w3.org/Graphics/SVG/1.1/DTD/svg11.dtd">
<svg version="1.1" id="Ebene_4" xmlns="http://www.w3.org/2000/svg" xmlns:xlink="http://www.w3.org/1999/xlink" x="0px" y="0px"
	 width="128px" height="128px" viewBox="0 0 128 128" style="enable-background:new 0 0 128 128;" xml:space="preserve">
<linearGradient id="SVGID_1_" gradientUnits="userSpaceOnUse" x1="64.0005" y1="115.416" x2="64.0005" y2="15.6786">
	<stop  offset="0.3" style="stop-color:#426080"/>
	<stop  offset="1" style="stop-color:#819CBD"/>
</linearGradient>
<path style="fill:url(#SVGID_1_);" d="M95.651,12.426H32.347C19.454,12.426,9,22.88,9,35.774v30.299
	C9,78.97,19.454,89.421,32.347,89.421h34.539c2.034,5.361,4.119,16.286-6.902,25.995c20.145-3.741,29.607-19.513,32.703-25.995
	h2.965C108.545,89.421,119,78.97,119,66.073V35.774C119,22.88,108.545,12.426,95.651,12.426z"/>
<g>
	<g>
		<path style="fill:#FFFFFF;" d="M75.274,32.817c-2.596-1.102-6.317-1.885-9.778-1.885c-2.79,0-5.982,1.238-5.982,3.838
			c0,2.792,3.127,3.896,9.173,6.041C76.477,43.536,79,46.592,79,51.723c0,3.447-1.866,6.627-4.858,8.379
			c2.729,1.885,3.925,4.548,3.925,7.473c0,7.536-6.651,11.953-15.426,11.953c-4.327,0-8.982-0.78-12.843-2.013
			c0.2-2.794,0.402-5.521,0.666-8.253c3.059,1.366,7.915,2.466,11.173,2.466c3.661,0,6.585-0.907,6.585-3.7
			c0-2.789-3.256-3.701-9.376-6.041C51.662,59.325,49,56.27,49,51.202c0-3.314,1.666-6.361,4.923-8.381
			c-2.793-2.011-4.125-4.479-4.125-7.663c0-7.537,7.052-11.63,15.368-11.63c3.724,0,7.778,0.585,11.107,1.364L75.274,32.817z
			 M59.448,45.878c-1.335,1.038-2.066,2.599-2.066,3.959c0,3.573,5.124,5.005,11.105,7.211c1.338-0.908,2.067-2.272,2.067-3.764
			c0-2.472-1.271-3.635-6.851-5.785C62.304,46.982,60.841,46.458,59.448,45.878z"/>
	</g>
</g>
</svg>
