<?xml version="1.0" encoding="iso-8859-1"?>
<!-- Generator: Adobe Illustrator 15.0.0, SVG Export Plug-In . SVG Version: 6.00 Build 0)  -->
<!DOCTYPE svg PUBLIC "-//W3C//DTD SVG 1.1//EN" "http://www.w3.org/Graphics/SVG/1.1/DTD/svg11.dtd">
<svg version="1.1" id="Ebene_1_Kopie_Kopie" xmlns="http://www.w3.org/2000/svg" xmlns:xlink="http://www.w3.org/1999/xlink"
	 x="0px" y="0px" width="128px" height="128px" viewBox="0 0 128 128" style="enable-background:new 0 0 128 128;"
	 xml:space="preserve">
<path style="fill:#404547;" d="M72.851,97.65c-4.883-4.867-12.818-4.866-17.694,0.001c-4.875,4.882-4.875,12.816,0,17.699
	c4.876,4.866,12.812,4.866,17.693,0C77.717,110.468,77.717,102.533,72.851,97.65z"/>
<g>
	<path style="fill:#404547;" d="M98.509,35.514c4.391,1.68,8.687,3.68,12.841,6.025L119,28.288C86.979,2.571,41.007,2.57,9,28.288
		l7.649,13.249c4.181-2.36,8.505-4.372,12.925-6.058C51.587,26.639,76.503,26.651,98.509,35.514z"/>
	<path style="fill:#404547;" d="M34.376,72.243l8.66,15.001c13.767-3.188,28.162-3.188,41.928,0l8.66-15.001
		C74.635,64.984,53.366,64.984,34.376,72.243z"/>
	<path style="fill:#404547;" d="M98.632,63.566l7.615-13.189c-25.809-15.428-58.685-15.428-84.495,0l7.614,13.189
		C51.472,54.625,76.526,54.625,98.632,63.566z"/>
</g>
</svg>
