<?xml version="1.0" encoding="iso-8859-1"?>
<!-- Generator: Adobe Illustrator 15.0.0, SVG Export Plug-In . SVG Version: 6.00 Build 0)  -->
<!DOCTYPE svg PUBLIC "-//W3C//DTD SVG 1.1//EN" "http://www.w3.org/Graphics/SVG/1.1/DTD/svg11.dtd">
<svg version="1.1" id="Ebene_1" xmlns="http://www.w3.org/2000/svg" xmlns:xlink="http://www.w3.org/1999/xlink" x="0px" y="0px"
	 width="128px" height="128px" viewBox="0 0 128 128" style="enable-background:new 0 0 128 128;" xml:space="preserve">
<g>
	<path style="fill:#404547;" d="M113.984,119.012c-0.693,0-1.398-0.145-2.07-0.451c-41.177-18.762-78.949-5.593-91.361-1.265
		c-4.885,1.704-8.414,2.935-10.728-0.755c-0.841-1.34-1.772-4.068,1.442-7.283c6.358-6.358,28.98-28.577,28.98-28.577l7.037,7.105
		c0,0-14.259,13.938-15.998,15.677c19.086-5.073,50.712-9.521,84.773,5.998c2.513,1.145,3.622,4.11,2.477,6.623
		C117.698,117.925,115.883,119.012,113.984,119.012z"/>
</g>
<linearGradient id="SVGID_1_" gradientUnits="userSpaceOnUse" x1="68.7305" y1="91.7695" x2="68.7305" y2="26.7671">
	<stop  offset="0.3" style="stop-color:#426080"/>
	<stop  offset="1" style="stop-color:#819CBD"/>
</linearGradient>
<path style="fill:url(#SVGID_1_);" d="M99.059,62.521l-33.581-33.58c-2.898-2.898-7.594-2.898-10.489-0.003L38.403,53.916
	c-2.894,2.893-2.899,7.594,0,10.492l1.26,1.261l22.665,22.663l1.268,1.269c2.893,2.892,7.599,2.892,10.492,0L99.062,73.01
	C101.958,70.113,101.951,65.414,99.059,62.521z"/>
<g>
	<path style="fill:#404547;" d="M98.608,18.563c2.16-2.159,2.16-5.66,0-7.821l-0.123-0.122c-2.16-2.16-5.66-2.159-7.82,0
		L76.238,25.047l7.943,7.943L98.608,18.563z"/>
	<path style="fill:#404547;" d="M117.38,37.334c2.16-2.161,2.16-5.66,0-7.821l-0.123-0.122c-2.16-2.16-5.66-2.16-7.82,0
		L95.009,43.818l7.944,7.944L117.38,37.334z"/>
</g>
</svg>
