<?xml version="1.0" encoding="iso-8859-1"?>
<!-- Generator: Adobe Illustrator 15.0.0, SVG Export Plug-In . SVG Version: 6.00 Build 0)  -->
<!DOCTYPE svg PUBLIC "-//W3C//DTD SVG 1.1//EN" "http://www.w3.org/Graphics/SVG/1.1/DTD/svg11.dtd">
<svg version="1.1" id="Ebene_4" xmlns="http://www.w3.org/2000/svg" xmlns:xlink="http://www.w3.org/1999/xlink" x="0px" y="0px"
	 width="128px" height="128px" viewBox="0 0 128 128" style="enable-background:new 0 0 128 128;" xml:space="preserve">
<polygon style="fill:#404547;" points="64,9 77.395,31.664 102.891,25.109 96.336,50.605 119,64 96.336,77.395 102.891,102.891 
	77.395,96.336 64,119 50.605,96.336 25.109,102.891 31.664,77.395 9,64 31.664,50.605 25.109,25.109 50.605,31.664 "/>
<g>
	<g>
		<path style="fill:#FFFFFF;" d="M57.498,42.082c0-0.864,0.31-1.594,0.893-2.176C58.977,39.302,59.703,39,60.568,39h6.875
			c0.857,0,1.582,0.302,2.176,0.914c0.584,0.614,0.879,1.333,0.879,2.168V64.54c0,0.863-0.295,1.595-0.879,2.186
			c-0.594,0.604-1.318,0.9-2.176,0.9h-6.875c-0.865,0-1.591-0.296-2.178-0.9c-0.583-0.591-0.893-1.322-0.893-2.186V42.082z"/>
	</g>
	<g>
		<path style="fill:#FFFFFF;" d="M57.498,79.306c0-0.872,0.31-1.604,0.893-2.195c0.586-0.595,1.313-0.892,2.178-0.892h6.875
			c0.859,0,1.582,0.306,2.176,0.909c0.584,0.617,0.879,1.341,0.879,2.178v6.611c0,0.867-0.295,1.594-0.879,2.19
			C69.025,88.709,68.303,89,67.443,89h-6.875c-0.865,0-1.591-0.291-2.178-0.893c-0.583-0.597-0.893-1.323-0.893-2.19V79.306z"/>
	</g>
</g>
</svg>
