<?xml version="1.0" encoding="iso-8859-1"?>
<!-- Generator: Adobe Illustrator 15.0.0, SVG Export Plug-In . SVG Version: 6.00 Build 0)  -->
<!DOCTYPE svg PUBLIC "-//W3C//DTD SVG 1.1//EN" "http://www.w3.org/Graphics/SVG/1.1/DTD/svg11.dtd">
<svg version="1.1" id="Ebene_4" xmlns="http://www.w3.org/2000/svg" xmlns:xlink="http://www.w3.org/1999/xlink" x="0px" y="0px"
	 width="128px" height="128px" viewBox="0 0 128 128" style="enable-background:new 0 0 128 128;" xml:space="preserve">
<linearGradient id="SVGID_1_" gradientUnits="userSpaceOnUse" x1="64.0122" y1="119" x2="64.0122" y2="9.0005">
	<stop  offset="0.3" style="stop-color:#426080"/>
	<stop  offset="1" style="stop-color:#819CBD"/>
</linearGradient>
<path style="fill:url(#SVGID_1_);" d="M64.378,101.939c-20.68,0-37.503-16.8-37.503-37.507c0-20.681,16.824-37.506,37.503-37.506
	c8.874,0,17.032,3.086,23.446,8.274L69.245,51.275l48.979,7.25L118.122,9l-17.248,14.883c-9.603-8.712-22.4-14.069-36.496-14.069
	c-30.145,0-54.579,24.472-54.579,54.618C9.799,94.587,34.233,119,64.378,119c23.662,0,43.783-15.036,51.318-36.016l-17.417-2.641
	C92.332,93.095,79.361,101.939,64.378,101.939z"/>
</svg>
