<svg id="Layer_1" data-name="Layer 1" xmlns="http://www.w3.org/2000/svg" xmlns:xlink="http://www.w3.org/1999/xlink" viewBox="0 0 512 512"><defs><linearGradient id="linear-gradient" x1="256" y1="21.85" x2="256" y2="492.26" gradientUnits="userSpaceOnUse"><stop offset="0" stop-color="#728dae"/><stop offset="1" stop-color="#426080"/></linearGradient></defs><title>1</title><path d="M501.43,199.73q-22.76,39.8-45.7,79.47Q442.86,301.56,430,323.91c-7.16,12.41-18.23,12.51-25.32.2Q373.23,269.58,341.85,215c-3-5.19-6.06-10.35-9-15.59-5.94-10.76-.28-20.42,11.95-20.51q10.85-.08,21.68-.16c.1,0,.21-.22.38-.4.13-2.22-2.36-3.25-2.61-5.32-6.26-7.74-12.17-15.78-19.44-22.68-22.44-21.24-48.51-34.92-79.28-39.75-39.92-6.25-76,2.81-109,25.67-12.54,8.68-22.3,20-32.13,31.4-9,12.6-16.73,26-21.44,40.82C74.27,299,131.2,384.4,214.35,400.67c23.39,4.57,46.68,3.87,69.39-3.42,10.72-3.44,19.6-2.07,28.39,4.93,11.58,9.21,23.73,17.71,35.59,26.57,15.19,11.36,13.27,30.9-3.79,39.21C208.06,534.09,43.29,452.72,13,304.71a243.26,243.26,0,0,1,.39-99.93,180.71,180.71,0,0,1,12.36-38.17,212.35,212.35,0,0,1,36-60.36c37-44.16,83.72-72.23,140.5-81.82,69-11.66,131.42,4.8,186.46,48.05,31,24.39,54,55.21,69.59,91.45.94,2.18,1.57,4.5,2.35,6.76,1.4,7.24,5.8,9.29,12.86,8.37,5.24-.68,10.66-.16,16-.13C502,179,507.7,188.77,501.43,199.73Z" style="fill:url(#linear-gradient)"/><rect width="0.44" height="0.44" style="fill:none"/><rect y="511.56" width="0.44" height="0.44" style="fill:none"/><rect x="511.56" y="511.56" width="0.44" height="0.44" style="fill:none"/><rect y="480" width="0.44" height="0.44" style="fill:none"/><rect x="511.56" width="0.44" height="0.44" style="fill:none"/></svg>