<?xml version="1.0" encoding="iso-8859-1"?>
<!-- Generator: Adobe Illustrator 15.0.0, SVG Export Plug-In . SVG Version: 6.00 Build 0)  -->
<!DOCTYPE svg PUBLIC "-//W3C//DTD SVG 1.1//EN" "http://www.w3.org/Graphics/SVG/1.1/DTD/svg11.dtd">
<svg version="1.1" id="Ebene_4" xmlns="http://www.w3.org/2000/svg" xmlns:xlink="http://www.w3.org/1999/xlink" x="0px" y="0px"
	 width="128px" height="128px" viewBox="0 0 128 128" style="enable-background:new 0 0 128 128;" xml:space="preserve">
<g>
	<linearGradient id="SVGID_1_" gradientUnits="userSpaceOnUse" x1="57.2466" y1="121.7676" x2="57.2466" y2="6.2306">
		<stop  offset="0.2" style="stop-color:#426080"/>
		<stop  offset="1" style="stop-color:#819CBD"/>
	</linearGradient>
	<path style="fill:url(#SVGID_1_);" d="M86.331,41.5h-58.17c-2.761,0-5-2.239-5-5s2.239-5,5-5h58.17c2.762,0,5,2.239,5,5
		S89.093,41.5,86.331,41.5z"/>
</g>
<g>
	<linearGradient id="SVGID_2_" gradientUnits="userSpaceOnUse" x1="57.2378" y1="122" x2="57.2378" y2="5.9922">
		<stop  offset="0.2" style="stop-color:#426080"/>
		<stop  offset="1" style="stop-color:#819CBD"/>
	</linearGradient>
	<path style="fill:url(#SVGID_2_);" d="M21,112c-2.762,0-5-2.238-5-5V20.992c0-2.761,2.238-5,5-5h72.475c2.762,0,5,2.239,5,5v20.686
		h10V20.992c0-8.271-6.729-15-15-15H21c-8.271,0-15,6.729-15,15V107c0,8.271,6.729,15,15,15h17v-10H21z"/>
	<linearGradient id="SVGID_3_" gradientUnits="userSpaceOnUse" x1="30.5913" y1="121.7676" x2="30.5913" y2="6.2302">
		<stop  offset="0.2" style="stop-color:#426080"/>
		<stop  offset="1" style="stop-color:#819CBD"/>
	</linearGradient>
	<path style="fill:url(#SVGID_3_);" d="M38,59h-9.839c-2.761,0-5,2.239-5,5c0,2.762,2.239,5,5,5h9.861
		C38.017,68.835,38,68.673,38,68.507V59z"/>
	<linearGradient id="SVGID_4_" gradientUnits="userSpaceOnUse" x1="30.6743" y1="121.7676" x2="30.6743" y2="6.2306">
		<stop  offset="0.2" style="stop-color:#426080"/>
		<stop  offset="1" style="stop-color:#819CBD"/>
	</linearGradient>
	<path style="fill:url(#SVGID_4_);" d="M38.188,86.5H28.161c-2.761,0-5,2.238-5,5s2.239,5,5,5H38v-7.643
		C38,88.056,38.073,87.271,38.188,86.5z"/>
</g>
<g>
	<g>
		<g>
			<g>
				<g>
					<g>
						<rect x="78" y="86.887" style="fill:#404547;" width="10" height="34.516"/>
					</g>
				</g>
			</g>
			<g>
				<path style="fill:#404547;" d="M118,66.979c0,3.005-2.449,5.44-5.469,5.44H53.469c-3.02,0-5.469-2.436-5.469-5.44v-9.792
					c0-3.006,2.449-5.44,5.469-5.44h59.063c3.02,0,5.469,2.435,5.469,5.44V66.979z"/>
				<path style="fill:#404547;" d="M118,96.179c0,3.005-2.449,5.439-5.469,5.439H53.469c-3.02,0-5.469-2.435-5.469-5.439v-9.793
					c0-3.004,2.449-5.439,5.469-5.439h59.063c3.02,0,5.469,2.436,5.469,5.439V96.179z"/>
			</g>
		</g>
		<g>
			<g>
				<rect x="48" y="112" style="fill:#404547;" width="70" height="10"/>
			</g>
		</g>
	</g>
	<path style="fill:#FFFFFF;" d="M111.438,94.88c0,0.721-0.581,1.299-1.305,1.299H91.961c-0.724,0-1.305-0.578-1.305-1.299v-7.196
		c0-0.72,0.581-1.298,1.305-1.298h18.172c0.724,0,1.305,0.578,1.305,1.298V94.88z"/>
	<path style="fill:#FFFFFF;" d="M111.438,65.681c0,0.717-0.583,1.298-1.305,1.298H91.961c-0.722,0-1.305-0.581-1.305-1.298v-7.197
		c0-0.716,0.583-1.297,1.305-1.297h18.172c0.722,0,1.305,0.581,1.305,1.297V65.681z"/>
</g>
</svg>
