<?xml version="1.0" encoding="iso-8859-1"?>
<!-- Generator: Adobe Illustrator 15.0.0, SVG Export Plug-In . SVG Version: 6.00 Build 0)  -->
<!DOCTYPE svg PUBLIC "-//W3C//DTD SVG 1.1//EN" "http://www.w3.org/Graphics/SVG/1.1/DTD/svg11.dtd">
<svg version="1.1" id="Ebene_1_Kopie" xmlns="http://www.w3.org/2000/svg" xmlns:xlink="http://www.w3.org/1999/xlink" x="0px"
	 y="0px" width="128px" height="128px" viewBox="0 0 128 128" style="enable-background:new 0 0 128 128;" xml:space="preserve">
<g>
	<linearGradient id="SVGID_1_" gradientUnits="userSpaceOnUse" x1="44.0005" y1="82.709" x2="44.0005" y2="14.0005">
		<stop  offset="0.3" style="stop-color:#426080"/>
		<stop  offset="1" style="stop-color:#819CBD"/>
	</linearGradient>
	<path style="fill:url(#SVGID_1_);" d="M79,82.709H63.927l-6.004-15.844h-28.63l-6.029,15.844H9L35.979,14h15.649L79,82.709z
		 M48.478,40.38c-0.399-1.03-0.822-2.259-1.289-3.687c-0.444-1.41-0.888-2.846-1.32-4.33c-0.41-1.479-0.821-2.856-1.231-4.19
		c-0.387-1.298-0.683-2.438-0.886-3.348h-0.191c-0.268,0.911-0.609,2.05-0.974,3.348c-0.41,1.333-0.867,2.711-1.345,4.19
		c-0.493,1.484-0.968,2.92-1.436,4.33c-0.445,1.428-0.888,2.657-1.268,3.687L32.83,56.44h21.364L48.478,40.38z"/>
</g>
<g>
	<path style="fill:#404547;" d="M97.729,119L119,92.924l-12.641-0.001V17.315c0-0.932-0.319-1.716-0.959-2.354
		C104.76,14.32,103.982,14,103.043,14h-10.63c-0.896,0.001-1.681,0.322-2.336,0.961c-0.652,0.639-0.988,1.423-0.988,2.354
		l-0.001,75.608l-12.622-0.001L97.729,119z"/>
</g>
</svg>
