<svg id="Layer_1" data-name="Layer 1" xmlns="http://www.w3.org/2000/svg" xmlns:xlink="http://www.w3.org/1999/xlink" viewBox="0 0 512 512"><defs><linearGradient id="linear-gradient" x1="186.85" y1="90.84" x2="186.85" y2="426.13" gradientUnits="userSpaceOnUse"><stop offset="0" stop-color="#728dae"/><stop offset="1" stop-color="#426080"/></linearGradient><linearGradient id="linear-gradient-2" x1="146.8" y1="90.84" x2="146.8" y2="426.13" xlink:href="#linear-gradient"/><linearGradient id="linear-gradient-3" x1="465.79" y1="90.84" x2="465.79" y2="426.13" xlink:href="#linear-gradient"/></defs><title>1</title><path d="M346.6,196.93c-4.69-4.2-6.52-8.84-6.47-15.07.22-24.46.09-48.92,0-73.38,0-6.67-2-12.34-8.69-15.22-6.89-3-12.79-1.15-18.06,3.81-3.93,3.7-7.91,7.35-12,10.89-24.79,21.62-51.6,40.16-81.85,53.4-16.71,7.32-34.2,11.52-52.49,11.06-31.54-.79-63.08-.11-94.63-.23-6.82,0-12.59,2.55-15.54,9.26-1.36,3.09-4,3.91-6.85,4.45A50.71,50.71,0,0,0,8.23,237.76a44.67,44.67,0,0,0,.86,14c4.26,20.47,14.3,36.27,35.75,41.71,6.38,1.62,11.37,3.26,14.91,9.57,3.18,5.66,10,5.47,15.95,5.48q47.06.07,94.12-.07a109.37,109.37,0,0,1,24.41,2.78c23.53,5.3,44.57,16.16,64.67,29.09s38.06,28.14,55.64,44c5,4.51,10.55,5.8,16.8,3.13s8.42-7.9,8.88-14.16c.16-2.18.09-4.38.09-6.58,0-23.28.07-46.56-.17-69.83-.05-5,1.56-9.19,4.93-12.21,6.8-6.1,12.42-12.79,15.74-21.44,4.61-12,6.74-24.12,2.91-36.75C361.73,214.51,355.45,204.86,346.6,196.93Zm-35.77,29.62q-.14,51.58-.28,103.16c0,3,.69,6.84-2,8.22-2.45,1.27-4.55-2.2-6.61-3.78-24.86-19-51.09-35.54-80.79-46a149.71,149.71,0,0,0-20.34-5.9c-4.64-.93-6.39-3.44-6.35-8.09.12-12.13-.07-24.27-.13-36.41,1-13.4,1-13.41-12.14-13.41q-44.31,0-88.62,0a39.33,39.33,0,0,1-7.05-.44c-6.34-1.17-9.63-5.32-9.2-11.26s4.23-10.08,10.31-10.23C100.82,202,114,202,127.16,202c12.32,0,24.65,0,37,.17,32.86.49,62.51-9.88,91-25.38a340,340,0,0,0,51.08-34.17c2.55-2.06,4-1,4.45,1.91a29.92,29.92,0,0,1,0,4q.08,39,.17,78Z" style="fill:url(#linear-gradient)"/><path d="M191.46,384.07a94,94,0,0,0-10.82-9.9c-5.9-4.73-8.28-10.67-6.87-18.32a40.75,40.75,0,0,0-.63-19.06c-2.13-7.24-5.72-10-13.16-10q-15.19,0-30.38,0v0c-10.63,0-21.27,0-31.9,0-5.55,0-6.36,1.13-4.41,6.39q14.29,38.64,28.75,77.23c3,8,5.76,9.54,14.32,9.67,17.72.27,35.41-1.35,53.15-.43,7.47.39,12.37-5.62,11.7-13.34A37,37,0,0,0,191.46,384.07Z" style="fill:url(#linear-gradient-2)"/><path d="M502.15,218.52c-.27-1.82-.43-3.66-.83-5.45-7.36-32.6-24.15-59.31-50.11-80.33-3.53-2.86-6-2.68-8.74,1.07-4.28,5.84-8.88,11.46-13.45,17.09-2.15,2.65-1.89,4.61.78,6.8,19.9,16.31,33.61,36.6,39.45,61.9a121.52,121.52,0,0,1-.75,46.66c-5.22,23.84-18.07,42.9-36.65,58.38-4.81,4-4.88,5.58-1,10.45s7.51,9.54,11.19,14.35c3.82,5,5.39,5.29,10.25,1.26,18.71-15.52,33.15-34.26,42-57,4.46-11.45,6.83-23.31,8.52-35.6A131,131,0,0,0,502.15,218.52Z" style="fill:url(#linear-gradient-3)"/><path d="M438.15,217.55c-4.41-14.94-13.82-26.37-25.52-36.15-2.62-2.19-5.28-2-7.49.73Q398,191,391,199.94c-2,2.52-2,4.93.66,7,4.72,3.62,8.4,8.22,12,12.88,10.72,25,7.92,39.31-11.71,59.06-2.54,2.56-2.52,4.84-.4,7.51q6,7.52,11.85,15.12c4.5,5.84,6.2,6.12,11.7,1.17,12.14-10.93,20.68-23.82,24.76-40.08A76.71,76.71,0,0,0,438.15,217.55Z" style="fill:#6e89a9"/><rect width="0.44" height="0.44" style="fill:none"/><rect y="511.56" width="0.44" height="0.44" style="fill:none"/><rect x="511.56" y="511.56" width="0.44" height="0.44" style="fill:none"/><rect x="511.56" width="0.44" height="0.44" style="fill:none"/></svg>