<svg id="Layer_1" data-name="Layer 1" xmlns="http://www.w3.org/2000/svg" xmlns:xlink="http://www.w3.org/1999/xlink" viewBox="0 0 111.84 111.84"><defs><linearGradient id="linear-gradient" x1="45.39" y1="27.6" x2="45.39" y2="111.14" gradientUnits="userSpaceOnUse"><stop offset="0" stop-color="#8099ba"/><stop offset="1" stop-color="#425e7f"/></linearGradient></defs><title>teamspeak_vectors</title><path d="M89.62,45.71a18.4,18.4,0,0,0-18.07-17.8q-26.21-.32-52.43,0C8.67,28.05,1,36.12.94,46.53.87,54.35.89,62.18.88,70c0,12.29,7.4,19.85,19.79,20,7.66.1,15.32.19,23-.06,3.27-.11,4.41,1.28,4.83,4.16.94,6.5-1.88,11.58-6.83,17,11.61-2.34,19.34-8.31,24.81-17.3,1.52-2.5,3-3.76,6.12-4A18.35,18.35,0,0,0,89.71,72.18C90,63.36,89.94,54.53,89.62,45.71ZM68.19,50.36q-14,13.84-28,27.71c-2.37,2.34-4.4,3.31-7.15.07A117.79,117.79,0,0,0,22,67.19c-2.63-2.38-2.49-4.39-.11-6.67s4.64-5.83,8.69-2.56c2.05,1.65,4,5,5.86,5,3-.16,4.75-3.8,7-6,5.11-5,10.1-10.15,15.16-15.21,1.52-1.52,3.16-3.58,5.52-2.13a17.32,17.32,0,0,1,6,6.23A5.42,5.42,0,0,1,68.19,50.36Z" style="fill:url(#linear-gradient)"/><path d="M70.21,45.81a5.42,5.42,0,0,1-2,4.55q-14,13.84-28,27.71c-2.37,2.34-4.4,3.31-7.15.07A117.79,117.79,0,0,0,22,67.19c-2.63-2.38-2.49-4.39-.11-6.67s4.64-5.83,8.69-2.56c2.05,1.65,4,5,5.86,5,3-.16,4.75-3.8,7-6,5.11-5,10.1-10.15,15.16-15.21,1.52-1.52,3.16-3.58,5.52-2.13A17.32,17.32,0,0,1,70.21,45.81Z" style="fill:#fff"/><path d="M98.73,59.58c0-4.23,0-8.36,0-12.48-.07-16.35-12.09-28.44-28.35-28.47-13.83,0-27.67-.12-41.5.07-3.81.05-4.63-1.12-3.61-4.6A18.08,18.08,0,0,1,42.59.81q25.25-.09,50.5,0a17.63,17.63,0,0,1,17.79,17.73q.14,12.5,0,25A16.61,16.61,0,0,1,98.73,59.58Z" style="fill:#44494b"/></svg>