<svg id="Layer_1" data-name="Layer 1" xmlns="http://www.w3.org/2000/svg" xmlns:xlink="http://www.w3.org/1999/xlink" viewBox="0 0 111.84 111.84"><defs><linearGradient id="linear-gradient" x1="55.92" y1="4.44" x2="55.92" y2="107.87" gradientUnits="userSpaceOnUse"><stop offset="0" stop-color="#8099ba"/><stop offset="1" stop-color="#425e7f"/></linearGradient><linearGradient id="linear-gradient-2" x1="55.83" y1="4.41" x2="55.83" y2="107.84" xlink:href="#linear-gradient"/></defs><title>teamspeak_vectors</title><path d="M21.15,40.4c4.63-15.73,20.19-25.58,37.18-23.59,6.11.72,12.11,1.72,17.64,4.67,7.74,4.12,13.17,9.94,14.48,18.94.13,12.38-7.37,19.21-17.78,23.29-13.06,5.12-26.09,4.55-38.48-2.38C26.11,56.8,21.24,50,21.15,40.4ZM35.42,39c-1.59,12.31,6.63,22.53,19.09,23.74,11.05,1.07,21.1-7.82,21.91-19.39C67.26,47.1,63.07,45.89,58,38.11c-.89-6.09.4-11.35,6.48-14.7C51.75,17.11,37.65,25.08,35.42,39Z" style="fill:#fefefe"/><path d="M90.45,40.43c.13,12.38-7.36,19.21-17.78,23.29-13.06,5.12-26.09,4.55-38.48-2.38-8.09-4.53-13-11.3-13-20.93,4.63-15.73,20.19-25.58,37.18-23.59,6.11.72,12.11,1.72,17.64,4.67,7.74,4.12,13.17,9.94,14.48,18.94l20.32,0c.06-4,.19-8,.18-12,0-13.05-9.61-23.58-22.54-23.79q-32.46-.51-64.94,0c-12,.17-22,10-22.5,21.3-.21,4.81.07,9.64.13,14.47C1,46.1,1,51.75.95,57.41.9,72.27,10.61,82,25.63,82c9.32,0,18.65.34,27.94-.12,5.09-.26,6.17,2,6.52,6.27.62,7.5-2.36,13.51-7.6,19a10.43,10.43,0,0,0,2.07.19,18.45,18.45,0,0,0,2.4-.63c11.2-3.43,19.49-10.56,25.4-20.47,1.66-2.79,3.3-4.16,6.86-4.42,13.07-1,21.72-10.8,21.7-24,0-5.82-.1-11.64-.15-17.46Z" style="fill:url(#linear-gradient)"/><path d="M58,38.11c-.89-6.09.4-11.35,6.48-14.7C51.75,17.11,37.65,25.08,35.43,39c-1.59,12.31,6.63,22.53,19.09,23.73,11.05,1.07,21.1-7.82,21.91-19.39C67.26,47.1,63.07,45.89,58,38.11Z" style="fill:url(#linear-gradient-2)"/></svg>