<?xml version="1.0" encoding="iso-8859-1"?>
<!-- Generator: Adobe Illustrator 15.0.0, SVG Export Plug-In . SVG Version: 6.00 Build 0)  -->
<!DOCTYPE svg PUBLIC "-//W3C//DTD SVG 1.1//EN" "http://www.w3.org/Graphics/SVG/1.1/DTD/svg11.dtd">
<svg version="1.1" id="Ebene_4" xmlns="http://www.w3.org/2000/svg" xmlns:xlink="http://www.w3.org/1999/xlink" x="0px" y="0px"
	 width="128px" height="128px" viewBox="0 0 128 128" style="enable-background:new 0 0 128 128;" xml:space="preserve">
<g>
	<path style="fill:#819CBD;" d="M100.715,9h-49.56c-9.834,0-17.827,7.775-18.235,17.507h45.931
		c15.507,0,28.119,12.611,28.119,28.114v13.535C113.982,65.598,119,58.888,119,50.994V27.28C119,17.187,110.811,9,100.715,9z"/>
</g>
<linearGradient id="SVGID_1_" gradientUnits="userSpaceOnUse" x1="53.3403" y1="119" x2="53.3403" y2="38.5928">
	<stop  offset="0.2" style="stop-color:#426080"/>
	<stop  offset="1" style="stop-color:#819CBD"/>
</linearGradient>
<path style="fill:url(#SVGID_1_);" d="M78.852,35.971H27.819C17.425,35.971,9,44.4,9,54.794v24.419
	c0,10.401,8.425,18.829,18.819,18.829h27.845c1.64,4.319,3.328,13.121-5.56,20.957c16.241-3.017,23.873-15.722,26.367-20.957h2.381
	c10.396,0,18.829-8.428,18.829-18.829V54.794C97.681,44.4,89.248,35.971,78.852,35.971z"/>
<g>
	<path style="fill:#FFFFFF;" d="M77.458,57.062L47.236,87.243c-0.588,0.574-1.445,0.841-2.584,0.824
		c-1.043-0.036-1.84-0.3-2.393-0.824L29.218,74.199c-0.588-0.596-0.877-1.306-0.877-2.155c0-0.836,0.29-1.557,0.877-2.145
		l4.351-4.344c0.579-0.583,1.299-0.884,2.141-0.884c0.851,0,1.564,0.301,2.149,0.884l6.888,6.885l24.066-24.021
		c0.599-0.588,1.312-0.884,2.162-0.884c0.854,0,1.558,0.296,2.14,0.884l4.343,4.291c0.596,0.618,0.883,1.342,0.883,2.171
		C78.341,55.712,78.054,56.442,77.458,57.062z"/>
</g>
</svg>
