<?xml version="1.0" encoding="iso-8859-1"?>
<!-- Generator: Adobe Illustrator 15.0.0, SVG Export Plug-In . SVG Version: 6.00 Build 0)  -->
<!DOCTYPE svg PUBLIC "-//W3C//DTD SVG 1.1//EN" "http://www.w3.org/Graphics/SVG/1.1/DTD/svg11.dtd">
<svg version="1.1" id="Ebene_4_Kopie" xmlns="http://www.w3.org/2000/svg" xmlns:xlink="http://www.w3.org/1999/xlink" x="0px"
	 y="0px" width="128px" height="128px" viewBox="0 0 128 128" style="enable-background:new 0 0 128 128;" xml:space="preserve">
<g>
	<linearGradient id="SVGID_1_" gradientUnits="userSpaceOnUse" x1="18.7607" y1="115.1758" x2="68.0981" y2="65.8384">
		<stop  offset="0.3" style="stop-color:#426080"/>
		<stop  offset="1" style="stop-color:#819CBD"/>
	</linearGradient>
	<path style="fill:url(#SVGID_1_);" d="M41.94,78.074c-9.057-4.68-19.359-3.822-26.819,3.701c-5.193,5.24-4.437,25.195-4.437,25.195
		l4.845,1.608l4.989-14.302c0,0,4.874-9.266,16.579,2.531c11.701,11.799,1.734,15.934,1.734,15.934l-14.093,5.124l1.527,4.813
		c0,0,20.208,1.872,25.747-3.715c7.459-7.515,8.167-18.053,3.518-27.184l19.256-19.256L61.136,58.878L41.94,78.074z"/>
	<polygon style="fill:#404547;" points="115.741,61.227 120.646,12.982 72.418,17.881 87.271,32.743 68.207,51.807 81.855,65.455 
		100.917,46.394 100.917,46.395 	"/>
</g>
</svg>
