<?xml version="1.0" encoding="iso-8859-1"?>
<!-- Generator: Adobe Illustrator 15.0.0, SVG Export Plug-In . SVG Version: 6.00 Build 0)  -->
<!DOCTYPE svg PUBLIC "-//W3C//DTD SVG 1.1//EN" "http://www.w3.org/Graphics/SVG/1.1/DTD/svg11.dtd">
<svg version="1.1" id="Ebene_4_Kopie" xmlns="http://www.w3.org/2000/svg" xmlns:xlink="http://www.w3.org/1999/xlink" x="0px"
	 y="0px" width="128px" height="128px" viewBox="0 0 128 128" style="enable-background:new 0 0 128 128;" xml:space="preserve">
<g>
	<linearGradient id="SVGID_1_" gradientUnits="userSpaceOnUse" x1="61.5479" y1="66.1436" x2="110.885" y2="16.8064">
		<stop  offset="0.3" style="stop-color:#426080"/>
		<stop  offset="1" style="stop-color:#819CBD"/>
	</linearGradient>
	<path style="fill:url(#SVGID_1_);" d="M87.705,53.908c9.057,4.68,19.359,3.822,26.819-3.701c5.193-5.24,4.437-25.195,4.437-25.195
		l-4.845-1.608l-4.988,14.302c0,0-4.874,9.266-16.579-2.531C80.848,23.375,90.815,19.24,90.815,19.24l14.093-5.124l-1.527-4.813
		c0,0-20.209-1.872-25.747,3.715c-7.459,7.515-8.167,18.053-3.518,27.184L54.861,59.457L68.51,73.103L87.705,53.908z"/>
	<polygon style="fill:#404547;" points="13.905,70.755 9,118.999 57.228,114.101 42.375,99.238 61.439,80.174 47.791,66.526 
		28.729,85.587 28.729,85.587 	"/>
</g>
</svg>
