<svg id="Layer_1" data-name="Layer 1" xmlns="http://www.w3.org/2000/svg" xmlns:xlink="http://www.w3.org/1999/xlink" viewBox="0 0 111.84 111.84"><defs><linearGradient id="linear-gradient" x1="35.86" y1="-2.24" x2="35.86" y2="114.11" gradientUnits="userSpaceOnUse"><stop offset="0" stop-color="#8099ba"/><stop offset="1" stop-color="#425e7f"/></linearGradient><linearGradient id="linear-gradient-2" x1="90.59" y1="-2.24" x2="90.59" y2="114.11" xlink:href="#linear-gradient"/><linearGradient id="linear-gradient-3" x1="34.51" y1="-2.24" x2="34.51" y2="114.11" xlink:href="#linear-gradient"/></defs><title>teamspeak_vectors</title><path d="M64.67,56.66C79.38,54,92.48,51.75,105.54,49.3c2.65-.5,3.15.1,2.67,2.69-2.44,13.07-4.74,26.16-7.15,39.62-3.66-1.69-5.81-4.89-8.38-7.49-2.11-2.13-3.38-2.8-5.87-.21-7.85,8.16-16,16-24.07,24-4.31,4.26-7.26,4.35-11.44.22C45.5,102.36,39.8,96.52,34,90.82c-3.16-3.09-3-5.83,0-9,8.63-9.14,8.9-9.2,17.8-.29A23.58,23.58,0,0,1,54.2,84c1.86,2.53,3.35,2.28,5.45,0,4.53-4.87,9.28-9.56,14.12-14.13,1.94-1.83,1.88-3-.07-4.7C70.85,62.73,68.21,60,64.67,56.66Z" style="fill:#44494b"/><path d="M63.34,24.88c-16.65.17-33.3.07-50,.08-6.88,0-9.75,2.75-9.83,9.57-.11,9.66-.09,19.32-.09,29,0,6.82,2.81,10,9.62,9.55,5.59-.34,9.79.31,10.31,7,0,.14.46.25.76.4,2.75-4,6.3-7.32,9.85-10.55s7.43-4.47,12.38-3.1a16.8,16.8,0,0,1,8.09,5.45c3.57,3.93,4.6-.59,6.48-1.89,2.09-1.45,3.22-2.94.5-5.36-4.7-4.19-9-8.83-14.2-14,6.38-1.14,11.74-2.31,17.17-3,3-.39,3.91-1.69,3.8-4.55a123.28,123.28,0,0,1,0-14C68.52,25.47,66.87,24.84,63.34,24.88Z" style="fill:url(#linear-gradient)"/><path d="M103.5.71c-8.8,6.84-16.75,13-24.72,19.18-1.1.85-1,2-1,3.15,0,6.32,0,12.64-.09,19,0,2.41.78,3.38,3.21,2.94q10-1.84,20.08-3.61c1.63-.29,2.62-.85,2.61-2.84C103.46,26.25,103.5,14,103.5.71Z" style="fill:url(#linear-gradient-2)"/><path d="M40.25,110.61,28.78,98.31C28.84,107.86,32.38,111.62,40.25,110.61Z" style="fill:url(#linear-gradient-3)"/></svg>