<?xml version="1.0" encoding="utf-8"?>
<!-- Generator: Adobe Illustrator 16.0.3, SVG Export Plug-In . SVG Version: 6.00 Build 0)  -->
<!DOCTYPE svg PUBLIC "-//W3C//DTD SVG 1.1//EN" "http://www.w3.org/Graphics/SVG/1.1/DTD/svg11.dtd">
<svg version="1.1" id="Ebene_2_Kopie" xmlns="http://www.w3.org/2000/svg" xmlns:xlink="http://www.w3.org/1999/xlink" x="0px"
	 y="0px" width="128px" height="128px" viewBox="0 0 128 128" enable-background="new 0 0 128 128" xml:space="preserve">
<g>
	<path fill="#404547" d="M57.38,58.89l17-3.017l4.042-0.717V33.008H22.294c-2.26,0-4.178,0.795-5.729,2.391
		c-1.549,1.596-2.327,3.487-2.327,5.665v32.108c0,2.192,0.778,4.07,2.327,5.677c1.552,1.584,3.47,2.382,5.729,2.382h9.812
		l2.129,8.006c0.675-1.662,1.677-3.188,2.98-4.492l6.677-6.677c2.57-2.566,6-3.979,9.657-3.979c3.654,0,7.083,1.412,9.663,3.985
		l3.157,3.157l1.056,1.056l1.058-1.056l5.624-5.613L69.589,71.1L57.38,58.89z"/>
	<path fill="#404547" d="M40.554,113.002c0.581,2.184,1.84,3.828,3.781,4.915c1.939,1.091,3.967,1.358,6.071,0.799l0.936-0.251
		c0.07-0.019,0.135-0.044,0.204-0.064l-13.019-13.02L40.554,113.002z"/>
	<polygon fill="#404547" points="113.763,9 88.498,28.621 88.498,53.369 113.763,48.886 	"/>
</g>
<g>
	<linearGradient id="SVGID_1_" gradientUnits="userSpaceOnUse" x1="80.5918" y1="118.999" x2="80.5918" y2="57.106">
		<stop  offset="0.3" style="stop-color:#426080"/>
		<stop  offset="1" style="stop-color:#819CBD"/>
	</linearGradient>
	<path fill="url(#SVGID_1_)" d="M118.953,57.105l-43,7.63l10.889,10.889L67.418,95.008l-10.57-10.571
		c-0.9-0.897-1.999-1.349-3.298-1.349c-1.3,0-2.399,0.451-3.298,1.349l-6.673,6.672c-0.899,0.9-1.348,2-1.348,3.299
		c0,1.3,0.449,2.398,1.348,3.297l20.016,20.017c0.85,0.799,2.075,1.228,3.673,1.274c1.748,0.049,3.074-0.375,3.974-1.274
		l28.871-28.826l11.21,11.21L118.953,57.105z"/>
</g>
</svg>
