<svg id="Layer_1" data-name="Layer 1" xmlns="http://www.w3.org/2000/svg" xmlns:xlink="http://www.w3.org/1999/xlink" viewBox="0 0 111.84 111.84"><defs><linearGradient id="linear-gradient" x1="33.28" y1="-0.02" x2="33.28" y2="113.39" gradientUnits="userSpaceOnUse"><stop offset="0" stop-color="#8099ba"/><stop offset="1" stop-color="#425e7f"/></linearGradient><linearGradient id="linear-gradient-2" x1="87.92" y1="-0.02" x2="87.92" y2="113.39" xlink:href="#linear-gradient"/></defs><title>teamspeak_vectors</title><path d="M110.95,78.19c0,18.53-14.64,32.69-33.65,32.62-18.2-.06-32.44-14.74-32.42-33.4,0-18.46,14.72-32.69,33.7-32.62C96.81,44.86,111,59.48,110.95,78.19Zm-23.2-20.1a21.38,21.38,0,0,0-25.21,3.54,21.79,21.79,0,0,0-4.28,26.24Zm9.56,8.84C87.82,76.39,78.86,85.52,69.66,94.4,66.58,97.37,68,98,71,99a22.48,22.48,0,0,0,23.63-6.44C100.85,85.55,101.92,76.45,97.31,66.93Z" style="fill:#44494b"/><path d="M65.54,28.43c.3-2.89-1-3.67-3.73-3.62-8.66.15-17.32.05-26,.05-8.82,0-17.65-.06-26.47,0-4.86,0-8.11,2.77-8.23,7.52-.28,11-.29,22-.11,33C1.09,70,4.18,72.64,8.6,73c3.39.32,7.69-1.59,9.94,1,2.07,2.4,2.21,6.48,3.17,9.84.45,1.6.78,3.23,1.22,4.83,1.51,5.61,2.81,11.29,4.63,16.8,1.71,5.15,7.32,6.93,12.37,4.36,4.5-2.29,5.2-5.66,2.21-10.63C28.82,77.05,39,48.53,61.29,39.54c3.34-1.35,4.78-3.1,4.27-6.63A18.33,18.33,0,0,1,65.54,28.43Z" style="fill:url(#linear-gradient)"/><path d="M77.48,18.78c-1.17.91-2.38,1.72-2.33,3.54.09,3.65,0,7.31,0,11,0,1.52.35,2.63,2.16,2.59,8.32-.18,15.92,2.43,23.43,6.62V.79Z" style="fill:url(#linear-gradient-2)"/></svg>