<?xml version="1.0" encoding="iso-8859-1"?>
<!-- Generator: Adobe Illustrator 15.0.0, SVG Export Plug-In . SVG Version: 6.00 Build 0)  -->
<!DOCTYPE svg PUBLIC "-//W3C//DTD SVG 1.1//EN" "http://www.w3.org/Graphics/SVG/1.1/DTD/svg11.dtd">
<svg version="1.1" id="Ebene_4_Kopie" xmlns="http://www.w3.org/2000/svg" xmlns:xlink="http://www.w3.org/1999/xlink" x="0px"
	 y="0px" width="128px" height="128px" viewBox="0 0 128 128" style="enable-background:new 0 0 128 128;" xml:space="preserve">
<linearGradient id="SVGID_1_" gradientUnits="userSpaceOnUse" x1="64.0005" y1="123" x2="64.0005" y2="5.0005">
	<stop  offset="0.3" style="stop-color:#426080"/>
	<stop  offset="1" style="stop-color:#819CBD"/>
</linearGradient>
<path style="fill:url(#SVGID_1_);" d="M63.997,5c0,0-38.511,12.695-54.997,12.695C9,91.704,62.943,122.321,63.989,123h-0.005
	C65.03,122.321,119,91.704,119,17.695C102.512,17.695,63.997,5,63.997,5z"/>
<path style="fill:none;stroke:#FFFFFF;stroke-width:8;stroke-miterlimit:10;" d="M94,57c0,16.57-13.431,30-30,30
	c-16.565,0-30-13.43-30-30c0-16.565,13.435-30,30-30C80.569,27,94,40.435,94,57z"/>
<polyline style="fill:none;stroke:#FFFFFF;stroke-width:10;stroke-linecap:round;stroke-miterlimit:10;" points="51.61,52.309 
	63.6,60.819 78.39,45.932 "/>
</svg>
