<?xml version="1.0" encoding="iso-8859-1"?>
<!-- Generator: Adobe Illustrator 15.0.0, SVG Export Plug-In . SVG Version: 6.00 Build 0)  -->
<!DOCTYPE svg PUBLIC "-//W3C//DTD SVG 1.1//EN" "http://www.w3.org/Graphics/SVG/1.1/DTD/svg11.dtd">
<svg version="1.1" id="Ebene_4_Kopie_Kopie" xmlns="http://www.w3.org/2000/svg" xmlns:xlink="http://www.w3.org/1999/xlink"
	 x="0px" y="0px" width="128px" height="128px" viewBox="0 0 128 128" style="enable-background:new 0 0 128 128;"
	 xml:space="preserve">
<g>
	<linearGradient id="SVGID_1_" gradientUnits="userSpaceOnUse" x1="63.9868" y1="123" x2="63.9868" y2="122.998">
		<stop  offset="0.3" style="stop-color:#426080"/>
		<stop  offset="1" style="stop-color:#819CBD"/>
	</linearGradient>
	<polygon style="fill:url(#SVGID_1_);" points="63.989,123 63.987,122.998 63.984,123 	"/>
	<linearGradient id="SVGID_2_" gradientUnits="userSpaceOnUse" x1="64.0005" y1="122.998" x2="64.0005" y2="5.0005">
		<stop  offset="0.3" style="stop-color:#426080"/>
		<stop  offset="1" style="stop-color:#819CBD"/>
	</linearGradient>
	<path style="fill:url(#SVGID_2_);" d="M64.708,102.427H52.564c-3.929,0-7.594-1.544-10.308-4.336
		c-2.658-2.725-4.122-6.309-4.122-10.093v-8.857c0-0.035,0.005-0.069,0.005-0.104C33.07,73.097,30,65.402,30,57
		c0-18.748,15.252-34,34-34c12.122,0,22.776,6.382,28.797,15.957c2.017,0.704,3.869,1.839,5.424,3.39
		c2.712,2.715,4.206,6.344,4.206,10.217v12.143h8.334C115.718,51.537,119,35.937,119,17.695C102.512,17.695,63.997,5,63.997,5
		S25.486,17.695,9,17.695c0,73.977,53.895,104.599,54.987,105.303c0.13-0.084,1.017-0.598,2.47-1.556
		c-1.138-2.092-1.749-4.438-1.749-6.872V102.427z"/>
	<linearGradient id="SVGID_3_" gradientUnits="userSpaceOnUse" x1="59.9312" y1="123" x2="59.9311" y2="5.0006">
		<stop  offset="0.3" style="stop-color:#426080"/>
		<stop  offset="1" style="stop-color:#819CBD"/>
	</linearGradient>
	<path style="fill:url(#SVGID_3_);" d="M52.564,64.707h7.875l-11.723-8.321c-2.252-1.598-2.782-4.719-1.183-6.971
		c1.598-2.252,4.719-2.782,6.971-1.183l10.204,7.235v-2.858v-0.045c0-3.875,1.495-7.505,4.22-10.229
		c2.715-2.709,6.342-4.201,10.213-4.201h2.722C77.2,33.717,70.914,31,64,31c-14.336,0-26,11.664-26,26
		c0,4.697,1.258,9.103,3.446,12.91c0.285-0.343,0.583-0.676,0.901-0.995C45.064,66.201,48.692,64.707,52.564,64.707z"/>
	<path style="fill:#FFFFFF;" d="M64,23c-18.748,0-34,15.252-34,34c0,8.402,3.07,16.096,8.139,22.036
		c0.024-3.381,1.185-6.569,3.307-9.126C39.258,66.104,38,61.697,38,57c0-14.337,11.664-26,26-26c6.914,0,13.2,2.717,17.862,7.134
		h6.136c1.664,0,3.277,0.292,4.799,0.823C86.776,29.382,76.122,23,64,23z"/>
	<path style="fill:#FFFFFF;" d="M54.504,48.232c-2.252-1.599-5.374-1.069-6.971,1.183c-1.599,2.252-1.069,5.373,1.183,6.971
		l11.723,8.321h4.269V52.609v2.858L54.504,48.232z"/>
</g>
<g>
	<g>
		<path style="fill:#404547;" d="M114.57,92.427H92.427v22.144c0,1.242-0.428,2.295-1.281,3.146
			C90.29,118.574,89.243,119,87.998,119h-8.857c-1.245,0-2.295-0.438-3.15-1.313c-0.854-0.874-1.282-1.918-1.282-3.116V92.427
			H52.564c-1.246,0-2.295-0.439-3.15-1.318c-0.854-0.876-1.28-1.908-1.28-3.11v-8.857c0-1.246,0.426-2.295,1.28-3.15
			c0.854-0.854,1.904-1.283,3.15-1.283h22.144V52.564c0-1.246,0.428-2.295,1.282-3.15c0.855-0.854,1.905-1.28,3.15-1.28h8.857
			c1.245,0,2.292,0.427,3.147,1.28c0.854,0.854,1.281,1.904,1.281,3.15v22.143h22.144c1.242,0,2.295,0.43,3.146,1.283
			c0.857,0.855,1.283,1.904,1.283,3.15v8.857c0,1.202-0.426,2.234-1.283,3.11C116.865,91.987,115.813,92.427,114.57,92.427z"/>
	</g>
</g>
</svg>
