<?xml version="1.0" encoding="iso-8859-1"?>
<!-- Generator: Adobe Illustrator 15.0.0, SVG Export Plug-In . SVG Version: 6.00 Build 0)  -->
<!DOCTYPE svg PUBLIC "-//W3C//DTD SVG 1.1//EN" "http://www.w3.org/Graphics/SVG/1.1/DTD/svg11.dtd">
<svg version="1.1" id="Ebene_2" xmlns="http://www.w3.org/2000/svg" xmlns:xlink="http://www.w3.org/1999/xlink" x="0px" y="0px"
	 width="128px" height="128px" viewBox="0 0 128 128" style="enable-background:new 0 0 128 128;" xml:space="preserve">
<g>
	<linearGradient id="SVGID_1_" gradientUnits="userSpaceOnUse" x1="64.0005" y1="119" x2="64.0005" y2="9.0005">
		<stop  offset="0.3" style="stop-color:#426080"/>
		<stop  offset="1" style="stop-color:#819CBD"/>
	</linearGradient>
	<path style="fill:url(#SVGID_1_);" d="M120.02,119H95.908l-9.605-25.367H40.44L30.821,119H7.98L51.162,9h25.047L120.02,119z
		 M71.169,51.233c-0.628-1.68-1.308-3.643-2.052-5.913c-0.731-2.257-1.437-4.565-2.116-6.925c-0.692-2.373-1.347-4.604-1.975-6.708
		c-0.629-2.09-1.104-3.886-1.424-5.348h-0.308c-0.424,1.462-0.949,3.258-1.578,5.348c-0.628,2.103-1.347,4.335-2.129,6.708
		c-0.782,2.36-1.552,4.668-2.282,6.925c-0.744,2.27-1.424,4.232-2.053,5.913l-9.144,25.689h34.204L71.169,51.233z"/>
</g>
</svg>
