<?xml version="1.0" encoding="iso-8859-1"?>
<!-- Generator: Adobe Illustrator 15.0.0, SVG Export Plug-In . SVG Version: 6.00 Build 0)  -->
<!DOCTYPE svg PUBLIC "-//W3C//DTD SVG 1.1//EN" "http://www.w3.org/Graphics/SVG/1.1/DTD/svg11.dtd">
<svg version="1.1" id="Ebene_2" xmlns="http://www.w3.org/2000/svg" xmlns:xlink="http://www.w3.org/1999/xlink" x="0px" y="0px"
	 width="128px" height="128px" viewBox="0 0 128 128" style="enable-background:new 0 0 128 128;" xml:space="preserve">
<g>
	<g>
		<path style="fill:#404547;" d="M43.729,9v58.461c0,9.297,1.638,16.029,4.925,20.195c3.28,4.181,8.343,6.262,15.202,6.262
			c7.423,0,12.851-2.081,16.276-6.262c3.431-4.166,5.141-10.898,5.141-20.195V9h19.273v59.88c0,13.661-3.426,23.924-10.272,30.789
			c-6.848,6.88-17.049,10.322-30.561,10.322c-14.28,0-24.564-3.464-30.835-10.383c-6.288-6.919-9.425-17.162-9.425-30.729V9H43.729z
			"/>
	</g>
	<g>
		<rect x="23.453" y="118" style="fill:#404547;" width="81.094" height="10"/>
	</g>
</g>
</svg>
