<?xml version="1.0" encoding="iso-8859-1"?>
<!-- Generator: Adobe Illustrator 15.0.0, SVG Export Plug-In . SVG Version: 6.00 Build 0)  -->
<!DOCTYPE svg PUBLIC "-//W3C//DTD SVG 1.1//EN" "http://www.w3.org/Graphics/SVG/1.1/DTD/svg11.dtd">
<svg version="1.1" id="Ebene_2" xmlns="http://www.w3.org/2000/svg" xmlns:xlink="http://www.w3.org/1999/xlink" x="0px" y="0px"
	 width="128px" height="128px" viewBox="0 0 128 128" style="enable-background:new 0 0 128 128;" xml:space="preserve">
<g>
	<path style="fill:#404547;" d="M25.31,9H59.04c6.091,0,11.658,0.526,16.705,1.578c5.041,1.051,9.35,2.706,12.922,4.963
		c3.571,2.257,6.328,5.175,8.271,8.747s2.918,7.881,2.918,12.921c0,6.304-1.893,11.69-5.676,16.153
		c-3.783,4.469-9.51,7.483-17.179,9.061v0.314c8.093,1.052,14.396,3.861,18.911,8.432c4.52,4.572,6.777,10.478,6.777,17.73
		c0,5.676-1.238,10.453-3.699,14.339c-2.469,3.893-5.733,6.989-9.773,9.298c-4.047,2.315-8.645,3.97-13.787,4.97
		C70.281,118.5,64.971,119,59.508,119H25.31V9z M46.747,55.33h5.829c3.784,0,7.253-0.179,10.401-0.551
		c3.155-0.366,5.83-1.103,8.035-2.206c2.206-1.103,3.943-2.648,5.201-4.649c1.263-1.994,1.891-4.565,1.891-7.721
		c0-3.046-0.602-5.515-1.808-7.406c-1.212-1.892-2.892-3.386-5.047-4.489c-2.154-1.109-4.649-1.866-7.483-2.29
		c-2.834-0.417-5.829-0.628-8.984-0.628h-8.035V55.33z M46.747,102.456h7.246c9.035,0,15.704-1.238,20.013-3.707
		c4.31-2.469,6.465-6.592,6.465-12.369c0-5.675-2.232-9.696-6.695-12.056c-4.469-2.366-11.427-3.547-20.885-3.547h-6.143V102.456z"
		/>
</g>
</svg>
