<?xml version="1.0" encoding="iso-8859-1"?>
<!-- Generator: Adobe Illustrator 15.0.0, SVG Export Plug-In . SVG Version: 6.00 Build 0)  -->
<!DOCTYPE svg PUBLIC "-//W3C//DTD SVG 1.1//EN" "http://www.w3.org/Graphics/SVG/1.1/DTD/svg11.dtd">
<svg version="1.1" id="Ebene_1_Kopie_Kopie_Kopie_Kopie_Kopie_Kopie"
	 xmlns="http://www.w3.org/2000/svg" xmlns:xlink="http://www.w3.org/1999/xlink" x="0px" y="0px" width="128px" height="128px"
	 viewBox="0 0 128 128" style="enable-background:new 0 0 128 128;" xml:space="preserve">
<g>
	<g>
		<path style="fill:#424849;" d="M90.876,72.75c9.993,0,18.124,8.131,18.124,18.124c0,9.995-8.131,18.126-18.124,18.126
			c-9.995,0-18.126-8.131-18.126-18.126C72.75,80.881,80.881,72.75,90.876,72.75 M90.876,62.75
			c-15.533,0-28.126,12.593-28.126,28.124C62.75,106.408,75.343,119,90.876,119C106.408,119,119,106.408,119,90.874
			C119,75.343,106.408,62.75,90.876,62.75L90.876,62.75z"/>
	</g>
</g>
<line style="fill:none;stroke:#424849;stroke-width:10;stroke-miterlimit:10;" x1="107.977" y1="73.773" x2="73.773" y2="107.977"/>
<g>
	<g>
		<linearGradient id="SVGID_1_" gradientUnits="userSpaceOnUse" x1="60.6255" y1="95.2881" x2="60.6255" y2="9.0389">
			<stop  offset="0.3" style="stop-color:#426080"/>
			<stop  offset="1" style="stop-color:#819CBD"/>
		</linearGradient>
		<path style="fill:url(#SVGID_1_);" d="M74.613,56.401L74.611,9L46.638,38.429v50.259l6.393,6.729
			c-0.178-1.491-0.28-3.005-0.28-4.543C52.75,75.667,61.703,62.516,74.613,56.401z"/>
	</g>
	<linearGradient id="SVGID_2_" gradientUnits="userSpaceOnUse" x1="98.0117" y1="117.9736" x2="98.0117" y2="9.0486">
		<stop  offset="0.3" style="stop-color:#426080"/>
		<stop  offset="1" style="stop-color:#819CBD"/>
	</linearGradient>
	<path style="fill:url(#SVGID_2_);" d="M106.752,49.736c-1.832-4.412-4.477-8.329-7.867-11.642
		c-1.313-1.279-3.039-1.983-4.861-1.983c-1.898,0-3.668,0.746-4.975,2.093c-1.307,1.327-2.014,3.084-1.992,4.952
		c0.027,1.858,0.766,3.594,2.086,4.894c1.434,1.396,2.638,2.992,3.623,4.748c5.84,0.287,11.338,1.893,16.202,4.526
		C108.511,54.713,107.778,52.174,106.752,49.736z"/>
	<g>
		<linearGradient id="SVGID_3_" gradientUnits="userSpaceOnUse" x1="28.6992" y1="117.9736" x2="28.6992" y2="9.0488">
			<stop  offset="0.3" style="stop-color:#426080"/>
			<stop  offset="1" style="stop-color:#819CBD"/>
		</linearGradient>
		<path style="fill:url(#SVGID_3_);" d="M20.397,40.924c-1.625,1.661-2.431,3.631-2.431,5.908v33.456
			c0,2.269,0.806,4.249,2.431,5.896c1.615,1.669,3.602,2.504,5.969,2.504h13.065V38.429H26.367
			C23.999,38.429,22.012,39.265,20.397,40.924z"/>
	</g>
</g>
</svg>
