<svg id="Layer_1" data-name="Layer 1" xmlns="http://www.w3.org/2000/svg" xmlns:xlink="http://www.w3.org/1999/xlink" viewBox="0 0 512 512"><defs><linearGradient id="linear-gradient" x1="256" y1="8" x2="256" y2="504" gradientUnits="userSpaceOnUse"><stop offset="0" stop-color="#728dae"/><stop offset="1" stop-color="#426080"/></linearGradient><linearGradient id="linear-gradient-2" x1="323.23" y1="7.98" x2="323.23" y2="504.07" xlink:href="#linear-gradient"/></defs><title>1</title><path d="M467.47,240.81c0-60.63,0-121.25-.24-181.88A51.72,51.72,0,0,0,465.67,45,50.11,50.11,0,0,0,416.75,8Q279.08,8,141.4,8c-15.92,0-31.84-.1-47.76,0-26.62.21-49,22.82-49,49.35q0,93.22-.08,186.45c0,2,.14,4.05.21,6.08q-.08,66.55-.16,133.1a14.87,14.87,0,0,0,.13,2.53c4.65,27,26.69,43.77,51.61,43.39,26.24-.4,52.5,0,78.75-.16a9.59,9.59,0,0,1,7.51,3.15c23.33,23.37,46.8,46.6,70.09,70,2.67,2.69,4,2.73,6.67,0,23.16-23.3,46.52-46.4,69.72-69.67a10.71,10.71,0,0,1,8.38-3.53c27.26.13,54.53.3,81.79,0,25.43-.32,47.88-22.09,48.07-47.23.36-45.89,0-91.78,0-137.67C467.33,242.83,467.47,241.82,467.47,240.81ZM258.38,279.25c-7.18-6.69-14.34-13.41-21.28-20.35s-8-7.13-15-.06q-20.8,20.86-41.65,41.67c-5.15,5.14-7,5.1-12.15,0l-.36-.36c-9.12-9.21-9.14-10.26,0-19.34q14.89-14.85,29.82-29.65c-.77-.15-1.53-.33-2.29-.51.76.18,1.52.36,2.29.51,3.59-3.33,7.24-6.59,10.75-10,5.23-5.08,5.35-6.92.69-12.39a178,178,0,0,1-23.71-35.94c-3.19-6.36-2.48-7.55,4.59-8,11.87-.69,16.09,1.73,21.3,12.31,3.78,7.68,9.4,14,14.85,20.51,2.27,2.69,4.63,2.46,6.82-.14a176.37,176.37,0,0,0,28.83-48.14c1.81-4.51.37-6-5.27-6q-52.08,0-104.17.06c-10.67,0-14.24-4.63-12.21-15.33,1-5.26,3.11-7.23,8.86-7.1,19.81.46,39.63.21,59.45.22,7.46,0,9.92-2.34,9.91-10,0-14.42-.25-12.35,12.69-12.46,8.2-.07,9.63,1.44,9.56,9.79-.1,12.24-1.43,12.69,12.25,12.6,18.8-.13,37.6-.06,56.4-.05,7.19,0,8.59,1.44,8.67,8.58.18,16.11-.9,13.58-13.45,13.62-17.62.06-17.68,0-24.75,16.14-7.9,18-17.51,35-30.4,49.94-4.07,4.73-3.85,6.89.65,11.23,5.35,5.16,10.77,10.23,16.16,15.34,1.85,2.7,5.68,4.41,5,8.36-.93,5.66-2.45,11.31-5.91,16C263,283.38,260.31,281.05,258.38,279.25Zm120.38,59.91c-3.22,0-6.43,0-9.65-.09-7-.13-9.81-2.11-11.3-8.84s-4.74-13-6.88-19.54c-1.07-3.27-3.58-4.72-7-4.72q-20.58,0-41.16,0c-4.16,0-6.5,2.27-7.84,6-2.47,6.84-5.1,13.61-7.46,20.48-1.59,4.63-4.52,6.69-9.46,6.73-19.27.14-15.44-.48-10.53-14.71,5.65-16.37,13-32.1,18.14-48.64,2-6.33,4.72-12.41,7.11-18.61a6.71,6.71,0,0,0-1-1.5,6.71,6.71,0,0,1,1,1.5c5.49-12,9.29-24.55,14.13-36.75,1.18-3,2.11-6.11,3.69-8.86,4.73-8.26,12.71-3.21,19.18-4.34,3.88-.68,5.68,1.84,6.92,5.21,4,11,7.55,22.17,12.62,32.75h0q14.23,38.11,28.43,76.24c1.64,4.42,3.65,8.7,4.59,13.39C382.88,338,381.62,339.14,378.75,339.16Z" style="fill:url(#linear-gradient)"/><path d="M325.12,242.18c-.35-.94-.54-2.09-1.71-2.27-1.39-.22-1.57,1.11-1.89,2-4.65,12.49-9.24,25-13.89,37.49-1.1,2.95.12,4.19,2.94,4.24,4.05.08,8.11,0,12.17,0v0c4.23,0,8.45,0,12.68,0,3.39,0,4.58-1.59,3.34-4.9Q331.89,260.45,325.12,242.18Z" style="fill:url(#linear-gradient-2)"/><rect width="0.44" height="0.44" style="fill:none"/><rect y="511.56" width="0.44" height="0.44" style="fill:none"/><rect x="511.56" y="511.56" width="0.44" height="0.44" style="fill:none"/><rect x="511.56" width="0.44" height="0.44" style="fill:none"/></svg>