<svg id="Layer_1" data-name="Layer 1" xmlns="http://www.w3.org/2000/svg" xmlns:xlink="http://www.w3.org/1999/xlink" viewBox="0 0 111.84 111.84"><defs><linearGradient id="linear-gradient" x1="45.34" y1="27.08" x2="45.34" y2="112.57" gradientUnits="userSpaceOnUse"><stop offset="0" stop-color="#8099ba"/><stop offset="1" stop-color="#425e7f"/></linearGradient></defs><title>teamspeak_vectors</title><path d="M41.44,111.13c5.23-5.5,7.84-10.5,7.07-16.8-.38-3.07-1.61-4.56-5.11-4.43-7.48.29-15,.16-22.48.07C8.28,89.83.85,82.28.88,69.75c0-7.66,0-15.32.06-23C1,36,8.61,28,19.36,27.84q26-.3,52,0A18.67,18.67,0,0,1,89.67,46.43c.17,8,.15,16,.11,24,0,10.59-7.31,18.61-17.9,19.4-2.82.21-4,1.58-5.24,3.68C61.13,102.55,53.39,108.58,41.44,111.13Z" style="fill:url(#linear-gradient)"/><path d="M98.74,59.63c0-4.42,0-8.69,0-12.95-.11-16-12.24-28.06-28.22-28.1-13.83,0-27.67-.15-41.5.08-4.25.07-4.76-1.37-3.6-5C28,5.78,34.55.76,43,.74q24.75-.06,49.5,0c10.89,0,18.38,7.64,18.44,18.62,0,8,.09,16,0,24C110.86,50.93,106.37,57,98.74,59.63Z" style="fill:#44494b"/></svg>