<svg id="Layer_1" data-name="Layer 1" xmlns="http://www.w3.org/2000/svg" xmlns:xlink="http://www.w3.org/1999/xlink" viewBox="0 0 111.84 111.84"><defs><linearGradient id="linear-gradient" x1="45.38" y1="-0.51" x2="45.38" y2="111.36" gradientUnits="userSpaceOnUse"><stop offset="0" stop-color="#8099ba"/><stop offset="1" stop-color="#425e7f"/></linearGradient><linearGradient id="linear-gradient-2" x1="67.97" y1="-0.51" x2="67.97" y2="111.36" xlink:href="#linear-gradient"/></defs><title>teamspeak_vectors</title><path d="M89.74,45.19c-.66-9-8.4-16.93-17.22-17.07q-27.19-.44-54.39,0C9,28.27,1.35,36.18,1,45.11c-.2,4.64.08,9.3.14,14,0,3.66-.12,7.32-.13,11C.92,82.34,8.32,90,20.54,90.18c7.66.11,15.32.22,23-.07,3.52-.13,4.65,1.39,5.07,4.45.88,6.41-2,11.41-6.29,16.25,10.13-1.52,18.42-7.35,24.38-17.18,1.3-2.14,2.48-3.42,5.27-3.6,8.46-.54,14.44-5.49,16.91-13.56,1.74-5.7.72-11.56.7-17.35C89.64,54.47,90.08,49.8,89.74,45.19Z" style="fill:url(#linear-gradient)"/><path d="M110.9,19.27C110.83,8.74,103.15,1.1,92.57,1.05,84.42,1,76.26,1,68.1,1c-8.49,0-17,0-25.47,0A18,18,0,0,0,25.52,13.9c-1.18,3.66-.51,5.07,3.67,5,13.81-.19,27.63-.09,41.45-.07S95.47,27.93,98.25,41.5c1,5,.33,10,.64,14.92.07,1.06-.64,2.53.73,3.1,1.17.49,2.21-.5,3.12-1.16,5.16-3.71,8.25-8.55,8.2-15.13C110.88,35.25,110.95,27.26,110.9,19.27Z" style="fill:url(#linear-gradient-2)"/></svg>