<svg id="Layer_1" data-name="Layer 1" xmlns="http://www.w3.org/2000/svg" xmlns:xlink="http://www.w3.org/1999/xlink" viewBox="0 0 111.84 111.84"><defs><linearGradient id="linear-gradient" x1="55.92" y1="3.83" x2="55.92" y2="110.04" gradientUnits="userSpaceOnUse"><stop offset="0" stop-color="#8099ba"/><stop offset="1" stop-color="#425e7f"/></linearGradient><linearGradient id="linear-gradient-2" x1="55.92" y1="20.52" x2="55.92" y2="63.92" xlink:href="#linear-gradient"/></defs><title>teamspeak_vectors</title><path d="M111,28.49c0-13-9.65-23.59-22.52-23.79-21.64-.34-43.29-.31-64.94,0C11.7,4.84,1.64,14.39,1,25.49c-.33,6,0,12,.1,18,0,4.66-.12,9.31-.13,14C.94,72.1,10.53,81.87,25.19,82c9.65.08,19.3.24,28.94-.09,4.17-.14,5.47,1.5,5.92,5.27C61,95,58.12,101.43,52.63,107a5.73,5.73,0,0,0,1.45.34,16.21,16.21,0,0,0,2.43-.5c11.38-3.41,19.86-10.56,25.86-20.64,1.66-2.79,3.29-4.17,6.85-4.42,13-.92,21.71-10.8,21.69-23.9,0-5.49-.09-11-.14-16.46C110.83,37.13,111,32.81,111,28.49ZM47.38,41.41h0c1.12,0,2.26-.1,3.38-.06C49.64,41.3,48.51,41.41,47.38,41.41Z" style="fill:url(#linear-gradient)"/><ellipse cx="56" cy="42.01" rx="34" ry="24.5" style="fill:#425e7f"/><path d="M76.92,42A21,21,0,1,1,64.67,22.92,10.5,10.5,0,1,0,76.31,37,20.79,20.79,0,0,1,76.92,42Z" style="fill:url(#linear-gradient-2)"/><path d="M64.67,22.92A21,21,0,0,1,76.31,37Z" style="fill:#425e7f"/></svg>