<?xml version="1.0" encoding="iso-8859-1"?>
<!-- Generator: Adobe Illustrator 15.0.0, SVG Export Plug-In . SVG Version: 6.00 Build 0)  -->
<!DOCTYPE svg PUBLIC "-//W3C//DTD SVG 1.1//EN" "http://www.w3.org/Graphics/SVG/1.1/DTD/svg11.dtd">
<svg version="1.1" id="Ebene_4" xmlns="http://www.w3.org/2000/svg" xmlns:xlink="http://www.w3.org/1999/xlink" x="0px" y="0px"
	 width="128px" height="128px" viewBox="0 0 128 128" style="enable-background:new 0 0 128 128;" xml:space="preserve">
<g>
	<g>
		<path style="fill:#404547;" d="M84.661,85.97c-1.547-0.419-2.998-0.827-4.418-1.535c-1.858-0.913-7.844-5.21-6.994-6.113
			c4.345-4.574,6.005-5.789,8.171-10.995l0.7-1.645l1.511-0.774c1.294-0.646,2.974-3.111,3.91-7.188
			c0.52-2.317,0.626-4.67,0.288-6.442c-0.251-1.262-0.649-1.929-0.931-2.124l-1.787-1.251l-0.267-2.256
			c-1.368-11.891-8.341-20.084-20.795-20.084c-12.451,0-19.432,8.192-20.829,20.082l-0.266,2.276l-1.801,1.234
			c-0.288,0.194-0.692,0.856-0.939,2.124c-0.331,1.772-0.222,4.125,0.307,6.444c0.923,4.084,2.621,6.546,3.894,7.189l1.546,0.771
			l0.695,1.665c2.157,5.197,4.008,6.57,8.174,10.972c1.108,1.189-5.124,5.198-7.004,6.116c-1.436,0.712-2.879,1.116-4.409,1.535
			c-4.247,1.156-9.064,2.496-14.914,11.186c-1.632,2.437-2.93,7.065-3.938,12.498c1.541,0.644,3.233,1.002,5.01,1.002h68.867
			c1.821,0,3.549-0.384,5.123-1.062c-0.957-5.265-2.283-9.873-3.992-12.438C93.723,88.468,88.903,87.126,84.661,85.97z"/>
	</g>
</g>
<linearGradient id="SVGID_1_" gradientUnits="userSpaceOnUse" x1="64.0005" y1="119" x2="64.0005" y2="9.0005">
	<stop  offset="0.3" style="stop-color:#426080"/>
	<stop  offset="1" style="stop-color:#819CBD"/>
</linearGradient>
<path style="fill:url(#SVGID_1_);" d="M104,19c2.757,0,5,2.243,5,5v80c0,2.757-2.243,5-5,5H24c-2.757,0-5-2.243-5-5V24
	c0-2.757,2.243-5,5-5H104 M104,9H24C15.716,9,9,15.716,9,24v80c0,8.284,6.716,15,15,15h80c8.284,0,15-6.716,15-15V24
	C119,15.716,112.284,9,104,9L104,9z"/>
</svg>
