<?xml version="1.0" encoding="iso-8859-1"?>
<!-- Generator: Adobe Illustrator 15.0.0, SVG Export Plug-In . SVG Version: 6.00 Build 0)  -->
<!DOCTYPE svg PUBLIC "-//W3C//DTD SVG 1.1//EN" "http://www.w3.org/Graphics/SVG/1.1/DTD/svg11.dtd">
<svg version="1.1" id="Ebene_4" xmlns="http://www.w3.org/2000/svg" xmlns:xlink="http://www.w3.org/1999/xlink" x="0px" y="0px"
	 width="128px" height="128px" viewBox="0 0 128 128" style="enable-background:new 0 0 128 128;" xml:space="preserve">
<path style="fill:none;stroke:#404547;stroke-width:20.8;stroke-miterlimit:10;" d="M19.384,79.856v20.102
	c0,4.746,3.496,8.594,7.813,8.594h73.691c4.317,0,7.813-3.848,7.813-8.594V79.856"/>
<g>
	<linearGradient id="SVGID_1_" gradientUnits="userSpaceOnUse" x1="65" y1="79.8564" x2="65" y2="9.0005">
		<stop  offset="0.3" style="stop-color:#426080"/>
		<stop  offset="1" style="stop-color:#819CBD"/>
	</linearGradient>
	<path style="fill:url(#SVGID_1_);" d="M91.872,41.953L65.005,9L38.129,41.953h16.486v30.384c-0.006,2.057,0.72,3.801,2.16,5.292
		c1.424,1.471,3.222,2.227,5.344,2.224l5.758,0.004c2.119-0.004,3.916-0.718,5.344-2.196c1.444-1.425,2.163-3.216,2.165-5.327
		v-30.38H91.872z"/>
</g>
</svg>
