<svg id="Layer_1" data-name="Layer 1" xmlns="http://www.w3.org/2000/svg" xmlns:xlink="http://www.w3.org/1999/xlink" viewBox="0 0 512 512"><defs><linearGradient id="linear-gradient" x1="256" y1="8" x2="256" y2="502.45" gradientUnits="userSpaceOnUse"><stop offset="0" stop-color="#728dae"/><stop offset="1" stop-color="#426080"/></linearGradient><linearGradient id="linear-gradient-2" x1="256" y1="8.41" x2="256" y2="502.85" xlink:href="#linear-gradient"/></defs><title>1</title><path d="M238.07,342.59c0-5.84,3.05-9.93,4.55-14.51,1.84-5.63,4.47-11,6.85-16.46,1-2.26.24-3.71-1.72-4.86-4-2.33-6.18-6.34-8.93-9.77a5.09,5.09,0,0,1,.25-6.41c4.13-4.89,9.2-7.8,15.92-7a63.65,63.65,0,0,0,7.46.18c6.1,0,9.64,3.88,12.78,8.34,1.21,1.72.13,3.18-.86,4.53-2.18,2.95-4.26,6.08-7.29,8.17-3.65,2.52-3.67,5.35-2.09,9.05,3.34,7.79,6.3,15.74,9.64,23.53,1.49,3.47,1.15,6.24-1.28,9.17a88.28,88.28,0,0,1-13.29,12.78c-2.13,1.69-3.93,1.89-6.21.12a118.48,118.48,0,0,1-14.15-13.2C238.43,344.84,238,343.55,238.07,342.59Z" style="fill:#fefefe"/><path d="M190.72,218.15c6.89,13.12,14,26.1,24.31,37,23.26,24.4,56.93,24.9,80.71,1a103.1,103.1,0,0,0,17.6-23.7c3.56-6.55,7.23-13,10.84-19.55,1.41-2.12,2.76-4.27,4.23-6.35,5.86-8.33,8.21-17.46,6.42-27.58-.6-3.38-1.91-6.4-5.3-7.54s-3.56-3.08-3.19-6.23c1.24-10.29,2.2-20.6,1.48-31-1.54-22.58-12.06-39.35-32-49.91-13.43-7.1-28-9.81-43.2-9.4-19,.5-36,6.3-50.25,18.93-10.92,9.67-16.8,22-18,36.69-1,11.8-.11,23.48,1.21,35.17.33,2.9-.13,4.74-3.3,5.84s-4.61,3.88-5.14,7.11c-1.72,10.37-.43,20,6.58,28.41C186.51,210.39,189.54,213.71,190.72,218.15Zm-4.25-34.78c.1-3.21.9-6.33,4.42-7.27,3.37-.91,4.69,1.92,6.2,4.21.6.91.66,2.35,2.66,2.66.05-6.72-1.77-13.06-2.86-19.42-3.66-21.31,7.49-33.71,20.7-40.26,4.6-2.28,8.55-1.77,12.48,2.08,17.05,16.69,38.21,24.43,61.43,27.34,6.42.81,12.88,1.47,19.34,1.77,4,.18,5,2,4.48,5.53-1.11,7.7-2,15.43-4,23.31,3.1-.2,3-2.79,4.14-4.21,1.37-1.73,2.42-4,5.14-3.43,2.88.58,4.3,2.77,4.68,5.47.91,6.48-.05,13-4,18-5.63,7.2-9.54,15.25-13.64,23.26-4.43,8.17-8.29,16.66-14.33,23.87a48.25,48.25,0,0,1-75.26-.8,101.18,101.18,0,0,1-13.38-22.08c-4.39-8.92-8.85-17.75-14.81-25.83C186.88,193.62,186.29,188.41,186.47,183.38Z" style="fill:none"/><path d="M266.34,305c3.1-2.14,5.23-5.35,7.46-8.36,1-1.38,2.13-2.88.88-4.64-3.21-4.57-6.84-8.56-13.08-8.54a65.44,65.44,0,0,1-7.64-.18c-6.89-.79-12.07,2.19-16.3,7.2a5.21,5.21,0,0,0-.26,6.56c2.82,3.51,5.08,7.62,9.14,10,2,1.18,2.77,2.66,1.76,5-2.44,5.58-5.13,11.09-7,16.85-1.54,4.69-4.67,8.88-4.67,14.85-.12,1,.37,2.3,1.69,3.73A121.32,121.32,0,0,0,252.8,361c2.33,1.81,4.18,1.61,6.36-.12a90.85,90.85,0,0,0,13.6-13.08c2.48-3,2.83-5.84,1.3-9.39-3.42-8-6.45-16.11-9.86-24.09C262.58,310.52,262.6,307.62,266.34,305Z" style="fill:none"/><path d="M374.63,306.56c-20.8-9.46-43.12-14.22-64.62-21.51-2.54-.86-4.16-.33-3.93,3.06.38,5.78.91,11.67-.54,17.33-7,27.49-23.75,48.21-45.94,65-3,2.25-5.65,1.3-8.37-.72a113.92,113.92,0,0,1-22.44-21.49c-13.83-17.76-25.87-36.24-23-60.37.42-3.46-1.35-3.66-3.93-2.9-21.62,6.5-43.56,12-64.26,21.35C123,313,114,324.06,109.45,339.37c-3.34,11.22-2.67,22.6-2.66,34,0,13.36,5.45,19,18.71,19.73,1.36.08,2.73,0,4.09,0H255.49q64.22,0,128.44,0c11.26,0,19.49-7.08,20.84-18.3a104.38,104.38,0,0,0-.44-25.52C401.92,329.89,393.19,315,374.63,306.56Z" style="fill:none"/><path d="M499.58,212.14c-1.73-16.11-7.18-31.26-12.85-46.21C470.89,124.24,444.39,90.24,410,62.17a219.14,219.14,0,0,0-32.31-21.78C324.89,11.1,268.38.76,209.34,13.14,116.72,32.54,54,87.88,21.27,176.79c-5,13.68-8.8,27.81-10,42.48a221,221,0,0,0-2.43,54.45,247.61,247.61,0,0,0,303.4,223.82c111.6-25.83,191.43-126.26,191.48-240.69C503.78,241.79,501.79,227,499.58,212.14ZM177.12,178.62c.53-3.23,2-6.05,5.14-7.11s3.62-2.94,3.3-5.84c-1.32-11.69-2.2-23.37-1.21-35.17,1.23-14.68,7.1-27,18-36.69,14.27-12.63,31.28-18.43,50.25-18.93,15.2-.41,29.77,2.29,43.2,9.4,19.92,10.55,30.44,27.32,32,49.91.72,10.43-.25,20.74-1.48,31-.37,3.15-.19,5.09,3.19,6.23s4.7,4.17,5.3,7.54c1.79,10.11-.56,19.25-6.42,27.58-1.46,2.08-2.82,4.23-4.23,6.35-3.61,6.52-7.28,13-10.84,19.55a103.1,103.1,0,0,1-17.6,23.7C272,280,238.29,279.53,215,255.13c-10.36-10.87-17.42-23.85-24.31-37-1.18-4.44-4.21-7.76-7-11.13C176.69,198.61,175.4,189,177.12,178.62Zm87.09,135.69c3.41,8,6.44,16.11,9.86,24.09,1.53,3.55,1.18,6.38-1.3,9.39a90.85,90.85,0,0,1-13.6,13.08c-2.18,1.73-4,1.93-6.36.12a121.32,121.32,0,0,1-14.49-13.5c-1.32-1.42-1.81-2.74-1.69-3.73,0-6,3.13-10.17,4.67-14.85,1.88-5.76,4.58-11.27,7-16.85,1-2.31.25-3.8-1.76-5-4.06-2.39-6.33-6.49-9.14-10a5.21,5.21,0,0,1,.26-6.56c4.23-5,9.41-8,16.3-7.2a65.44,65.44,0,0,0,7.64.18c6.24,0,9.87,4,13.08,8.54,1.25,1.76.14,3.26-.88,4.64-2.23,3-4.36,6.22-7.46,8.36C262.6,307.62,262.58,310.52,264.21,314.31Zm140.57,60.48c-1.35,11.22-9.58,18.3-20.84,18.3q-64.22,0-128.44,0H129.6c-1.36,0-2.73.06-4.09,0-13.27-.76-18.69-6.37-18.71-19.73,0-11.38-.68-22.77,2.66-34,4.56-15.3,13.53-26.41,28.19-33,20.7-9.34,42.64-14.85,64.26-21.35,2.58-.77,4.35-.56,3.93,2.9-2.92,24.13,9.12,42.61,23,60.37a113.92,113.92,0,0,0,22.44,21.49c2.72,2,5.39,3,8.37.72,22.19-16.81,38.91-37.53,45.94-65,1.45-5.66.92-11.55.54-17.33-.23-3.39,1.39-3.92,3.93-3.06,21.5,7.29,43.81,12,64.62,21.51,18.56,8.45,27.29,23.33,29.71,42.71A104.38,104.38,0,0,1,404.78,374.79Z" style="fill:url(#linear-gradient)"/><path d="M204.63,223.43A101.18,101.18,0,0,0,218,245.52a48.25,48.25,0,0,0,75.26.8c6-7.22,9.9-15.7,14.33-23.87,4.09-8,8-16.06,13.64-23.26,4-5.07,4.92-11.55,4-18-.38-2.69-1.8-4.88-4.68-5.47-2.72-.54-3.77,1.7-5.14,3.43-1.12,1.41-1,4-4.14,4.21,2-7.88,2.93-15.61,4-23.31.51-3.52-.48-5.34-4.48-5.53-6.46-.3-12.92-1-19.34-1.77-23.22-2.92-44.38-10.66-61.43-27.34-3.93-3.85-7.88-4.36-12.48-2.08-13.21,6.55-24.36,18.95-20.7,40.26,1.09,6.36,2.91,12.7,2.86,19.42-2-.31-2.06-1.75-2.66-2.66-1.52-2.28-2.84-5.12-6.2-4.21-3.52.94-4.32,4.05-4.42,7.27-.17,5,.41,10.25,3.35,14.23C195.77,205.68,200.24,214.52,204.63,223.43Z" style="fill:url(#linear-gradient-2)"/><rect width="0.44" height="0.44" style="fill:none"/><rect y="511.56" width="0.44" height="0.44" style="fill:none"/><rect x="511.56" y="511.56" width="0.44" height="0.44" style="fill:none"/><rect x="511.56" width="0.44" height="0.44" style="fill:none"/></svg>