<?xml version="1.0" encoding="iso-8859-1"?>
<!-- Generator: Adobe Illustrator 15.0.0, SVG Export Plug-In . SVG Version: 6.00 Build 0)  -->
<!DOCTYPE svg PUBLIC "-//W3C//DTD SVG 1.1//EN" "http://www.w3.org/Graphics/SVG/1.1/DTD/svg11.dtd">
<svg version="1.1" id="Ebene_4" xmlns="http://www.w3.org/2000/svg" xmlns:xlink="http://www.w3.org/1999/xlink" x="0px" y="0px"
	 width="128px" height="128px" viewBox="0 0 128 128" style="enable-background:new 0 0 128 128;" xml:space="preserve">
<g>
	<path style="fill:none;" d="M54.547,110.406h15.05c-1.282-4.162-1.594-8.604-0.896-13.053H54.547V110.406z"/>
	<path style="fill:#404547;" d="M54.547,110.406V96.354h-8.594v14.053H9V119h64.971c-1.972-2.638-3.433-5.538-4.374-8.594H54.547z"
		/>
	<linearGradient id="SVGID_1_" gradientUnits="userSpaceOnUse" x1="77.9189" y1="97.3535" x2="77.9189" y2="9.0002">
		<stop  offset="0.3" style="stop-color:#426080"/>
		<stop  offset="1" style="stop-color:#819CBD"/>
	</linearGradient>
	<path style="fill:url(#SVGID_1_);" d="M89.5,19.623c1.104,0,2,0.896,2,2v11.439c0,1.104-0.896,2-2,2H60.626l34.313,34.049
		c2.278-0.565,4.587-0.863,6.873-0.904V17.5c0-4.694-3.806-8.5-8.5-8.5H54.026c2.401,3.216,4.047,6.823,4.914,10.623H89.5z"/>
	<linearGradient id="SVGID_2_" gradientUnits="userSpaceOnUse" x1="47.6948" y1="97.3535" x2="47.6948" y2="9.0005">
		<stop  offset="0.3" style="stop-color:#426080"/>
		<stop  offset="1" style="stop-color:#819CBD"/>
	</linearGradient>
	<path style="fill:url(#SVGID_2_);" d="M68.701,97.354c0.136-0.867,0.297-1.733,0.51-2.599L33.057,58.878
		c-2.279,0.567-4.59,0.866-6.879,0.908v29.067c0,4.694,3.806,8.5,8.5,8.5H68.701z"/>
	<path style="fill:#FFFFFF;" d="M91.5,33.063V21.623c0-1.104-0.896-2-2-2H58.94c1.001,4.388,0.972,9.027-0.156,13.611l1.842,1.828
		H89.5C90.604,35.063,91.5,34.167,91.5,33.063z"/>
</g>
<path style="fill:#404547;" d="M92.392,80.671L47.192,35.819c3.99-7.731,3.369-16.634-3.045-23
	c-4.469-4.434-21.491-3.787-21.491-3.787l-1.37,4.134l12.197,4.259c0,0,7.902,4.16-2.16,14.147c-10.063,9.986-13.59,1.48-13.59,1.48
	l-4.371-12.026L9.257,22.33c0,0-1.596,17.248,3.168,21.973c6.411,6.363,15.389,6.979,23.176,3.012l45.204,44.856
	c-3.992,7.731-3.37,16.645,3.039,22.999c4.468,4.442,21.499,3.796,21.499,3.796l1.371-4.134l-12.201-4.255
	c0,0-7.903-4.167,2.161-14.151c10.064-9.989,13.591-1.481,13.591-1.481l4.372,12.024l4.112-1.304c0,0,1.579-17.249-3.185-21.978
	C109.158,77.334,100.186,76.712,92.392,80.671z"/>
</svg>
