<?xml version="1.0" encoding="iso-8859-1"?>
<!-- Generator: Adobe Illustrator 15.0.0, SVG Export Plug-In . SVG Version: 6.00 Build 0)  -->
<!DOCTYPE svg PUBLIC "-//W3C//DTD SVG 1.1//EN" "http://www.w3.org/Graphics/SVG/1.1/DTD/svg11.dtd">
<svg version="1.1" id="Ebene_6" xmlns="http://www.w3.org/2000/svg" xmlns:xlink="http://www.w3.org/1999/xlink" x="0px" y="0px"
	 width="128px" height="128px" viewBox="0 0 128 128" style="enable-background:new 0 0 128 128;" xml:space="preserve">
<g>
	<g>
		<g>
			<g>
				<g>
					<path style="fill:#404547;" d="M81.938,100.918c-1.114,0-2.229-0.432-3.069-1.291c-1.661-1.696-1.632-4.416,0.063-6.076
						c3.875-3.794,6.906-8.277,9.009-13.327c2.134-5.098,3.215-10.526,3.215-16.14c0-5.622-1.079-11.049-3.208-16.132
						c-2.104-5.062-5.137-9.55-9.017-13.35c-1.695-1.66-1.723-4.381-0.063-6.076c1.66-1.696,4.381-1.723,6.076-0.063
						c4.709,4.611,8.388,10.055,10.934,16.179c2.567,6.13,3.871,12.674,3.871,19.441c0,6.758-1.306,13.304-3.878,19.453
						c-2.547,6.112-6.224,11.55-10.927,16.155C84.108,100.51,83.022,100.918,81.938,100.918z"/>
				</g>
			</g>
			<g>
				<g>
					<path style="fill:#404547;" d="M95.559,114.516c-1.108,0-2.217-0.426-3.057-1.277c-1.668-1.688-1.651-4.408,0.037-6.075
						c5.615-5.55,10.042-12.104,13.155-19.479c3.128-7.388,4.712-15.326,4.712-23.6c0-8.284-1.584-16.224-4.708-23.601
						c-3.124-7.396-7.552-13.992-13.162-19.608c-1.678-1.679-1.676-4.399,0.003-6.077c1.68-1.678,4.399-1.676,6.077,0.003
						c6.397,6.403,11.442,13.918,14.998,22.335C117.188,45.574,119,54.642,119,64.083c0,9.431-1.813,18.498-5.39,26.947
						c-3.553,8.416-8.61,15.901-15.032,22.245C97.741,114.104,96.649,114.516,95.559,114.516z"/>
				</g>
			</g>
		</g>
		<linearGradient id="SVGID_1_" gradientUnits="userSpaceOnUse" x1="53.3291" y1="119" x2="53.3291" y2="9.2807">
			<stop  offset="0.3" style="stop-color:#426080"/>
			<stop  offset="1" style="stop-color:#819CBD"/>
		</linearGradient>
		<polygon style="fill:url(#SVGID_1_);" points="67.426,9 39.229,38.662 39.229,89.319 67.429,119 		"/>
	</g>
	<g>
		<linearGradient id="SVGID_2_" gradientUnits="userSpaceOnUse" x1="19.8179" y1="118.999" x2="19.8179" y2="9.2811">
			<stop  offset="0.3" style="stop-color:#426080"/>
			<stop  offset="1" style="stop-color:#819CBD"/>
		</linearGradient>
		<path style="fill:url(#SVGID_2_);" d="M17.467,38.662c-2.386,0-4.39,0.843-6.017,2.515C9.813,42.85,9,44.836,9,47.13v33.723
			c0,2.287,0.813,4.281,2.45,5.943c1.627,1.682,3.63,2.523,6.017,2.523h13.168V38.662H17.467z"/>
	</g>
</g>
</svg>
