<svg id="Layer_1" data-name="Layer 1" xmlns="http://www.w3.org/2000/svg" viewBox="0 0 128 128"><title>1</title><path d="M63.53,118.12c-16.62,0-33.23,0-49.85,0-9.88,0-13.38-6-8.49-14.43Q30.44,59.87,55.76,16.1C60.54,7.85,67.34,7.78,72.08,16q25.5,44,50.88,88c4.67,8.1,1.07,14.08-8.48,14.11C97.5,118.16,80.51,118.12,63.53,118.12Zm-7.93-59q0,4.14,0,8.28c0,10.92.12,10.9,11.1,10.61,4.34-.12,5.84-2,5.72-6.1-.18-6.44,0-12.88,0-19.33,0-11.55,0-11.43-11.67-11-3.87.13-5.25,1.76-5.13,5.41C55.7,51,55.6,55.06,55.6,59.11Zm8.2,42.6c8.47,0,8.58-.1,8.58-8.11,0-8.36,0-8.39-7.64-8.4-9.13,0-9.13,0-9.14,8C55.59,101.56,55.73,101.7,63.8,101.71Z" style="fill:#03315f"/><rect width="0.44" height="0.44" style="fill:none"/><rect x="127.56" width="0.44" height="0.44" style="fill:none"/><rect y="127.56" width="0.44" height="0.44" style="fill:none"/><rect x="127.56" y="127.56" width="0.44" height="0.44" style="fill:none"/></svg>