<svg id="Layer_1" data-name="Layer 1" xmlns="http://www.w3.org/2000/svg" xmlns:xlink="http://www.w3.org/1999/xlink" viewBox="0 0 128 128"><defs><linearGradient id="linear-gradient" x1="64" y1="73.27" x2="64" y2="147.24" gradientUnits="userSpaceOnUse"><stop offset="0.24" stop-color="#fff" stop-opacity="0"/><stop offset="1" stop-color="#fff" stop-opacity="0.6"/></linearGradient><linearGradient id="linear-gradient-2" x1="64" y1="71.13" x2="64" y2="-3.95" gradientUnits="userSpaceOnUse"><stop offset="0.06" stop-color="#fff" stop-opacity="0"/><stop offset="0.67" stop-color="#fff" stop-opacity="0.68"/><stop offset="0.9" stop-color="#fff"/></linearGradient></defs><title>1</title><path d="M64,3a61,61,0,1,0,61,61A61,61,0,0,0,64,3Zm1.11,108.12c-13.67,0-14-.35-14-14.14,0-1.68,0-3.36.09-5,.3-3.53,2.24-5.51,5.82-5.64,2.34-.09,4.69,0,7,0,12.77,0,12.77,0,12.8,12.93C76.91,109.81,75.63,111.1,65.11,111.12ZM76.65,67c-.05,3.72-2.26,5.86-6.13,5.91-4,0-8.06.12-12.09,0-5.52-.13-7.24-1.81-7.31-7.28C51,58.8,50.86,51.91,50.86,45c0-7.05-.08-14.11,0-21.16C51,18.6,53,16.64,58.27,16.48c3.86-.11,7.72,0,11.59,0,4.55,0,7,2.4,7.05,6.76Q77,45.12,76.65,67Z" style="fill:#c9070a"/><path d="M65,111.12c10.53,0,11.8-1.31,11.77-11.9,0-13,0-13-12.8-12.93-2.35,0-4.7-.07-7,0-3.59.13-5.53,2.11-5.82,5.64-.14,1.67-.09,3.35-.09,5C51,110.77,51.37,111.14,65,111.12Z" style="fill:#fff"/><path d="M64,47.06c-26.24,0-47.51,16.68-47.51,37.26S37.76,121.57,64,121.57s47.51-16.68,47.51-37.26S90.24,47.06,64,47.06Zm1.11,64.06c-13.67,0-14-.35-14-14.14,0-1.68,0-3.36.09-5,.3-3.53,2.24-5.51,5.82-5.64,2.34-.09,4.69,0,7,0,12.77,0,12.77,0,12.8,12.93C76.91,109.81,75.63,111.1,65.11,111.12Z" style="fill:url(#linear-gradient)"/><path d="M64,8.62c-26.24,0-47.51,16.93-47.51,37.82S37.76,84.25,64,84.25s47.51-16.93,47.51-37.82S90.24,8.62,64,8.62ZM76.86,67c-.05,3.72-2.26,5.86-6.13,5.91-4,0-8.06.12-12.09,0-5.52-.13-7.24-1.81-7.31-7.28-.09-6.88-.26-13.77-.26-20.65,0-7.05-.08-14.11,0-21.16.08-5.27,2.07-7.23,7.38-7.39,3.86-.11,7.72,0,11.59,0,4.55,0,7,2.4,7.05,6.76Q77.21,45.12,76.86,67Z" style="fill:url(#linear-gradient-2)"/><rect width="0.44" height="0.44" style="fill:none"/><rect x="127.56" width="0.44" height="0.44" style="fill:none"/><rect x="127.56" y="127.56" width="0.44" height="0.44" style="fill:none"/><rect y="127.56" width="0.44" height="0.44" style="fill:none"/></svg>