<?xml version="1.0" encoding="iso-8859-1"?>
<!-- Generator: Adobe Illustrator 15.0.0, SVG Export Plug-In . SVG Version: 6.00 Build 0)  -->
<!DOCTYPE svg PUBLIC "-//W3C//DTD SVG 1.1//EN" "http://www.w3.org/Graphics/SVG/1.1/DTD/svg11.dtd">
<svg version="1.1" id="Ebene_1" xmlns="http://www.w3.org/2000/svg" xmlns:xlink="http://www.w3.org/1999/xlink" x="0px" y="0px"
	 width="128px" height="128px" viewBox="0 0 128 128" style="enable-background:new 0 0 128 128;" xml:space="preserve">
<g>
	<linearGradient id="SVGID_1_" gradientUnits="userSpaceOnUse" x1="57.2378" y1="122" x2="57.2378" y2="6.2901">
		<stop  offset="0.2" style="stop-color:#426080"/>
		<stop  offset="1" style="stop-color:#819CBD"/>
	</linearGradient>
	<path style="fill:url(#SVGID_1_);" d="M21,112c-2.762,0-5-2.238-5-5V20.992c0-2.761,2.238-5,5-5h72.475c2.762,0,5,2.239,5,5V33h10
		V20.992c0-8.271-6.729-15-15-15H21c-8.271,0-15,6.729-15,15V107c0,8.271,6.729,15,15,15h55.464l-9.5-10H21z"/>
	<linearGradient id="SVGID_2_" gradientUnits="userSpaceOnUse" x1="55.0278" y1="121.8877" x2="55.0278" y2="6.1777">
		<stop  offset="0.2" style="stop-color:#426080"/>
		<stop  offset="1" style="stop-color:#819CBD"/>
	</linearGradient>
	<path style="fill:url(#SVGID_2_);" d="M86.894,32.998c-0.907-0.923-2.166-1.498-3.563-1.498h-55.17c-2.761,0-5,2.239-5,5
		s2.239,5,5,5h50.65l6.363-6.694L86.894,32.998z"/>
	<linearGradient id="SVGID_3_" gradientUnits="userSpaceOnUse" x1="33.6421" y1="121.8877" x2="33.6421" y2="6.1773">
		<stop  offset="0.2" style="stop-color:#426080"/>
		<stop  offset="1" style="stop-color:#819CBD"/>
	</linearGradient>
	<path style="fill:url(#SVGID_3_);" d="M28.161,59c-2.761,0-5,2.239-5,5c0,2.762,2.239,5,5,5H39.62
		c0.292-3.785,1.834-7.222,4.503-10H28.161z"/>
	<linearGradient id="SVGID_4_" gradientUnits="userSpaceOnUse" x1="31.3794" y1="121.8877" x2="31.3794" y2="6.1777">
		<stop  offset="0.2" style="stop-color:#426080"/>
		<stop  offset="1" style="stop-color:#819CBD"/>
	</linearGradient>
	<path style="fill:url(#SVGID_4_);" d="M39.558,86.5H28.161c-2.761,0-5,2.238-5,5s2.239,5,5,5h11.437
		c-0.014-0.286-0.04-0.569-0.04-0.859V86.5z"/>
</g>
<g>
	<g>
		<g>
			<polygon style="fill:#404547;" points="92.423,41.695 71.254,63.965 71.254,101.997 92.425,124.281 			"/>
		</g>
	</g>
	<g>
		<g>
			<path style="fill:#404547;" d="M55.915,63.965c-1.792,0-3.295,0.633-4.517,1.888c-1.229,1.257-1.839,2.748-1.839,4.471v25.317
				c0,1.717,0.61,3.215,1.839,4.462c1.222,1.263,2.725,1.895,4.517,1.895h9.886V63.965H55.915z"/>
		</g>
	</g>
</g>
<linearGradient id="SVGID_5_" gradientUnits="userSpaceOnUse" x1="110.3398" y1="121.8877" x2="110.3398" y2="6.1778">
	<stop  offset="0.2" style="stop-color:#426080"/>
	<stop  offset="1" style="stop-color:#819CBD"/>
</linearGradient>
<path style="fill:url(#SVGID_5_);" d="M116.744,72.521c-1.387-3.339-3.389-6.303-5.953-8.81c-0.993-0.968-2.3-1.5-3.68-1.5
	c-1.437,0-2.775,0.564-3.765,1.583c-0.988,1.004-1.523,2.334-1.507,3.747c0.021,1.406,0.58,2.72,1.579,3.703
	c1.542,1.502,2.753,3.296,3.601,5.335c0.854,2.031,1.287,4.208,1.287,6.472c0,2.257-0.436,4.437-1.296,6.483
	c-0.843,2.023-2.05,3.809-3.595,5.312c-2.065,2.039-2.097,5.382-0.071,7.45c0.992,1.021,2.33,1.583,3.768,1.583
	c1.375,0,2.681-0.534,3.681-1.506c2.563-2.506,4.563-5.46,5.942-8.776c1.396-3.329,2.104-6.877,2.104-10.546
	C118.84,79.369,118.134,75.825,116.744,72.521z"/>
</svg>
