<svg width="100" height="100" viewBox="0 0 100 100" xmlns="http://www.w3.org/2000/svg">
  <!-- Background circle -->
  <circle cx="50" cy="50" r="45" fill="rgba(37, 41, 67, 1)" stroke="rgba(56, 61, 99, 1)" stroke-width="2"/>
  
  <!-- Cloud body -->
  <path d="M35 45 C25 45 20 55 25 60 C20 65 30 75 40 75 L60 75 C70 75 80 65 75 60 C80 55 75 45 65 45 C65 35 55 35 50 40 C45 35 35 35 35 45 Z" 
        fill="rgba(108, 135, 168, 1)" stroke="rgba(37, 40, 65, 1)" stroke-width="1"/>
  
  <!-- Arrow pointing down -->
  <path d="M50 55 L50 65 M50 65 L45 60 M50 65 L55 60" 
        stroke="rgb(74,222,128)" stroke-width="3" stroke-linecap="round"/>
  
  <!-- Hard drive base -->
  <rect x="30" y="70" width="40" height="5" fill="rgba(1, 107, 255, 1)" rx="2"/>
</svg>