<?xml version="1.0" encoding="utf-8"?>
<!-- Generator: Adobe Illustrator 16.0.3, SVG Export Plug-In . SVG Version: 6.00 Build 0)  -->
<!DOCTYPE svg PUBLIC "-//W3C//DTD SVG 1.1//EN" "http://www.w3.org/Graphics/SVG/1.1/DTD/svg11.dtd">
<svg version="1.1" xmlns="http://www.w3.org/2000/svg" xmlns:xlink="http://www.w3.org/1999/xlink" x="0px" y="0px" width="128px"
	 height="128px" viewBox="0 0 128 128" enable-background="new 0 0 128 128" xml:space="preserve">
<g id="Ebene_2" display="none">
	<rect x="-957.783" y="-1065.762" display="inline" fill="#F5F5F4" width="1775.645" height="2033.593"/>
</g>
<g id="Ebene_1" display="none">
	<linearGradient id="SVGID_1_" gradientUnits="userSpaceOnUse" x1="31.9863" y1="119" x2="31.9863" y2="9.0005">
		<stop  offset="0.3" style="stop-color:#426080"/>
		<stop  offset="1" style="stop-color:#819CBD"/>
	</linearGradient>
	<polygon display="inline" fill="url(#SVGID_1_)" points="54.996,119 31.988,99.135 8.977,119 8.977,9 54.996,9 	"/>
	<linearGradient id="SVGID_2_" gradientUnits="userSpaceOnUse" x1="95.9668" y1="119" x2="95.9668" y2="9.0005">
		<stop  offset="0.3" style="stop-color:#426080"/>
		<stop  offset="1" style="stop-color:#819CBD"/>
	</linearGradient>
	<polygon display="inline" fill="url(#SVGID_2_)" points="118.977,119 95.969,99.135 72.957,119 72.957,9 118.977,9 	"/>
	<g display="inline">
		<path fill="#424849" d="M292.042,52.564v12.528h12.528c1.532,0,3.021,0.252,4.43,0.714V9h-30.078v29.563
			c3.416,0.218,6.591,1.626,9.026,4.056C290.588,45.262,292.042,48.793,292.042,52.564z"/>
		<linearGradient id="SVGID_3_" gradientUnits="userSpaceOnUse" x1="254" y1="104.0303" x2="254" y2="9.0007">
			<stop  offset="0.3" style="stop-color:#426080"/>
			<stop  offset="1" style="stop-color:#819CBD"/>
		</linearGradient>
		<path fill="url(#SVGID_3_)" d="M255.093,65.092V52.564c0-3.772,1.456-7.306,4.106-9.957c2.619-2.613,6.109-4.058,9.84-4.084V9
			h-30.078v56.566c1.162-0.303,2.367-0.475,3.604-0.475H255.093z"/>
	</g>
	<path display="inline" d="M105.213,49.344c-2.698-2.705-6.33-4.204-10.209-4.204H82.859V32.997c0-3.873-1.494-7.501-4.206-10.217
		c-2.728-2.721-6.354-4.213-10.222-4.213h-8.858c-3.871,0-7.498,1.492-10.213,4.201c-2.724,2.724-4.219,6.354-4.219,10.229V45.14
		H32.997c-3.872,0-7.5,1.495-10.217,4.208c-2.719,2.723-4.213,6.351-4.213,10.225v8.858c0,3.786,1.465,7.372,4.126,10.096
		c2.71,2.788,6.375,4.332,10.304,4.332h12.144v12.145c0,3.795,1.469,7.385,4.136,10.11c2.713,2.781,6.374,4.319,10.297,4.319h8.858
		c3.879,0,7.511-1.499,10.226-4.221c2.704-2.697,4.202-6.329,4.202-10.209V82.859h12.145c3.928,0,7.589-1.542,10.311-4.342
		c2.656-2.722,4.119-6.303,4.119-10.086v-8.858C109.434,55.692,107.935,52.06,105.213,49.344z"/>
</g>
<g id="Ebene_1_Kopie">
	<g>
		<linearGradient id="SVGID_4_" gradientUnits="userSpaceOnUse" x1="33.9766" y1="119" x2="33.9766" y2="9.0005">
			<stop  offset="0.3" style="stop-color:#426080"/>
			<stop  offset="1" style="stop-color:#819CBD"/>
		</linearGradient>
		<path fill="url(#SVGID_4_)" d="M46.499,90.25v-8.749h-8.748c-3.739,0-7.23-1.47-9.821-4.128C25.396,74.778,24,71.361,24,67.752
			v-7.499c0-3.686,1.421-7.141,4.018-9.744c2.59-2.586,6.047-4.011,9.733-4.011h8.748v-8.747c0-3.691,1.426-7.149,4.025-9.748
			c2.287-2.281,5.251-3.652,8.453-3.941V9h-50v110l25.002-17.865L58.977,119v-15.063c-3.244-0.295-6.239-1.705-8.531-4.048
			C47.901,97.295,46.499,93.871,46.499,90.25z"/>
		<linearGradient id="SVGID_5_" gradientUnits="userSpaceOnUse" x1="94" y1="119" x2="94" y2="9.0005">
			<stop  offset="0.3" style="stop-color:#426080"/>
			<stop  offset="1" style="stop-color:#819CBD"/>
		</linearGradient>
		<path fill="url(#SVGID_5_)" d="M69,9v15.061c3.212,0.284,6.188,1.657,8.489,3.954c2.587,2.589,4.012,6.046,4.012,9.736v8.747
			h8.749c3.688,0,7.145,1.425,9.739,4.019c2.587,2.588,4.011,6.046,4.011,9.736v7.499c0,3.614-1.398,7.034-3.919,9.608
			c-2.6,2.67-6.091,4.141-9.831,4.141h-8.749v8.749c0,3.69-1.426,7.148-4.014,9.737c-2.294,2.294-5.271,3.668-8.487,3.952V119
			l25.002-17.865L119,119V9H69z"/>
	</g>
	<g>
		<g>
			<path fill="#404547" d="M90.25,71.501H71.501V90.25c0,1.051-0.363,1.944-1.085,2.666C69.693,93.639,68.806,94,67.752,94h-7.499
				c-1.055,0-1.944-0.373-2.667-1.112c-0.722-0.736-1.086-1.622-1.086-2.638V71.501H37.751c-1.055,0-1.945-0.375-2.667-1.116
				C34.362,69.646,34,68.772,34,67.752v-7.499c0-1.056,0.362-1.944,1.083-2.667c0.722-0.721,1.613-1.087,2.667-1.087h18.748V37.751
				c0-1.055,0.364-1.945,1.086-2.667C58.309,34.362,59.198,34,60.253,34h7.499c1.054,0,1.941,0.362,2.664,1.083
				c0.722,0.722,1.085,1.613,1.085,2.667v18.747H90.25c1.051,0,1.944,0.366,2.666,1.087C93.639,58.309,94,59.197,94,60.253v7.499
				c0,1.021-0.361,1.895-1.084,2.633C92.194,71.126,91.301,71.501,90.25,71.501z"/>
		</g>
	</g>
</g>
</svg>
