<svg id="Layer_1" data-name="Layer 1" xmlns="http://www.w3.org/2000/svg" xmlns:xlink="http://www.w3.org/1999/xlink" viewBox="0 0 512 512"><defs><linearGradient id="linear-gradient" x1="256" y1="-11.83" x2="256" y2="512.04" gradientUnits="userSpaceOnUse"><stop offset="0" stop-color="#728dae"/><stop offset="1" stop-color="#426080"/></linearGradient><linearGradient id="linear-gradient-2" x1="404.55" y1="288.21" x2="404.55" y2="552.02" xlink:href="#linear-gradient"/></defs><title>1</title><path d="M412.41,412.74c-1.68,0-2-.51-1.95-2,.08-8.82.05-17.64,0-26.46,0-2.42-1-3.9-3.25-4.07a88.4,88.4,0,0,0-12,0c-1.95.12-2.59,1-2.92,2.9a9.31,9.31,0,0,0-.08,1.58c0,8.71,0,17.43.06,26.14,0,1.68-.5,2-2,2-6.12-.09-12.25,0-18.37,0-2.85,0-5.7,0-8.56,0-2.65,0-3.76,1.65-3.71,3.82.08,3.27,0,6.55,0,9.82a7.94,7.94,0,0,0,.53,3.09A4.57,4.57,0,0,0,364,431c8.87-.08,17.74,0,26.6-.07,1.34,0,1.65.36,1.65,1.66-.05,8.92,0,17.84,0,26.77,0,2.86,1.33,4.18,4.16,4.19,3.17,0,6.33,0,9.5,0,3.4,0,4.6-1.18,4.6-4.55,0-8.76.05-17.52,0-26.29,0-1.51.46-1.79,1.85-1.78,8.82.06,17.63,0,26.45,0a4.58,4.58,0,0,0,3.79-1.57,10,10,0,0,0,.53-3.24c0-3,0-5.92,0-8.87,0-3.37-1.21-4.6-4.56-4.6C429.84,412.69,421.12,412.64,412.41,412.74Z" style="fill:#fff"/><path d="M466.5,372.37c11.74-20.35,20.76-41.79,25.8-64.81,4-18.35,7.62-36.84,6.67-55.7-.45-8.83-.81-17.73-1.52-26.57a212.45,212.45,0,0,0-8.56-43.62,19.82,19.82,0,0,0-.43-2.47,239,239,0,0,0-28.8-61.05,233.39,233.39,0,0,0-51.95-57C350.75,16.62,286.31,0,215.05,11.55,169.12,19,128.68,38.84,94,69.87S35,138.77,22.24,183.72a244.08,244.08,0,0,0,17,177.12C95.86,471,225,521.36,340.71,478.21c3.62-1.35,5.39-.43,7.74,2,14.24,14.73,31.82,22.57,52.17,23.11,26,.69,47.67-8.68,63.77-29.82,10.1-13.25,16.43-27.7,16.26-44.6l-.07-10.21c-.92-14.1-6.23-26.54-14.24-38-1-1.48-2.79-2.61-2.61-4.76C465.21,375.18,465.75,373.67,466.5,372.37ZM436,351.77a104.42,104.42,0,0,1,15.95-32.18c1.71-2.33,2.8-5.41,6.06-6.34a4.92,4.92,0,0,1-.2,3.52,203,203,0,0,1-15.33,35.31c-1.1,2-2.06,3.94-5,2.43C436,353.8,435.63,353,436,351.77ZM414.64,153.22c1-1.55,2.69-1.29,4.15-1a18.78,18.78,0,0,1,9,4.29c-3.37.88-6.11,1.66-8.89,2.29a3.74,3.74,0,0,1-4.38-1.7A3.51,3.51,0,0,1,414.64,153.22ZM386.4,186.68a4.69,4.69,0,0,0,3.69-3.71c1.1-3,2.19-6,3.32-9,1.22-3.24,2.93-3.92,5.51-1.15,3,3.23,6.09,6.37,9.2,9.5,3.79,3.8,8,5.1,12.71,1.64a6.06,6.06,0,0,1,5.77-.92c1.54,1.54,2.72,3.55,5.27,3.7,2.05.13,3,1.37,3,3.39a3.79,3.79,0,0,1-2.63,3.92,17.62,17.62,0,0,1-11,.34c-2.64-.65-5.19-1.7-7.84-2.25s-5.84-1.42-7.71,1c-2.66,3.45-5,2.64-8.27,1.07-3.49-1.68-7.37-2.54-11.05-3.83-1.11-.39-2.44-.79-2.51-2.23C383.72,186.21,385.37,186.91,386.4,186.68Zm-37.26-17.32a1.71,1.71,0,0,1,.18-1.45c2.77-2.56,5.24-5.81,8.51-7.41,4.53-2.21,7-.08,8.58,5.46.64,2.21.42,5.39,4,5.63,2,.13,3.05-1.34,4-2.73,1.17-1.76-1.88-3.34-.17-5.42,3.25.85,5.63,3.23,8.66,5.24-1.74,2-4.68,2.48-4.61,5.7,0,1.9-2.1,1-3.3,1.24-7.65,1.64-15.66.21-23.19,2.75-1.29.43-2.55.9-3.83,1.36a8.66,8.66,0,0,1-5,.65C346.8,177.7,350.87,175.17,349.14,169.36ZM368.56,113c-.3-2.86.28-5.45,3.65-5.24,3.18.18,4.4,2.61,4.36,5.69-.05,3.86-3.05,3.4-5.42,3.64C367.79,117.45,368.62,114.87,368.56,113Zm-225-10.94c1.39-2.56,3.78-3.9,6.14-5,4.38-2,9-3.59,13.57-5.37,1.76.63,3.47,1.33,5.22,1.88,2.14.66,2.47,2.19.9,3.3-6.42,4.54-10.12,12.39-18.12,14.91-1.9.59-4.38,2.65-5.86-.23S141.55,105.82,143.56,102.1Zm29.49,31c1.61-.39,3.16-.25,3.79,1.5s-.18,2.64-2,3.3c-2.63,1-5.09,2.4-9.05,4.34C168.42,138.15,168.77,134.13,173.06,133.09Zm4.76,314.73C106.23,417.27,62.38,363.91,47,287.54c-1.77-8.7-3.32-17.59-3.21-26.6,0-1.79-.65-4,1.93-4.56a4.56,4.56,0,0,1,5.18,2.24c4.68,6.89,10.64,12.73,13.35,21.14,1.9,5.87,7.56,9.52,13.83,11,2.77.67,3.87,2.14,4.36,4.81a50.88,50.88,0,0,1,.13,20.23c-2.19,10.22.72,19.25,7.91,26.73a173.82,173.82,0,0,1,14,16.88c5.73,7.74,12.28,14.49,21.41,18.35,4.32,1.83,7.48,5.27,10,9.2,17.15,26.81,37.37,50.6,65.53,66.58.52.29.86.89,2,2.13A115.79,115.79,0,0,1,177.82,447.83ZM69.51,252.05c-6.19-4.44-6.19-4.47-3.32-11.53.63-1.55,1.39-3.06,2.09-4.62,2.53.67,3.49,2.79,4.86,4.45s2.38,4.21,5.54,3.52c1.62-.36,1.55,1.36,2,2.36,2.53,5.18,5.35,6.25,10.09,3.34a11.63,11.63,0,0,1,7.7-1.67q10.9,1.1,21.82,1.89c4.2.31,6.58,2.32,7,6.54.58,5.19,2.23,10.23,2,15.56-.12,2.89-1,4.21-4,3.19-2.81-1-5.72-.55-8.59-.57a8.89,8.89,0,0,1-6.5-2.39,14.84,14.84,0,0,0-22.77,2c-2.63,3.63-8.44,5.18-12.16,3.3-1.57-.79-1.35-2.32-1.38-3.52-.08-4.07,0-8.14.14-12.22A10.75,10.75,0,0,0,69.51,252.05ZM326.75,419.72c-.59,8.71-.46,17.42,2.1,25.8,1.07,3.52-.27,4.56-3,5.49a218.48,218.48,0,0,1-84.42,11.18c-2.38-.15-4.75-.56-7.12-.58-3.71,0-6.8-.06-6-5.48.43-3.11-3-4.74-6.22-2.9s-5.41,1-7.59-1.46c-3.75-4.18-8.57-7.3-11.72-12.07-.64-1-1.89-2.35-1.61-3,2.56-5.74.26-12.25,3.05-17.95a16.55,16.55,0,0,0,.48-14.33c-1.25-2.9-1.25-5.59,2.18-6.65C216,394.88,219,387.56,219,379.17a60.31,60.31,0,0,1,7.38-29.24c4.12-7.6,1.87-13.65-5.49-18.26-6.25-3.92-13-7.19-20.32-7.77-10.34-.82-17.9-5.8-24.42-13.2-2.7-3.08-5.35-6.18-8.12-9.17a28.57,28.57,0,0,0-16.92-8.67c-8.42-1.38-10-3.83-7.25-11.68,1.05-3,1-5-2.58-5.6-2.93-.45-3.8-2.29-3.94-5-.27-4.75-1-9.47-.79-14.26.35-6.82-2.12-10.51-8.75-12.34-5.89-1.63-11.93-2.69-17.9-4.07-4.09-.94-7.17-3.06-8.1-7.48-.53-2.45-2.08-3.86-4.38-2.54-3,1.74-5.13.56-7.42-1.13-1.64-1.21-3.37-2.3-5.08-3.42-7.06-4.71-8.23-4.65-14.62.75a10.68,10.68,0,0,1-5.4,2.69c-4.21.58-8.08,1.56-9.16,6.58A2.06,2.06,0,0,1,53,236.91c-1.8-.49-2.16-2-2.22-3.62a41.82,41.82,0,0,1,5.68-22.95c.93-1.62,2.18-3.08,3-4.72,2.09-4,4.76-5.59,8.91-2.63,1.49,1.05,3.05.89,4.8.11,5.34-2.38,7.5-.78,7,5-.67,7.55,1,10.42,7.73,13.57,1.85.87,3.56,1.42,5.08-.33s1.28-3.28.22-5.16c-5.25-9.41-.54-23.51,9.54-28.25a20.62,20.62,0,0,0,5-3.25,14,14,0,0,0,5.72-4.72c5.85-7.57,10.72-16.41,21.77-17.85,2.76-.36,4.5-3.12,6-5.28,2.27-3.34,4.94-4.11,8.63-3.1a12.9,12.9,0,0,0,9.82-.88c4.46-2.28,9.37-3.71,13.82-6,3.84-2,8.77-3.45,13.09-2.91,7.58,1,9.78-.93,10.35-8.72a31,31,0,0,1,.86-5c1.1-4.5,1.48-8.37-1.36-13-4.69-7.64.1-20.38,8-24.33,12.53-6.23,12.56-6.24,9-19.84-.88-3.34-.79-6.19,3.17-7.18,3.56-.89,7.06-6.44,10.84-.32a4.22,4.22,0,0,0,2.44,1.68c1.92.67,4.74.12,4.91,3.36.19,3.65,1.1,7.17-2.64,10.18-5.89,4.75-7.38,11.32-5.1,18.43,2.49,7.76,10.23,9.16,15.89,3.42,9-9.09,20.29-14.24,32.56-16.85,12.61-2.69,19.14-9.72,16.64-21a4.65,4.65,0,0,1,1.77-5c2.74-2.16,2.05-3.91-.66-5.44-13.18-7.38-26.75-10.79-41.29-4a5.52,5.52,0,0,1-6.61-.91,10.77,10.77,0,0,0-1.13-1c-9.62-6.91-8.67-7-17.05-1.08-4,2.84-7.95,6.2-13.81,5.45-3.7-.48-4.88,4.28-8.16,6.15-.6-3.89-2.48-5.11-5.8-2.76-1.53,1.09-3.26.9-4.92.49a27.3,27.3,0,0,0-17,1.52c-7.84,3.18-16.33,4.92-23.33,10-1.54,1.11-3.09,1.11-3.92-.45s.77-2,2-2.68a214.14,214.14,0,0,1,76.92-24.66,207.2,207.2,0,0,1,45.29-1.08,212.53,212.53,0,0,1,66.37,17.13c6.49,2.87,13.12,5.62,19.11,9.34s11,8.43,16.67,12.86c-1.28,2-2.81,1.48-4.45,1.06-4.93-1.26-9.88-2.51-14.84-3.62-7.06-1.56-11.7,1.17-13.52,8a154.44,154.44,0,0,1-4.62,14.94c-2,5.28,3.46,9.3,6.63,13.33.7.89,2.09,1.24,2.83,2.11,2.11,2.47,3.4,5.11.78,8.15s-5.33,3.18-8.31.46c-3.5-3.2-7.37-6-9.06-10.81-.79-2.22-2.85-3.3-4.77-4.41-3.26-1.9-5.68-1.05-6.65,2.55a14.69,14.69,0,0,1-5.93,8.58c-2.62,1.87-3.55,8.39-1.86,11.28,2,3.38,4.89,2.29,7.67,1.43,2.36-.74,3.75-.38,4.3,2.45,1.05,5.38,3.42,9.93,9,12.09,2.08.81,2.57,2.61,1.78,4.65-.89,2.29-2.79,2.47-4.61,1.6-2.46-1.19-4.93-1.07-7.46-.73-1.79.25-3.77,1.13-3.86,2.85-.38,7-2.83,13.93.1,21,1.61,3.9,4.51,5.55,8,6.9-.06,1.75-1.35,2.69-2.49,3.68-4.12,3.56-8.07,7-9.31,12.9-.73,3.51-4.4,5.38-7.52,7.25-11.63,7-20,27-16.88,40.1a10,10,0,0,1-1.46,7.75c-4.08,6.74-3.13,13.23.69,19.72a74.43,74.43,0,0,0,27.36,27.35,9.54,9.54,0,0,0,6.61,1.16c7.87-1.12,15.85-1.46,23.75-2.31a44.38,44.38,0,0,0,6.84-1.78c2.74-.75,5.82-1.09,7.49,1.34,2.09,3.05,4.64,4,8.07,4.38,3.81.38,5.74,2.74,3.73,6.39-3.85,7-3,13.44.29,20.39,3.4,7.29,2.08,15,0,22.48-1.13,1.94-3.31,2.25-5.08,3.19C344.41,370.14,329.46,390.75,326.75,419.72Zm77.8,59.89A54.58,54.58,0,1,1,459.13,425,54.58,54.58,0,0,1,404.55,479.61Z" style="fill:url(#linear-gradient)"/><path d="M482.8,414.1A73.82,73.82,0,0,0,477.6,395a76.06,76.06,0,0,0-19.7-28.08c-19.62-17.52-42.56-24.16-68.34-19.31-23.4,4.4-41.26,17.36-53.37,37.88a76,76,0,0,0-10.28,47.43c.06.53.13,1.07.19,1.6,1.43,12.45,5.39,24,12.61,34.29,18.39,26.09,43.62,38,75.39,34.63,23.26-2.51,41.63-14.06,55.19-33.14a82.81,82.81,0,0,0,8.09-14.55c3.21-7.27,4.75-15,5.76-22.83A71.72,71.72,0,0,0,482.8,414.1Zm-69,49c0,3.44-1.23,4.64-4.7,4.65-3.24,0-6.47,0-9.71,0-2.9,0-4.25-1.36-4.25-4.28,0-9.11,0-18.23,0-27.34,0-1.33-.31-1.71-1.68-1.7-9.06.06-18.12,0-27.18.07a4.67,4.67,0,0,1-3.92-1.62,8.11,8.11,0,0,1-.54-3.15c0-3.35.06-6.69,0-10-.05-2.22,1.08-3.92,3.79-3.9,2.91,0,5.83,0,8.74,0,6.26,0,12.52-.05,18.77,0,1.56,0,2.1-.28,2.08-2-.11-8.9-.06-17.8-.06-26.7a9.51,9.51,0,0,1,.08-1.61c.33-2,1-2.84,3-3a90.31,90.31,0,0,1,12.28,0c2.28.17,3.32,1.68,3.32,4.16,0,9,0,18,0,27,0,1.56.27,2.1,2,2.08,8.9-.1,17.8,0,26.7,0,3.41,0,4.65,1.26,4.65,4.7,0,3,0,6,0,9.07a10.16,10.16,0,0,1-.54,3.31,4.68,4.68,0,0,1-3.87,1.6c-9,0-18,0-27,0-1.42,0-1.9.28-1.89,1.82C413.9,445.17,413.86,454.13,413.85,463.08Z" style="fill:url(#linear-gradient-2)"/><rect width="0.44" height="0.44" style="fill:none"/><rect y="511.56" width="0.44" height="0.44" style="fill:none"/><rect x="511.56" y="511.56" width="0.44" height="0.44" style="fill:none"/><rect x="511.56" width="0.44" height="0.44" style="fill:none"/></svg>