<?xml version="1.0" encoding="iso-8859-1"?>
<!-- Generator: Adobe Illustrator 15.0.0, SVG Export Plug-In . SVG Version: 6.00 Build 0)  -->
<!DOCTYPE svg PUBLIC "-//W3C//DTD SVG 1.1//EN" "http://www.w3.org/Graphics/SVG/1.1/DTD/svg11.dtd">
<svg version="1.1" id="Ebene_1_Kopie" xmlns="http://www.w3.org/2000/svg" xmlns:xlink="http://www.w3.org/1999/xlink" x="0px"
	 y="0px" width="128px" height="128px" viewBox="0 0 128 128" style="enable-background:new 0 0 128 128;" xml:space="preserve">
<g>
	<path style="fill:#404547;" d="M94,63c13.521,0,24.528,10.736,24.979,24.147c-0.448-24.158-9.318-60.706-27.765-60.052
		c-9.798,0.347-12.333,6.264-15.398,14.119c-2.542-0.849-9.19-1.395-11.815-1.395c-2.625,0-9.273,0.545-11.815,1.395
		c-3.065-7.855-5.601-13.771-15.398-14.119C18.339,26.442,9.47,62.989,9.021,87.147C9.471,73.736,20.479,63,34,63
		c13.807,0,25,11.193,25,24.999c0,1.155-0.085,2.289-0.236,3.402c1.742-1.753,3.641-2.166,5.236-2.166s3.494,0.413,5.236,2.166
		C69.085,90.288,69,89.154,69,87.999C69,74.193,80.193,63,94,63z"/>
</g>
<linearGradient id="SVGID_1_" gradientUnits="userSpaceOnUse" x1="34" y1="106" x2="34" y2="70">
	<stop  offset="0.3" style="stop-color:#426080"/>
	<stop  offset="1" style="stop-color:#819CBD"/>
</linearGradient>
<path style="fill:url(#SVGID_1_);" d="M34,70c9.925,0,18,8.074,18,17.999C52,97.925,43.925,106,34,106c-9.925,0-18-8.075-18-18.001
	C16,78.074,24.075,70,34,70"/>
<linearGradient id="SVGID_2_" gradientUnits="userSpaceOnUse" x1="94" y1="106" x2="94" y2="70">
	<stop  offset="0.3" style="stop-color:#426080"/>
	<stop  offset="1" style="stop-color:#819CBD"/>
</linearGradient>
<path style="fill:url(#SVGID_2_);" d="M94,70c9.925,0,18,8.074,18,17.999C112,97.925,103.925,106,94,106s-18-8.075-18-18.001
	C76,78.074,84.075,70,94,70"/>
<g>
	<circle style="fill:#404547;" cx="37.396" cy="33.147" r="10.604"/>
	<circle style="fill:#404547;" cx="90.604" cy="33.147" r="10.604"/>
</g>
</svg>
