<?xml version="1.0" encoding="utf-8"?>
<!-- Generator: Adobe Illustrator 16.0.3, SVG Export Plug-In . SVG Version: 6.00 Build 0)  -->
<!DOCTYPE svg PUBLIC "-//W3C//DTD SVG 1.1//EN" "http://www.w3.org/Graphics/SVG/1.1/DTD/svg11.dtd">
<svg version="1.1" xmlns="http://www.w3.org/2000/svg" xmlns:xlink="http://www.w3.org/1999/xlink" x="0px" y="0px" width="128px"
	 height="128px" viewBox="0 0 128 128" enable-background="new 0 0 128 128" xml:space="preserve">
<g id="Ebene_5" display="none">
	<g display="inline">
		<g>
			<linearGradient id="SVGID_1_" gradientUnits="userSpaceOnUse" x1="90.6016" y1="128" x2="90.6016" y2="52.96">
				<stop  offset="0" style="stop-color:#C9070A"/>
				<stop  offset="1" style="stop-color:#DF6A6C"/>
			</linearGradient>
			<path fill="url(#SVGID_1_)" d="M104.62,90.954l21.928,21.998c0.968,0.961,1.452,2.106,1.452,3.434
				c0,1.325-0.484,2.447-1.452,3.363l-6.8,6.805c-0.914,0.965-2.053,1.446-3.405,1.446c-1.345,0-2.482-0.481-3.4-1.446
				l-21.992-21.92l-21.999,21.92c-0.918,0.965-2.052,1.446-3.402,1.446c-1.349,0-2.481-0.481-3.4-1.446l-6.803-6.805
				c-0.964-0.916-1.444-2.038-1.444-3.363c0-1.327,0.48-2.473,1.444-3.434l21.93-21.998L54.646,68.012
				c-0.964-0.967-1.444-2.111-1.444-3.439c0-1.323,0.48-2.47,1.444-3.437l6.803-6.803c0.919-0.915,2.051-1.374,3.4-1.374
				c1.351,0,2.484,0.459,3.402,1.374L90.95,77.351l21.992-22.002c0.918-0.915,2.056-1.374,3.4-1.374
				c1.353,0,2.491,0.459,3.405,1.374l6.8,6.803c0.968,0.967,1.452,2.113,1.452,3.437c0,1.327-0.484,2.472-1.452,3.438L104.62,90.954
				z"/>
		</g>
	</g>
</g>
<g id="Ebene_2" display="none">
	<g display="inline">
		<g>
			<g>
				<g>
					<g>
						<linearGradient id="SVGID_2_" gradientUnits="userSpaceOnUse" x1="92.7363" y1="128" x2="92.7363" y2="0.3265">
							<stop  offset="0.1" style="stop-color:#101719"/>
							<stop  offset="1" style="stop-color:#B7B9BA"/>
						</linearGradient>
						<path fill="url(#SVGID_2_)" d="M84.873,106.959c-1.297,0-2.594-0.502-3.572-1.502c-1.933-1.974-1.898-5.139,0.074-7.07
							c4.509-4.415,8.036-9.632,10.483-15.508c2.482-5.933,3.74-12.249,3.74-18.782c0-6.542-1.256-12.857-3.732-18.771
							c-2.449-5.891-5.978-11.113-10.492-15.535c-1.973-1.932-2.005-5.098-0.073-7.07c1.933-1.974,5.098-2.005,7.071-0.073
							c5.479,5.366,9.76,11.701,12.723,18.827c2.987,7.133,4.504,14.748,4.504,22.623c0,7.865-1.519,15.481-4.513,22.635
							c-2.963,7.113-7.241,13.44-12.715,18.799C87.398,106.484,86.135,106.959,84.873,106.959z"/>
					</g>
				</g>
				<g>
					<g>
						<linearGradient id="SVGID_3_" gradientUnits="userSpaceOnUse" x1="111.8613" y1="128" x2="111.8613" y2="0.3267">
							<stop  offset="0.1" style="stop-color:#101719"/>
							<stop  offset="1" style="stop-color:#B7B9BA"/>
						</linearGradient>
						<path fill="url(#SVGID_3_)" d="M100.723,122.782c-1.29,0-2.579-0.496-3.557-1.486c-1.941-1.964-1.922-5.13,0.043-7.07
							c6.534-6.457,11.686-14.083,15.309-22.666C116.156,82.963,118,73.725,118,64.097c0-9.639-1.843-18.879-5.479-27.463
							c-3.635-8.606-8.787-16.282-15.315-22.817c-1.952-1.954-1.95-5.119,0.003-7.071c1.954-1.952,5.119-1.951,7.071,0.003
							c7.444,7.451,13.315,16.195,17.452,25.99c4.158,9.82,6.268,20.372,6.268,31.358c0,10.974-2.11,21.524-6.271,31.356
							c-4.134,9.793-10.02,18.504-17.492,25.886C103.263,122.302,101.992,122.782,100.723,122.782z"/>
					</g>
				</g>
			</g>
			<linearGradient id="SVGID_4_" gradientUnits="userSpaceOnUse" x1="51.5825" y1="128" x2="51.5825" y2="0.3265">
				<stop  offset="0.1" style="stop-color:#101719"/>
				<stop  offset="1" style="stop-color:#B7B9BA"/>
			</linearGradient>
			<polygon fill="url(#SVGID_4_)" points="67.986,0 35.176,34.516 35.176,93.463 67.989,128 			"/>
		</g>
		<g>
			<linearGradient id="SVGID_5_" gradientUnits="userSpaceOnUse" x1="12.5879" y1="128" x2="12.5879" y2="0.3266">
				<stop  offset="0.1" style="stop-color:#101719"/>
				<stop  offset="1" style="stop-color:#B7B9BA"/>
			</linearGradient>
			<path fill="url(#SVGID_5_)" d="M9.852,34.516c-2.776,0-5.108,0.981-7.001,2.927C0.946,39.389,0,41.7,0,44.369V83.61
				c0,2.661,0.946,4.981,2.851,6.916c1.893,1.957,4.225,2.937,7.001,2.937h15.324V34.516H9.852z"/>
		</g>
	</g>
</g>
<g id="Ebene_1_Kopie" display="none">
	<g display="inline">
		<linearGradient id="SVGID_6_" gradientUnits="userSpaceOnUse" x1="5.3984" y1="122.6025" x2="63.7171" y2="64.2838">
			<stop  offset="0" style="stop-color:#101719"/>
			<stop  offset="1" style="stop-color:#707475"/>
		</linearGradient>
		<path fill="url(#SVGID_6_)" d="M60.978,67.021c-4.645-4.645-8.081-10.045-10.328-15.804l-3.844,3.846L5.398,96.469
			c-7.22,7.219-7.219,18.915,0,26.133c7.216,7.221,18.914,7.221,26.134,0l41.405-41.406l3.847-3.845
			C71.022,75.104,65.625,71.669,60.978,67.021z"/>
		
			<linearGradient id="SVGID_7_" gradientUnits="userSpaceOnUse" x1="55.3193" y1="60.1484" x2="55.3193" y2="-8.5166" gradientTransform="matrix(0.7071 0.7071 -0.7071 0.7071 72.7578 -22.9922)">
			<stop  offset="0" style="stop-color:#878B8C"/>
			<stop  offset="1" style="stop-color:#DBDCDC"/>
		</linearGradient>
		<path fill="url(#SVGID_7_)" d="M117.898,10.104C104.512-3.281,82.73-3.28,69.343,10.105c-13.383,13.384-13.383,35.165,0,48.549
			c13.388,13.385,35.167,13.385,48.554,0.001C131.281,45.27,131.281,23.487,117.898,10.104z"/>
	</g>
</g>
<g id="Ebene_4">
	<g>
		<linearGradient id="SVGID_8_" gradientUnits="userSpaceOnUse" x1="64.0005" y1="117.8447" x2="64.0005" y2="13.5505">
			<stop  offset="0.3" style="stop-color:#426080"/>
			<stop  offset="1" style="stop-color:#819CBD"/>
		</linearGradient>
		<path fill="url(#SVGID_8_)" d="M98.068,22.408c4.011,0,7.274,3.264,7.274,7.276v72.612c0,4.012-3.264,7.275-7.274,7.275H29.934
			c-4.013,0-7.276-3.264-7.276-7.275V29.684c0-6.679,3.265-7.276,7.276-7.276H98.068 M98.068,12.979H29.934
			c-9.227,0-16.705,7.479-16.705,16.705v72.612c0,9.225,7.479,16.704,16.705,16.704h68.135c9.225,0,16.703-7.479,16.703-16.704
			V29.684C114.771,20.458,107.293,12.979,98.068,12.979L98.068,12.979z"/>
	</g>
	<path fill="#404547" d="M86.176,24.839c0,1.12-0.906,2.027-2.027,2.027H43.852c-1.12,0-2.027-0.908-2.027-2.027V11.027
		c0-1.12,0.907-2.027,2.027-2.027h40.297c1.121,0,2.027,0.908,2.027,2.027V24.839z"/>
	<g>
		<path fill="#404547" d="M93.085,48.25h-58.17c-2.761,0-5-2.239-5-5s2.239-5,5-5h58.17c2.762,0,5,2.239,5,5
			S95.847,48.25,93.085,48.25z"/>
	</g>
	<g>
		<path fill="#404547" d="M93.085,97.25h-58.17c-2.761,0-5-2.238-5-5s2.239-5,5-5h58.17c2.762,0,5,2.238,5,5
			S95.847,97.25,93.085,97.25z"/>
	</g>
	<g>
		<path fill="#404547" d="M93.085,72.75h-58.17c-2.761,0-5-2.238-5-5s2.239-5,5-5h58.17c2.762,0,5,2.238,5,5
			S95.847,72.75,93.085,72.75z"/>
	</g>
</g>
</svg>
