<?xml version="1.0" encoding="iso-8859-1"?>
<!-- Generator: Adobe Illustrator 15.0.0, SVG Export Plug-In . SVG Version: 6.00 Build 0)  -->
<!DOCTYPE svg PUBLIC "-//W3C//DTD SVG 1.1//EN" "http://www.w3.org/Graphics/SVG/1.1/DTD/svg11.dtd">
<svg version="1.1" id="Ebene_4" xmlns="http://www.w3.org/2000/svg" xmlns:xlink="http://www.w3.org/1999/xlink" x="0px" y="0px"
	 width="128px" height="128px" viewBox="0 0 128 128" enable-background="new 0 0 128 128" xml:space="preserve">
<g>
	<g>
		<rect x="59" y="85.408" fill="#404547" width="10" height="27.736"/>
	</g>
	<g>
		<path fill="#404547" d="M110.406,58.314H17.594C12.848,58.314,9,62.142,9,66.862v15.389c0,4.722,3.848,8.548,8.594,8.548h92.813
			c4.746,0,8.594-3.826,8.594-8.548V66.862C119,62.142,115.152,58.314,110.406,58.314z"/>
	</g>
	<g>
		<path fill="#404547" d="M110.406,14H17.594C12.848,14,9,17.827,9,22.549v15.388c0,4.721,3.848,8.549,8.594,8.549h92.813
			c4.746,0,8.594-3.828,8.594-8.549V22.549C119,17.827,115.152,14,110.406,14z"/>
	</g>
	<g>
		<rect x="9" y="104" fill="#404547" width="110" height="10"/>
	</g>
</g>
<path fill="#FFFFFF" d="M108.688,35.897c0,1.126-0.916,2.039-2.05,2.039H78.081c-1.134,0-2.05-0.913-2.05-2.039v-11.31
	c0-1.125,0.916-2.039,2.05-2.039h28.557c1.134,0,2.05,0.914,2.05,2.039V35.897z"/>
<path fill="#FFFFFF" d="M108.688,80.211c0,1.132-0.913,2.04-2.051,2.04H78.082c-1.138,0-2.051-0.908-2.051-2.04V68.902
	c0-1.131,0.913-2.04,2.051-2.04h28.555c1.138,0,2.051,0.909,2.051,2.04V80.211z"/>
</svg>
