<svg width="283" height="269" viewBox="0 0 283 269" fill="none" xmlns="http://www.w3.org/2000/svg">
<path d="M66.4574 37.9827C66.7405 37.966 67.0246 37.9751 67.3061 38.0101C67.5835 38.0476 67.8495 38.1451 68.0853 38.2959C68.3212 38.4467 68.5214 38.6471 68.6719 38.8832C68.8262 39.1323 68.9256 39.4115 68.9634 39.7022C69.0012 39.9928 68.9765 40.2881 68.891 40.5684C68.6932 41.3168 68.1883 41.6514 67.5525 42.0195C67.185 42.0515 66.8149 42.0362 66.4513 41.9738C66.1967 41.9206 65.9564 41.8135 65.7465 41.6598C65.5366 41.506 65.3621 41.3092 65.2345 41.0825C65.0856 40.8266 64.9907 40.5428 64.9557 40.2488C64.9206 39.9548 64.9461 39.6567 65.0307 39.3729C65.2588 38.6581 65.849 38.3478 66.4574 37.9827Z" fill="#161616"/>
<path d="M123.48 12.1255C123.892 12.0753 124.307 12.0753 124.719 12.1255C124.971 12.1692 125.211 12.2644 125.425 12.4052C125.638 12.546 125.82 12.7294 125.96 12.9438C126.119 13.1776 126.226 13.4428 126.273 13.7215C126.321 14.0001 126.309 14.2858 126.237 14.5591C126.078 15.3257 125.506 15.6573 124.901 16.0801H123.952C123.406 15.9861 122.914 15.6936 122.571 15.2588C122.41 15.0274 122.3 14.7648 122.248 14.4881C122.196 14.2114 122.202 13.9267 122.267 13.6526C122.431 12.886 122.848 12.5362 123.48 12.1255Z" fill="#161616"/>
<path d="M1.66321 148.558C2.03053 148.56 2.39619 148.607 2.75224 148.698C3.00809 148.773 3.24597 148.899 3.45149 149.07C3.657 149.24 3.82587 149.449 3.94788 149.687C4.06989 149.924 4.14249 150.183 4.16129 150.449C4.18009 150.715 4.14469 150.983 4.05725 151.235C3.81998 152.01 3.22983 152.302 2.56364 152.689L1.52024 152.625C1.24849 152.548 0.994767 152.417 0.773854 152.241C0.552942 152.065 0.369251 151.847 0.233478 151.6C0.112171 151.376 0.0362865 151.13 0.0101841 150.877C-0.0159183 150.624 0.00827623 150.368 0.0813785 150.124C0.339947 149.306 0.933135 148.917 1.66321 148.558Z" fill="#161616"/>
<path d="M234.959 24.6008C235.409 24.5445 235.864 24.5445 236.313 24.6008C236.592 24.6474 236.858 24.7526 237.093 24.9095C237.328 25.0663 237.527 25.2713 237.677 25.5107C237.827 25.7502 237.925 26.0188 237.963 26.2987C238.002 26.5787 237.981 26.8636 237.901 27.1348C237.697 27.877 237.256 28.1843 236.611 28.5493C236.23 28.6423 235.838 28.6812 235.446 28.6649C235.171 28.6361 234.904 28.552 234.662 28.4177C234.42 28.2833 234.208 28.1015 234.038 27.8831C233.872 27.6522 233.754 27.3899 233.693 27.1123C233.631 26.8346 233.626 26.5473 233.679 26.2678C233.822 25.483 234.351 25.0541 234.959 24.6008Z" fill="#161616"/>
<path d="M211.415 249.709H212.55C213.134 249.838 213.643 250.193 213.966 250.696C214.288 251.2 214.398 251.811 214.272 252.395C214.117 253.18 213.609 253.542 212.973 253.953C212.62 253.999 212.263 254.012 211.908 253.992C211.602 253.945 211.309 253.835 211.047 253.669C210.785 253.503 210.561 253.285 210.387 253.028C210.075 252.592 209.945 252.052 210.025 251.522C210.165 250.673 210.761 250.19 211.415 249.709Z" fill="#161616"/>
<path d="M92.0258 43.3047C92.4667 43.3385 92.8986 43.4465 93.3035 43.6241C93.8105 43.874 94.2017 44.3099 94.3955 44.8409C94.4985 45.1456 94.5384 45.468 94.5128 45.7886C94.4872 46.1092 94.3966 46.4212 94.2465 46.7056C93.8571 47.3809 93.2913 47.6639 92.5764 47.892C92.2856 47.8969 91.9954 47.8652 91.7125 47.7977C91.4005 47.706 91.111 47.5505 90.8623 47.341C90.6136 47.1315 90.4111 46.8727 90.2676 46.5809C90.142 46.3005 90.0771 45.9968 90.0771 45.6896C90.0771 45.3824 90.142 45.0787 90.2676 44.7983C90.5991 43.9618 91.2562 43.6484 92.0258 43.3047Z" fill="#161616"/>
<path d="M220.991 103.231L222.128 103.247C222.435 103.309 222.725 103.435 222.981 103.616C223.236 103.796 223.452 104.028 223.613 104.296C223.772 104.58 223.872 104.892 223.908 105.215C223.944 105.538 223.915 105.865 223.823 106.176C223.592 106.976 222.91 107.393 222.223 107.761C221.829 107.797 221.432 107.774 221.045 107.694C220.727 107.628 220.426 107.495 220.164 107.303C219.901 107.111 219.683 106.865 219.524 106.581C219.237 106.026 219.176 105.382 219.354 104.783C219.619 103.974 220.3 103.606 220.991 103.231Z" fill="#161616"/>
<path d="M245.671 137.756C246.071 137.757 246.468 137.821 246.848 137.944C247.164 138.077 247.449 138.274 247.685 138.523C247.92 138.772 248.102 139.067 248.217 139.389C248.461 140.048 248.434 140.777 248.141 141.415C247.746 142.206 247.192 142.538 246.374 142.803C246.033 142.823 245.691 142.794 245.358 142.717C244.706 142.496 244.163 142.036 243.837 141.431C243.547 140.8 243.515 140.08 243.749 139.426C244.111 138.55 244.874 138.127 245.671 137.756Z" fill="#161616"/>
<path d="M247.831 45.8027C248.175 45.8175 248.513 45.9002 248.826 46.0461C249.279 46.7153 249.017 48.2972 248.99 49.1215C249.872 49.1215 251.232 48.9269 251.895 49.5413C251.948 49.6812 251.962 49.8329 251.936 49.9802C251.91 50.1275 251.844 50.2649 251.746 50.3779C250.961 50.6638 249.82 50.5665 248.981 50.5847C249.035 51.5578 248.984 52.5339 248.829 53.4959C248.254 53.5537 248.22 53.6176 247.721 53.2678C247.359 52.6077 247.515 51.33 247.521 50.5634C246.842 50.5634 245.145 50.6851 244.643 50.2592C244.596 50.1007 244.582 49.9339 244.604 49.7699C244.625 49.6058 244.681 49.4481 244.768 49.3071C245.376 48.9451 246.839 49.1155 247.587 49.1185C247.569 48.0538 247.426 46.8127 247.831 45.8027Z" fill="#161616"/>
<path d="M20.1306 126.58C20.5336 126.588 20.9289 126.693 21.2835 126.884C21.6698 127.59 21.4417 129.318 21.4387 130.179C22.4243 130.179 24.0852 129.923 24.8396 130.535C24.9096 131.024 24.8883 131.021 24.6267 131.447C23.8388 131.882 22.3452 131.688 21.4295 131.681C21.4295 132.719 21.6516 134.285 21.1801 135.198C20.9059 135.158 20.6353 135.096 20.3709 135.012C19.8325 134.334 20.0667 132.579 20.0454 131.666C19.2423 131.666 17.3776 131.87 16.751 131.362C16.6141 130.857 16.5928 130.869 16.8209 130.407C17.694 130.042 19.0324 130.197 19.9876 130.197C19.9409 128.989 19.9887 127.78 20.1306 126.58Z" fill="#161616"/>
<path d="M91.0667 0L91.6903 0.285947C92.2257 1.08903 91.9945 2.87468 91.9945 3.88158C93.0561 3.84811 94.7323 3.57738 95.5567 4.29224C95.6115 4.44178 95.631 4.60199 95.6136 4.76033C95.5962 4.91866 95.5423 5.07081 95.4563 5.20484C94.5102 5.56683 92.9983 5.39953 91.9701 5.41169C91.9854 6.5494 92.2743 8.3898 91.5838 9.32369C91.2293 9.24747 90.8985 9.08676 90.6195 8.85522C90.2606 8.06431 90.4857 6.32125 90.4917 5.40865H87.9912C87.829 5.40933 87.6691 5.37032 87.5254 5.29503C87.3817 5.21974 87.2586 5.11045 87.1668 4.97669C87.1486 4.51431 87.0786 4.36829 87.3555 3.98804C88.3776 3.75685 89.5001 3.83899 90.5495 3.84507C90.5495 2.96594 90.3214 1.35064 90.6165 0.56581C90.7464 0.362021 90.8973 0.172385 91.0667 0Z" fill="#161616"/>
<path d="M50.8207 243.103C51.2075 243.097 51.5862 243.213 51.9037 243.434C52.2079 244.295 52.0831 245.582 52.0953 246.51C53.0079 246.51 54.1091 246.388 55.0004 246.549C55.4293 246.628 55.4658 246.714 55.7122 247.042C55.7292 247.376 55.6304 247.706 55.4324 247.976C54.3981 248.28 53.1326 248.131 52.0497 248.095C52.0497 249.181 52.22 250.592 51.8367 251.605C51.3105 251.645 51.2284 251.687 50.7568 251.407C50.3158 250.58 50.5074 249.089 50.5165 248.143C49.5705 248.107 47.7787 248.271 47.0152 247.803C46.857 247.295 46.8996 247.279 47.1004 246.777C47.7392 246.309 49.6861 246.537 50.5226 246.546C50.5135 245.472 50.337 244.076 50.8207 243.103Z" fill="#161616"/>
<path d="M54.8691 119.129C55.2286 119.126 55.5818 119.224 55.8881 119.412C56.3809 120.115 56.1011 122.399 56.092 123.315C57.0045 123.315 58.9788 123.123 59.6906 123.686C59.7119 124.179 59.7241 124.197 59.4442 124.598C58.4677 124.957 57.1262 124.79 56.0828 124.775C56.0828 126.065 56.387 127.884 55.6782 128.985C55.3751 128.975 55.0848 128.86 54.8569 128.66C54.4432 127.54 54.647 125.946 54.6561 124.751C53.7101 124.766 52.3016 124.985 51.4012 124.805C51.2105 124.707 51.0318 124.586 50.8689 124.446C50.8019 123.941 50.8445 123.929 51.1092 123.485C52.037 123.12 53.634 123.318 54.6531 123.309C54.6288 121.931 54.498 120.471 54.8691 119.129Z" fill="#161616"/>
<path d="M240.347 238.167C241.028 238.139 241.835 238.048 242.476 238.289C242.977 238.499 243.428 238.81 243.803 239.203C244.177 239.595 244.467 240.061 244.655 240.57C244.821 240.982 244.903 241.422 244.898 241.866C244.892 242.31 244.798 242.748 244.621 243.156C244.073 244.412 243.298 244.941 242.09 245.449C241.334 245.544 240.567 245.456 239.851 245.194C239.369 245.005 238.93 244.718 238.564 244.352C238.198 243.985 237.911 243.547 237.722 243.064C237.443 242.19 237.481 241.246 237.828 240.397C238.345 239.168 239.185 238.669 240.347 238.167Z" fill="#161616"/>
<path d="M240.794 239.514C241.272 239.468 241.755 239.526 242.209 239.685C242.72 239.927 243.127 240.346 243.352 240.865C243.596 241.492 243.596 242.188 243.352 242.815C243.002 243.664 242.44 243.91 241.628 244.245L240.681 244.083C240.35 243.991 240.042 243.83 239.777 243.611C239.512 243.392 239.295 243.12 239.142 242.812C238.998 242.548 238.91 242.256 238.884 241.956C238.858 241.656 238.895 241.354 238.993 241.069C239.31 240.174 239.985 239.879 240.794 239.514Z" fill="white"/>
<path d="M36.9058 33.2943C37.818 33.2375 38.7241 33.4777 39.4885 33.9788C39.9121 34.2701 40.2726 34.6439 40.5486 35.0777C40.8245 35.5115 41.0103 35.9964 41.0946 36.5036C41.2292 37.5231 40.9547 38.5545 40.3311 39.3722C39.6041 40.3091 38.8831 40.6681 37.7302 40.8415C36.831 40.9161 35.9351 40.6627 35.2082 40.1281C34.4813 39.5936 33.9724 38.8139 33.7756 37.9333C33.6361 37.4191 33.6101 36.8807 33.6994 36.3554C33.7887 35.8302 33.9912 35.3306 34.2928 34.8913C34.9255 33.9331 35.8259 33.5437 36.9058 33.2943Z" fill="#161616"/>
<path d="M36.6464 34.788C37.0469 34.755 37.4499 34.7662 37.848 34.8215C38.1567 34.8779 38.4508 34.9965 38.7123 35.1701C38.9737 35.3438 39.1972 35.5687 39.369 35.8314C39.5476 36.1229 39.6665 36.4471 39.7187 36.7849C39.7709 37.1228 39.7554 37.4677 39.6732 37.7996C39.4542 38.5692 38.7788 39.0468 38.1035 39.3966C37.7794 39.4635 37.4468 39.4789 37.1179 39.4422C36.7879 39.4015 36.4709 39.2889 36.1891 39.1123C35.9074 38.9357 35.6679 38.6994 35.4874 38.4201C35.1212 37.8314 35.0031 37.1215 35.1589 36.4459C35.2897 35.6428 36.0137 35.1713 36.6464 34.788Z" fill="white"/>
<path d="M278.372 113.146C279.047 113.11 279.738 113.046 280.386 113.286C280.916 113.49 281.399 113.799 281.805 114.195C282.212 114.592 282.533 115.067 282.749 115.592C283.105 116.52 283.081 117.55 282.682 118.461C282.156 119.635 281.253 120.286 280.103 120.745C279.37 120.895 278.611 120.867 277.891 120.663C277.373 120.457 276.902 120.147 276.509 119.752C276.115 119.357 275.806 118.885 275.601 118.366C275.426 117.913 275.345 117.43 275.363 116.945C275.38 116.459 275.495 115.983 275.701 115.543C276.276 114.184 277.082 113.688 278.372 113.146Z" fill="#161616"/>
<path d="M278.367 114.657C278.802 114.608 279.241 114.6 279.678 114.633C280.022 114.693 280.348 114.827 280.636 115.025C280.924 115.223 281.165 115.48 281.345 115.78C281.612 116.251 281.704 116.802 281.603 117.334C281.384 118.265 280.794 118.788 280.028 119.29C279.632 119.406 279.223 119.467 278.811 119.473C278.172 119.43 277.615 118.953 277.25 118.46C277.037 118.171 276.888 117.84 276.814 117.489C276.741 117.138 276.744 116.775 276.824 116.425C276.964 115.549 277.679 115.095 278.367 114.657Z" fill="white"/>
<path d="M159.653 3.31395C161.606 3.24399 163.562 3.40217 165.241 4.50641C166.078 5.05701 167.435 6.30118 167.587 7.35371C167.651 7.81609 167.505 7.90127 167.237 8.24805L166.769 8.29673C166.16 7.88302 166.045 7.17727 165.6 6.61451C164.496 5.19998 162.707 4.89883 161.037 4.71935L165.168 16.072L165.278 16.9846C165.29 17.5104 165.191 18.0328 164.986 18.5174C164.782 19.0019 164.477 19.4375 164.092 19.7954C163.356 20.5253 162.363 20.9371 161.326 20.9423C160.878 20.9534 160.431 20.8716 160.016 20.702C159.6 20.5324 159.224 20.2786 158.911 19.9567C158.548 19.5877 158.269 19.1448 158.093 18.6582C157.916 18.1715 157.847 17.6526 157.889 17.1367C157.933 16.6247 158.082 16.1273 158.327 15.6755C158.572 15.2238 158.907 14.8275 159.313 14.5115C160.487 13.5442 161.348 13.5624 162.78 13.6871L159.456 4.62505C159.378 4.40711 159.356 4.17343 159.39 3.94472C159.425 3.71601 159.515 3.49935 159.653 3.31395Z" fill="#161616"/>
<path d="M160.897 15.0481C161.426 14.9712 161.963 14.9488 162.497 14.9812C162.69 15.0109 162.876 15.0803 163.041 15.185C163.206 15.2896 163.348 15.4274 163.458 15.5896C163.826 16.1287 163.968 16.7905 163.854 17.433L163.814 17.5973L163.726 17.941C163.482 18.6985 162.859 19.0848 162.205 19.462C161.805 19.5446 161.394 19.5631 160.988 19.5168C160.718 19.4726 160.46 19.3734 160.229 19.2253C159.999 19.0772 159.802 18.8834 159.65 18.6559C159.487 18.4071 159.376 18.128 159.323 17.8352C159.271 17.5425 159.279 17.2422 159.345 16.9524L159.388 16.7729L159.424 16.6117C159.592 15.8451 160.267 15.4253 160.897 15.0481Z" fill="white"/>
<path d="M251.803 75.6621H252.107C252.707 75.7417 253.292 75.9088 253.844 76.158C256.058 76.9456 258.051 78.2515 259.657 79.9665C261.519 82.0168 262.608 84.5295 262.456 87.316C262.337 89.4453 261.318 93.0379 259.7 94.4981C259.237 94.5468 259.256 94.4981 258.885 94.1939C258.909 93.5459 259.189 92.9771 259.374 92.3687C259.594 91.5582 259.648 90.7119 259.534 89.88C259.421 89.048 259.141 88.2475 258.711 87.5259C257.476 85.436 255.17 84.4839 252.931 83.8451L252.953 100.226C252.977 102.541 253.652 105.166 252.42 107.274C251.636 108.613 250.206 109.443 248.712 109.745C248.003 109.88 247.273 109.864 246.57 109.698C245.867 109.533 245.207 109.221 244.633 108.783C243.469 107.924 242.693 106.639 242.473 105.209C242.284 103.813 242.844 102.249 243.714 101.16C244.666 100.021 246.032 99.3051 247.511 99.1706C249.092 99.0276 250.376 99.8277 251.569 100.743C251.645 95.2373 251.569 89.7252 251.569 84.2192C251.569 82.4305 251.569 80.6418 251.55 78.8562C251.556 77.8219 251.41 76.6355 251.803 75.6621Z" fill="#161616"/>
<path d="M252.932 77.2607C254.557 77.8029 256.08 78.6143 257.437 79.6609C259.302 81.0845 260.74 83.2443 261.017 85.608L261.039 85.8179C261.127 86.8252 261.093 87.8396 260.935 88.8385L260.789 88.8903L260.044 87.1289C258.62 84.5585 255.636 83.1561 252.932 82.423V77.2607Z" fill="white"/>
<path d="M246.687 100.664C247.468 100.521 248.272 100.557 249.038 100.767C249.59 100.926 250.1 101.204 250.532 101.582C250.964 101.96 251.307 102.429 251.536 102.955C251.766 103.481 251.876 104.051 251.86 104.625C251.844 105.198 251.701 105.761 251.441 106.273C250.955 107.405 250.085 107.95 248.984 108.385C248.236 108.597 247.444 108.597 246.696 108.385C246.179 108.232 245.698 107.979 245.28 107.639C244.862 107.299 244.516 106.879 244.262 106.404C243.821 105.46 243.752 104.383 244.071 103.39C244.545 102.015 245.443 101.288 246.687 100.664Z" fill="#BA68C8"/>
<path d="M194.451 19.6426C195.278 19.7125 196.164 20.251 196.885 20.6525C198.451 21.4921 200.1 22.3499 201.481 23.4816C203.839 25.4071 205.302 27.8134 205.56 30.8614C205.715 32.6714 205.284 34.5483 204.626 36.2275C204.456 36.6625 204.261 37.3013 203.939 37.6298C203.617 37.9584 203.416 37.8428 203.026 37.8489C202.381 37.2405 202.555 36.2092 202.366 35.3301C201.533 31.4607 198.591 29.7906 195.516 27.8103L195.534 45.6151C195.534 47.5437 195.643 49.7096 194.366 51.2914C193.857 51.9634 193.21 52.5189 192.468 52.9207C191.727 53.3226 190.909 53.5615 190.068 53.6216C189.353 53.6406 188.641 53.5157 187.975 53.2544C187.31 52.9931 186.703 52.6008 186.192 52.1006C185.138 51.0846 184.526 49.6947 184.489 48.2312C184.474 47.532 184.599 46.8369 184.857 46.187C185.115 45.537 185.501 44.9454 185.991 44.4469C186.447 43.9409 187.003 43.5351 187.624 43.2555C188.245 42.9758 188.918 42.8284 189.599 42.8225C191.607 42.8225 192.848 43.6864 194.22 45.034C194.189 39.2908 194.189 33.5475 194.186 27.8073V22.6024C194.18 21.6625 194.01 20.4913 194.451 19.6426Z" fill="#161616"/>
<path d="M195.517 21.5156C198.318 22.702 201.68 24.734 203.201 27.4718C204.466 29.7442 204.481 32.1656 203.782 34.6053L203.575 34.8426C203.435 34.0385 203.185 33.2576 202.833 32.5215C201.521 29.9298 198.285 27.3349 195.532 26.4619L195.517 21.5156Z" fill="white"/>
<path d="M188.934 44.2487C189.91 44.0329 190.931 44.1715 191.814 44.6397C192.697 45.1079 193.384 45.8751 193.753 46.8039C193.941 47.2889 194.03 47.8064 194.014 48.3262C193.999 48.846 193.88 49.3575 193.665 49.8307C193.087 51.0901 192.144 51.6772 190.897 52.1548C190.051 52.3516 189.166 52.277 188.366 51.9418C187.822 51.6953 187.334 51.34 186.933 50.898C186.532 50.4559 186.225 49.9364 186.032 49.3714C185.708 48.3713 185.792 47.2839 186.264 46.3446C186.82 45.1673 187.779 44.6806 188.934 44.2487Z" fill="#BA68C8"/>
<path d="M16.0494 61.0059C17.7819 61.1172 19.4691 61.6062 20.9926 62.4386C23.6878 63.8227 26.2735 66.5058 27.1496 69.4504C27.9223 72.0483 27.323 74.6553 26.0788 76.9945C25.6012 77.8889 24.7708 79.4951 23.7943 79.7901L23.3836 79.4281C23.2437 78.7924 23.6574 78.2296 23.8916 77.6334C24.4149 76.2858 24.5274 74.8378 23.9069 73.5023C22.7874 71.1022 19.712 69.9341 17.4183 69.0276L17.3575 84.9128C17.3575 86.2787 17.3331 87.6506 17.3301 89.0134C17.3301 89.926 17.397 90.8873 17.1141 91.7512L17.0381 91.9641C16.882 92.4773 16.6645 92.9696 16.3901 93.4304C15.9836 94.0669 15.4491 94.6119 14.8207 95.0309C14.1923 95.4498 13.4836 95.7335 12.7397 95.864C11.4013 96.1469 9.98369 95.7149 8.88249 94.9514C8.31348 94.5671 7.83135 94.0678 7.4672 93.4856C7.10305 92.9035 6.86496 92.2515 6.76831 91.5717C6.64979 90.7806 6.68847 89.9738 6.88212 89.1976C7.07578 88.4214 7.42061 87.6911 7.89688 87.0483C8.31253 86.5043 8.83412 86.0503 9.43017 85.7136C10.0262 85.3769 10.6843 85.1645 11.3647 85.0893C13.339 84.9341 14.501 85.4573 15.9764 86.7167L16.0494 61.0059Z" fill="#161616"/>
<path d="M17.4004 62.5127C20.7466 63.6291 23.8524 65.3448 25.4495 68.6605C26.3955 70.6257 26.4138 72.5877 25.7293 74.6076L25.629 74.705L25.3917 73.8776L25.1088 72.965C23.8068 69.8834 20.2234 68.7062 17.4004 67.4894V62.5127Z" fill="white"/>
<path d="M11.3161 86.5229C11.9245 86.4894 12.615 86.4042 13.2021 86.5868C13.7113 86.7421 14.183 87.0009 14.5876 87.3469C14.9922 87.6929 15.321 88.1186 15.5536 88.5975C15.8031 89.1513 15.9352 89.7507 15.9415 90.358C15.9478 90.9654 15.8281 91.5674 15.5901 92.1262C15.0577 93.3582 14.0691 94.0275 12.8827 94.5385C12.1831 94.5689 11.4621 94.6328 10.7898 94.3925C10.2819 94.2228 9.81369 93.9516 9.41367 93.5955C9.01364 93.2394 8.69012 92.8058 8.46272 92.3209C8.06977 91.2969 8.04931 90.1674 8.40492 89.1299L8.48097 88.9352L8.62394 88.5823C9.16541 87.4416 10.1814 86.9123 11.3161 86.5229Z" fill="#BA68C8"/>
<path d="M216.658 53.707C217.721 53.9591 218.763 54.2937 219.773 54.7078C223.804 56.1558 227.683 58.4221 230.305 61.9052C231.826 63.9281 232.738 66.4469 232.13 68.9869C231.914 69.8995 231.485 70.73 231.36 71.6548C231.29 72.5817 230.865 73.4458 230.174 74.067C229.785 74.4382 229.32 74.7208 228.811 74.8957C228.302 75.0705 227.762 75.1334 227.226 75.08C226.74 75.0529 226.264 74.9248 225.83 74.7038C225.396 74.4828 225.013 74.1737 224.705 73.7963C224.414 73.4287 224.204 73.0045 224.087 72.5508C223.97 72.0971 223.949 71.6241 224.026 71.1619C224.221 70.0547 224.987 69.3885 225.851 68.7831L226.013 68.6736C225.784 67.5633 225.523 66.5442 224.893 65.589C223.372 63.2893 220.263 62.1272 217.693 61.5675V69.8478C217.693 72.7894 217.671 75.7341 217.668 78.6696C217.668 80.2757 217.839 82.1344 217.571 83.7162C217.447 84.4708 217.151 85.1868 216.707 85.8091C216.21 86.4784 215.575 87.0333 214.845 87.4363C214.115 87.8393 213.307 88.0811 212.476 88.1454C211.755 88.1802 211.035 88.0724 210.356 87.8281C209.678 87.5838 209.054 87.2078 208.521 86.7217C207.495 85.7592 206.886 84.434 206.824 83.0287C206.782 82.2907 206.896 81.5523 207.158 80.8611C207.42 80.1699 207.825 79.5415 208.345 79.0164C209.257 78.0581 210.888 77.1912 212.235 77.2125C214.061 77.2429 215.189 78.1251 216.412 79.3418C216.449 73.8936 216.412 68.4455 216.412 63.0003C216.412 61.0311 216.412 59.065 216.412 57.1019C216.427 56.0189 216.26 54.7139 216.658 53.707Z" fill="#161616"/>
<path d="M226.77 69.7863C227.753 69.7407 228.444 69.7377 229.204 70.4617C229.446 70.6514 229.643 70.8926 229.78 71.1678C229.917 71.4429 229.992 71.7452 229.998 72.0526C229.752 72.8344 229.177 73.2694 228.51 73.6922C228.163 73.7759 227.806 73.8157 227.449 73.8109C227.094 73.8121 226.745 73.7301 226.428 73.5716C226.111 73.4131 225.835 73.1825 225.624 72.8983C225.482 72.6564 225.39 72.3884 225.355 72.1103C225.319 71.8321 225.34 71.5497 225.417 71.2799C225.587 70.5377 226.162 70.1422 226.77 69.7863Z" fill="#BA68C8"/>
<path d="M211.111 78.7752C211.903 78.6283 212.718 78.6511 213.502 78.8421C214.058 79.0237 214.571 79.3197 215.006 79.711C215.441 80.1023 215.79 80.5804 216.03 81.1145C216.425 81.9875 216.367 83.3473 216.03 84.2295C215.519 85.5132 214.56 86.1946 213.34 86.7391L213.182 86.7695C212.428 86.9743 211.63 86.9424 210.895 86.6783C209.846 86.2924 208.992 85.5073 208.519 84.4941C208.295 83.9648 208.18 83.3958 208.18 82.821C208.18 82.2463 208.295 81.6773 208.519 81.148C209.006 79.9403 209.973 79.2863 211.111 78.7752Z" fill="#BA68C8"/>
<path d="M217.669 55.4746L217.888 55.5354C222.348 56.7948 227.811 59.7729 230.089 63.977C231.108 65.8508 231.236 67.5026 230.619 69.5468L230.345 69.705C229.482 68.982 228.423 68.5329 227.303 68.4152C227.075 67.0737 226.761 65.8812 225.964 64.7648C224.036 62.0483 220.817 60.8893 217.678 60.2931L217.669 55.4746Z" fill="white"/>
<path d="M76.3475 59.4287L76.7247 59.6538C77.0867 60.7489 76.892 62.1908 76.892 63.3498C76.892 65.7834 76.892 68.2241 76.892 70.6719C76.892 75.5543 76.9285 80.4367 76.892 85.3221C76.8737 87.5306 76.9315 89.7725 76.7977 91.978C76.7648 92.6152 76.5946 93.2378 76.2988 93.8032C75.9778 94.4232 75.5364 94.9731 75.0005 95.4207C74.4647 95.8683 73.845 96.2047 73.1777 96.4101C72.4991 96.6067 71.7865 96.6572 71.087 96.558C70.3875 96.4589 69.717 96.2126 69.1197 95.8352C68.4812 95.4468 67.9276 94.9337 67.4919 94.3265C67.0563 93.7193 66.7476 93.0304 66.5843 92.3012C66.421 91.5719 66.4065 90.8172 66.5416 90.0822C66.6767 89.3471 66.9586 88.6469 67.3705 88.0234C68.2223 86.8248 69.5425 85.8484 71.0209 85.6202C72.6484 85.3647 74.0082 85.8757 75.2949 86.837L75.4531 86.9526L75.4927 66.3279L56.6688 73.58L55.3486 74.1154C55.2452 79.372 55.23 84.6224 55.2482 89.882C55.2482 92.1179 55.4885 94.4937 55.3273 96.7113C55.2865 97.6625 55.0284 98.5917 54.5729 99.4278C54.2431 100.01 53.8009 100.521 53.2719 100.931C52.7429 101.341 52.1376 101.642 51.4914 101.816C50.76 101.988 50.0007 102.005 49.2623 101.866C48.5239 101.728 47.8227 101.436 47.2038 101.01C46.5849 100.584 46.0621 100.033 45.6689 99.3927C45.2757 98.7524 45.0208 98.037 44.9207 97.2923C44.7789 96.5663 44.7952 95.8183 44.9684 95.0991C45.1416 94.38 45.4677 93.7066 45.9245 93.1248C46.3654 92.5178 46.9307 92.0119 47.5828 91.641C48.2349 91.2701 48.9587 91.0427 49.7057 90.9741C51.321 90.7673 52.626 91.4213 53.8702 92.3491V68.3752L76.3475 59.4287Z" fill="#161616"/>
<path d="M49.9806 92.3212C50.7093 92.2995 51.431 92.4695 52.0735 92.814C52.4992 93.0509 52.8701 93.3749 53.162 93.7649C53.454 94.1549 53.6604 94.602 53.7679 95.0772C54.0873 96.3305 54.0721 97.6994 53.3268 98.8036C52.5815 99.9079 51.5746 100.252 50.3761 100.516C49.6916 100.526 49.0144 100.375 48.3988 100.075C47.4394 99.5266 46.7369 98.6195 46.4458 97.5534C46.2809 97.0227 46.2322 96.4628 46.3031 95.9116C46.3739 95.3604 46.5627 94.831 46.8565 94.3593C47.5987 93.1516 48.636 92.6132 49.9806 92.3212Z" fill="#BA68C8"/>
<path d="M71.0848 86.9882C71.839 86.9224 72.5981 87.0328 73.3024 87.3107C73.7546 87.4965 74.1643 87.7725 74.5063 88.1218C74.8484 88.4712 75.1157 88.8866 75.2918 89.3427C75.6873 90.4044 75.6295 92.1079 75.0819 93.1209C74.4735 94.2464 73.4849 94.8122 72.3046 95.1651C71.5785 95.2472 70.8436 95.1349 70.1752 94.8396C69.1971 94.3552 68.444 93.5116 68.0732 92.4851C67.8819 91.9552 67.8044 91.3908 67.8458 90.829C67.8872 90.2671 68.0466 89.7202 68.3135 89.2241C68.9219 87.9708 69.8041 87.4141 71.0848 86.9882Z" fill="#BA68C8"/>
<path d="M75.2806 61.2529C75.7582 61.7549 75.5605 64.1246 75.5848 64.9033L55.5077 72.5752L55.2735 72.3471L55.2461 69.2777L75.2806 61.2529Z" fill="#BA68C8"/>
<path d="M139.862 27.3981C140.843 27.3068 141.829 27.2885 142.813 27.3433C151.291 27.5411 159.16 31.5322 164.891 37.6526C169.041 42.0818 171.492 47.8859 172.219 53.8786C172.366 55.0558 172.283 56.2392 172.387 57.4164C172.46 58.2378 172.937 58.9617 173.144 59.7496C173.351 60.5375 173.245 61.5748 173.22 62.4114C174.332 63.1562 175.267 64.1366 175.958 65.283C176.411 66.1074 176.691 66.88 177.397 67.5462C179.195 69.2406 181.297 70.6247 182.854 72.5716C184.838 75.0447 185.714 77.8555 185.705 81.0131C185.705 85.8194 184.123 90.1847 186.161 94.8815C187.019 96.8558 188.388 98.249 189.857 99.773C192.704 102.721 195.028 105.459 195.798 109.62C196.799 115.096 193.237 120.148 195.19 125.624C196.406 129.016 198.965 130.491 201.322 132.925C202.843 134.513 204.124 136.624 204.556 138.805L204.601 139.048C204.695 139.564 204.703 140.093 204.626 140.612C204.322 143.127 202.496 144.566 201.602 146.766C200.756 148.828 200.793 151.164 199.935 153.154C199.578 153.968 199.007 154.67 198.283 155.186L199.698 160.266L206.122 148.372C204.708 142.896 205.736 137.494 206.792 132.085C207.096 130.473 207.324 128.739 207.829 127.169C207.913 126.828 208.078 126.512 208.309 126.247C208.54 125.983 208.831 125.777 209.158 125.648C209.767 125.633 210.12 125.59 210.649 125.977C211.92 126.914 212.124 130.713 212.416 132.21L214.85 128.757L214.926 128.626C215.103 128.65 215.283 128.633 215.452 128.575C215.991 128.313 216.669 127.358 217.092 126.905C217.956 125.893 218.893 124.946 219.894 124.069C220.228 122.624 220.541 121.243 221.223 119.914C221.704 118.942 222.374 118.077 223.195 117.368C224.016 116.66 224.97 116.123 226.002 115.789C227.964 115.181 230.175 115.278 231.976 116.318C233.511 117.258 234.619 118.76 235.064 120.504C235.599 122.57 235.103 124.66 234.008 126.457C233.472 127.374 232.756 128.174 231.904 128.809C231.053 129.444 230.082 129.901 229.05 130.153L228.779 130.217C227.641 130.488 226.543 130.464 225.381 130.461L215.191 163.281L247.405 163.299C247.405 161.753 246.97 158.538 248.041 157.355C248.558 156.819 249.262 156.505 250.006 156.479C250.692 156.447 251.363 156.689 251.871 157.151C253.179 158.395 252.729 161.595 252.738 163.265H270.421C270.421 162.286 270.184 158.064 270.494 157.461C270.585 157.314 270.686 157.174 270.798 157.041C270.931 156.987 271.074 156.961 271.218 156.964C271.362 156.967 271.504 157 271.635 157.06C272.07 157.668 271.939 158.371 271.939 159.104V163.205C273.415 163.205 274.891 163.205 276.365 163.205C276.943 163.205 277.582 163.098 278.087 163.427C278.201 163.756 278.201 164.114 278.087 164.443C277.579 164.805 276.949 164.689 276.35 164.692C274.877 164.692 273.405 164.692 271.933 164.671C271.933 165.279 272.112 168.601 271.911 169.036C271.835 169.2 271.668 169.301 271.546 169.435C271.257 169.472 270.963 169.404 270.719 169.243C270.083 168.33 270.415 165.848 270.415 164.659L252.741 164.695V177.383C254.721 177.383 267.4 177.1 268.152 177.614C268.21 177.749 268.24 177.894 268.24 178.04C268.24 178.187 268.21 178.332 268.152 178.466C268.015 178.585 267.911 178.77 267.744 178.825C267.466 178.85 267.186 178.85 266.907 178.825H264.778C260.769 178.843 256.757 178.856 252.744 178.862V188.763C255.871 188.806 259.007 188.763 262.138 188.763C263.628 188.763 265.277 188.632 266.743 188.882C267.244 188.967 267.718 189.168 268.127 189.469C268.509 189.776 268.823 190.158 269.051 190.591C269.279 191.024 269.416 191.5 269.454 191.988C269.609 193.567 269.493 195.291 269.496 196.885C269.496 200.232 269.496 203.56 269.496 206.897C269.496 210.344 269.496 213.792 269.496 217.239C269.496 218.925 269.624 220.738 269.46 222.411C269.392 223.11 269.109 223.771 268.65 224.303C267.832 225.237 266.965 225.413 265.788 225.462C260.495 225.69 255.101 225.462 249.793 225.444C240.543 225.419 231.295 225.474 222.044 225.444C215.708 225.444 209.371 225.41 203.038 225.444C199.564 225.444 195.95 225.681 192.491 225.444C191.411 225.368 190.398 225.161 189.592 224.379C189.06 223.854 188.707 223.173 188.585 222.435C188.412 221.343 188.482 220.151 188.482 219.043C188.482 217.192 188.482 215.34 188.482 213.489C188.5 207.066 188.525 200.643 188.555 194.221L187.274 193.308C183.46 190.57 180.886 186.518 178.705 182.43C177.166 179.564 175.862 176.578 174.805 173.502C174.367 172.209 173.847 170.907 173.628 169.547C172.426 168.425 171.419 167.15 171.064 165.519L169.427 174.794C168.411 179.26 167.109 183.379 164.864 187.404C172.609 196.727 179.675 207.158 184.363 218.365C190.858 233.879 192.823 250.516 192.835 267.21C172.426 267.362 152.018 267.231 131.609 267.228C125.454 267.228 119.299 267.223 113.144 267.213C110.495 267.213 107.72 267.003 105.089 267.18C104.492 267.236 103.917 267.428 103.407 267.742C101.378 268.895 97.5387 268.32 95.3424 267.8C91.473 266.888 88.0599 265.062 84.6955 263.012C72.637 255.608 63.1187 244.721 55.6901 232.799C46.6694 234.686 37.2731 233.366 29.1214 229.067C24.3099 226.508 20.052 223.022 16.5928 218.811C13.1335 214.6 10.5413 209.747 8.96523 204.53C5.8046 194.187 7.14004 182.792 12.1989 173.301C17.1877 163.965 26.0399 156.981 36.118 153.936C45.9771 150.945 57.3328 151.904 66.4588 156.801C74.4501 161.096 81.3645 167.983 85.0331 176.352C86.3351 179.327 87.1443 182.336 88.0751 185.426L89.1581 167.113C88.2455 166.466 87.2447 165.69 86.6363 164.744C84.7715 161.845 86.2408 157.86 87.0043 154.796C85.0909 153.513 83.4908 151.815 82.3227 149.829C80.4245 146.732 79.4268 143.386 80.2907 139.736C81.039 136.599 83.0802 134.19 84.8902 131.613C86.2986 129.609 87.5914 127.355 88.2576 124.985C89.7178 119.768 87.2295 114.417 88.4219 109.304C88.7768 107.549 89.459 105.877 90.4327 104.376C92.0693 101.969 94.442 100.242 96.3189 98.0452C97.661 96.4582 98.6345 94.5933 99.1692 92.5848C100.459 87.9123 98.1198 83.5106 98.9533 78.9233L99.2727 77.3293C99.5988 76.0527 100.126 74.8359 100.833 73.7245C102.509 71.0536 104.815 68.6626 106.753 66.1713C107.714 64.9362 108.42 63.5034 109.409 62.2988C109.627 62.0428 109.89 61.8285 110.184 61.6661L109.996 60.355C109.898 59.3177 109.91 58.4781 110.619 57.6446C110.65 57.6111 110.701 57.5868 110.711 57.5411C110.844 56.9327 110.711 56.0201 110.756 55.3661C110.907 53.5619 111.252 51.7791 111.784 50.0487C113.02 45.8477 115.102 41.9439 117.902 38.5774C123.557 31.8729 131.204 28.1586 139.862 27.3981Z" fill="#141931"/>
<path d="M79.1247 221.101L79.3346 221.186L77.257 223.279C76.9893 222.941 76.7733 222.771 76.7246 222.336L79.1247 221.101Z" fill="white"/>
<path d="M216.483 129.797C216.802 130.42 216.887 131.269 217.018 131.96C217.296 133.196 217.499 134.447 217.626 135.707L217.191 136.103C216.473 135.531 216.309 134.983 216.145 134.101C215.99 133.274 215.582 131.47 215.841 130.688C216.023 130.37 216.238 130.071 216.483 129.797Z" fill="white"/>
<path d="M88.1325 202.054L88.7104 210.513L84.7559 212.521L84.4821 212.576C84.3178 212.047 85.4464 209.975 85.7141 209.348C86.7319 206.992 87.5411 204.551 88.1325 202.054Z" fill="white"/>
<path d="M97.4508 225.156L97.6334 225.26C97.9169 225.542 98.1763 225.847 98.4091 226.172C99.2456 227.121 100.313 228.058 100.621 229.318C100.605 229.696 100.491 230.065 100.289 230.385C99.8023 230.966 99.2912 230.994 98.5825 231.094C97.0949 230.452 96.1032 229.099 95.1055 227.87L97.4508 225.156Z" fill="white"/>
<path d="M110.923 65.293C111.198 65.9927 111.402 66.7183 111.531 67.4589C111.835 68.7821 112.109 70.1115 112.383 71.4439C112.852 73.6889 113.378 75.9217 113.904 78.1514C113.329 77.9346 112.777 77.6615 112.255 77.3362C110.47 76.183 109.213 74.3714 108.757 72.2956L108.708 72.0523C108.553 71.251 108.507 70.4323 108.571 69.6187C108.672 67.8513 109.654 66.4246 110.923 65.293Z" fill="#BA68C8"/>
<path d="M174.622 65.8613C174.862 66.0985 175.073 66.3641 175.249 66.6522C176.18 68.2219 176.323 70.473 175.897 72.216C175.319 74.601 174.397 75.7995 172.334 77.065C171.863 77.2779 171.513 77.5547 170.999 77.4513L172.678 66.7283C172.864 65.9283 173.201 66.5306 173.764 66.4241C174.07 66.2694 174.358 66.0806 174.622 65.8613Z" fill="#BA68C8"/>
<path d="M206.423 205.294C206.901 205.246 207.384 205.287 207.846 205.416C208.148 205.504 208.428 205.654 208.67 205.855C208.911 206.055 209.109 206.304 209.252 206.584C209.635 207.542 209.647 212.567 209.252 213.538C208.914 214.347 208.394 214.541 207.615 214.855C207.215 214.865 206.814 214.835 206.42 214.767C206.107 214.722 205.807 214.614 205.538 214.449C205.268 214.284 205.035 214.066 204.853 213.808C204.479 213.233 204.549 212.439 204.549 211.779C204.549 210.289 204.427 208.573 204.762 207.116C204.96 206.158 205.626 205.765 206.423 205.294Z" fill="#BA68C8"/>
<path d="M249.458 205.14C249.996 205.031 250.551 205.045 251.083 205.18C251.361 205.279 251.615 205.435 251.831 205.636C252.048 205.837 252.22 206.081 252.339 206.351C252.999 207.595 252.686 209.922 252.661 211.352C252.646 212.088 252.713 212.937 252.397 213.621C252.093 214.251 251.484 214.497 250.876 214.726C250.286 214.782 249.691 214.758 249.108 214.653C248.606 214.539 248.169 214.232 247.892 213.798C247.411 212.849 247.49 207.866 247.852 206.801C248.156 205.867 248.588 205.587 249.458 205.14Z" fill="white"/>
<path d="M208.908 179.54C209.106 180.24 209.005 181.143 209.005 181.879C209.005 183.476 209.005 185.076 209.005 186.674C209.036 192.596 209.2 198.537 209.027 204.466L208.254 204.162C207.512 203.858 207.037 203.982 206.283 204.135L206.006 204.058C205.881 199.824 205.988 195.541 206.006 191.309C206.006 189.712 206.231 187.799 206.006 186.229C205.86 185.162 208.251 180.778 208.908 179.54Z" fill="white"/>
<path d="M249.525 157.782C249.917 157.752 250.312 157.799 250.687 157.919C250.832 157.995 250.959 158.103 251.057 158.235C251.155 158.366 251.222 158.519 251.253 158.68C251.505 159.723 251.377 161.019 251.38 162.087C251.38 164.24 251.38 166.394 251.38 168.548C251.393 177.412 251.393 186.278 251.38 195.144C251.38 196.698 251.636 203.22 251.24 203.926H250.821C250.142 203.918 249.463 203.974 248.795 204.093C248.809 193.726 248.809 183.36 248.795 172.995V163.623C248.795 162.135 248.661 160.487 248.837 159.017C248.917 158.538 249.16 158.102 249.525 157.782Z" fill="white"/>
<path d="M115.233 57.6475C115.875 57.5775 116.45 57.5227 117.016 57.8574C117.575 58.2209 117.978 58.7793 118.148 59.424C118.796 61.2978 118.99 63.4181 119.392 65.3589C119.872 67.6951 120.432 70.0131 120.895 72.3555C121.676 76.31 122.358 80.1217 123.547 83.9941L119.723 84.496C118.969 84.4261 118.184 84.3987 117.521 83.9911C115.97 83.0328 115.647 79.9452 115.246 78.2782C114.36 74.6035 113.688 70.8801 112.858 67.1932C112.499 65.6023 112.155 64.0052 111.793 62.4143C111.58 61.4712 111.258 60.4674 111.185 59.5061C111.157 59.1015 111.245 59.0711 111.446 58.7426C112.49 58.049 114.026 57.8482 115.233 57.6475Z" fill="#BA68C8"/>
<path d="M165.809 53.4385C166.348 54.6188 166.36 56.2219 166.512 57.5087C167.626 57.5966 168.728 57.8005 169.8 58.1171C170.582 58.3695 171.425 58.7985 171.769 59.5924C171.961 60.1236 172.036 60.6904 171.988 61.2533C171.933 62.5949 171.626 63.9729 171.446 65.3053C171.017 68.5298 170.564 71.7269 170.05 74.9392C169.724 76.9895 169.578 79.6239 168.854 81.5556C168.313 83.0066 167.376 83.6667 166.041 84.2933C163.987 84.7283 161.946 84.05 159.862 84.0348C160.805 80.5517 161.347 76.9895 161.919 73.4335C162.457 70.1025 163.038 66.7806 163.577 63.4497C163.78 62.2085 163.978 60.9644 164.142 59.7171C164.255 58.8563 164.291 57.9497 164.596 57.1314C165.627 56.3101 165.627 54.6918 165.809 53.4385Z" fill="#BA68C8"/>
<path d="M113.823 166.311C114.221 168.087 114.285 169.927 114.592 171.722C115.526 177.198 117.214 182.305 120.004 187.133L107.197 201.826L104.608 205.443C104.654 202.465 105.004 199.432 105.302 196.469C106.19 187.684 107.766 179.008 108.758 170.244L108.885 170.213L109.095 170.162L110.263 169.858C111.949 169.243 113.108 167.898 113.823 166.311Z" fill="white"/>
<path d="M139.274 28.7689L140.88 28.6898C148.996 28.5742 156.839 31.528 162.679 37.2074C168.155 42.5369 171.014 49.6126 171.118 57.2175C169.947 56.7581 168.719 56.4603 167.467 56.3323C167.501 51.24 164.684 45.2382 161.444 41.4266C159.261 38.8378 156.585 36.7085 153.572 35.1623C150.559 33.616 147.268 32.6837 143.892 32.4193L143.335 32.3676C135.968 32.0907 129.275 34.4239 123.867 39.5193C119.304 43.8115 115.903 49.935 115.705 56.2897C114.37 56.3867 113.055 56.6619 111.793 57.108C112.25 50.658 114.694 44.5081 118.79 39.5041C123.961 33.3973 131.31 29.5464 139.274 28.7689Z" fill="#BA68C8"/>
<path d="M150.203 97.4307L150.507 97.6041L151.56 108.671C151.56 109.31 151.228 110.061 150.979 110.636C150.094 112.769 148.743 114.676 147.024 116.218C145.661 117.395 143.325 119.077 141.442 118.846C138.887 118.542 136.195 115.993 134.628 114.113C133.32 112.592 132.392 110.639 131.687 108.774C132.681 104.923 132.931 101.443 133.001 97.4854C134.926 98.684 136.94 99.7213 139.158 100.254C143.398 101.267 146.68 99.6026 150.203 97.4307Z" fill="white"/>
<path d="M210.345 178.82H247.387V188.749L210.345 188.795V178.82Z" fill="white"/>
<path d="M214.727 164.626L247.398 164.666L247.416 177.372H243.081C234.716 177.372 226.35 177.365 217.985 177.351L212.418 177.332C211.81 177.332 210.818 177.451 210.289 177.171C210.164 176.812 210.183 176.419 210.34 176.073C210.769 174.716 211.448 173.387 211.968 172.058C212.947 169.612 213.833 167.114 214.727 164.626Z" fill="white"/>
<path d="M152.665 110.004C155.902 112.255 159.528 113.7 163.032 115.455C162.153 119.924 158.274 123.948 154.651 126.443C150.484 129.311 144.741 131.593 139.618 130.626C133.376 129.448 128.46 125.67 124.91 120.496C123.821 118.914 122.934 117.202 122.27 115.4C125.253 113.943 128.103 112.226 130.787 110.272C132.664 113.846 134.602 116.696 138.088 118.862C140.102 120.109 141.504 120.383 143.804 119.842V121.554L138.681 121.667L138.453 121.971C138.429 122.452 138.398 122.443 138.702 122.808L145.008 122.847L145.072 119.054C148.844 116.997 151.132 113.931 152.665 110.004Z" fill="white"/>
<path d="M45.055 153.641C53.8768 152.865 63.1061 155.737 70.3035 160.79L60.3197 175.227C59.1181 174.619 58.0047 173.843 56.7971 173.241C54.7738 172.251 52.6063 171.589 50.3754 171.279C46.725 170.886 43.2815 171.279 39.9049 172.772C38.4995 173.381 37.2036 174.226 35.8591 174.965L25.0479 160.726C31.2322 156.619 37.6538 154.283 45.055 153.641Z" fill="#BA68C8"/>
<path d="M46.599 177.061C50.8761 176.881 55.0405 178.055 58.3411 180.866C61.8333 183.841 63.9384 187.759 64.2821 192.362C64.6457 196.846 63.2158 201.291 60.3062 204.722L58.262 203.782C56.2665 203.076 54.0336 202.905 52.0959 203.882C50.3163 204.776 49.3186 206.589 48.7497 208.408L48.406 210.48C44.2083 210.521 40.1435 209.01 36.9912 206.238C33.839 203.466 31.8213 199.627 31.3252 195.459C30.8507 191.16 32.1161 186.543 34.8843 183.184C37.8624 179.552 41.9539 177.496 46.599 177.061Z" fill="white"/>
<path d="M90.5475 168.006C91.673 168.486 92.7347 169.068 93.8937 169.472C98.2468 170.993 102.91 170.874 107.437 170.497C106.713 174.376 106.265 178.321 105.73 182.233C104.887 188.375 104.045 194.492 103.497 200.671C103.074 205.419 103.239 210.238 102.46 214.95C102.156 216.738 101.715 218.576 100.61 220.054C99.5944 221.411 98.1585 222.61 96.96 223.823C94.8063 225.992 92.7012 228.216 90.5445 230.382C87.2713 233.661 84.135 237.29 80.6702 240.347C80.1713 240.785 79.7576 241.19 79.0823 241.284C78.7414 241.187 78.4515 240.961 78.2731 240.655C78.2112 240.539 78.1865 240.406 78.2023 240.276C78.218 240.145 78.2736 240.022 78.3613 239.924C79.1644 238.571 80.5941 237.293 81.6619 236.125C83.3958 234.233 85.1054 232.326 86.7724 230.376C87.323 229.734 88.2599 228.855 88.5489 228.073C88.6064 227.944 88.6308 227.804 88.6196 227.663C88.6084 227.523 88.5622 227.388 88.485 227.27C88.3669 227.071 88.2056 226.9 88.0129 226.772C87.8201 226.643 87.601 226.56 87.3717 226.528C85.6469 226.375 76.308 236.037 74.1725 237.336C73.9963 237.441 73.7962 237.501 73.5909 237.508C73.3855 237.516 73.1817 237.471 72.9983 237.378C72.6241 237.181 72.5785 236.916 72.4233 236.548C72.4242 236.275 72.5199 236.01 72.6941 235.8L72.8796 235.565C76.0159 232.761 79.5233 230.455 82.4406 227.385C82.9912 226.801 83.7639 226.083 84.138 225.372C84.2493 225.191 84.3154 224.986 84.3307 224.774C84.3461 224.562 84.3103 224.35 84.2263 224.155C83.9916 223.912 83.6773 223.762 83.341 223.732C82.4619 224.036 81.7288 224.76 81.017 225.341C78.6472 227.276 76.384 229.454 74.2212 231.617C73.3724 232.469 72.5602 233.512 71.6324 234.269C71.2887 234.549 70.805 234.479 70.4004 234.422C70.1175 234.178 70.0141 234.117 69.9259 233.74C69.8786 233.555 69.8732 233.362 69.91 233.175C69.9469 232.987 70.025 232.811 70.1388 232.657C70.8263 231.635 72.0614 230.643 72.9435 229.764C74.7931 227.921 76.5726 226.023 78.3644 224.121C79.4017 223.02 80.6458 221.873 81.452 220.596C81.5098 220.006 81.5493 220.021 81.1478 219.516C80.9698 219.427 80.7819 219.36 80.588 219.315C79.3317 219.178 75.6874 221.295 74.4037 221.919C73.5915 222.314 72.7488 222.643 71.9458 223.051C70.878 223.595 69.5395 224.572 68.344 224.602C68.1926 224.499 68.0572 224.374 67.9425 224.231C67.614 223.799 67.7782 223.318 67.8725 222.862C68.9159 221.533 71.2491 220.666 72.761 219.872C78.4434 216.891 84.2688 214.198 90.1003 211.506C89.9391 207.819 89.6684 204.142 89.5467 200.452C89.3033 193.165 89.3327 185.876 89.6349 178.583C89.7292 176.411 89.8813 174.254 90.0608 172.088C90.1855 170.725 90.2372 169.338 90.5475 168.006Z" fill="white"/>
<path d="M220.109 125.714L220.3 125.902C220.909 128.12 222.329 129.054 224.228 130.137C223.282 133.465 222.171 136.741 221.143 140.042C219.473 145.411 217.833 150.771 216.057 156.103C212.948 165.448 209.909 174.559 205.522 183.408C203.697 187.107 201.182 192.516 196.932 193.833C195.714 194.206 194.433 194.334 193.165 194.208C191.897 194.082 190.667 193.706 189.546 193.1C184.375 190.247 181.08 184.412 178.637 179.232C177.236 176.332 176.071 173.324 175.154 170.236C176.604 170.601 178.089 170.805 179.583 170.845C185.001 171.031 190.356 169.645 195.003 166.854L196.114 169.269C195.648 171.006 194.748 173.394 194.775 175.183C194.846 175.319 194.952 175.434 195.082 175.517C195.211 175.6 195.361 175.647 195.514 175.654C195.732 175.565 195.906 175.395 196.001 175.18C196.225 174.588 196.394 173.977 196.506 173.354C196.835 172.107 197.163 170.86 197.537 169.625C198.862 165.4 200.53 161.29 202.523 157.335C203.965 154.403 205.516 151.437 207.6 148.903L206.946 144.711C206.794 143.153 206.776 141.585 206.891 140.023C207.138 136.808 207.84 133.529 208.458 130.365C208.613 129.574 208.762 127.874 209.325 127.287C209.523 127.083 209.596 127.141 209.863 127.128C210.25 127.627 210.292 128.382 210.393 128.996C210.606 130.283 210.788 131.579 210.931 132.875C211.001 133.529 210.931 134.323 211.409 134.825C211.764 134.892 212.131 134.839 212.452 134.673C213.021 133.746 213.667 132.868 214.384 132.05L214.554 133.471C214.752 134.612 214.956 136.303 216.026 136.975C216.56 137.275 217.191 137.352 217.782 137.188L217.949 137.146C218.173 137.097 218.386 137.004 218.574 136.873C218.762 136.742 218.923 136.575 219.047 136.382C219.814 135.22 218.889 133.34 218.588 132.123C218.287 130.907 218.013 129.629 217.733 128.382L218.77 127.207C219.19 128.552 219.485 129.973 219.783 131.348C219.905 131.923 219.908 132.704 220.23 133.191C220.635 133.191 220.775 133.218 221.103 132.993C221.207 132.303 220.985 131.561 220.851 130.882C220.547 129.303 220.103 127.749 219.78 126.176L220.109 125.714Z" fill="white"/>
<path d="M53.5478 204.719L55.735 204.677C57.2712 204.777 58.9017 205.559 60.2372 206.283C65.4086 209.097 69.7373 213.657 73.5945 218.037C71.4956 219.047 67.3767 220.501 66.5067 222.737C66.3953 223.032 66.3488 223.348 66.3703 223.663C66.3918 223.978 66.4809 224.285 66.6314 224.562C66.7596 224.874 66.9502 225.155 67.1913 225.39C67.4325 225.625 67.7192 225.808 68.0338 225.928C68.4436 226.033 68.8752 226.015 69.2749 225.876C71.3678 225.268 73.555 223.747 75.5627 222.801L76.527 224.139C75.0851 225.983 73.2964 227.613 71.5747 229.189C70.7381 229.953 69.7495 230.71 69.0468 231.589C68.7101 231.991 68.4986 232.483 68.4384 233.004C68.383 233.38 68.4066 233.764 68.5076 234.13C68.6087 234.497 68.7851 234.838 69.0255 235.133C69.2267 235.35 69.4703 235.524 69.7414 235.643C70.0124 235.763 70.3051 235.825 70.6012 235.827C70.8101 235.82 71.0178 235.859 71.2096 235.942C71.1395 236.439 71.2003 236.946 71.3861 237.412C71.6081 237.904 72.0583 238.543 72.6029 238.704C73.4071 238.858 74.2396 238.72 74.9513 238.315C75.9217 237.731 76.8495 236.761 77.6891 236.009C79.8002 234.151 81.8657 232.249 84.0103 230.43C84.9655 229.618 85.8933 228.715 86.9549 228.045L87.0888 227.966C85.2971 230.111 83.4749 232.207 81.595 234.275C80.2109 235.796 78.483 237.418 77.3757 239.142C77.1023 239.512 76.9512 239.958 76.9438 240.417C76.9213 240.715 76.971 241.013 77.0885 241.288C77.2061 241.562 77.3881 241.804 77.6191 241.993C77.8746 242.203 78.1697 242.36 78.4868 242.454C78.804 242.548 79.1368 242.577 79.4656 242.54C81.3577 242.349 85.6104 237.278 87.0492 235.717L90.6084 239.976L102.262 255.417C103.728 257.674 106.217 261.197 105.523 264.068C105.28 265.081 104.538 265.809 103.652 266.304C101.435 267.542 97.8726 267.065 95.5181 266.435C91.3111 265.31 87.3869 263.217 83.7578 260.847C76.673 256.223 70.4583 250.176 65.0922 243.666C61.9683 239.943 59.1571 235.969 56.6872 231.784C53.4718 226.217 50.1408 219.406 49.8062 212.899C49.7362 211.561 49.7271 210.113 50.1104 208.817L50.1834 208.574L50.5089 207.585C51.093 206.146 52.1759 205.319 53.5478 204.719Z" fill="#BA68C8"/>
<path d="M130.289 45.6875C130.554 46.7218 130.684 47.7713 130.998 48.8025C131.814 51.4037 133.195 53.7927 135.041 55.7991C141.447 62.9538 152.176 66.808 161.588 67.3251C159.24 78.1546 160 87.9133 150.476 95.6278C148.346 97.2187 145.539 98.8219 142.871 99.1565C139.114 99.628 135.336 97.669 132.482 95.4057C125.857 90.1522 123.445 81.3517 122.547 73.2844C121.695 65.6368 123.119 57.2197 126.9 50.4969C127.899 48.8054 129.032 47.1971 130.289 45.6875Z" fill="white"/>
<path d="M131.982 67.52C132.852 67.4804 134.528 67.6143 135.176 68.2805C135.48 68.5847 135.426 68.7733 135.377 69.1627C135.128 69.4942 135.182 69.5733 134.75 69.6372C133.677 69.0288 133.083 68.8098 131.851 68.8858L131.587 68.9041C131.079 69.0774 130.599 69.3244 130.163 69.6372C129.858 69.8699 129.536 70.0784 129.199 70.2608C128.746 70.2456 128.77 70.2608 128.46 69.9566C128.428 69.6711 128.5 69.3837 128.663 69.1474C129.26 68.2044 130.948 67.742 131.982 67.52Z" fill="#161616"/>
<path d="M129.031 73.9199C130.206 74.0872 130.212 74.9603 130.917 75.7177C132.524 77.4456 133.473 75.1276 134.826 75.1398C135.103 75.6204 135.048 75.7482 135.015 76.2866C134.72 76.6709 134.373 77.0118 133.984 77.2996C133.415 77.6981 132.508 77.7072 131.854 77.6038C131.371 77.5515 130.906 77.3923 130.493 77.1376C130.079 76.8829 129.727 76.5392 129.463 76.1314C128.922 75.3709 128.895 74.8264 129.031 73.9199Z" fill="#161616"/>
<path d="M149.118 67.6753C150.245 67.516 151.394 67.634 152.465 68.019C153.319 68.3232 154.022 68.6944 154.411 69.54C154.424 69.6844 154.406 69.8298 154.36 69.967C154.313 70.1041 154.238 70.2302 154.141 70.337C153.429 70.3766 153.173 70.0724 152.62 69.6891C151.591 69.1628 150.366 68.6366 149.207 69.1172C148.692 69.3301 148.337 69.6161 147.765 69.6465C147.324 69.4062 147.321 69.4336 147.156 68.9651L147.415 68.4753C147.926 68.1012 148.504 67.8295 149.118 67.6753Z" fill="#161616"/>
<path d="M153.216 73.9258L153.453 74.0475C153.797 74.2163 154.064 74.5085 154.201 74.8658C154.025 75.4124 153.727 75.9124 153.331 76.3289C152.975 76.7327 152.539 77.058 152.05 77.2843C151.562 77.5105 151.032 77.6327 150.493 77.6431C149.331 77.6431 148.775 77.2933 147.947 76.5358C147.7 76.2701 147.503 75.9606 147.369 75.6232C147.413 75.4581 147.49 75.3035 147.594 75.1682C147.699 75.033 147.829 74.9198 147.978 74.8353C148.619 75.0544 148.854 75.6262 149.371 76.0521C149.564 76.2065 149.788 76.3187 150.027 76.3815C150.267 76.4444 150.517 76.4565 150.761 76.4172C151.956 76.189 152.614 74.8475 153.216 73.9258Z" fill="#161616"/>
<path d="M138.058 88.0215C138.895 88.2162 139.488 88.9493 140.279 89.287C140.721 89.5023 141.206 89.6143 141.698 89.6143C142.19 89.6143 142.675 89.5023 143.117 89.287C143.54 89.0679 143.899 88.6786 144.334 88.5265C144.699 88.3987 144.766 88.4747 145.088 88.6421C145.323 89.1927 145.25 89.1957 145.046 89.7311C143.716 90.5859 142.442 91.1121 140.829 90.8718C139.753 90.7106 138.414 90.1113 137.742 89.2535C137.687 88.8176 137.801 88.3772 138.058 88.0215Z" fill="#161616"/>
<path d="M140.436 74.4033L141.062 74.5098C141.3 74.7349 141.503 74.8383 141.567 75.1699C142.033 77.494 141.193 79.5504 139.891 81.406C140.271 82.7475 141.872 82.3916 142.732 83.0791C142.818 83.6236 142.702 83.8061 142.513 84.3141L141.829 84.1924C140.752 83.9582 139.231 83.2403 138.687 82.2425C138.005 80.9983 139.532 80.0127 139.903 78.872L139.964 78.6682C140.436 77.2719 139.9 75.7296 140.436 74.4033Z" fill="#161616"/>
<path d="M203.321 189.996C203.781 190.073 204.227 190.222 204.641 190.437C204.838 191.499 204.705 192.78 204.708 193.878V201.346C202.107 202.359 200.063 203.956 198.691 206.423C197.443 208.662 196.993 211.594 197.778 214.046C198.535 216.443 200.604 218.487 202.816 219.592C203.9 220.156 205.087 220.494 206.306 220.586C207.525 220.678 208.75 220.522 209.906 220.127C211.152 219.681 212.295 218.989 213.267 218.091C214.239 217.193 215.019 216.108 215.561 214.901C216.584 212.438 216.626 209.676 215.677 207.183C214.698 204.652 212.83 202.888 210.36 201.82V190.212H247.423L247.445 195.992C246.918 195.383 246.419 194.699 245.555 194.586C245.295 194.57 245.034 194.607 244.788 194.696C244.543 194.785 244.318 194.924 244.129 195.104C243.892 195.315 243.701 195.573 243.57 195.862C243.439 196.152 243.37 196.465 243.368 196.783C243.391 197.083 243.479 197.375 243.626 197.637C243.773 197.9 243.976 198.127 244.22 198.304C244.434 198.469 244.679 198.589 244.94 198.657C245.201 198.726 245.474 198.741 245.741 198.702C246.051 198.648 246.346 198.53 246.608 198.355C246.869 198.181 247.092 197.954 247.262 197.689L247.347 197.571C247.721 198.146 247.511 200.217 247.514 200.975C245.522 201.763 243.961 202.684 242.568 204.36C241.739 205.386 241.123 206.568 240.758 207.835C240.392 209.103 240.284 210.43 240.439 211.74C240.556 212.984 240.92 214.191 241.508 215.293C242.096 216.395 242.897 217.369 243.864 218.159C245.883 219.779 248.459 220.538 251.034 220.273L251.338 220.233C252.091 220.144 252.829 219.953 253.532 219.668C256.184 218.597 257.717 216.756 258.812 214.207L258.919 213.903C259.704 211.369 259.652 208.552 258.414 206.167C257.346 204.099 254.983 202.064 252.768 201.34L252.744 190.264C255.786 190.264 258.8 190.264 261.83 190.264C263.278 190.264 264.854 190.136 266.277 190.328C266.662 190.36 267.027 190.51 267.324 190.757C267.932 191.298 268.021 191.973 268.09 192.749C268.252 194.465 268.139 196.29 268.142 198.021C268.142 201.416 268.142 204.811 268.142 208.205C268.142 211.308 268.142 214.411 268.142 217.514C268.142 219.059 268.255 220.69 268.1 222.223C268.066 222.688 267.88 223.13 267.57 223.479C267.096 223.999 266.676 224.027 265.992 224.039C259.025 224.142 252.044 224.063 245.078 224.069C234.61 224.069 224.146 224.139 213.678 224.097C208.83 224.075 203.981 224.097 199.132 224.097C196.826 224.097 194.283 224.288 192.001 223.999C191.447 223.931 190.933 223.677 190.541 223.278C190.21 222.92 190.008 222.462 189.966 221.976C189.689 219.147 189.933 216.093 189.936 213.234C189.936 207.117 189.936 200.998 189.936 194.875C191.848 195.611 193.919 195.834 195.944 195.52C199.418 194.897 201.431 192.749 203.321 189.996Z" fill="#BA68C8"/>
<path d="M231.787 214.265C232.541 214.265 234.525 214.064 235.078 214.46C235.094 215.022 235.203 215.208 234.823 215.643C233.969 215.751 233.105 215.76 232.249 215.67C231.912 215.615 231.75 215.588 231.583 215.244C231.416 214.901 231.638 214.599 231.787 214.265Z" fill="#161616"/>
<path d="M233.748 205.364C234.323 205.364 234.995 205.291 235.43 205.668V206.429C234.989 206.86 234.381 206.708 233.779 206.705C233.128 206.705 232.258 206.845 231.719 206.489C231.637 206.186 231.66 205.864 231.786 205.577C232.215 205.248 233.198 205.37 233.748 205.364Z" fill="#161616"/>
<path d="M223.154 205.467C223.942 205.409 226.598 205.184 227.152 205.601C227.349 206.13 227.273 206.209 227.121 206.733C226.172 206.812 224.104 207.037 223.273 206.656C222.96 206.066 223.002 206.075 223.154 205.467Z" fill="#161616"/>
<path d="M222.938 214.411C224.173 214.411 225.792 214.183 226.972 214.493C227.209 214.91 227.087 215.32 227.024 215.771C225.916 215.807 224.179 215.999 223.175 215.579C222.902 215.114 222.938 214.94 222.938 214.411Z" fill="#161616"/>
<path d="M194 218.374C194.587 218.35 195.299 218.234 195.782 218.63C195.961 218.782 196.094 218.98 196.168 219.203C196.242 219.425 196.254 219.664 196.202 219.892C196.141 220.364 195.731 220.641 195.39 220.927C194.864 220.966 194.27 221.048 193.841 220.665C193.66 220.521 193.515 220.335 193.419 220.123C193.323 219.912 193.279 219.68 193.291 219.448C193.309 218.986 193.702 218.672 194 218.374Z" fill="#161616"/>
<path d="M262.985 218.219C263.502 218.261 264.022 218.298 264.387 218.727C264.795 219.207 264.716 219.715 264.622 220.287C264.31 220.686 263.886 220.983 263.405 221.139C262.812 221.005 262.234 220.856 261.911 220.287C261.817 220.107 261.764 219.908 261.754 219.705C261.744 219.502 261.778 219.299 261.854 219.11C262.057 218.608 262.547 218.42 262.985 218.219Z" fill="#161616"/>
<path d="M212.389 194.636L212.854 194.654C213.149 194.707 213.428 194.828 213.669 195.006C213.91 195.184 214.107 195.416 214.244 195.682C214.404 195.956 214.5 196.262 214.528 196.577C214.555 196.893 214.512 197.21 214.402 197.507C214.171 198.164 213.56 198.463 212.967 198.724L212.094 198.606C211.836 198.536 211.596 198.413 211.389 198.244C211.183 198.075 211.014 197.865 210.895 197.626C210.755 197.374 210.671 197.095 210.649 196.808C210.628 196.52 210.669 196.232 210.77 195.962C211.081 195.238 211.704 194.931 212.389 194.636Z" fill="#161616"/>
<path d="M221.809 195.591C225.657 195.64 229.511 195.61 233.368 195.613C234.354 195.613 236.806 195.348 237.627 195.823C237.831 196.3 237.776 196.407 237.688 196.905H222.074C221.639 196.416 221.772 196.209 221.809 195.591Z" fill="#161616"/>
<path d="M261.768 194.054C262.272 193.979 262.785 193.979 263.289 194.054C263.982 194.194 264.576 194.799 264.907 195.395C265.083 195.707 265.192 196.052 265.226 196.408C265.261 196.765 265.221 197.124 265.108 197.464C264.828 198.34 264.195 198.757 263.41 199.164L262.148 199.201C261.784 199.126 261.438 198.98 261.131 198.771C260.824 198.562 260.56 198.295 260.356 197.984C260.155 197.702 260.013 197.381 259.939 197.043C259.866 196.704 259.862 196.353 259.927 196.013C260.174 194.991 260.919 194.531 261.768 194.054Z" fill="#161616"/>
<path d="M121.077 116.009C121.427 116.331 121.655 117.25 121.856 117.718C122.178 118.464 122.574 119.169 122.963 119.878C122.475 120.222 122.021 120.611 121.606 121.04C120.834 121.874 119.952 123.267 120 124.441C120.304 124.8 120.35 124.745 120.834 124.812C121.564 124.319 121.792 123.209 122.276 122.476C122.668 121.93 123.124 121.434 123.635 120.998C124.841 122.714 126.177 124.336 127.63 125.85C126.997 127.066 126.318 128.35 125.966 129.689C125.98 129.84 126.025 129.988 126.097 130.122C126.169 130.256 126.267 130.375 126.385 130.47H126.842C127.687 129.847 128.104 127.903 128.682 126.933L128.773 126.78C130.378 128.105 132.128 129.243 133.99 130.172C133.662 131.389 133.288 132.621 133.233 133.88C133.625 134.185 133.747 134.127 134.234 134.127C134.766 133.549 134.988 131.596 135.216 130.781C136.985 131.425 138.817 131.878 140.683 132.131C140.683 133.044 140.485 134.893 140.987 135.608C141.471 135.715 141.474 135.736 141.9 135.511C142.398 134.747 142.055 133.102 142.006 132.165C144.495 132.045 146.953 131.568 149.307 130.75C149.59 131.544 149.727 133.321 150.311 133.82C150.858 133.82 150.864 133.871 151.257 133.5C151.391 132.375 150.819 131.292 150.344 130.3C152.531 129.341 154.596 128.123 156.495 126.674C156.988 127.587 157.219 128.858 157.843 129.622C158.037 129.698 158.251 129.708 158.451 129.649C158.734 129.573 158.728 129.409 158.859 129.165C158.761 127.839 158.077 127.036 157.338 125.993C159.132 124.472 160.553 122.732 162.074 120.949C162.474 121.556 162.782 122.22 162.987 122.917C163.148 123.559 163.184 124.246 163.431 124.861C163.553 124.928 163.689 124.968 163.829 124.975C163.968 124.983 164.108 124.96 164.237 124.907C164.574 124.383 164.581 124.161 164.541 123.538C164.398 122.172 163.799 120.895 162.841 119.912C163.5 118.72 164.011 117.452 164.362 116.137C169.457 118.902 174.65 121.877 179.076 125.64C183.004 128.968 186.391 132.887 189.114 137.257C191.907 141.762 193.945 146.775 195.73 151.746C196.923 155.071 198.164 158.673 198.468 162.207C197.449 163.522 195.779 164.793 194.374 165.687C193.68 163.655 190.398 153.52 189.452 152.589C189.3 152.56 189.145 152.567 188.996 152.609C188.848 152.651 188.711 152.726 188.597 152.829C188.478 153.839 189.315 155.415 189.668 156.412C190.854 159.743 192.12 163.041 193.318 166.366L187.672 168.59C186.857 166.308 186.069 164.027 185.284 161.721C184.804 160.315 184.302 158.177 183.386 157.057C182.939 156.978 182.945 157 182.55 157.234C182.337 158.347 185.789 167.163 186.41 168.888C184.637 169.231 182.837 169.414 181.032 169.435C180.119 166.877 179.231 164.291 178.394 161.705C178.038 160.616 177.695 158.393 176.931 157.608C176.588 157.659 176.269 157.815 176.018 158.055C175.854 158.91 176.672 160.659 176.971 161.55C177.856 164.209 178.723 166.868 179.638 169.514C177.53 169.411 175.541 169.481 173.895 167.951C172.411 166.567 171.504 163.342 171.528 161.298C171.528 159.868 171.948 158.378 172.179 156.969C172.575 154.536 172.937 152.102 173.414 149.705C173.661 148.458 174.169 147.086 174.108 145.82C173.99 145.698 173.848 145.602 173.691 145.537C173.534 145.471 173.365 145.438 173.195 145.44C172.754 145.869 172.727 146.353 172.587 146.961C171.723 151.375 170.905 155.816 170.275 160.273C168.985 169.399 168.228 178.622 163.668 186.863C156.872 188.445 149.657 189.065 142.678 189.065C135.283 189.065 128.381 188.457 121.144 186.82C119.958 184.32 118.735 181.847 117.825 179.215C115.909 173.703 115.285 167.622 114.619 161.848C114.315 159.202 113.098 143.995 112.429 143.061L111.918 142.985C111.738 143.101 111.519 143.155 111.474 143.381C111.258 144.415 111.635 146.024 111.753 147.119C112.177 151.001 112.593 154.885 113.001 158.773C113.15 160.185 113.585 161.955 113.408 163.354C113.149 164.66 112.632 165.901 111.887 167.005C110.497 168.809 108.447 169.049 106.354 169.377C107.063 166.868 107.653 164.306 108.264 161.772C108.529 160.671 109.067 159.339 108.967 158.213C108.85 158.122 108.716 158.055 108.573 158.016C108.43 157.978 108.28 157.968 108.133 157.988C107.279 158.901 105.569 167.753 105.192 169.411L99.3117 169.28C99.7041 167.397 100.13 165.511 100.602 163.646C100.951 162.253 101.319 160.863 101.666 159.467C101.815 158.858 102.089 158.225 101.834 157.641C101.554 157.492 101.232 157.442 100.921 157.501C100.313 158.079 98.3079 167.671 98.0493 169.152C96.0864 168.779 94.1727 168.182 92.3456 167.373L96.1937 153.197C96.2758 152.799 96.3214 152.729 96.0994 152.397C95.6309 152.294 95.5396 152.202 95.1046 152.434C94.481 153.955 94.1312 155.695 93.7114 157.282C92.8718 160.44 92.0779 163.625 91.1379 166.755C89.8298 166.132 88.2723 165.04 87.5544 163.735C86.3224 161.496 87.5544 158 88.2054 155.704C88.9324 153.115 89.6686 150.532 90.639 148.023C94.8978 137.145 101.724 128.089 111.422 121.557C114.488 119.501 117.868 117.834 121.077 116.009Z" fill="#BA68C8"/>
</svg>
