<?xml version="1.0" encoding="iso-8859-1"?>
<!-- Generator: Adobe Illustrator 15.0.0, SVG Export Plug-In . SVG Version: 6.00 Build 0)  -->
<!DOCTYPE svg PUBLIC "-//W3C//DTD SVG 1.1//EN" "http://www.w3.org/Graphics/SVG/1.1/DTD/svg11.dtd">
<svg version="1.1" id="Ebene_1_Kopie_Kopie_Kopie" xmlns="http://www.w3.org/2000/svg" xmlns:xlink="http://www.w3.org/1999/xlink"
	 x="0px" y="0px" width="128px" height="128px" viewBox="0 0 128 128" style="enable-background:new 0 0 128 128;"
	 xml:space="preserve">
<g>
	<g>
		<g>
			<path style="fill:#404547;" d="M118.288,101.717L91.047,54.563c-0.732-1.273-2.091-2.053-3.556-2.053s-2.823,0.78-3.556,2.053
				l-27.386,47.427c-0.732,1.267-0.732,2.843,0,4.097c0.732,1.287,2.091,2.075,3.559,2.075h54.769c0.007-0.001,0.014-0.001,0.019,0
				c2.268,0,4.104-1.837,4.104-4.11C119,103.189,118.729,102.39,118.288,101.717z"/>
		</g>
	</g>
	<g>
		<g>
			<path style="fill:#FFFFFF;" d="M92.325,99.437c0,0.623-0.225,1.169-0.663,1.6c-0.444,0.437-0.975,0.668-1.604,0.668h-5.106
				c-0.638,0-1.185-0.231-1.621-0.668c-0.431-0.431-0.647-0.977-0.647-1.6v-4.869c0-0.654,0.217-1.183,0.647-1.615
				c0.437-0.443,0.983-0.658,1.621-0.658h5.106c0.63,0,1.16,0.224,1.604,0.676c0.438,0.438,0.663,0.979,0.663,1.598V99.437z"/>
		</g>
		<g>
			<path style="fill:#FFFFFF;" d="M92.325,85.568c0,0.641-0.225,1.177-0.663,1.616c-0.444,0.439-0.975,0.652-1.604,0.652h-5.106
				c-0.638,0-1.185-0.213-1.621-0.652c-0.431-0.439-0.647-0.976-0.647-1.616V69.04c0-0.633,0.217-1.18,0.647-1.61
				c0.437-0.437,0.983-0.661,1.621-0.661h5.106c0.63,0,1.16,0.23,1.604,0.674c0.438,0.446,0.663,0.979,0.663,1.598V85.568z"/>
		</g>
	</g>
</g>
<g>
	<path style="fill:none;" d="M87.491,42.509c0.83,0,1.649,0.081,2.452,0.223l12.55-12.894H25.509l38.384,39.436l11.375-19.699
		C77.775,45.217,82.459,42.509,87.491,42.509z"/>
	<path style="fill:none;" d="M98.709,48.063c0.361,0.475,0.695,0.973,0.997,1.497L109,65.648V37.49L98.709,48.063z"/>
	<path style="fill:none;" d="M24.368,98.161h22.924c0.182-0.397,0.377-0.79,0.598-1.173l10.807-18.715l-10.162-10.44L24.368,98.161z
		"/>
	<polygon style="fill:none;" points="19,37.489 19,88.851 41.504,60.61 	"/>
	<linearGradient id="SVGID_1_" gradientUnits="userSpaceOnUse" x1="64.0005" y1="107.918" x2="64.0005" y2="20.1611">
		<stop  offset="0.3" style="stop-color:#426080"/>
		<stop  offset="1" style="stop-color:#819CBD"/>
	</linearGradient>
	<path style="fill:url(#SVGID_1_);" d="M47.292,98.161H24.368l24.167-30.328l10.162,10.44l5.196-8.999L25.509,29.839h76.984
		l-12.55,12.894c3.478,0.617,6.622,2.521,8.766,5.331L109,37.49v28.158l10,17.311V32.957c0-1.694-0.333-3.309-0.92-4.796
		c-1.27-3.223-3.773-5.822-6.934-7.213c-1.613-0.709-3.392-1.109-5.265-1.109H22.118c-1.873,0-3.65,0.4-5.263,1.109
		c-3.161,1.39-5.665,3.989-6.935,7.212C9.333,29.648,9,31.263,9,32.957v62.086c0,1.799,0.365,3.513,1.021,5.074
		c1.348,3.203,3.933,5.756,7.153,7.07c1.527,0.623,3.194,0.974,4.943,0.974h24.505C45.622,104.883,45.844,101.314,47.292,98.161z
		 M19,88.851V37.489L41.504,60.61L19,88.851z"/>
</g>
</svg>
