<svg id="Layer_1" data-name="Layer 1" xmlns="http://www.w3.org/2000/svg" xmlns:xlink="http://www.w3.org/1999/xlink" viewBox="0 0 512 512"><defs><linearGradient id="linear-gradient" x1="245.35" y1="7" x2="245.35" y2="504.95" gradientUnits="userSpaceOnUse"><stop offset="0" stop-color="#728dae"/><stop offset="1" stop-color="#426080"/></linearGradient><linearGradient id="linear-gradient-2" x1="267.47" y1="7" x2="267.47" y2="504.95" xlink:href="#linear-gradient"/></defs><title>1</title><path d="M75.17,261.34C85.45,244.2,95.6,227,105.84,209.81c5.42-9.09,11-18.12,16.36-27.22,5.56-9.36,1.44-16.84-9.32-17-4.12-.06-8.24-.07-12.37-.14-5.71-.09-5.86-.28-3.41-5.3a182.24,182.24,0,0,1,30.55-44.37c13.82-14.85,30.14-26.4,47.59-36.49,1.4-.63,2.82-1.21,4.2-1.88a176.54,176.54,0,0,1,201.37,32.65c24.79,24.25,41.31,53.2,49.05,87.08,1.85,8.07,4.24,11,10.55,11.21,10.8.44,21.63.65,32.44.5a9.55,9.55,0,0,0,9.42-12c-2.13-9.48-4.13-19-6.85-28.33a211.13,211.13,0,0,0-32-64.71c-29.06-40.21-67.06-68.33-114.2-84a240.34,240.34,0,0,0-33.31-8.09c-13-2.36-26.11-2.71-39.15-3.51-14.59-.9-29.13,1.17-43.47,4C186.89,17.53,161.92,26.66,139,41c-13.6,7.2-25.6,16.67-36.79,27-28.08,26-48.77,57-61.18,93.34-.89,2.6-2.27,3.37-4.87,3.27-5.49-.21-11-.19-16.49-.17-10.31,0-14.46,7.19-9.37,16.26Q32.83,221,55.46,261.11C61,270.89,69.37,271,75.17,261.34Z" style="fill:url(#linear-gradient)"/><path d="M501.21,340.08c-5.83-10.29-11.88-20.46-17.66-30.77-9.46-16.89-18.64-33.95-28.24-50.76-4.05-7.1-13-7.16-17.27-.11q-24.83,41.21-49.23,82.68c-4.16,7.06.15,14.57,8.37,15.17,3.59.26,7.21.11,10.82.14,6.26.05,6.25,0,3.22,5.47-12.24,21.91-28.84,40-48.51,55.39-11.42,7.54-22.92,14.92-35.57,20.35-35.05,15.05-71.2,19-108.48,10.62-16.28-3.66-32-8.93-46.77-17A176.74,176.74,0,0,1,83.28,313c-1.46-6.56-4.56-9.49-10.84-9.67-10.47-.3-21-.43-31.43-.32-6.68.07-10.94,5.63-9.76,12.23A227.6,227.6,0,0,0,244.93,503.68a224.71,224.71,0,0,0,94.78-15.33c21-8.26,40.71-18.94,58.16-33.47,18.62-13.82,33.74-31,47.09-49.76a205.91,205.91,0,0,0,23.57-43.81c1.23-3.1,2.74-4.19,6-4,5.48.28,11,.16,16.48.2C502.93,357.56,507.11,350.51,501.21,340.08Z" style="fill:url(#linear-gradient-2)"/><rect width="0.44" height="0.44" style="fill:none"/><rect y="511.56" width="0.44" height="0.44" style="fill:none"/><rect x="511.56" y="511.56" width="0.44" height="0.44" style="fill:none"/><rect x="511.56" width="0.44" height="0.44" style="fill:none"/></svg>