<svg id="Layer_1" data-name="Layer 1" xmlns="http://www.w3.org/2000/svg" xmlns:xlink="http://www.w3.org/1999/xlink" viewBox="0 0 512 512"><defs><linearGradient id="linear-gradient" x1="234.89" y1="7.48" x2="234.89" y2="502.81" gradientUnits="userSpaceOnUse"><stop offset="0" stop-color="#728dae"/><stop offset="1" stop-color="#426080"/></linearGradient><linearGradient id="linear-gradient-2" x1="266" y1="7.48" x2="266" y2="502.81" xlink:href="#linear-gradient"/><linearGradient id="linear-gradient-3" x1="373.51" y1="7.48" x2="373.51" y2="502.81" xlink:href="#linear-gradient"/><linearGradient id="linear-gradient-4" x1="442.99" y1="7.48" x2="442.99" y2="502.81" xlink:href="#linear-gradient"/><linearGradient id="linear-gradient-5" x1="203.64" y1="7.48" x2="203.64" y2="502.81" xlink:href="#linear-gradient"/></defs><title>1</title><path d="M424.07,197.86c0-4.72-2.39-9.17-6.32-13.07Q392.27,159.47,366.93,134c-11.1-11.1-20.39-11.13-31.43-.09L85.11,384.25c-11,11-22.22,22-33.16,33.12-8,8.12-8.38,18.64-.77,26.37q27.16,27.59,54.77,54.75c7.56,7.44,17.79,7.24,25.64.13,1.13-1,2.19-2.13,3.27-3.21l281-280.94c1.32-1.32,2.68-2.61,3.88-4A18.51,18.51,0,0,0,424.07,197.86Zm-28.61,5.23q-48,48.15-96.12,96.21c-2.06,2.07-3.12,1.47-4.83-.25-14.49-14.57-29-29.12-43.64-43.52-2.38-2.34-1.91-3.49.18-5.58q47.64-47.45,95.12-95.05c2.52-2.52,5.28-4.23,8.9-4,3.53-.13,6.23,1.44,8.6,3.82,10.55,10.58,21.18,21.09,31.66,31.73C400.5,191.67,400.61,197.91,395.45,203.09Z" style="fill:url(#linear-gradient)"/><path d="M253.09,92.12l12.49,44.19,1.1-.21,12.41-44c.72-4.36,3.29-6.34,7.67-7.15,5.26-1,10.38-2.74,15.54-4.23,9.41-2.71,18.8-5.48,29.52-8.6-16.4-4.74-31.33-9.24-46.38-13.26-3.73-1-5.18-2.87-6.12-6.27-3.7-13.4-7.58-26.75-11.49-40.09-.42-1.42-.35-3.25-2.11-4.5-4.3,15.07-8.63,29.69-12.57,44.42-1,3.64-2.73,5.17-6.24,6.14-15.16,4.23-30.24,8.77-46.72,13.61,16.07,4.59,30.75,8.93,45.53,12.92C249.71,86.17,252.34,88,253.09,92.12Z" style="fill:url(#linear-gradient-2)"/><path d="M367.06,70.35c1.68,7.08,4,14,6.39,22.44,2.62-9.27,4.9-16.9,6.9-24.6.87-3.34,2.64-4.9,6-5.71,7.52-1.82,14.92-4.14,23.71-6.64-9.44-2.75-17.37-5.17-25.38-7.33-2.83-.76-3.91-2.14-4.58-5.09-1.74-7.64-4.16-15.13-6.67-24-2.64,9.1-5,16.86-7.09,24.7a5.28,5.28,0,0,1-4.27,4.28c-8,2.18-15.92,4.63-25.15,7.35,8.13,2.48,15,5.14,22.06,6.54C364,63.3,366,65.74,367.06,70.35Z" style="fill:url(#linear-gradient-3)"/><path d="M466.2,232c-4.22-1.2-8.39-2.65-12.68-3.53-3.51-.72-5-2.66-5.81-6-1-4.25-2.37-8.4-3.93-13.8-1.67,5.64-3.14,10.11-4.29,14.65-.65,2.58-1.83,4-4.57,4.65-4.76,1.12-9.4,2.73-15.24,4.48,5.29,1.6,9.53,3.22,13.92,4.1,3.74.75,5.21,2.71,6.11,6.24,1.1,4.31,1.82,8.83,4.29,13.26,1.53-5.22,3.13-9.87,4.18-14.63.61-2.79,2.1-3.91,4.62-4.57,4.53-1.19,9-2.58,13.5-3.89Z" style="fill:url(#linear-gradient-4)"/><path d="M199.67,146c.94,4.28,2.32,8.46,3.51,12.69l1.07,0c1.25-4.34,2.71-8.63,3.67-13,.71-3.25,2.41-4.79,5.57-5.56,4.24-1,8.6-1.92,13.45-4.42-5.2-1.5-9.35-2.94-13.61-3.83-3.31-.69-4.73-2.49-5.48-5.62-1-4.36-2.51-8.62-4.16-14.11-1.54,5.36-2.93,9.35-3.78,13.45-.74,3.59-2.49,5.44-6.11,6.31-4.3,1-8.73,1.94-13.48,4.39,5,1.43,9.19,2.82,13.45,3.77C197.22,140.8,198.93,142.64,199.67,146Z" style="fill:url(#linear-gradient-5)"/><rect width="0.44" height="0.44" style="fill:none"/><rect y="511.56" width="0.44" height="0.44" style="fill:none"/><rect x="511.56" y="511.56" width="0.44" height="0.44" style="fill:none"/><rect x="511.56" width="0.44" height="0.44" style="fill:none"/></svg>